<svg id="Layer_1" data-name="Layer 1" xmlns="http://www.w3.org/2000/svg" viewBox="0 0 1962 1005.1"><defs><style>.cls-1{fill:#fff;}.cls-2{fill:#565b68;}.cls-10,.cls-11,.cls-13,.cls-3,.cls-4,.cls-5,.cls-7,.cls-8,.cls-9{isolation:isolate;}.cls-10,.cls-11,.cls-13,.cls-4,.cls-5,.cls-7,.cls-8,.cls-9{font-size:30px;font-family:SourceSansPro-Regular, Source Sans Pro;}.cls-5{letter-spacing:0em;}.cls-6{letter-spacing:0em;}.cls-15,.cls-7{letter-spacing:-0.02em;}.cls-12,.cls-8{letter-spacing:-0.01em;}.cls-9{letter-spacing:-0.07em;}.cls-10{letter-spacing:-0.05em;}.cls-11{letter-spacing:-0.02em;}.cls-13{letter-spacing:-0.02em;}.cls-14{letter-spacing:-0.04em;}.cls-16{letter-spacing:-0.03em;}</style></defs><g id="Live_Type" data-name="Live Type"><rect class="cls-1" width="1962" height="1005.1"/><path class="cls-2" d="M704.76,732c3.36,33.69,7.22,35.21,39.46,29.29-16.13,27.88-14.69,33.41,15.13,46.23-28,13.4-32.55,17.61-15.4,45.72-.64,1.27-1.38,1-2.1.81-29.66-7.47-34.76-.45-37,28.66-13.2-11.23-22.51-28.15-39.41-9.7-3.36,2.42-6,8.3-9.8,9.26-4.6-32.3-7-34.68-39.73-27.86,14.14-24.89,16.94-33.55-12.43-45.21-.86-.4-1.81-.64-2.1-2,29.65-12.47,30.73-18.88,14.42-46.06,28.3,5.11,36.86,6.58,39.14-25.74.11-.92,0-1.93,1.31-2.58C677.25,757.05,684.13,755.72,704.76,732Z" transform="translate(3.01)"/><path class="cls-2" d="M1065.88,807.43c-48.77,53.49-110.91,53.24-160.15.51C954.5,754.2,1016.25,755.21,1065.88,807.43Z" transform="translate(3.01)"/><path class="cls-2" d="M1291,733.63c5.31,35.85,25.9,65.53,33.35,100.48,9.61,36.43-27.07,74.74-57.91,42C1236.32,832.81,1288.17,780,1291,733.63Z" transform="translate(3.01)"/><g class="cls-3"><text class="cls-4" transform="translate(1691.69 623.22)">Fl</text><text class="cls-5" transform="translate(1714.19 623.22)">o<tspan class="cls-6" x="16.14" y="0">w</tspan></text><text class="cls-4" transform="translate(1751.75 623.22)">er</text></g><g class="cls-3"><text class="cls-4" transform="translate(626.32 936.9)">Sunbu</text><text class="cls-4" transform="translate(708.01 936.9)">r</text><text class="cls-7" transform="translate(718.33 936.9)">s</text><text class="cls-4" transform="translate(730.3 936.9)">t</text></g><g class="cls-3"><text class="cls-8" transform="translate(966.66 936.9)">E</text><text class="cls-4" transform="translate(982.17 936.9)">y</text><text class="cls-4" transform="translate(996.09 936.9)">e</text></g><g class="cls-3"><text class="cls-9" transform="translate(1233.7 936.9)">T</text><text class="cls-8" transform="translate(1247.8 936.9)">e</text><text class="cls-4" transform="translate(1262.26 936.9)">ar D</text><text class="cls-8" transform="translate(1312.3 936.9)">r</text><text class="cls-4" transform="translate(1322.44 936.9)">op</text></g><path class="cls-2" d="M745.11,494.72c1.24-17.31-.83-35.73,4.59-52.62,12.68-39.76,77.86-25,110.58-26.72,37.27.95,46.94,26,46.24,59.27-.37,22.07,1.61,44.43-2.12,66.29-8.45,48-69.25,31.9-104.26,34.63C742.71,575.86,746.05,539.92,745.11,494.72Z" transform="translate(3.01)"/><path class="cls-2" d="M1136.42,571c-22.44-1.63-85.86,2.66-85.33-23.19,7.28-39.23,31-74.17,53.69-106.38,8.27-9.71,19.57-27.85,34.3-19.7,32.5,27.57,51.66,68.41,68.52,106.91,8.91,20.65,5.32,34.63-18.82,37.72C1173.71,569.14,1149.21,570.76,1136.42,571Z" transform="translate(3.01)"/><path class="cls-2" d="M295.05,495.23c-26,27.2-53.23,53.26-79.54,80C188,549.88,161.42,522.15,135,495.34c2.94-3.81,75.69-76.58,80-80C242.1,441.47,268.72,468.29,295.05,495.23Z" transform="translate(3.01)"/><path class="cls-2" d="M1447.05,485.16c17.87-5.85,34.15-16.24,53.54-16.2,21.1-1.57,17.49,26.6,15.73,40.57-5,28-52.93.46-68.43-3.82-1.48,2.39,1.72,5.35,2.35,7.8,5.6,13.59,24.67,52.82,4.32,60.07-12.23,2.67-42.07,6.72-43.57-11-1.12-18.56,7.32-35.78,14.58-52.35,4.39-8-3.71-3.25-7.29-1.6-14.61,6.64-30.17,12.91-46.44,13-19.9-.59-15.27-28-13.76-41.34,5.89-26.71,53.24-.13,68.74,5-3.6-13.55-11.84-25.81-14.25-40-5.23-21.18-.71-30.93,22.38-30.53,10.23.11,27.61-.62,28.31,13.17C1464.66,448.51,1454.05,466.52,1447.05,485.16Z" transform="translate(3.01)"/><path class="cls-2" d="M520.1,420.4c7.87,18.56,11.92,38,18.81,56.78,19.56,2,39.73-.61,59.53,0,.39,1.88-1,2.22-1.79,2.81-15.16,10.78-30.52,21.5-45.64,32.31,3.45,19.57,14.08,38,17.54,57.65-16.78-11.36-31.5-23.56-48.1-35-16.34,11.16-31.71,23.72-47.88,35.1-1.21-.62-.75-1.33-.53-2,6-18.25,12.41-36.4,18.24-54.72-15.41-12.66-32.58-22.74-48.19-35.18,19.28-2.52,39.84.56,59.65-.4C508.46,458.2,513.5,440.18,520.1,420.4Z" transform="translate(3.01)"/><text class="cls-4" transform="translate(160.45 623.25)">Diamond</text><g class="cls-3"><text class="cls-7" transform="translate(498.11 623.25)">S</text><text class="cls-7" transform="translate(513.41 623.25)">t</text><text class="cls-4" transform="translate(522.95 623.25)">ar</text></g><g class="cls-3"><text class="cls-4" transform="translate(777.55 623.25)">Squi</text><text class="cls-8" transform="translate(833.95 623.25)">r</text><text class="cls-4" transform="translate(844.09 623.25)">cle</text></g><g class="cls-3"><text class="cls-8" transform="translate(1077.6 623.25)">R</text><text class="cls-4" transform="translate(1094.4 623.25)">ounded </text><text class="cls-7" transform="translate(1083.77 659.25)">P</text><text class="cls-4" transform="translate(1100.06 659.25)">oly</text><text class="cls-8" transform="translate(1138 659.25)">g</text><text class="cls-4" transform="translate(1152.73 659.25)">on</text></g><g class="cls-3"><text class="cls-4" transform="translate(1400.09 623.25)">Cl</text><text class="cls-5" transform="translate(1424.87 623.25)">o<tspan class="cls-6" x="16.14" y="0">v</tspan></text><text class="cls-4" transform="translate(1454.93 623.25)">er</text></g><path class="cls-2" d="M295.71,216.75c-53.78-.29-107,.55-160-.32-2.08-52.51-.48-106.63-.7-159.63,1.33-1.47,2.93-1.15,4.41-1.15h31.49c41.43.71,83.47-1.38,124.6.77C296.14,63.07,297,172,295.71,216.75Z" transform="translate(3.01)"/><path class="cls-2" d="M601.38,136.4c-1.13,105.63-160.44,104.9-160.89-.24C441.8,30.78,599.86,30.23,601.38,136.4Z" transform="translate(3.01)"/><path class="cls-2" d="M1663,118.47c3.88-3.6,76-56,80.59-58.48,26.52,19.08,53,38.71,79.7,57.74-9.18,31.64-19.81,63.62-30.74,94.6-4,.57-62.22,1.58-98.71.22C1691.72,208.22,1665.52,128.21,1663,118.47Z" transform="translate(3.01)"/><path class="cls-2" d="M905.76,205.11c-52.33,1.79-106.08.88-158.78.52,24.92-46.42,52.57-92.13,79.13-137.8C854,112,880.29,159.28,905.76,205.11Z" transform="translate(3.01)"/><path class="cls-2" d="M1516.65,205.92c-53.52-.58-106.65,1.1-159.09-.62-.19-6.12-2.15-118.12.08-137C1411,112.57,1465,159.32,1516.65,205.92Z" transform="translate(3.01)"/><path class="cls-2" d="M1211.22,171H1053.65c-.45-1.9.86-2.35,1.63-3q21.83-19,43.7-37.9c11.18-9.06,21.42-19.79,33.11-28C1136.72,106,1203.4,161.33,1211.22,171Z" transform="translate(3.01)"/><g class="cls-3"><text class="cls-4" transform="translate(173.77 263.87)">Squa</text><text class="cls-8" transform="translate(237.88 263.87)">r</text><text class="cls-4" transform="translate(248.02 263.87)">e</text></g><g class="cls-3"><text class="cls-4" transform="translate(488.89 263.87)">Ci</text><text class="cls-8" transform="translate(513.43 263.87)">r</text><text class="cls-4" transform="translate(523.57 263.87)">cle</text></g><g class="cls-3"><text class="cls-10" transform="translate(774.7 263.87)">T</text><text class="cls-4" transform="translate(789.4 263.87)">riangle,</text><text class="cls-8" transform="translate(761.65 299.87)">E</text><text class="cls-4" transform="translate(777.16 299.87)">quil</text><text class="cls-11" transform="translate(825.19 299.87)">a<tspan class="cls-12" x="14.43" y="0">t</tspan></text><text class="cls-4" transform="translate(849.64 299.87)">e</text><text class="cls-7" transform="translate(864.52 299.87)">r</text><text class="cls-4" transform="translate(874.24 299.87)">al</text></g><g class="cls-3"><text class="cls-10" transform="translate(1080.7 263.87)">T</text><text class="cls-4" transform="translate(1095.4 263.87)">riangle,</text><text class="cls-4" transform="translate(1079.17 299.87)">Isos</text><text class="cls-13" transform="translate(1128.46 299.87)">c</text><text class="cls-4" transform="translate(1141.51 299.87)">eles</text></g><g class="cls-3"><text class="cls-10" transform="translate(1384.7 263.87)">T</text><text class="cls-4" transform="translate(1399.4 263.87)">riangle,</text><text class="cls-4" transform="translate(1406.25 299.87)">Right</text></g><g class="cls-3"><text class="cls-13" transform="translate(1650.9 281.21)">N-sided <tspan class="cls-14" x="98.31" y="0">P</tspan><tspan class="cls-15" x="114" y="0">oly</tspan><tspan class="cls-16" x="150.21" y="0">g</tspan><tspan x="164.34" y="0">on</tspan></text><text class="cls-3" x="3.01"/><text class="cls-3" x="3.01"/><text class="cls-3" x="3.01"/><text class="cls-3" x="3.01"/><text class="cls-3" x="3.01"/></g><path class="cls-2" d="M1731.49,470c2-1.24,2.14-3.32,2.79-5,2.1-5.5,3.91-11.1,6.06-16.57a125.3,125.3,0,0,1,11.46-22.86,75,75,0,0,1,5.86-7.69,15.38,15.38,0,0,1,3.94-3.19c2.18-1.27,4.14-.4,4.94,1.94a17.83,17.83,0,0,1,.45,7.89,88.65,88.65,0,0,1-5.87,22.53c-3.1,7.74-6.61,15.32-10,23-.91,2.07-1.91,4.1-3.11,6.66,1.27.07,2.21.41,2.87.11,3.12-1.36,6.17-2.91,9.25-4.38,11.49-5.48,23.19-10.41,35.76-12.82a67.88,67.88,0,0,1,10.17-.88,9.51,9.51,0,0,1,3.81.87,2.63,2.63,0,0,1,1.57,3.37,2.68,2.68,0,0,1-.19.42,17.29,17.29,0,0,1-3.36,4.51,81.12,81.12,0,0,1-9.08,6.81c-9.19,5.8-19.16,10-29.33,13.69-3.56,1.3-7.17,2.45-10.73,3.75a19.23,19.23,0,0,0-2.71,1.49c.41,2,1.94,2.12,3.09,2.55,4.63,1.7,9.33,3.2,13.94,4.94a139.71,139.71,0,0,1,25.6,12.27,95.61,95.61,0,0,1,9.11,6.78,15.55,15.55,0,0,1,3.17,4c1.28,2.13.45,4.19-2,4.88a18.9,18.9,0,0,1-4.49.55c-4.4.14-8.66-.85-12.9-1.91a162.88,162.88,0,0,1-29.79-11.09c-3.26-1.53-6.47-3.19-9.74-4.68a17.42,17.42,0,0,0-3-.78c-.94,1.76.11,2.86.62,4,2.29,5,4.78,9.91,7,14.94a136,136,0,0,1,9,26.34,58.25,58.25,0,0,1,1.38,9,23.37,23.37,0,0,1-.8,6.71,2.75,2.75,0,0,1-4.13,1.67,17.27,17.27,0,0,1-4.86-3.84,107.85,107.85,0,0,1-7.83-11.15A132,132,0,0,1,1739,536.67c-1.67-4.44-3.16-9-4.77-13.41-.51-1.42-1.14-2.8-1.78-4.17-.14-.29-.57-.46-.87-.69-1.79.87-1.87,2.78-2.44,4.31-1.74,4.61-3.22,9.33-5,13.93a133.94,133.94,0,0,1-12.75,26,75.68,75.68,0,0,1-7.06,8.89c-1.49,1.66-3.43,3.4-5.94,2.22-2.19-1-2.4-3.48-2.29-5.47a73.64,73.64,0,0,1,1.43-11.83c2.73-12.7,7.89-24.53,13.51-36.17,1.31-2.72,2.57-5.46,4.09-8.71-1.32,0-2.26-.36-2.94-.07-3,1.28-5.83,2.75-8.74,4.14-10.45,5-21.11,9.46-32.4,12.22-4.61,1.13-9.26,2.14-14,1.7a11.72,11.72,0,0,1-4.25-1.33,2.15,2.15,0,0,1-1-2.85.31.31,0,0,1,0-.1,15.3,15.3,0,0,1,3.19-4.61,99,99,0,0,1,11-8.08,137.37,137.37,0,0,1,24.17-11.53c3.91-1.47,7.86-2.81,11.78-4.23,1.76-.64,3.5-1.34,5-1.92.48-1.67-.46-2.07-1.32-2.39l-8.57-3c-9.67-3.4-19.21-7.13-28.11-12.27a112.79,112.79,0,0,1-11.83-7.85,22.22,22.22,0,0,1-4.81-5.51c-1.36-2-.36-4.19,2.08-4.8a20.54,20.54,0,0,1,4.5-.48,47,47,0,0,1,12.91,1.87,165.85,165.85,0,0,1,29.79,11.14c3.25,1.53,6.46,3.17,9.74,4.67a23.73,23.73,0,0,0,3.81,1c-.76-2-1.18-3.41-1.77-4.7-3.05-6.74-6.34-13.38-9.18-20.21-3.71-9-6.7-18.15-7.87-27.85a16.87,16.87,0,0,1,.46-7.89c.82-2.34,2.78-3.23,4.94-1.92a16.16,16.16,0,0,1,4.33,3.61,95.5,95.5,0,0,1,7,9.7c6.24,10.26,10.63,21.38,14.57,32.69.81,2.33,1.56,4.68,2.45,7A13.83,13.83,0,0,0,1731.49,470Z" transform="translate(3.01)"/></g></svg>