<?xml version="1.0" encoding="utf-8"?>
<!-- Generator: Adobe Illustrator 26.3.1, SVG Export Plug-In . SVG Version: 6.00 Build 0)  -->
<svg version="1.1" id="Layer_1" xmlns="http://www.w3.org/2000/svg" xmlns:xlink="http://www.w3.org/1999/xlink" x="0px" y="0px"
	 viewBox="0 0 600 600" style="enable-background:new 0 0 600 600;" xml:space="preserve">
<style type="text/css">
	.st0{filter:url(#AI_BevelShadow_1);}
	.st1{fill:#F26522;}
	.st2{fill:none;stroke:#F26739;stroke-miterlimit:10;}
	.st3{fill:none;stroke:#00A79D;stroke-width:5;stroke-miterlimit:10;}
	.st4{fill:#F26522;stroke:#F26739;stroke-miterlimit:10;}
	.st5{fill:none;stroke:#04A9B1;stroke-width:5;stroke-miterlimit:10;}
	.st6{fill:none;stroke:#00A79D;stroke-width:7;stroke-miterlimit:10;}
	.st7{fill:none;}
	.st8{fill:#00A79D;stroke:#00746D;stroke-width:7;stroke-miterlimit:10;}
	.st9{fill:#00A79D;stroke:#00746D;stroke-width:8;stroke-miterlimit:10;}
	.st10{fill:#00A79D;stroke:#00746D;stroke-width:5;stroke-miterlimit:10;}
	.st11{filter:url(#AI_Shadow_1);}
	.st12{fill:none;stroke:#FFFFFF;stroke-width:12;stroke-miterlimit:10;}
</style>
<filter  filterUnits="objectBoundingBox" id="AI_Shadow_1">
	<feGaussianBlur  in="SourceAlpha" result="blur" stdDeviation="2"></feGaussianBlur>
	<feOffset  dx="4" dy="4" in="blur" result="offsetBlurredAlpha"></feOffset>
	<feMerge>
		<feMergeNode  in="offsetBlurredAlpha"></feMergeNode>
		<feMergeNode  in="SourceGraphic"></feMergeNode>
	</feMerge>
</filter>
<filter  height="140%" id="AI_BevelShadow_1" width="140%" x="-20%" y="-20%">
	<feGaussianBlur  in="SourceAlpha" result="blur" stdDeviation="4"></feGaussianBlur>
	<feOffset  dx="4" dy="4" in="blur" result="offsetBlur"></feOffset>
	
		<feSpecularLighting  in="blur" result="specOut" specularConstant="1" specularExponent="10" style="lighting-color:white" surfaceScale="5">
		<fePointLight  x="-5000" y="-10000" z="-20000"></fePointLight>
	</feSpecularLighting>
	<feComposite  in="specOut" in2="SourceAlpha" operator="in" result="specOut"></feComposite>
	<feComposite  in="SourceGraphic" in2="specOut" k1="0" k2="1" k3="1" k4="0" operator="arithmetic" result="litPaint">
		</feComposite>
	<feMerge>
		<feMergeNode  in="offsetBlur"></feMergeNode>
		<feMergeNode  in="litPaint"></feMergeNode>
	</feMerge>
</filter>
<g class="st0">
	<polyline class="st1" points="219.53,83.66 192.55,123.13 360.62,159.19 380.14,115.1 	"/>
</g>
<g class="st0">
	<polyline class="st1" points="428.56,126.5 469.07,181.97 377.62,163.97 395.32,119.81 	"/>
</g>
<g class="st0">
	<polyline class="st1" points="444.13,129.05 484,185.63 546.47,197.85 577.64,155.26 	"/>
</g>
<g class="st0">
	<polyline class="st1" points="586.54,158 551.85,206.82 490.16,196.08 556.46,287.24 589.91,159.25 	"/>
</g>
<g class="st0">
	<polyline class="st1" points="359.2,210.45 373.85,174.65 475.43,195.16 552.47,301.36 548.17,316.7 414.89,261.34 427.28,226.97 	
		"/>
</g>
<g class="st0">
	<polyline class="st1" points="276.55,204.98 284.53,189.94 339.43,205.39 354.94,170.09 185.61,134.32 169.74,158 	"/>
</g>
<g class="st0">
	<polyline class="st1" points="161.92,167.73 270.61,218.59 225.22,305.13 289.28,321.99 233.84,451.06 157.63,430.14 136.6,204.98 
			"/>
	<polyline class="st2" points="161.92,167.73 270.61,218.59 225.22,305.13 289.28,321.99 233.84,451.06 157.63,430.14 136.6,204.98 
			"/>
</g>
<g class="st0">
	<polyline class="st1" points="124.61,219.21 140.38,425.68 13.97,389.79 	"/>
</g>
<g class="st0">
	<polyline class="st1" points="309.69,326.12 256.6,458.35 499.63,525.32 544.44,331.96 409.04,276.44 383.96,345.11 	"/>
</g>
<line class="st3" x1="140.38" y1="425.68" x2="124.44" y2="217.03"/>
<path class="st4" d="M56.13,540.72"/>
<path class="st5" d="M157.63,461.47"/>
<line class="st5" x1="136.17" y1="199.69" x2="155" y2="428.77"/>
<line class="st6" x1="159.31" y1="166.5" x2="273.48" y2="219.94"/>
<line class="st3" x1="166.31" y1="156.49" x2="279.82" y2="206.42"/>
<polyline class="st3" points="380.71,113.8 360.62,159.19 190.36,122.66 "/>
<polyline class="st6" points="182.92,133.76 354.94,170.09 339.66,207.48 "/>
<polyline class="st6" points="359.2,211.77 373.85,174.65 475.43,195.16 554.29,303.86 "/>
<polyline class="st6" points="396.38,117.35 377.62,163.97 466.45,181.46 427.34,124.83 "/>
<polyline class="st3" points="444.13,127.36 484,185.63 546.47,197.85 579.15,153.51 "/>
<polyline class="st6" points="588.54,158 551.73,209.11 491.45,197.85 557.83,289.33 "/>
<line class="st3" x1="413.12" y1="260.14" x2="549.96" y2="316.7"/>
<line class="st6" x1="545.64" y1="332.75" x2="407.03" y2="275.37"/>
<line class="st3" x1="290.96" y1="320.18" x2="235.54" y2="452.95"/>
<line class="st6" x1="310.56" y1="324.62" x2="256.6" y2="459.93"/>
<path class="st7" d="M159.31,150.89"/>
<path class="st7" d="M561.22,322.44"/>
<path class="st8" d="M257.04,458.48c0.66,0.3,1.01-0.36,1.01-0.36s0.12-0.63-0.51-0.93c-0.63-0.3-0.93,0.42-0.93,0.42
	S256.44,458.21,257.04,458.48z"/>
<path class="st8" d="M235.25,452.43c0.66,0.3,1.01-0.36,1.01-0.36s0.12-0.63-0.51-0.93c-0.63-0.3-0.93,0.42-0.93,0.42
	S234.65,452.16,235.25,452.43z"/>
<path class="st8" d="M154.49,430.07c0.66,0.3,1.01-0.36,1.01-0.36s0.12-0.63-0.51-0.93c-0.63-0.3-0.93,0.42-0.93,0.42
	S153.89,429.79,154.49,430.07z"/>
<path class="st8" d="M140.09,426.32c0.66,0.3,1.01-0.36,1.01-0.36s0.12-0.63-0.51-0.93c-0.63-0.3-0.93,0.42-0.93,0.42
	S139.49,426.05,140.09,426.32z"/>
<path class="st8" d="M124.67,220.58c0.66,0.3,1.01-0.36,1.01-0.36s0.12-0.63-0.51-0.93c-0.63-0.3-0.93,0.42-0.93,0.42
	S124.07,220.31,124.67,220.58z"/>
<path class="st8" d="M136.32,203.26c0.66,0.3,1.01-0.36,1.01-0.36s0.12-0.63-0.51-0.93c-0.63-0.3-0.93,0.42-0.93,0.42
	S135.72,202.99,136.32,203.26z"/>
<path class="st8" d="M289.95,322.54c0.66,0.3,1.01-0.36,1.01-0.36s0.12-0.63-0.51-0.93c-0.63-0.3-0.93,0.42-0.93,0.42
	S289.35,322.27,289.95,322.54z"/>
<path class="st8" d="M309.69,327.12c0.66,0.3,1.01-0.36,1.01-0.36s0.12-0.63-0.51-0.93c-0.63-0.3-0.93,0.42-0.93,0.42
	S309.08,326.85,309.69,327.12z"/>
<path class="st8" d="M408.45,276.24c0.66,0.3,1.01-0.36,1.01-0.36s0.12-0.63-0.51-0.93c-0.63-0.3-0.93,0.42-0.93,0.42
	S407.85,275.97,408.45,276.24z"/>
<path class="st8" d="M414.54,261.01c0.66,0.3,1.01-0.36,1.01-0.36s0.12-0.63-0.51-0.93c-0.63-0.3-0.93,0.42-0.93,0.42
	S413.94,260.74,414.54,261.01z"/>
<path class="st9" d="M270.38,218.86c0.66,0.3,1.01-0.36,1.01-0.36s0.12-0.63-0.51-0.93s-0.93,0.42-0.93,0.42
	S269.78,218.58,270.38,218.86z"/>
<path class="st8" d="M161.92,168.73c0.66,0.3,1.01-0.36,1.01-0.36s0.12-0.63-0.51-0.93c-0.63-0.3-0.93,0.42-0.93,0.42
	S161.32,168.45,161.92,168.73z"/>
<path class="st8" d="M359.75,211.46c0.66,0.3,1.01-0.36,1.01-0.36s0.12-0.63-0.51-0.93c-0.63-0.3-0.93,0.42-0.93,0.42
	S359.15,211.19,359.75,211.46z"/>
<path class="st8" d="M339.66,206.48c0.66,0.3,1.01-0.36,1.01-0.36s0.12-0.63-0.51-0.93c-0.63-0.3-0.93,0.42-0.93,0.42
	S339.06,206.21,339.66,206.48z"/>
<path class="st8" d="M276.97,205.86c0.66,0.3,1.01-0.36,1.01-0.36s0.12-0.63-0.51-0.93c-0.63-0.3-0.93,0.42-0.93,0.42
	S276.37,205.59,276.97,205.86z"/>
<path class="st8" d="M169.74,158c0.66,0.3,1.01-0.36,1.01-0.36s0.12-0.63-0.51-0.93c-0.63-0.3-0.93,0.42-0.93,0.42
	S169.14,157.73,169.74,158z"/>
<path class="st8" d="M185.61,135.32c0.66,0.3,1.01-0.36,1.01-0.36s0.12-0.63-0.51-0.93c-0.63-0.3-0.93,0.42-0.93,0.42
	S185.01,135.05,185.61,135.32z"/>
<path class="st8" d="M192.97,124c0.66,0.3,1.01-0.36,1.01-0.36s0.12-0.63-0.51-0.93c-0.63-0.3-0.93,0.42-0.93,0.42
	S192.37,123.73,192.97,124z"/>
<path class="st8" d="M353.43,170.38c0.66,0.3,1.01-0.36,1.01-0.36s0.12-0.63-0.51-0.93s-0.93,0.42-0.93,0.42
	S352.83,170.11,353.43,170.38z"/>
<path class="st8" d="M373.85,174.65c0.66,0.3,1.01-0.36,1.01-0.36s0.12-0.63-0.51-0.93c-0.63-0.3-0.93,0.42-0.93,0.42
	S373.25,174.38,373.85,174.65z"/>
<path class="st8" d="M377.62,163.97c0.66,0.3,1.01-0.36,1.01-0.36s0.12-0.63-0.51-0.93c-0.63-0.3-0.93,0.42-0.93,0.42
	S377.02,163.7,377.62,163.97z"/>
<path class="st8" d="M359.75,159.84c0.66,0.3,1.01-0.36,1.01-0.36s0.12-0.63-0.51-0.93s-0.93,0.42-0.93,0.42
	S359.15,159.57,359.75,159.84z"/>
<path class="st8" d="M379.35,116.17c0.66,0.3,1.01-0.36,1.01-0.36s0.12-0.63-0.51-0.93c-0.63-0.3-0.93,0.42-0.93,0.42
	S378.75,115.9,379.35,116.17z"/>
<path class="st8" d="M395.35,120.46c0.66,0.3,1.01-0.36,1.01-0.36s0.12-0.63-0.51-0.93c-0.63-0.3-0.93,0.42-0.93,0.42
	S394.74,120.19,395.35,120.46z"/>
<path class="st8" d="M428.05,126.79c0.66,0.3,1.01-0.36,1.01-0.36s0.12-0.63-0.51-0.93c-0.63-0.3-0.93,0.42-0.93,0.42
	S427.45,126.52,428.05,126.79z"/>
<path class="st10" d="M445.13,130.05c0.66,0.3,1.01-0.36,1.01-0.36s0.12-0.63-0.51-0.93c-0.63-0.3-0.93,0.42-0.93,0.42
	S444.52,129.78,445.13,130.05z"/>
<path class="st8" d="M543.86,332.83c0.66,0.3,1.01-0.36,1.01-0.36s0.12-0.63-0.51-0.93s-0.93,0.42-0.93,0.42
	S543.26,332.56,543.86,332.83z"/>
<path class="st8" d="M548.94,317.06c0.66,0.3,1.01-0.36,1.01-0.36s0.12-0.63-0.51-0.93s-0.93,0.42-0.93,0.42
	S548.34,316.79,548.94,317.06z"/>
<path class="st8" d="M552.18,302.79c0.66,0.3,1.01-0.36,1.01-0.36s0.12-0.63-0.51-0.93s-0.93,0.42-0.93,0.42
	S551.58,302.51,552.18,302.79z"/>
<path class="st10" d="M555.88,287.11c0.66,0.3,1.01-0.36,1.01-0.36s0.12-0.63-0.51-0.93s-0.93,0.42-0.93,0.42
	S555.28,286.84,555.88,287.11z"/>
<path class="st8" d="M550.45,208.73c0.66,0.3,1.01-0.36,1.01-0.36s0.12-0.63-0.51-0.93c-0.63-0.3-0.93,0.42-0.93,0.42
	S549.84,208.46,550.45,208.73z"/>
<path class="st8" d="M546.21,197.5c0.66,0.3,1.01-0.36,1.01-0.36s0.12-0.63-0.51-0.93c-0.63-0.3-0.93,0.42-0.93,0.42
	S545.61,197.23,546.21,197.5z"/>
<path class="st8" d="M475.05,196.05c0.66,0.3,1.01-0.36,1.01-0.36s0.12-0.63-0.51-0.93c-0.63-0.3-0.93,0.42-0.93,0.42
	S474.44,195.78,475.05,196.05z"/>
<path class="st8" d="M467.45,182.46c0.66,0.3,1.01-0.36,1.01-0.36s0.12-0.63-0.51-0.93c-0.63-0.3-0.93,0.42-0.93,0.42
	S466.85,182.19,467.45,182.46z"/>
<path class="st8" d="M587.26,160.56c0.66,0.3,1.01-0.36,1.01-0.36s0.12-0.63-0.51-0.93s-0.93,0.42-0.93,0.42
	S586.66,160.29,587.26,160.56z"/>
<g class="st11">
	<polyline class="st12" points="584.26,138.96 547.4,189.07 163.76,114.11 145.58,144.73 581.02,327.65 397.97,70.87 220.51,488.88 
		154.04,467.3 132.41,173.29 	"/>
</g>
</svg>
