<?xml version="1.0" encoding="UTF-8" standalone="no"?>
<svg
   xmlns:dc="http://purl.org/dc/elements/1.1/"
   xmlns:cc="http://creativecommons.org/ns#"
   xmlns:rdf="http://www.w3.org/1999/02/22-rdf-syntax-ns#"
   xmlns:svg="http://www.w3.org/2000/svg"
   xmlns="http://www.w3.org/2000/svg"
   xmlns:sodipodi="http://sodipodi.sourceforge.net/DTD/sodipodi-0.dtd"
   xmlns:inkscape="http://www.inkscape.org/namespaces/inkscape"
   sodipodi:docname="calculate_uv_distortion.svg"
   inkscape:version="1.0 (4035a4fb49, 2020-05-01)"
   id="svg8"
   version="1.1"
   viewBox="0 0 305.26376 305.26376"
   height="305.26376mm"
   width="305.26376mm">
  <defs
     id="defs2">
    <inkscape:path-effect
       lpeversion="1"
       is_visible="true"
       id="path-effect916"
       effect="spiro" />
    <inkscape:path-effect
       lpeversion="1"
       is_visible="true"
       id="path-effect912"
       effect="spiro" />
    <inkscape:path-effect
       lpeversion="1"
       is_visible="true"
       id="path-effect908"
       effect="spiro" />
  </defs>
  <sodipodi:namedview
     inkscape:window-maximized="0"
     inkscape:window-y="0"
     inkscape:window-x="-7"
     inkscape:window-height="1528"
     inkscape:window-width="2830"
     showgrid="false"
     inkscape:document-rotation="0"
     inkscape:current-layer="layer1"
     inkscape:document-units="mm"
     inkscape:cy="805.076"
     inkscape:cx="1071.4017"
     inkscape:zoom="0.35"
     inkscape:pageshadow="2"
     inkscape:pageopacity="0.0"
     borderopacity="1.0"
     bordercolor="#666666"
     pagecolor="#ffffff"
     id="base" />
  <metadata
     id="metadata5">
    <rdf:RDF>
      <cc:Work
         rdf:about="">
        <dc:format>image/svg+xml</dc:format>
        <dc:type
           rdf:resource="http://purl.org/dc/dcmitype/StillImage" />
        <dc:title></dc:title>
      </cc:Work>
    </rdf:RDF>
  </metadata>
  <g
     transform="translate(-795.50684,-23.899649)"
     id="layer1"
     inkscape:groupmode="layer"
     inkscape:label="Layer 1">
    <rect
       y="29.399649"
       x="801.00684"
       height="294.26376"
       width="294.26376"
       id="rect889"
       style="fill:#ffffff;fill-opacity:1;stroke:#040000;stroke-width:11;stroke-miterlimit:4;stroke-dasharray:none;stroke-opacity:1" />
    <path
       sodipodi:nodetypes="cssssssssccsssssssscc"
       id="path962"
       d="m 818.23242,77.318359 c 1.36088,21.359941 0.19901,41.498021 9.04102,60.076171 8.84201,18.57815 23.242,34.38047 40.92187,44.9043 14.7913,8.80442 31.91259,13.91926 49.28711,13.79687 17.3975,-0.12254 34.83026,-5.60138 48.78125,-16.25976 13.00254,-9.93379 21.89844,-23.15427 31.82227,-34.16406 4.95836,-5.50095 10.22276,-10.53471 16.09376,-14.38672 5.8526,-3.83989 12.3979,-6.49859 18.9961,-7.10352 7.9658,-0.73032 16.3212,1.636 22.7207,6.43555 6.3993,4.79955 11.3438,12.1915 12.8731,20.04317 l 9.8165,-1.91211 c -2.0177,-10.35877 -8.247,-19.79904 -16.6896,-26.13106 -8.4428,-6.33203 -19.1254,-9.35804 -29.6348,-8.39453 -8.625,0.79075 -16.6393,4.15504 -23.5683,8.70117 -6.9105,4.53401 -12.75854,10.19865 -18.0352,16.05273 -10.54617,11.70024 -19.17232,24.28671 -30.46484,32.91406 -12.05891,9.21286 -27.44759,14.09903 -42.78125,14.20704 -15.35664,0.10817 -30.76658,-4.45502 -44.10156,-12.39258 -15.94363,-9.49034 -29.03413,-23.85373 -37.00782,-40.60742 -7.97367,-16.75369 -11.28703,-35.938218 -8.59765,-54.296673 z"
       style="color:#000000;font-style:normal;font-variant:normal;font-weight:normal;font-stretch:normal;font-size:medium;line-height:normal;font-family:sans-serif;font-variant-ligatures:normal;font-variant-position:normal;font-variant-caps:normal;font-variant-numeric:normal;font-variant-alternates:normal;font-variant-east-asian:normal;font-feature-settings:normal;font-variation-settings:normal;text-indent:0;text-align:start;text-decoration:none;text-decoration-line:none;text-decoration-style:solid;text-decoration-color:#000000;letter-spacing:normal;word-spacing:normal;text-transform:none;writing-mode:lr-tb;direction:ltr;text-orientation:mixed;dominant-baseline:auto;baseline-shift:baseline;text-anchor:start;white-space:normal;shape-padding:0;shape-margin:0;inline-size:0;clip-rule:nonzero;display:inline;overflow:visible;visibility:visible;opacity:1;isolation:auto;mix-blend-mode:normal;color-interpolation:sRGB;color-interpolation-filters:linearRGB;solid-color:#000000;solid-opacity:1;vector-effect:none;fill:#00a9b2;fill-opacity:1;fill-rule:nonzero;stroke:none;stroke-width:10;stroke-linecap:butt;stroke-linejoin:miter;stroke-miterlimit:4;stroke-dasharray:none;stroke-dashoffset:0;stroke-opacity:1;color-rendering:auto;image-rendering:auto;shape-rendering:auto;text-rendering:auto;enable-background:accumulate;stop-color:#000000;stop-opacity:1" />
    <path
       inkscape:path-effect="#path-effect912"
       inkscape:original-d="m 821.58651,260.32052 c 32.78534,-11.58142 65.57039,-23.1631 98.3552,-34.74504 32.78479,-11.58195 74.83573,22.80726 112.25319,34.2105 37.4175,11.40323 27.4399,-2.85061 41.1595,-4.27632"
       id="path910"
       d="m 821.58651,260.32052 c 24.73964,-26.32281 62.5709,-39.68711 98.3552,-34.74504 19.43871,2.68463 37.78986,10.32764 55.97193,17.7089 18.18207,7.38126 36.74606,14.64473 56.28126,16.5016 13.8222,1.31384 27.9026,-0.14907 41.1595,-4.27632"
       style="fill:none;stroke:#00a9b2;stroke-width:10;stroke-linecap:butt;stroke-linejoin:miter;stroke-miterlimit:4;stroke-dasharray:none;stroke-opacity:1" />
    <path
       sodipodi:nodetypes="csssssssssssssssccssssssssssssssscc"
       id="path958"
       d="m 994.66284,48.159742 c -8.71655,4.05492 -10.98031,5.437365 -16.40893,13.371508 -5.42862,7.934143 -8.65555,17.279616 -9.27735,26.873047 -0.73261,11.3032 2.12947,22.339473 6.70117,32.189453 4.56025,9.82529 10.76151,18.51467 17.17969,26.63477 12.82308,16.22333 26.78108,31.00392 33.08788,48.68359 4.729,13.25654 5.0552,28.1464 1.1445,41.74414 -3.9136,13.60821 -12.0577,26.05284 -22.8437,35.3418 -10.79314,9.29513 -24.28189,15.5298 -38.38477,18.00976 -14.11086,2.48137 -28.91362,1.2544 -42.58594,-3.27539 -19.87989,-6.58643 -37.51266,-20.50811 -47.42969,-38.71094 -9.88961,-18.1525 -11.8451,-40.86187 -4.25,-59.86523 5.73015,-14.33714 16.70761,-26.75221 27.03125,-40.2832 5.16551,-6.77034 10.20037,-13.93817 14.16016,-21.92383 3.96651,-7.99923 6.82956,-16.8439 7.30273,-26.15039 0.64353,-12.656964 -3.29401,-25.356402 -10.98437,-35.429689 -7.69036,-10.073288 -17.73482,-13.777538 -30.1139,-16.492499 l -3.52673,7.303046 c 9.76323,2.141254 18.8312,7.920563 24.89649,15.865234 6.06529,7.944671 9.24973,18.212932 8.74219,28.195308 -0.37613,7.39774 -2.70608,14.83677 -6.16993,21.82227 -3.47057,6.99907 -8.07278,13.61155 -13.05273,20.13867 -9.96728,13.06391 -21.81533,26.14763 -28.5,42.87305 -8.93906,22.36601 -6.61957,48.2396 4.80469,69.20898 11.39684,20.91907 31.22025,36.4677 53.63086,43.89258 15.35386,5.08691 31.94634,6.48044 47.95117,3.66602 16.0128,-2.81583 31.28156,-9.84896 43.65822,-20.50782 12.3838,-10.66502 21.6985,-24.8583 26.2363,-40.63671 4.5408,-15.78888 4.1894,-32.93685 -1.3555,-48.48047 -7.3477,-20.59773 -22.4407,-36.15076 -34.8183,-51.81055 -6.18216,-7.82147 -11.83959,-15.83717 -15.834,-24.44336 -3.98296,-8.58149 -6.28284,-17.873423 -5.70118,-26.847656 0.4919,-7.58923 3.0844,-15.096455 7.37891,-21.373046 4.29451,-6.276592 10.35251,-11.411349 17.24807,-14.619141 z"
       style="color:#000000;font-style:normal;font-variant:normal;font-weight:normal;font-stretch:normal;font-size:medium;line-height:normal;font-family:sans-serif;font-variant-ligatures:normal;font-variant-position:normal;font-variant-caps:normal;font-variant-numeric:normal;font-variant-alternates:normal;font-variant-east-asian:normal;font-feature-settings:normal;font-variation-settings:normal;text-indent:0;text-align:start;text-decoration:none;text-decoration-line:none;text-decoration-style:solid;text-decoration-color:#000000;letter-spacing:normal;word-spacing:normal;text-transform:none;writing-mode:lr-tb;direction:ltr;text-orientation:mixed;dominant-baseline:auto;baseline-shift:baseline;text-anchor:start;white-space:normal;shape-padding:0;shape-margin:0;inline-size:0;clip-rule:nonzero;display:inline;overflow:visible;visibility:visible;opacity:1;isolation:auto;mix-blend-mode:normal;color-interpolation:sRGB;color-interpolation-filters:linearRGB;solid-color:#000000;solid-opacity:1;vector-effect:none;fill:#ff6600;fill-opacity:1;fill-rule:nonzero;stroke:none;stroke-width:11;stroke-linecap:butt;stroke-linejoin:miter;stroke-miterlimit:4;stroke-dasharray:none;stroke-dashoffset:0;stroke-opacity:1;color-rendering:auto;image-rendering:auto;shape-rendering:auto;text-rendering:auto;enable-background:accumulate;stop-color:#000000;stop-opacity:1" />
    <rect
       y="51.369694"
       x="822.59229"
       height="251.04633"
       width="251.04633"
       id="rect889-6-3"
       style="fill:none;stroke:#010000;stroke-width:10;stroke-miterlimit:4;stroke-dasharray:none;stroke-opacity:1" />
  </g>
</svg>
