<?xml version="1.0" encoding="UTF-8" standalone="no"?>
<svg
   xmlns:dc="http://purl.org/dc/elements/1.1/"
   xmlns:cc="http://creativecommons.org/ns#"
   xmlns:rdf="http://www.w3.org/1999/02/22-rdf-syntax-ns#"
   xmlns:svg="http://www.w3.org/2000/svg"
   xmlns="http://www.w3.org/2000/svg"
   xmlns:sodipodi="http://sodipodi.sourceforge.net/DTD/sodipodi-0.dtd"
   xmlns:inkscape="http://www.inkscape.org/namespaces/inkscape"
   sodipodi:docname="diff_data.svg"
   inkscape:version="1.0 (4035a4fb49, 2020-05-01)"
   id="svg8"
   version="1.1"
   viewBox="0 0 211.60876 211.42397"
   height="211.42397mm"
   width="211.60876mm">
  <defs
     id="defs2" />
  <sodipodi:namedview
     inkscape:window-maximized="1"
     inkscape:window-y="113"
     inkscape:window-x="1912"
     inkscape:window-height="1017"
     inkscape:window-width="1920"
     showgrid="false"
     inkscape:document-rotation="0"
     inkscape:current-layer="layer1"
     inkscape:document-units="mm"
     inkscape:cy="286.91779"
     inkscape:cx="544.4046"
     inkscape:zoom="0.35"
     inkscape:pageshadow="2"
     inkscape:pageopacity="0.0"
     borderopacity="1.0"
     bordercolor="#666666"
     pagecolor="#ffffff"
     id="base" />
  <metadata
     id="metadata5">
    <rdf:RDF>
      <cc:Work
         rdf:about="">
        <dc:format>image/svg+xml</dc:format>
        <dc:type
           rdf:resource="http://purl.org/dc/dcmitype/StillImage" />
        <dc:title></dc:title>
      </cc:Work>
    </rdf:RDF>
  </metadata>
  <g
     transform="translate(-0.88403119,-37.783642)"
     id="layer1"
     inkscape:groupmode="layer"
     inkscape:label="Layer 1">
    <path
       id="path847"
       d="m 190.68621,248.9873 c -0.29104,-0.11815 -3.08901,-2.63931 -6.21771,-5.60258 -7.86225,-7.44654 -47.36272,-46.92336 -49.8737,-49.84384 -2.43494,-2.83205 -3.56626,-4.70505 -3.56965,-5.90988 -0.003,-0.90286 0.12493,-1.06424 4.46625,-5.65459 l 1.17814,-1.24571 -5.93229,-5.8664 c -3.26276,-3.22652 -9.74683,-9.66473 -14.40905,-14.30714 l -8.47676,-8.44074 -3.1649,2.28077 c -9.51078,6.85388 -17.13974,10.14047 -27.90346,12.02095 -4.17538,0.72946 -12.95672,1.00807 -17.59479,0.55825 C 36.75466,164.80063 17.54406,151.44117 7.5977703,131.09921 -0.92289972,113.67291 -1.3496597,93.99576 6.4119303,76.421158 10.0591,68.162838 13.95877,62.745539 21.54899,55.3932 28.3537,48.801753 36.27823,44.082231 45.86153,40.913648 c 25.04706,-8.281454 53.54779,0.251311 70.44911,21.09159 6.09558,7.516195 10.99663,17.755935 12.84581,26.838692 1.99581,9.80298 1.71973,21.00738 -0.75109,30.48133 -1.94878,7.47228 -4.27934,12.67086 -8.45839,18.86732 -1.25717,1.86406 -2.50259,3.73503 -2.7676,4.15771 l -0.48184,0.76851 6.21501,6.42563 c 3.41825,3.53409 9.84848,10.04867 14.28938,14.47685 l 8.07437,8.05123 2.01525,-1.83352 c 2.66778,-2.42722 2.9935,-2.61331 4.18349,-2.39007 2.30631,0.43267 6.93532,4.72555 30.27132,28.07321 20.78075,20.79113 29.59511,29.89111 30.23673,31.21652 0.80785,1.6688 0.69222,2.44473 -0.6118,4.10535 -3.41197,4.34503 -15.55883,16.3733 -17.70146,17.52865 -0.90489,0.48793 -2.09886,0.57383 -2.98361,0.21465 z M 76.29587,152.42116 c 7.14206,-1.5459 15.9822,-5.68222 20.72784,-9.6986 3.07959,-2.60636 7.84642,-7.53631 9.78681,-10.12173 3.75017,-4.99682 7.49282,-13.2393 8.71733,-19.19827 1.06604,-5.18781 1.21395,-14.84613 0.30841,-20.13876 C 113.95252,82.253871 107.03197,70.728613 97.76834,63.17409 91.82905,58.330564 83.64754,54.344159 76.65079,52.88465 70.87675,51.680195 60.2998,51.693247 54.82267,52.91158 35.97607,57.103832 21.06718,71.747606 16.32791,90.721805 c -0.94338,3.77689 -1.23248,6.50206 -1.23681,11.658515 -0.006,7.58795 0.6824,11.88059 2.82501,17.60638 5.88991,15.73989 19.42959,27.94638 35.54268,32.04298 3.80083,0.96632 5.95689,1.13283 13.40242,1.03499 5.75069,-0.0756 7.29837,-0.18113 9.43466,-0.64352 z M 44.23933,141.56742 c -4.16241,-1.27074 -11.92603,-8.39346 -16.02438,-14.70154 -9.91369,-15.25894 -9.56806,-35.31484 0.86066,-49.941583 2.06604,-2.897716 7.38511,-8.319372 8.39851,-8.560493 1.84964,-0.440086 2.90755,1.429579 1.73814,3.071855 -0.30961,0.434803 -1.75682,2.130727 -3.21602,3.76872 -6.16314,6.918271 -9.68967,14.218831 -10.27372,21.268441 -0.5674,6.8486 -0.18085,14.0185 0.94867,17.59661 0.76811,2.4332 2.61763,6.59146 4.06829,9.1467 2.25745,3.97636 8.53847,10.56674 12.78519,13.41491 3.43649,2.30477 3.99931,3.24612 2.71106,4.53437 -0.68243,0.68243 -0.9207,0.73041 -1.9964,0.40201 z"
       style="fill:#000000;stroke-width:0.264583" />
  </g>
</svg>
