<?xml version="1.0" encoding="UTF-8" standalone="no"?>
<!-- Generator: Adobe Illustrator 22.1.0, SVG Export Plug-In . SVG Version: 6.00 Build 0)  -->

<svg
   xmlns:dc="http://purl.org/dc/elements/1.1/"
   xmlns:cc="http://creativecommons.org/ns#"
   xmlns:rdf="http://www.w3.org/1999/02/22-rdf-syntax-ns#"
   xmlns:svg="http://www.w3.org/2000/svg"
   xmlns="http://www.w3.org/2000/svg"
   xmlns:sodipodi="http://sodipodi.sourceforge.net/DTD/sodipodi-0.dtd"
   xmlns:inkscape="http://www.inkscape.org/namespaces/inkscape"
   version="1.1"
   id="Layer_1"
   x="0px"
   y="0px"
   viewBox="0 0 500 500"
   style="enable-background:new 0 0 500 500;"
   xml:space="preserve"
   sodipodi:docname="flowmapobstacle.svg"
   inkscape:version="0.92.4 (5da689c313, 2019-01-14)"><metadata
   id="metadata6540"><rdf:RDF><cc:Work
       rdf:about=""><dc:format>image/svg+xml</dc:format><dc:type
         rdf:resource="http://purl.org/dc/dcmitype/StillImage" /></cc:Work></rdf:RDF></metadata><defs
   id="defs6538" /><sodipodi:namedview
   pagecolor="#ffffff"
   bordercolor="#666666"
   borderopacity="1"
   objecttolerance="10"
   gridtolerance="10"
   guidetolerance="10"
   inkscape:pageopacity="0"
   inkscape:pageshadow="2"
   inkscape:window-width="1920"
   inkscape:window-height="1027"
   id="namedview6536"
   showgrid="false"
   inkscape:zoom="0.472"
   inkscape:cx="250"
   inkscape:cy="250"
   inkscape:window-x="-8"
   inkscape:window-y="-8"
   inkscape:window-maximized="1"
   inkscape:current-layer="Layer_1" />
<style
   type="text/css"
   id="style5964">
	.st0{fill:#FF6600;}
	.st1{fill:url(#SVGID_1_);}
	.st2{fill:#B5B5B5;}
	.st3{fill:none;stroke:#EDEDED;stroke-width:0.5;stroke-miterlimit:10;}
	.st4{fill:none;stroke:#BDBDBD;stroke-miterlimit:10;}
	.st5{fill:#FCFCFC;}
	.st6{fill:#FFFFFF;}
</style>
<circle
   class="st0"
   cx="250"
   cy="250"
   r="250"
   id="circle5966" />
<g
   id="Layer_1_1_">
	<g
   id="Layer_3_copy">
		
			<linearGradient
   id="SVGID_1_"
   gradientUnits="userSpaceOnUse"
   x1="771"
   y1="-131.4"
   x2="771"
   y2="-131.4"
   gradientTransform="matrix(1 0 0 -1 0 212)">
			<stop
   offset="0"
   style="stop-color:#FF6600"
   id="stop5968" />
			<stop
   offset="1"
   style="stop-color:#231F20"
   id="stop5970" />
		</linearGradient>
		<path
   class="st1"
   d="M771,343.4"
   id="path5973" />
	</g>
	<path
   class="st2"
   d="M68.8,358.8"
   id="path5976" />
</g>

<g
   id="g6527">
	<path
   class="st5"
   d="m 62.5,173.1 c 5,-8.2 10.8,-16 17.1,-23.4 3.1,-3.7 6.4,-7.3 9.8,-10.8 1.7,-1.8 3.4,-3.4 5.2,-5.2 l 5.3,-5.1 c 14.4,-13.2 30.2,-25.1 47.4,-35.1 17.1,-10 35.6,-18.3 55.2,-24 9.8,-2.8 19.9,-5 30.2,-6.3 2.6,-0.4 5.2,-0.6 7.8,-0.8 2.6,-0.3 5.2,-0.3 7.9,-0.5 5.2,-0.3 10.4,-0.3 15.7,-0.2 10.5,0.3 21.1,1.7 31.7,4.2 10.5,2.5 21,6.4 30.8,11.7 2.5,1.3 4.9,2.7 7.2,4.2 2.4,1.5 4.7,3.1 6.9,4.7 4.5,3.3 8.8,6.9 12.8,10.8 4,3.9 7.7,8 11,12.3 3.4,4.3 6.4,8.7 9.1,13 0.7,1.1 1.3,2.1 1.9,3.2 l 1.8,3.1 c 1.3,2.2 2.5,4.3 3.7,6.5 2.4,4.4 4.7,8.7 6.8,13.1 4.3,8.6 8.1,17.3 12,25.1 2,3.9 4,7.5 6.2,10.6 1.1,1.5 2.2,2.9 3.4,4.1 1.2,1.2 2.4,2.2 3.8,2.9 1.4,0.7 3.1,1.2 5,1.4 1.9,0.2 4,0 6.1,-0.3 4.3,-0.8 8.9,-2.5 13.4,-4.4 -2.8,4.1 -6,7.9 -10.3,11.1 -1.1,0.8 -2.2,1.5 -3.4,2.2 -1.2,0.7 -2.5,1.3 -3.9,1.8 -1.4,0.5 -2.9,0.9 -4.4,1.2 -1.5,0.3 -3.1,0.4 -4.8,0.3 -3.2,-0.1 -6.5,-0.9 -9.4,-2 -2.9,-1.2 -5.6,-2.7 -8,-4.3 -2.4,-1.6 -4.6,-3.4 -6.7,-5.2 -2.1,-1.8 -3.9,-3.7 -5.8,-5.6 -7.2,-7.5 -13.1,-15.2 -19,-22.6 -2.9,-3.7 -5.8,-7.3 -8.6,-10.8 l -8.7,-10.6 c -2.8,-3.4 -5.5,-6.5 -8.4,-9.4 -2.8,-2.9 -5.7,-5.6 -8.8,-8.1 -6.1,-5 -12.5,-9.3 -19.6,-12.7 -14,-7 -29.8,-11.1 -46.6,-12.9 -4.2,-0.5 -8.5,-0.8 -12.7,-1 -2.1,0 -4.2,-0.1 -6.3,0 -2.1,0 -4.2,0.1 -6.4,0.2 -8.5,0.4 -17.1,1.5 -25.8,3 -17.3,3.1 -34.5,8.3 -51.4,14.9 -8.4,3.3 -16.8,7 -25.1,11 -4.1,2 -8.2,4.1 -12.3,6.2 l -6.1,3.3 -6.1,3.4 C 93,150.5 77.5,161 62.5,173.1 Z"
   id="path6525"
   inkscape:connector-curvature="0"
   style="fill:#fcfcfc" />
</g>
<path
   class="st6"
   d="M343.8,250c0,50.9-47.3,93.8-93.8,93.8s-93.7-42.9-93.7-93.8s47.2-93.7,93.7-93.7S343.8,199.1,343.8,250z"
   id="path6529" />
<g
   id="g6533">
	<path
   class="st5"
   d="m 62.5,327.5 c 15,12 30.5,22.6 46.6,31.9 l 6.1,3.4 6.1,3.3 c 4.1,2.1 8.2,4.2 12.3,6.2 8.3,4 16.6,7.7 25.1,11 16.9,6.6 34.2,11.8 51.4,14.9 8.6,1.6 17.2,2.6 25.8,3 2.1,0.1 4.3,0.2 6.4,0.2 2.1,0.1 4.2,0 6.3,0 4.2,-0.1 8.6,-0.5 12.7,-1 16.8,-1.8 32.7,-5.9 46.6,-12.9 7,-3.5 13.5,-7.7 19.6,-12.7 3,-2.5 5.9,-5.2 8.8,-8.1 2.8,-2.9 5.6,-6 8.4,-9.4 l 8.7,-10.6 c 2.8,-3.5 5.7,-7.1 8.6,-10.8 5.8,-7.4 11.8,-15.1 19,-22.6 1.8,-1.9 3.7,-3.8 5.8,-5.6 2,-1.8 4.2,-3.6 6.7,-5.2 2.4,-1.6 5.1,-3.2 8,-4.3 2.9,-1.1 6.2,-1.9 9.4,-2 1.6,-0.1 3.2,0 4.8,0.3 1.5,0.3 3,0.7 4.4,1.2 1.4,0.5 2.7,1.1 3.9,1.8 1.2,0.7 2.4,1.4 3.4,2.2 4.3,3.2 7.6,7 10.3,11.1 -4.5,-1.9 -9.1,-3.6 -13.4,-4.4 -2.2,-0.4 -4.3,-0.5 -6.1,-0.3 -1.9,0.1 -3.5,0.7 -5,1.4 -1.4,0.7 -2.7,1.7 -3.8,2.9 -1.2,1.1 -2.3,2.5 -3.4,4.1 -2.2,3.1 -4.2,6.7 -6.2,10.6 -3.9,7.8 -7.7,16.4 -12,25.1 -2.1,4.3 -4.4,8.7 -6.8,13.1 -1.2,2.2 -2.4,4.4 -3.7,6.5 l -1.8,3.1 c -0.6,1 -1.3,2.1 -1.9,3.2 -2.7,4.3 -5.7,8.8 -9.1,13 -3.3,4.3 -7.1,8.4 -11,12.3 -4,3.9 -8.3,7.5 -12.8,10.8 -2.3,1.7 -4.6,3.2 -6.9,4.7 -2.4,1.4 -4.8,2.9 -7.2,4.2 -9.8,5.3 -20.3,9.1 -30.8,11.7 -10.5,2.6 -21.2,3.9 -31.7,4.2 -5.3,0.1 -10.4,0.1 -15.7,-0.2 -2.6,-0.1 -5.3,-0.2 -7.9,-0.5 -2.6,-0.2 -5.2,-0.4 -7.8,-0.8 -10.3,-1.3 -20.4,-3.5 -30.2,-6.3 -19.6,-5.7 -38,-14 -55.2,-24 -17.1,-10 -33,-21.8 -47.4,-35.1 L 94.6,367 c -1.7,-1.7 -3.5,-3.4 -5.2,-5.2 -3.3,-3.5 -6.7,-7.1 -9.8,-10.8 -6.3,-7.5 -12.1,-15.3 -17.1,-23.5 z"
   id="path6531"
   inkscape:connector-curvature="0"
   style="fill:#fcfcfc" />
</g>
</svg>