<?xml version="1.0" encoding="UTF-8" standalone="no"?>
<svg
   xmlns:dc="http://purl.org/dc/elements/1.1/"
   xmlns:cc="http://creativecommons.org/ns#"
   xmlns:rdf="http://www.w3.org/1999/02/22-rdf-syntax-ns#"
   xmlns:svg="http://www.w3.org/2000/svg"
   xmlns="http://www.w3.org/2000/svg"
   xmlns:sodipodi="http://sodipodi.sourceforge.net/DTD/sodipodi-0.dtd"
   xmlns:inkscape="http://www.inkscape.org/namespaces/inkscape"
   sodipodi:docname="hf_combine_masks.svg"
   inkscape:version="0.92.4 (5da689c313, 2019-01-14)"
   id="svg8"
   version="1.1"
   viewBox="0 0 211.56648 211.23761"
   height="211.23761mm"
   width="211.56648mm">
  <defs
     id="defs2" />
  <sodipodi:namedview
     inkscape:window-maximized="1"
     inkscape:window-y="-8"
     inkscape:window-x="-8"
     inkscape:window-height="1027"
     inkscape:window-width="1920"
     showgrid="false"
     inkscape:document-rotation="0"
     inkscape:current-layer="layer1"
     inkscape:document-units="mm"
     inkscape:cy="368.91883"
     inkscape:cx="365.00176"
     inkscape:zoom="0.49497475"
     inkscape:pageshadow="2"
     inkscape:pageopacity="0.0"
     borderopacity="1.0"
     bordercolor="#666666"
     pagecolor="#ffffff"
     id="base" />
  <metadata
     id="metadata5">
    <rdf:RDF>
      <cc:Work
         rdf:about="">
        <dc:format>image/svg+xml</dc:format>
        <dc:type
           rdf:resource="http://purl.org/dc/dcmitype/StillImage" />
        <dc:title />
      </cc:Work>
    </rdf:RDF>
  </metadata>
  <g
     transform="translate(13.00052,-58.423966)"
     id="layer1"
     inkscape:groupmode="layer"
     inkscape:label="Layer 1">
    <path
       transform="matrix(0.26458333,0,0,0.26458333,14.821625,82.491159)"
       d="m 417.9668,184.65039 -62.01172,62.01172 0.27148,0.26367 0.23633,-0.23828 21.49414,21.47461 10.76953,-10.73633 10.77149,-10.73828 h 116.73242 116.73437 v 199.5 199.5 h -199.5 -199.5 V 529.45312 413.21875 l 11.23633,-11.26953 11.15821,-11.18945 c -7.81275,-6.97766 -14.38505,-12.85045 -23.50977,-20.99415 l -60.92188,60.92188 0.26758,126.75 c 0.26808,126.48268 0.27377,126.75957 2.375,131.30078 4.08518,8.82898 11.42681,15.17795 20.34571,17.59375 h 0.002 c 3.5537,0.96246 56.20342,1.18962 240.54883,1.04297 l 236,-0.1875 4.62304,-2.13672 c 6.63474,-3.0678 12.39651,-8.68457 15.59766,-15.20312 l 2.7793,-5.66016 v -238 -238 l -2.7793,-5.66016 c -3.20115,-6.51855 -8.96292,-12.13336 -15.59766,-15.20117 l -4.62304,-2.13867 -126.75,-0.26758 z M 356.96484,369.6875 v 76.74414 76.74219 l 26.92969,-26.91602 26.92969,-26.91601 51.32031,51.15039 c 28.22619,28.13268 51.54844,51.16249 51.82813,51.17383 0.27979,0.0123 10.1418,-9.61861 21.91601,-21.40235 l 21.40821,-21.42578 -51.20704,-51.77734 -51.20703,-51.77735 27.78321,-27.79687 27.78515,-27.79883 h -76.74414 z"
       style="fill:#00aab1;fill-opacity:1;stroke-width:0.99999899"
       id="path945"
       inkscape:connector-curvature="0" />
    <path
       id="path945-4"
       style="fill:#fe6600;fill-opacity:1;stroke-width:0.26458299"
       d="m 60.15678,196.73905 16.40727,-16.40727 -0.0718,-0.0698 -0.0625,0.063 -5.68699,-5.68182 -2.84944,2.84066 -2.84996,2.84116 H 34.15792 3.2719505 V 127.54061 74.756237 H 56.05626 108.84064 v 30.753683 30.75367 l -2.97295,2.98173 -2.95228,2.96054 c 2.06713,1.84618 3.80605,3.40002 6.2203,5.55471 l 16.11891,-16.11892 -0.0708,-33.535943 c -0.0709,-33.4652 -0.0724,-33.53846 -0.62838,-34.73999 -1.08087,-2.336 -3.02335,-4.01584 -5.38314,-4.65502 h -5.3e-4 c -0.94025,-0.25465 -14.87049,-0.31475 -63.64521,-0.27595 l -62.4416595,0.0496 -1.22318,0.56534 c -1.7554396,0.81169 -3.2799105,2.29779 -4.1268805,4.02249 l -0.73536,1.49759 v 62.970843 62.97083 l 0.73536,1.49759 c 0.84697,1.7247 2.3714409,3.21028 4.1268805,4.02197 l 1.22318,0.56586 33.5359395,0.0708 z M 76.29689,147.78132 V 127.4761 107.17139 l -7.12515,7.12153 -7.12515,7.12153 -13.5785,-13.53354 C 40.99991,100.43747 34.82924,94.344167 34.75524,94.341167 c -0.074,-0.003 -2.68335,2.54492 -5.79861,5.662703 l -5.66426,5.6689 13.54853,13.69943 13.54852,13.69942 -7.35097,7.35459 -7.35149,7.35511 h 20.30522 z"
       inkscape:connector-curvature="0" />
  </g>
</svg>
