<?xml version="1.0" encoding="utf-8"?>
<!-- Generator: Adobe Illustrator 24.0.2, SVG Export Plug-In . SVG Version: 6.00 Build 0)  -->
<svg version="1.1" id="Layer_1" xmlns="http://www.w3.org/2000/svg" xmlns:xlink="http://www.w3.org/1999/xlink" x="0px" y="0px"
	 viewBox="0 0 500 500" style="enable-background:new 0 0 500 500;" xml:space="preserve">
<style type="text/css">
	.st0{display:none;}
	.st1{display:inline;}
	.st2{display:none;opacity:0.5;fill:url(#SVGID_1_);enable-background:new    ;}
	.st3{display:inline;fill:#FF6700;}
	.st4{display:inline;opacity:0.5;fill:url(#SVGID_2_);enable-background:new    ;}
	.st5{display:inline;fill:#007F7F;}
	.st6{fill:none;stroke:#EDEDED;stroke-width:0.5;stroke-miterlimit:10;}
	.st7{fill:none;stroke:#BDBDBD;stroke-miterlimit:10;}
	.st8{fill:#FF6600;}
</style>
<rect class="st0" width="500" height="500"/>
<image style="display:none;overflow:visible;" width="512" height="512" id="lightning-bolt-512_1_" xlink:href="C:\Users\MAINGEAR\AppData\Roaming\Adobe\Creative Cloud Libraries\LIBS\D7153F7A5A1D8D410A495CED_AdobeID\creative_cloud\dcx\74a69380-c790-476c-8603-51d2aa1b214c\components\88cd68af-7634-42db-8527-ae07d56d4b14.png"  transform="matrix(0.9473 0 0 0.9473 7.5 7.5)">
</image>
<g class="st0">
	<g id="Layer_4" class="st1">
		<g id="Layer_3">
			
				<linearGradient id="SVGID_1_" gradientUnits="userSpaceOnUse" x1="498.4644" y1="-457.581" x2="151.416" y2="-257.2126" gradientTransform="matrix(1 0 0 -1 0 -78)">
				<stop  offset="0" style="stop-color:#FF6600"/>
				<stop  offset="1" style="stop-color:#231F20"/>
			</linearGradient>
			<path class="st2" d="M218.8,62.5H250L343.8,196l62.5-10l32.1,60v185c0,49.6,7.5,69-32.1,69V186l-70.3,1.5l-86-1.5"/>
			<g id="Layer_5_1_" class="st0">
				<path class="st3" d="M250,186V62.5H93.8V500H249l0,0h157.3V186H250z M156.3,312.5H125v-31.3h31.3V312.5z M156.3,250H125v-31.3
					h31.3V250z M156.3,187.5H125v-31.3h31.3V187.5z M156.3,125H125V93.8h31.3V125z M218.8,312.5h-31.3v-31.3h31.3V312.5z M218.8,250
					h-31.3v-31.3h31.3V250z M218.8,187.5h-31.3v-31.3h31.3V187.5z M218.8,125h-31.3V93.8h31.3V125z M312.5,312.5h-31.3v-31.3h31.3
					V312.5z M312.5,250h-31.3v-31.3h31.3V250z M375,312.5h-31.3v-31.3H375V312.5z M375,250h-31.3v-31.3H375V250z"/>
				
					<linearGradient id="SVGID_2_" gradientUnits="userSpaceOnUse" x1="409.7415" y1="-601.6788" x2="86.8025" y2="-415.2299" gradientTransform="matrix(1 0 0 -1 0 -78)">
					<stop  offset="0" style="stop-color:#FF6600"/>
					<stop  offset="1" style="stop-color:#231F20"/>
				</linearGradient>
				<path class="st4" d="M323.3,436.5l19.5-110.2l95.6,99.1l0,0l-0.3,12.3c0,49.6-5.1,62.3-44.7,62.3H93.8l-31.2-37.8l-39-15.5"/>
				<polyline class="st5" points="10.2,441.7 62.3,463 62.8,446.7 				"/>
			</g>
		</g>
	</g>
	<g id="Layer_2_1_" class="st1">
	</g>
	<g id="Layer_1_1_" class="st1">
		<g>
			<rect x="250" y="375" class="st6" width="31.3" height="31.3"/>
			<rect x="156.3" y="375" class="st6" width="31.3" height="31.3"/>
			<rect x="218.8" y="375" class="st6" width="31.3" height="31.3"/>
			<rect x="187.5" y="375" class="st6" width="31.3" height="31.3"/>
			<rect x="93.8" y="343.8" class="st6" width="31.3" height="31.3"/>
			<rect x="93.8" y="375" class="st6" width="31.3" height="31.3"/>
			<rect x="125" y="375" class="st6" width="31.3" height="31.3"/>
			<rect x="281.3" y="375" class="st6" width="31.3" height="31.3"/>
			<rect x="375" y="312.5" class="st6" width="31.3" height="31.3"/>
			<rect x="93.8" y="312.5" class="st6" width="31.3" height="31.3"/>
			<rect x="375" y="343.8" class="st6" width="31.3" height="31.3"/>
			<rect x="375" y="281.3" class="st6" width="31.3" height="31.3"/>
			<rect x="312.5" y="375" class="st6" width="31.3" height="31.3"/>
			<rect x="375" y="375" class="st6" width="31.3" height="31.3"/>
			<rect x="375" y="250" class="st6" width="31.3" height="31.3"/>
			<rect x="343.8" y="375" class="st6" width="31.3" height="31.3"/>
			<rect x="250" y="93.8" class="st6" width="31.3" height="31.3"/>
			<rect x="218.8" y="93.8" class="st6" width="31.3" height="31.3"/>
			<rect x="187.5" y="93.8" class="st6" width="31.3" height="31.3"/>
			<rect x="312.5" y="93.8" class="st6" width="31.3" height="31.3"/>
			<rect x="343.8" y="93.8" class="st6" width="31.3" height="31.3"/>
			<rect x="156.3" y="93.8" class="st6" width="31.3" height="31.3"/>
			<rect x="281.3" y="93.8" class="st6" width="31.3" height="31.3"/>
			<rect x="93.8" y="156.3" class="st6" width="31.3" height="31.3"/>
			<rect x="93.8" y="187.5" class="st6" width="31.3" height="31.3"/>
			<rect x="93.8" y="218.8" class="st6" width="31.3" height="31.3"/>
			<rect x="93.8" y="250" class="st6" width="31.3" height="31.3"/>
			<rect x="93.8" y="281.3" class="st6" width="31.3" height="31.3"/>
			<rect x="125" y="93.8" class="st6" width="31.3" height="31.3"/>
			<rect x="93.8" y="93.8" class="st6" width="31.3" height="31.3"/>
			<rect x="93.8" y="125" class="st6" width="31.3" height="31.3"/>
			<rect x="375" y="125" class="st6" width="31.3" height="31.3"/>
			<rect x="62.5" y="281.3" class="st6" width="31.3" height="31.3"/>
			<rect x="62.5" y="312.5" class="st6" width="31.3" height="31.3"/>
			<rect x="62.5" y="250" class="st6" width="31.3" height="31.3"/>
			<rect x="62.5" y="156.3" class="st6" width="31.3" height="31.3"/>
			<rect x="62.5" y="125" class="st6" width="31.3" height="31.3"/>
			<rect x="62.5" y="187.5" class="st6" width="31.3" height="31.3"/>
			<rect x="62.5" y="218.8" class="st6" width="31.3" height="31.3"/>
			<rect x="62.5" y="343.8" class="st6" width="31.3" height="31.3"/>
			<rect x="187.5" y="406.3" class="st6" width="31.3" height="31.3"/>
			<rect x="218.8" y="406.3" class="st6" width="31.3" height="31.3"/>
			<polyline class="st6" points="187.5,406.3 156.3,406.3 156.3,437.5 187.5,437.5 			"/>
			<rect x="125" y="406.3" class="st6" width="31.3" height="31.3"/>
			<rect x="62.5" y="406.3" class="st6" width="31.3" height="31.3"/>
			<rect x="93.8" y="406.3" class="st6" width="31.3" height="31.3"/>
			<rect x="62.5" y="375" class="st6" width="31.3" height="31.3"/>
			<rect x="62.5" y="93.8" class="st6" width="31.3" height="31.3"/>
			<rect x="375" y="62.5" class="st6" width="31.3" height="31.3"/>
			<rect x="312.5" y="62.5" class="st6" width="31.3" height="31.3"/>
			<rect x="281.3" y="62.5" class="st6" width="31.3" height="31.3"/>
			<rect x="375" y="93.8" class="st6" width="31.3" height="31.3"/>
			<rect x="343.8" y="125" class="st6" width="31.3" height="31.3"/>
			<rect x="375" y="187.5" class="st6" width="31.3" height="31.3"/>
			<rect x="375" y="156.3" class="st6" width="31.3" height="31.3"/>
			<rect x="62.5" y="62.5" class="st6" width="31.3" height="31.3"/>
			<rect x="93.8" y="62.5" class="st6" width="31.3" height="31.3"/>
			<rect x="375" y="218.8" class="st6" width="31.3" height="31.3"/>
			<rect x="125" y="62.5" class="st6" width="31.3" height="31.3"/>
			<rect x="250" y="62.5" class="st6" width="31.3" height="31.3"/>
			<rect x="218.8" y="62.5" class="st6" width="31.3" height="31.3"/>
			<rect x="187.5" y="62.5" class="st6" width="31.3" height="31.3"/>
			<rect x="156.3" y="62.5" class="st6" width="31.3" height="31.3"/>
			<rect x="281.3" y="156.3" class="st6" width="31.3" height="31.3"/>
			<rect x="156.3" y="156.3" class="st6" width="31.3" height="31.3"/>
			<rect x="156.3" y="218.8" class="st6" width="31.3" height="31.3"/>
			<rect x="156.3" y="187.5" class="st6" width="31.3" height="31.3"/>
			<rect x="187.5" y="156.3" class="st6" width="31.3" height="31.3"/>
			<rect x="250" y="406.3" class="st6" width="31.3" height="31.3"/>
			<rect x="250" y="156.3" class="st6" width="31.3" height="31.3"/>
			<rect x="281.3" y="187.5" class="st6" width="31.3" height="31.3"/>
			<rect x="218.8" y="156.3" class="st6" width="31.3" height="31.3"/>
			<rect x="250" y="312.5" class="st6" width="31.3" height="31.3"/>
			<rect x="312.5" y="312.5" class="st6" width="31.3" height="31.3"/>
			<rect x="281.3" y="312.5" class="st6" width="31.3" height="31.3"/>
			<rect x="218.8" y="312.5" class="st6" width="31.3" height="31.3"/>
			<rect x="156.3" y="281.3" class="st6" width="31.3" height="31.3"/>
			<rect x="156.3" y="312.5" class="st6" width="31.3" height="31.3"/>
			<rect x="187.5" y="312.5" class="st6" width="31.3" height="31.3"/>
			<rect x="156.3" y="250" class="st6" width="31.3" height="31.3"/>
			<rect x="187.5" y="187.5" class="st6" width="31.3" height="31.3"/>
			<rect x="218.8" y="187.5" class="st6" width="31.3" height="31.3"/>
			<rect x="250" y="218.8" class="st6" width="31.3" height="31.3"/>
			<rect x="250" y="187.5" class="st6" width="31.3" height="31.3"/>
			<rect x="281.3" y="218.8" class="st6" width="31.3" height="31.3"/>
			<rect x="218.8" y="250" class="st6" width="31.3" height="31.3"/>
			<rect x="250" y="250" class="st6" width="31.3" height="31.3"/>
			<rect x="218.8" y="218.8" class="st6" width="31.3" height="31.3"/>
			<rect x="281.3" y="281.3" class="st6" width="31.3" height="31.3"/>
			<rect x="250" y="281.3" class="st6" width="31.3" height="31.3"/>
			<rect x="281.3" y="250" class="st6" width="31.3" height="31.3"/>
			<rect x="187.5" y="218.8" class="st6" width="31.3" height="31.3"/>
			<rect x="187.5" y="250" class="st6" width="31.3" height="31.3"/>
			<rect x="187.5" y="281.3" class="st6" width="31.3" height="31.3"/>
			<rect x="218.8" y="281.3" class="st6" width="31.3" height="31.3"/>
			<rect x="343.8" y="156.3" class="st6" width="31.3" height="31.3"/>
			<rect x="218.8" y="343.8" class="st6" width="31.3" height="31.3"/>
			<rect x="187.5" y="343.8" class="st6" width="31.3" height="31.3"/>
			<rect x="250" y="343.8" class="st6" width="31.3" height="31.3"/>
			<rect x="156.3" y="343.8" class="st6" width="31.3" height="31.3"/>
			<rect x="125" y="312.5" class="st6" width="31.3" height="31.3"/>
			<rect x="125" y="343.8" class="st6" width="31.3" height="31.3"/>
			<rect x="281.3" y="343.8" class="st6" width="31.3" height="31.3"/>
			<rect x="343.8" y="312.5" class="st6" width="31.3" height="31.3"/>
			<rect x="343.8" y="250" class="st6" width="31.3" height="31.3"/>
			<rect x="343.8" y="218.8" class="st6" width="31.3" height="31.3"/>
			<rect x="312.5" y="343.8" class="st6" width="31.3" height="31.3"/>
			<rect x="343.8" y="187.5" class="st6" width="31.3" height="31.3"/>
			<rect x="343.8" y="343.8" class="st6" width="31.3" height="31.3"/>
			<rect x="125" y="281.3" class="st6" width="31.3" height="31.3"/>
			<rect x="343.8" y="281.3" class="st6" width="31.3" height="31.3"/>
			<rect x="312.5" y="218.8" class="st6" width="31.3" height="31.3"/>
			<rect x="125" y="250" class="st6" width="31.3" height="31.3"/>
			<rect x="281.3" y="125" class="st6" width="31.3" height="31.3"/>
			<rect x="312.5" y="156.3" class="st6" width="31.3" height="31.3"/>
			<rect x="312.5" y="187.5" class="st6" width="31.3" height="31.3"/>
			<rect x="312.5" y="250" class="st6" width="31.3" height="31.3"/>
			<rect x="312.5" y="281.3" class="st6" width="31.3" height="31.3"/>
			<rect x="250" y="125" class="st6" width="31.3" height="31.3"/>
			<rect x="312.5" y="125" class="st6" width="31.3" height="31.3"/>
			<rect x="125" y="187.5" class="st6" width="31.3" height="31.3"/>
			<rect x="125" y="218.8" class="st6" width="31.3" height="31.3"/>
			<rect x="125" y="156.3" class="st6" width="31.3" height="31.3"/>
			<rect x="156.3" y="125" class="st6" width="31.3" height="31.3"/>
			<rect x="187.5" y="125" class="st6" width="31.3" height="31.3"/>
			<rect x="125" y="125" class="st6" width="31.3" height="31.3"/>
			<rect x="218.8" y="125" class="st6" width="31.3" height="31.3"/>
			<rect x="343.8" y="62.5" class="st6" width="31.3" height="31.3"/>
			<rect y="93.8" class="st6" width="31.3" height="31.3"/>
			<rect y="125" class="st6" width="31.3" height="31.3"/>
			<rect y="62.5" class="st6" width="31.3" height="31.3"/>
			<rect y="156.3" class="st6" width="31.3" height="31.3"/>
			<rect class="st6" width="31.3" height="31.3"/>
			<rect x="31.3" class="st6" width="31.3" height="31.3"/>
			<rect y="187.5" class="st6" width="31.3" height="31.3"/>
			<rect y="31.3" class="st6" width="31.3" height="31.3"/>
			<rect y="343.8" class="st6" width="31.3" height="31.3"/>
			<rect x="62.5" class="st6" width="31.3" height="31.3"/>
			<rect y="375" class="st6" width="31.3" height="31.3"/>
			<rect y="218.8" class="st6" width="31.3" height="31.3"/>
			<rect y="406.3" class="st6" width="31.3" height="31.3"/>
			<rect y="250" class="st6" width="31.3" height="31.3"/>
			<rect y="312.5" class="st6" width="31.3" height="31.3"/>
			<rect y="281.3" class="st6" width="31.3" height="31.3"/>
			<rect x="312.5" class="st6" width="31.3" height="31.3"/>
			<rect x="406.3" class="st6" width="31.3" height="31.3"/>
			<rect x="375" class="st6" width="31.3" height="31.3"/>
			<rect x="437.5" class="st6" width="31.3" height="31.3"/>
			<rect x="437.5" y="31.3" class="st6" width="31.3" height="31.3"/>
			<rect x="437.5" y="93.8" class="st6" width="31.3" height="31.3"/>
			<rect x="437.5" y="62.5" class="st6" width="31.3" height="31.3"/>
			<rect x="93.8" class="st6" width="31.3" height="31.3"/>
			<rect x="343.8" class="st6" width="31.3" height="31.3"/>
			<rect x="156.3" class="st6" width="31.3" height="31.3"/>
			<rect x="125" class="st6" width="31.3" height="31.3"/>
			<rect x="437.5" y="125" class="st6" width="31.3" height="31.3"/>
			<rect x="281.3" class="st6" width="31.3" height="31.3"/>
			<rect x="218.8" class="st6" width="31.3" height="31.3"/>
			<rect y="437.5" class="st6" width="31.3" height="31.3"/>
			<rect x="250" class="st6" width="31.3" height="31.3"/>
			<rect x="187.5" class="st6" width="31.3" height="31.3"/>
			<rect x="468.8" y="281.3" class="st6" width="31.3" height="31.3"/>
			<rect x="468.8" y="312.5" class="st6" width="31.3" height="31.3"/>
			<rect x="468.8" y="250" class="st6" width="31.3" height="31.3"/>
			<rect x="468.8" y="375" class="st6" width="31.3" height="31.3"/>
			<rect x="468.8" y="406.3" class="st6" width="31.3" height="31.3"/>
			<rect x="468.8" y="218.8" class="st6" width="31.3" height="31.3"/>
			<rect x="468.8" y="343.8" class="st6" width="31.3" height="31.3"/>
			<rect x="468.8" y="437.5" class="st6" width="31.3" height="31.3"/>
			<rect x="468.8" y="62.5" class="st6" width="31.3" height="31.3"/>
			<rect x="468.8" y="31.3" class="st6" width="31.3" height="31.3"/>
			<rect x="468.8" class="st6" width="31.3" height="31.3"/>
			<rect x="468.8" y="125" class="st6" width="31.3" height="31.3"/>
			<rect x="468.8" y="156.3" class="st6" width="31.3" height="31.3"/>
			<rect x="468.8" y="93.8" class="st6" width="31.3" height="31.3"/>
			<rect x="468.8" y="187.5" class="st6" width="31.3" height="31.3"/>
			<rect x="343.8" y="468.8" class="st6" width="31.3" height="31.3"/>
			<rect x="218.8" y="468.8" class="st6" width="31.3" height="31.3"/>
			<rect x="125" y="468.8" class="st6" width="31.3" height="31.3"/>
			<rect x="468.8" y="468.8" class="st6" width="31.3" height="31.3"/>
			<rect x="156.3" y="468.8" class="st6" width="31.3" height="31.3"/>
			<rect x="93.8" y="468.8" class="st6" width="31.3" height="31.3"/>
			<rect x="31.3" y="468.8" class="st6" width="31.3" height="31.3"/>
			<rect x="62.5" y="468.8" class="st6" width="31.3" height="31.3"/>
			<rect x="187.5" y="468.8" class="st6" width="31.3" height="31.3"/>
			<rect x="406.3" y="468.8" class="st6" width="31.3" height="31.3"/>
			<rect x="250" y="468.8" class="st6" width="31.3" height="31.3"/>
			<rect x="437.5" y="468.8" class="st6" width="31.3" height="31.3"/>
			<rect x="375" y="468.8" class="st6" width="31.3" height="31.3"/>
			<rect x="281.3" y="468.8" class="st6" width="31.3" height="31.3"/>
			<rect x="312.5" y="468.8" class="st6" width="31.3" height="31.3"/>
			<rect y="468.8" class="st6" width="31.3" height="31.3"/>
			<rect x="187.5" y="31.3" class="st6" width="31.3" height="31.3"/>
			<rect x="281.3" y="31.3" class="st6" width="31.3" height="31.3"/>
			<rect x="250" y="31.3" class="st6" width="31.3" height="31.3"/>
			<rect x="218.8" y="31.3" class="st6" width="31.3" height="31.3"/>
			<rect x="343.8" y="31.3" class="st6" width="31.3" height="31.3"/>
			<rect x="375" y="31.3" class="st6" width="31.3" height="31.3"/>
			<rect x="312.5" y="31.3" class="st6" width="31.3" height="31.3"/>
			<rect x="281.3" y="406.3" class="st6" width="31.3" height="31.3"/>
			<rect x="31.3" y="31.3" class="st6" width="31.3" height="31.3"/>
			<rect x="406.3" y="31.3" class="st6" width="31.3" height="31.3"/>
			<rect x="156.3" y="31.3" class="st6" width="31.3" height="31.3"/>
			<rect x="31.3" y="93.8" class="st6" width="31.3" height="31.3"/>
			<rect x="31.3" y="62.5" class="st6" width="31.3" height="31.3"/>
			<rect x="62.5" y="31.3" class="st6" width="31.3" height="31.3"/>
			<rect x="125" y="31.3" class="st6" width="31.3" height="31.3"/>
			<rect x="93.8" y="31.3" class="st6" width="31.3" height="31.3"/>
			<rect x="312.5" y="406.3" class="st6" width="31.3" height="31.3"/>
			<rect x="406.3" y="312.5" class="st6" width="31.3" height="31.3"/>
			<rect x="406.3" y="343.8" class="st6" width="31.3" height="31.3"/>
			<rect x="406.3" y="406.3" class="st6" width="31.3" height="31.3"/>
			<rect x="406.3" y="62.5" class="st6" width="31.3" height="31.3"/>
			<rect x="31.3" y="125" class="st6" width="31.3" height="31.3"/>
			<rect x="343.8" y="406.3" class="st6" width="31.3" height="31.3"/>
			<rect x="375" y="406.3" class="st6" width="31.3" height="31.3"/>
			<rect x="406.3" y="375" class="st6" width="31.3" height="31.3"/>
			<rect x="406.3" y="156.3" class="st6" width="31.3" height="31.3"/>
			<rect x="406.3" y="125" class="st6" width="31.3" height="31.3"/>
			<rect x="406.3" y="93.8" class="st6" width="31.3" height="31.3"/>
			<rect x="406.3" y="281.3" class="st6" width="31.3" height="31.3"/>
			<rect x="406.3" y="250" class="st6" width="31.3" height="31.3"/>
			<rect x="406.3" y="187.5" class="st6" width="31.3" height="31.3"/>
			<rect x="406.3" y="218.8" class="st6" width="31.3" height="31.3"/>
			<rect x="437.5" y="187.5" class="st6" width="31.3" height="31.3"/>
			<rect x="31.3" y="156.3" class="st6" width="31.3" height="31.3"/>
			<rect x="375" y="437.5" class="st6" width="31.3" height="31.3"/>
			<rect x="250" y="437.5" class="st6" width="31.3" height="31.3"/>
			<rect x="437.5" y="406.3" class="st6" width="31.3" height="31.3"/>
			<rect x="281.3" y="437.5" class="st6" width="31.3" height="31.3"/>
			<rect x="312.5" y="437.5" class="st6" width="31.3" height="31.3"/>
			<rect x="343.8" y="437.5" class="st6" width="31.3" height="31.3"/>
			<rect x="437.5" y="437.5" class="st6" width="31.3" height="31.3"/>
			<rect x="437.5" y="218.8" class="st6" width="31.3" height="31.3"/>
			<rect x="437.5" y="156.3" class="st6" width="31.3" height="31.3"/>
			<rect x="437.5" y="250" class="st6" width="31.3" height="31.3"/>
			<rect x="437.5" y="375" class="st6" width="31.3" height="31.3"/>
			<rect x="437.5" y="343.8" class="st6" width="31.3" height="31.3"/>
			<rect x="437.5" y="312.5" class="st6" width="31.3" height="31.3"/>
			<rect x="437.5" y="281.3" class="st6" width="31.3" height="31.3"/>
			<rect x="406.3" y="437.5" class="st6" width="31.3" height="31.3"/>
			<rect x="31.3" y="312.5" class="st6" width="31.3" height="31.3"/>
			<rect x="31.3" y="343.8" class="st6" width="31.3" height="31.3"/>
			<rect x="31.3" y="281.3" class="st6" width="31.3" height="31.3"/>
			<rect x="31.3" y="218.8" class="st6" width="31.3" height="31.3"/>
			<rect x="31.3" y="187.5" class="st6" width="31.3" height="31.3"/>
			<rect x="31.3" y="375" class="st6" width="31.3" height="31.3"/>
			<rect x="31.3" y="250" class="st6" width="31.3" height="31.3"/>
			<rect x="187.5" y="437.5" class="st6" width="31.3" height="31.3"/>
			<rect x="125" y="437.5" class="st6" width="31.3" height="31.3"/>
			<rect x="156.3" y="437.5" class="st6" width="31.3" height="31.3"/>
			<rect x="218.8" y="437.5" class="st6" width="31.3" height="31.3"/>
			<rect x="93.8" y="437.5" class="st6" width="31.3" height="31.3"/>
			<rect x="31.3" y="406.3" class="st6" width="31.3" height="31.3"/>
			<rect x="31.3" y="437.5" class="st6" width="31.3" height="31.3"/>
			<rect x="62.5" y="437.5" class="st6" width="31.3" height="31.3"/>
		</g>
		<g>
			<rect class="st7" width="500" height="500"/>
			<rect class="st7" width="62.5" height="62.5"/>
			<rect x="437.5" class="st7" width="62.5" height="62.5"/>
			<rect y="437.5" class="st7" width="62.5" height="62.5"/>
			<rect x="437.5" y="437.5" class="st7" width="62.5" height="62.5"/>
			<rect x="62.5" y="62.5" class="st7" width="187.5" height="187.5"/>
			<rect x="250" y="62.5" class="st7" width="187.5" height="187.5"/>
			<rect x="62.5" y="250" class="st7" width="187.5" height="187.5"/>
			<rect x="250" y="250" class="st7" width="187.5" height="187.5"/>
			<line class="st7" x1="0" y1="0" x2="500" y2="500"/>
			<line class="st7" x1="500" y1="0" x2="0" y2="500"/>
			<circle class="st7" cx="250" cy="250" r="187.5"/>
			<circle class="st7" cx="250" cy="250" r="250"/>
		</g>
		<rect x="62.5" class="st7" width="375" height="500"/>
	</g>
</g>
<polygon class="st8" points="208,7.5 356,7.5 274,171 372,171 136,492.5 223.7,245.2 129,244 "/>
</svg>
