<?xml version="1.0" encoding="UTF-8" standalone="no"?>
<!-- Created with Inkscape (http://www.inkscape.org/) -->

<svg
   xmlns:dc="http://purl.org/dc/elements/1.1/"
   xmlns:cc="http://creativecommons.org/ns#"
   xmlns:rdf="http://www.w3.org/1999/02/22-rdf-syntax-ns#"
   xmlns:svg="http://www.w3.org/2000/svg"
   xmlns="http://www.w3.org/2000/svg"
   xmlns:sodipodi="http://sodipodi.sourceforge.net/DTD/sodipodi-0.dtd"
   xmlns:inkscape="http://www.inkscape.org/namespaces/inkscape"
   width="98.785164mm"
   height="98.785545mm"
   viewBox="0 0 98.785164 98.785545"
   version="1.1"
   id="svg8"
   inkscape:version="0.92.5 (2060ec1f9f, 2020-04-08)"
   sodipodi:docname="sharpen_mesh.svg">
  <defs
     id="defs2">
    <inkscape:perspective
       sodipodi:type="inkscape:persp3d"
       inkscape:vp_x="-13.075136 : -5.2206773 : 1"
       inkscape:vp_y="0 : 768.49437 : 0"
       inkscape:vp_z="53.393003 : 2.1292349 : 1"
       inkscape:persp3d-origin="20.426204 : -8.072601 : 1"
       id="perspective3766" />
    <inkscape:perspective
       sodipodi:type="inkscape:persp3d"
       inkscape:vp_x="-13.075136 : -5.2206773 : 1"
       inkscape:vp_y="0 : 768.49437 : 0"
       inkscape:vp_z="53.393003 : 2.1292349 : 1"
       inkscape:persp3d-origin="20.426204 : -8.072601 : 1"
       id="perspective3766-6" />
  </defs>
  <sodipodi:namedview
     id="base"
     pagecolor="#ffffff"
     bordercolor="#666666"
     borderopacity="1.0"
     inkscape:pageopacity="0.0"
     inkscape:pageshadow="2"
     inkscape:zoom="0.98994949"
     inkscape:cx="396.33912"
     inkscape:cy="284.84092"
     inkscape:document-units="mm"
     inkscape:current-layer="layer1"
     showgrid="false"
     inkscape:window-width="1920"
     inkscape:window-height="1017"
     inkscape:window-x="-8"
     inkscape:window-y="-8"
     inkscape:window-maximized="1" />
  <metadata
     id="metadata5">
    <rdf:RDF>
      <cc:Work
         rdf:about="">
        <dc:format>image/svg+xml</dc:format>
        <dc:type
           rdf:resource="http://purl.org/dc/dcmitype/StillImage" />
        <dc:title></dc:title>
      </cc:Work>
    </rdf:RDF>
  </metadata>
  <g
     inkscape:label="Layer 1"
     inkscape:groupmode="layer"
     id="layer1"
     transform="translate(-13.215179,-87.178639)">
    <path
       inkscape:connector-curvature="0"
       style="fill:#ff6600;fill-opacity:1;stroke:none;stroke-width:0.46499997;stroke-linecap:round;stroke-linejoin:round;stroke-miterlimit:4;stroke-dasharray:none;stroke-opacity:1"
       d="m 193.34749,172.72594 a 49.325892,49.325892 0 0 0 -26.96528,43.96527 49.325892,49.325892 0 0 0 49.32568,49.32619 49.325892,49.325892 0 0 0 49.32619,-49.32619 49.325892,49.325892 0 0 0 -0.0346,-0.9741 z"
       id="path815-33" />
    <path
       style="fill:#ff0000;fill-opacity:1;stroke:#000000;stroke-width:0.26458332px;stroke-linecap:butt;stroke-linejoin:miter;stroke-opacity:1"
       d="m 178.36862,184.18482 c 0,0 14.83346,-11.35896 29.66692,-2.6727 14.83346,8.68627 45.83672,27.39513 45.83672,27.39513 0,0 10.95805,7.21627 8.28536,24.32153 -2.6727,17.10525 8.15172,31.40417 8.15172,31.40417 l 21.24793,-11.8935 c 0,0 7.75081,-46.9058 8.01808,-48.64305 0.26727,-1.73725 -1.46998,-24.85607 -3.74177,-26.72695 -2.27179,-1.87089 -71.09369,-8.55263 -72.29641,-8.55263 -1.20271,0 -33.40869,-2.27179 -33.40869,-2.27179 0,0 -9.88897,-0.66817 -11.49259,-0.26727 -1.60361,0.4009 -8.41899,7.75082 -8.41899,7.75082 z"
       id="path835-5"
       inkscape:connector-curvature="0" />
    <circle
       style="fill:#ff6600;fill-opacity:1;stroke:none;stroke-width:0.46499997;stroke-linecap:round;stroke-linejoin:round;stroke-miterlimit:4;stroke-dasharray:none;stroke-opacity:1"
       id="path815-3-1"
       cx="62.541073"
       cy="136.63829"
       r="49.325893" />
    <path
       style="fill:#00aab2;fill-opacity:1;stroke:none;stroke-width:0.46499997;stroke-linecap:round;stroke-linejoin:round;stroke-miterlimit:4;stroke-dasharray:none;stroke-opacity:1"
       d="M 62.674674,87.178639 A 49.325892,49.325892 0 0 0 27.091833,102.4268 c 3.188888,-2.13556 16.03685,-9.670441 28.901077,-2.13734 14.833457,8.68627 45.837,27.39523 45.837,27.39523 0,0 9.38723,6.1842 8.66407,20.66954 a 49.325892,49.325892 0 0 0 1.50636,-11.84941 49.325892,49.325892 0 0 0 -49.325666,-49.326181 z"
       id="path815-3"
       inkscape:connector-curvature="0" />
  </g>
</svg>
