<svg id="ff3c2762-dfec-4eec-bfc4-43834d53b043" data-name="diff" xmlns="http://www.w3.org/2000/svg" viewBox="0 0 500 499"><g id="ef1f2db5-d2ce-4080-a5e1-b8398cd55caf" data-name="background white"><rect x="1" width="499" height="499" rx="72.28" style="fill:#fff"/></g><path d="M411.56,41.53a47.24,47.24,0,0,1,47.19,47.19V411.57a47.24,47.24,0,0,1-47.19,47.19H88.44a47.24,47.24,0,0,1-47.19-47.19V88.72A47.24,47.24,0,0,1,88.44,41.53H411.56m0-10H88.44A57.19,57.19,0,0,0,31.25,88.72V411.57a57.18,57.18,0,0,0,57.19,57.19H411.56a57.18,57.18,0,0,0,57.19-57.19V88.72a57.19,57.19,0,0,0-57.19-57.19Z" transform="translate(0 -1)" style="fill:#f60"/><path d="M107.2,345.36v-72H231.74l30.6-40.8H107.2v-72H317.55l96.7-128.5L88.19,32C56.6,32,31,56.6,31,88.19v323.5a57.29,57.29,0,0,0,54.81,57.23L178,345.36Z" transform="translate(0 -1)" style="fill:#f60"/><polygon points="262.57 231.56 391.6 231.56 392.8 159.56 317.77 159.56 262.57 231.56" style="fill:#f60"/><polygon points="391.6 344.36 391.6 272.36 232.03 272.36 178.03 344.36 391.6 344.36" style="fill:#f60"/><path d="M426.72,1H72.28A72.28,72.28,0,0,0,0,73.28V427.72A72.28,72.28,0,0,0,72.28,500H426.72A72.28,72.28,0,0,0,499,427.72V73.28A72.28,72.28,0,0,0,426.72,1ZM411.81,469H88.19A57.18,57.18,0,0,1,31,411.81V89.19A57.18,57.18,0,0,1,88.19,32H411.81A57.18,57.18,0,0,1,469,89.19V411.81A57.18,57.18,0,0,1,411.81,469Z" transform="translate(0 -1)" style="fill:#fff"/></svg>