<?xml version="1.0" encoding="utf-8"?>
<!-- Generator: Adobe Illustrator 24.3.0, SVG Export Plug-In . SVG Version: 6.00 Build 0)  -->
<svg version="1.1" id="Layer_1" xmlns="http://www.w3.org/2000/svg" xmlns:xlink="http://www.w3.org/1999/xlink" x="0px" y="0px"
	 viewBox="0 0 200 200" style="enable-background:new 0 0 200 200;" xml:space="preserve">
<style type="text/css">
	.st0{clip-path:url(#SVGID_2_);fill-rule:evenodd;clip-rule:evenodd;fill:#C71533;}
	.st1{clip-path:url(#SVGID_2_);fill:#FFFFFF;}
</style>
<g>
	<defs>
		<rect id="SVGID_1_" width="200" height="200"/>
	</defs>
	<clipPath id="SVGID_2_">
		<use xlink:href="#SVGID_1_"  style="overflow:visible;"/>
	</clipPath>
	<path class="st0" d="M169.8,200H30.2C13.6,200,0,186.4,0,169.8V30.2C0,13.6,13.6,0,30.2,0h139.6C186.4,0,200,13.6,200,30.2v139.6
		C200,186.4,186.4,200,169.8,200"/>
	<path class="st1" d="M142.3,143.4c-6.3-2.6-7.5-4.3-12.9-9c-6.4-5.6-10.2-13.1-11.3-14.9c-5.6-8.5,3.1-16.3,5.7-19.2
		c5.5-6.2,18.6-1.3,24.8,0.5c6.2,1.9,10.7,4.1,12-1c0.5-1.9-2.4-4.5-11.7-7.4c-7.9-2.5-8.5-3-14.2-5.7c-4-1.9-9.3-4.4-9.4-11.4
		c-0.1-7.9,3.7-10.1,8.1-11c5.4-1.1,9.8,0.7,19.9,1.3c7.3,0.5,8.9-1.6,7.6-3.7c-2.4-3.9-20.7-2-23.4-7.4c-2.9-5.9,4.8-13.6,5.9-15.2
		c1-1.5,5.2-4.3,1-6.2c-3.1-1.5-6.2,3-7.8,5.5c-2,3.2-1,1.3-4.7,6.8c-6.2,9.2-13.1,12.3-20.2,10.2c-5.5-1.7-7.2-2.8-7.3-7.6
		c0-2.4,0.3-12.8,0.4-17.3c0.1-3.6-1.4-4.7-3.2-5c-2.2-0.4-3.4,0.8-4.4,3.8c-1,3.2-0.5,7.2-3.1,17.4c-1.5,6-4.6,8.2-11.1,8.9
		c-16,1.8-12-12.8-13.1-20.8c-0.4-2.8-0.7-12.6-6.1-11.4c-3.4,0.8-1.1,6.8-0.1,12.2c0.8,4.3,0.3,10.3-2.5,12
		c-4.4,2.7-16.8-5.3-19.9-7.5c-1.7-1.2-4.7-1.2-5.9,2.3C34.5,46.2,48.8,53,54.2,54.7C64.1,58,70.8,64.8,69.3,72
		c-2.1,10.5-10.8,10.8-16.8,9.2c-5.7-1.5-10.6-4.9-12.2-5.3c-7.8-2.1-8.8,5-3.8,6.8c4.9,1.8,13.8,3.6,14.7,8
		c1.4,6.6-14.9,12.5-16.9,14c-2,1.5,1.2,5.8,4,5.2c2.7-0.6,6.5-4.5,13.2-8.8c10.1-6.5,16.1-5.2,19.7-0.7c4.5,5.7,5.1,10,1.4,17.5
		c-4.6,9.2-8,15.5-9,17.6c-1.9,4.1,4.3,7.3,6.5,3.4c1.8-3.1,15.3-25.2,26.4-24.4c2.3,0.2,4.9,0.5,7.1,1.4
		c3.8,1.5,12.1,14.2,20.7,22.7c3.8,3.8,7.9,7.3,11.1,10.3c4.6,4.3,5.6,8.4,7.5,12.3c1.6,3.3,3.3,6.5,5.2,9.6
		c1.6,2.6,4.1,5.9,7.3,3.3c2.8-2.3-8.7-15.3-5.8-19.8c3.6-5.8,17.4,0.7,17.1-5.8C166.3,143.1,149.8,146.5,142.3,143.4 M97.4,101
		c-10.3,0-18.7-8.4-18.7-18.7c0-10.3,8.4-18.7,18.7-18.7s18.7,8.4,18.7,18.7C116.2,92.7,107.8,101,97.4,101"/>
</g>
</svg>
