<?xml version="1.0" encoding="UTF-8" standalone="no"?>
<svg
   xmlns:dc="http://purl.org/dc/elements/1.1/"
   xmlns:cc="http://creativecommons.org/ns#"
   xmlns:rdf="http://www.w3.org/1999/02/22-rdf-syntax-ns#"
   xmlns:svg="http://www.w3.org/2000/svg"
   xmlns="http://www.w3.org/2000/svg"
   xmlns:sodipodi="http://sodipodi.sourceforge.net/DTD/sodipodi-0.dtd"
   xmlns:inkscape="http://www.inkscape.org/namespaces/inkscape"
   sodipodi:docname="polyslice.svg"
   inkscape:version="1.0 (4035a4fb49, 2020-05-01)"
   id="svg8"
   version="1.1"
   viewBox="0 0 71.996995 71.996994"
   height="71.996994mm"
   width="71.996994mm">
  <defs
     id="defs2" />
  <sodipodi:namedview
     inkscape:window-maximized="1"
     inkscape:window-y="-8"
     inkscape:window-x="1912"
     inkscape:window-height="1537"
     inkscape:window-width="3840"
     showgrid="false"
     inkscape:document-rotation="0"
     inkscape:current-layer="layer3"
     inkscape:document-units="mm"
     inkscape:cy="83.815018"
     inkscape:cx="66.004738"
     inkscape:zoom="2.8"
     inkscape:pageshadow="2"
     inkscape:pageopacity="0.0"
     borderopacity="1.0"
     bordercolor="#666666"
     pagecolor="#ffffff"
     id="base" />
  <metadata
     id="metadata5">
    <rdf:RDF>
      <cc:Work
         rdf:about="">
        <dc:format>image/svg+xml</dc:format>
        <dc:type
           rdf:resource="http://purl.org/dc/dcmitype/StillImage" />
        <dc:title></dc:title>
      </cc:Work>
    </rdf:RDF>
  </metadata>
  <g
     transform="translate(-44.502886,-131.05565)"
     inkscape:label="Layer 2"
     id="layer2"
     inkscape:groupmode="layer">
    <path
       sodipodi:nodetypes="cscscscsscsscscscc"
       id="path863"
       d="m 44.884673,192.02139 c 0,0 0.850445,5.5279 6.000371,5.29167 5.149924,-0.23624 30.852306,0.0945 30.852306,0.0945 0,0 1.559152,-0.23623 6.52009,-2.22061 4.960937,-1.98437 23.05655,-9.63839 23.05655,-9.63839 0,0 4.48846,-1.55915 4.48846,-5.85863 0,-4.29948 -0.0472,-25.60789 -0.0472,-25.60789 0,0 -0.18899,-1.46466 -1.55916,-3.07106 -1.37016,-1.6064 3.07106,-0.42522 1.37017,-6.61458 -1.70089,-6.18936 -16.016747,-7.2288 -16.016747,-7.2288 0,0 -8.173731,-0.42522 -12.756692,0.14175 -4.582959,0.56696 -5.244418,0.37797 -18.70982,6.04761 -13.465403,5.66965 -17.103423,7.2288 -17.103423,7.2288 0,0 -5.38616,3.07106 -6.047619,7.98475 -0.661458,4.91369 1.2048,5.45703 1.2048,5.45703 0,0 -1.346542,1.63002 -1.393789,3.61439 -0.04725,1.98438 0.141743,24.37947 0.141743,24.37947 z"
       style="fill:#f86b14;fill-opacity:1;stroke:none;stroke-width:0.264583px;stroke-linecap:butt;stroke-linejoin:miter;stroke-opacity:1" />
  </g>
  <g
     transform="translate(-44.502886,-131.05565)"
     id="layer1"
     inkscape:groupmode="layer"
     inkscape:label="Layer 1">
    <path
       sodipodi:nodetypes="cscscscscssscc"
       id="path847"
       d="m 48.843506,163.9442 c 0,0 -2.305201,0.83522 -2.204974,5.54585 0.100227,4.71062 -0.200451,21.81587 -0.200451,21.81587 0,0 -0.53454,4.30972 4.443354,4.27631 4.977895,-0.0334 29.700326,0 29.700326,0 0,0 5.445617,0.63477 5.34539,-4.51017 -0.100224,-5.14494 -0.100224,-23.48631 -0.100224,-23.48631 0,0 0.444998,-2.41115 -1.971114,-2.90656 -0.496717,-0.10185 1.403165,-2.40542 1.403165,-2.40542 0,0 1.937705,-3.24064 -0.267269,-5.51244 -2.204974,-2.27179 -8.586033,-5.0113 -19.209996,-4.74403 -10.623965,0.26727 -13.129617,1.50339 -16.37026,3.0736 -3.240643,1.57021 -3.04019,4.51017 -3.04019,4.51017 0,0 -0.668173,2.33861 2.472243,4.34313 z"
       style="fill:#ffffff;fill-opacity:1;stroke:none;stroke-width:0.264583px;stroke-linecap:butt;stroke-linejoin:miter;stroke-opacity:1" />
  </g>
  <g
     transform="translate(-44.502886,-131.05565)"
     style="display:inline"
     inkscape:label="Layer 3"
     id="layer3"
     inkscape:groupmode="layer" />
  <g
     transform="translate(-44.502886,-131.05565)"
     inkscape:label="Layer 4"
     id="layer4"
     inkscape:groupmode="layer">
    <path
       style="fill:none;stroke:#ffffff;stroke-width:2.365;stroke-linecap:round;stroke-linejoin:miter;stroke-miterlimit:4;stroke-dasharray:none;stroke-opacity:1"
       d="m 96.650103,192.79536 c 0,0 0.784553,-1.16915 0.784553,-5.37865 0,-4.20949 -0.0668,-24.85606 -0.0668,-24.85606 0,0 0.32902,-2.32508 -1.68525,-2.68682 0,0 -0.14858,-0.98034 1.41799,-3.1263 1.39061,-1.90493 -0.46772,-6.68173 -4.94449,-8.95352 -4.47677,-2.2718 -17.720206,-4.05662 -23.818025,-3.40098 -5.881008,0.63233 -8.333457,1.16791 -8.333457,1.16791"
       id="path871-6"
       sodipodi:nodetypes="cscssssc" />
    <path
       sodipodi:nodetypes="cscsscsc"
       id="path871-6-2"
       d="m 106.8939,188.5398 c 0,0 0.73039,-1.22332 0.73039,-5.43282 0,-4.20949 -0.0668,-24.85606 -0.0668,-24.85606 0,0 0.32902,-2.32508 -1.68525,-2.68682 0,0 0.91358,-1.24887 1.95253,-3.69425 0.92289,-2.1722 -0.79128,-5.60484 -3.66448,-7.3755 -1.53541,-0.885 -5.176475,-3.03242 -10.570797,-4.35483 -5.875111,-1.44027 -13.680382,-1.97228 -19.278799,-0.6318"
       style="fill:none;stroke:#ffffff;stroke-width:2.365;stroke-linecap:round;stroke-linejoin:miter;stroke-miterlimit:4;stroke-dasharray:none;stroke-opacity:1" />
  </g>
</svg>
