<?xml version="1.0" encoding="UTF-8" standalone="no"?>
<svg
   xmlns:dc="http://purl.org/dc/elements/1.1/"
   xmlns:cc="http://creativecommons.org/ns#"
   xmlns:rdf="http://www.w3.org/1999/02/22-rdf-syntax-ns#"
   xmlns:svg="http://www.w3.org/2000/svg"
   xmlns="http://www.w3.org/2000/svg"
   xmlns:xlink="http://www.w3.org/1999/xlink"
   width="500"
   height="500"
   viewBox="0 0 132.29167 132.29167"
   version="1.1"
   id="svg8">
  <defs
     id="defs2">
    <linearGradient
       id="linearGradient3131">
      <stop
         style="stop-color:#ffffff;stop-opacity:0.34999999"
         offset="0"
         id="stop3127" />
      <stop
         style="stop-color:#ffffff;stop-opacity:0"
         offset="1"
         id="stop3129" />
    </linearGradient>
    <linearGradient
       id="linearGradient901">
      <stop
         style="stop-color:#d1d1d1;stop-opacity:1"
         offset="0"
         id="stop897" />
      <stop
         style="stop-color:#e8e8e8;stop-opacity:1"
         offset="1"
         id="stop899" />
    </linearGradient>
    <linearGradient
       id="linearGradient891">
      <stop
         style="stop-color:#f7f7f7;stop-opacity:1"
         offset="0"
         id="stop887" />
      <stop
         style="stop-color:#ffffff;stop-opacity:1"
         offset="1"
         id="stop889" />
    </linearGradient>
    <linearGradient
       id="linearGradient885">
      <stop
         style="stop-color:#bfbfbf;stop-opacity:1"
         offset="0"
         id="stop881" />
      <stop
         style="stop-color:#d1d1d1;stop-opacity:1"
         offset="1"
         id="stop883" />
    </linearGradient>
    <linearGradient
       id="linearGradient869">
      <stop
         style="stop-color:#bfbfbf;stop-opacity:1"
         offset="0"
         id="stop865" />
      <stop
         style="stop-color:#d1d1d1;stop-opacity:1"
         offset="1"
         id="stop867" />
    </linearGradient>
    <linearGradient
       id="linearGradient861">
      <stop
         style="stop-color:#d9d9d9;stop-opacity:1"
         offset="0"
         id="stop857" />
      <stop
         style="stop-color:#f5f5f5;stop-opacity:1"
         offset="1"
         id="stop859" />
    </linearGradient>
    <linearGradient
       xlink:href="#linearGradient861"
       id="linearGradient863"
       x1="61.908081"
       y1="109.81313"
       x2="109.38079"
       y2="54.178921"
       gradientUnits="userSpaceOnUse"
       gradientTransform="translate(173.34022,154.05841)" />
    <linearGradient
       xlink:href="#linearGradient869"
       id="linearGradient871"
       x1="49.469921"
       y1="105.42325"
       x2="31.691042"
       y2="41.640556"
       gradientUnits="userSpaceOnUse"
       gradientTransform="translate(173.34022,154.05841)" />
    <linearGradient
       xlink:href="#linearGradient885"
       id="linearGradient873"
       x1="53.11269"
       y1="113.02187"
       x2="56.717224"
       y2="112.5116"
       gradientUnits="userSpaceOnUse"
       gradientTransform="translate(173.34022,154.05841)" />
    <linearGradient
       xlink:href="#linearGradient891"
       id="linearGradient893"
       x1="51.958572"
       y1="45.878307"
       x2="85.983437"
       y2="35.683125"
       gradientUnits="userSpaceOnUse"
       gradientTransform="translate(173.34022,154.05841)" />
    <linearGradient
       xlink:href="#linearGradient901"
       id="linearGradient895"
       x1="64.150108"
       y1="62.444122"
       x2="69.167976"
       y2="58.102425"
       gradientUnits="userSpaceOnUse"
       gradientTransform="translate(173.34022,154.05841)" />
    <linearGradient
       xlink:href="#linearGradient3131"
       id="linearGradient3133"
       x1="98.038589"
       y1="13.541473"
       x2="33.354248"
       y2="78.225822"
       gradientUnits="userSpaceOnUse"
       gradientTransform="matrix(1.2790209,0,0,1.2790208,-12.719488,-8.2844091)" />
    <filter
       style="color-interpolation-filters:sRGB;"
       id="filter1265">
      <feFlood
         flood-opacity="0.4"
         flood-color="rgb(0,0,0)"
         result="flood"
         id="feFlood1255" />
      <feComposite
         in="flood"
         in2="SourceGraphic"
         operator="in"
         result="composite1"
         id="feComposite1257" />
      <feGaussianBlur
         in="composite1"
         stdDeviation="1"
         result="blur"
         id="feGaussianBlur1259" />
      <feOffset
         dx="-1"
         dy="1.5"
         result="offset"
         id="feOffset1261" />
      <feComposite
         in="SourceGraphic"
         in2="offset"
         operator="over"
         result="composite2"
         id="feComposite1263" />
    </filter>
  </defs>
  <metadata
     id="metadata5">
    <rdf:RDF>
      <cc:Work
         rdf:about="">
        <dc:format>image/svg+xml</dc:format>
        <dc:type
           rdf:resource="http://purl.org/dc/dcmitype/StillImage" />
        <dc:title></dc:title>
      </cc:Work>
    </rdf:RDF>
  </metadata>
  <g
     id="layer1"
     style="display:inline;opacity:1">
    <g
       transform="matrix(0.264583,0,0,0.264583,79.639252,71.437533)"
       id="g962" />
    <g
       id="g1555"
       style="filter:url(#filter1265)">
      <g
         id="g1514">
        <path
           style="fill:#ff6600;fill-rule:evenodd;stroke:none;stroke-width:0.404813;stroke-linecap:square;stroke-miterlimit:4;stroke-dasharray:none"
           d="M 29.668166,18.843448 V 8.5881982 H 39.855948 50.043729 V 18.843448 29.098698 H 39.855948 29.668166 Z"
           id="path1322" />
        <path
           style="fill:#ff6600;fill-rule:evenodd;stroke:none;stroke-width:0.404813;stroke-linecap:square;stroke-miterlimit:4;stroke-dasharray:none"
           d="M 71.603303,18.843448 V 8.5881982 h 10.25525 10.25525 v 10.2552498 10.25525 h -10.25525 -10.25525 z"
           id="path1324" />
        <path
           style="fill:#ff6600;fill-rule:evenodd;stroke:none;stroke-width:0.404813;stroke-linecap:square;stroke-miterlimit:4;stroke-dasharray:none"
           d="M 71.603303,39.877824 V 29.622573 h 10.25525 10.25525 v 10.255251 10.25525 h -10.25525 -10.25525 z"
           id="path1326" />
        <path
           style="fill:#ff6600;fill-rule:evenodd;stroke:none;stroke-width:0.404813;stroke-linecap:square;stroke-miterlimit:4;stroke-dasharray:none"
           d="M 50.568927,39.877824 V 29.622573 h 10.255251 10.25525 v 10.255251 10.25525 H 60.824178 50.568927 Z"
           id="path1328" />
        <path
           style="fill:#ff6600;fill-rule:evenodd;stroke:none;stroke-width:0.404813;stroke-linecap:square;stroke-miterlimit:4;stroke-dasharray:none"
           d="M 71.603303,60.846053 V 50.658272 h 10.25525 10.25525 v 10.187781 10.187782 h -10.25525 -10.25525 z"
           id="path1330" />
        <path
           style="fill:#ff6600;fill-rule:evenodd;stroke:none;stroke-width:0.404813;stroke-linecap:square;stroke-miterlimit:4;stroke-dasharray:none"
           d="M 8.6324667,60.846053 V 50.658272 H 18.887717 29.142969 V 60.846053 71.033835 H 18.887717 8.6324667 Z"
           id="path1332" />
        <path
           style="fill:#ff6600;fill-rule:evenodd;stroke:none;stroke-width:0.404813;stroke-linecap:square;stroke-miterlimit:4;stroke-dasharray:none"
           d="M 8.6324667,81.814283 V 71.559033 H 18.887717 29.142969 v 10.25525 10.25525 H 18.887717 8.6324667 Z"
           id="path1334" />
        <path
           style="fill:#ff6600;fill-rule:evenodd;stroke:none;stroke-width:0.404813;stroke-linecap:square;stroke-miterlimit:4;stroke-dasharray:none"
           d="m 29.668166,81.814283 v -10.25525 h 10.187782 10.187781 v 10.25525 10.25525 H 39.855948 29.668166 Z"
           id="path1336" />
        <path
           style="fill:#ff6600;fill-rule:evenodd;stroke:none;stroke-width:0.404813;stroke-linecap:square;stroke-miterlimit:4;stroke-dasharray:none"
           d="M 50.568927,102.84866 V 92.593408 h 10.255251 10.25525 v 10.255252 10.25525 H 60.824178 50.568927 Z"
           id="path1338" />
        <path
           style="fill:#ff6600;fill-rule:evenodd;stroke:none;stroke-width:0.404813;stroke-linecap:square;stroke-miterlimit:4;stroke-dasharray:none"
           d="M 71.603303,102.84866 V 92.593408 h 10.25525 10.25525 v 10.255252 10.25525 h -10.25525 -10.25525 z"
           id="path1340" />
        <path
           style="fill:#ff6600;fill-rule:evenodd;stroke:none;stroke-width:0.404813;stroke-linecap:square;stroke-miterlimit:4;stroke-dasharray:none"
           d="m 92.637678,81.814283 v -10.25525 h 10.255252 10.25525 v 10.25525 10.25525 H 102.89293 92.637678 Z"
           id="path1342" />
        <path
           style="fill:#f2f2f2;fill-rule:evenodd;stroke:none;stroke-width:0.404813;stroke-linecap:square;stroke-miterlimit:4;stroke-dasharray:none"
           d="M 8.6324667,18.843448 V 8.5881982 H 18.887717 29.142969 V 18.843448 29.098698 H 18.887717 8.6324667 Z"
           id="path1344" />
        <path
           style="fill:#f2f2f2;fill-rule:evenodd;stroke:none;stroke-width:0.404813;stroke-linecap:square;stroke-miterlimit:4;stroke-dasharray:none"
           d="M 8.6324667,39.877824 V 29.622573 H 18.887717 29.142969 v 10.255251 10.25525 H 18.887717 8.6324667 Z"
           id="path1346" />
        <path
           style="fill:#f2f2f2;fill-rule:evenodd;stroke:none;stroke-width:0.404813;stroke-linecap:square;stroke-miterlimit:4;stroke-dasharray:none"
           d="M 29.668166,39.877824 V 29.622573 h 10.187782 10.187781 v 10.255251 10.25525 H 39.855948 29.668166 Z"
           id="path1348" />
        <path
           style="fill:#f2f2f2;fill-rule:evenodd;stroke:none;stroke-width:0.404813;stroke-linecap:square;stroke-miterlimit:4;stroke-dasharray:none"
           d="M 50.568927,18.843448 V 8.5881982 h 10.255251 10.25525 V 18.843448 29.098698 H 60.824178 50.568927 Z"
           id="path1350" />
        <path
           style="fill:#f2f2f2;fill-rule:evenodd;stroke:none;stroke-width:0.404813;stroke-linecap:square;stroke-miterlimit:4;stroke-dasharray:none"
           d="M 92.637678,18.843448 V 8.5881982 h 10.255252 10.25525 V 18.843448 29.098698 H 102.89293 92.637678 Z"
           id="path1352" />
        <path
           style="fill:#f2f2f2;fill-rule:evenodd;stroke:none;stroke-width:0.404813;stroke-linecap:square;stroke-miterlimit:4;stroke-dasharray:none"
           d="M 92.637678,39.877824 V 29.622573 h 10.255252 10.25525 v 10.255251 10.25525 H 102.89293 92.637678 Z"
           id="path1354" />
        <path
           style="fill:#f2f2f2;fill-rule:evenodd;stroke:none;stroke-width:0.404813;stroke-linecap:square;stroke-miterlimit:4;stroke-dasharray:none"
           d="M 92.637678,60.846053 V 50.658272 h 10.255252 10.25525 V 60.846053 71.033835 H 102.89293 92.637678 Z"
           id="path1356" />
        <path
           style="fill:#f2f2f2;fill-rule:evenodd;stroke:none;stroke-width:0.404813;stroke-linecap:square;stroke-miterlimit:4;stroke-dasharray:none"
           d="M 50.568927,60.846053 V 50.658272 h 10.255251 10.25525 V 60.846053 71.033835 H 60.824178 50.568927 Z"
           id="path1358" />
        <path
           style="fill:#f2f2f2;fill-rule:evenodd;stroke:none;stroke-width:0.404813;stroke-linecap:square;stroke-miterlimit:4;stroke-dasharray:none"
           d="M 29.668166,60.846053 V 50.658272 H 39.855948 50.043729 V 60.846053 71.033835 H 39.855948 29.668166 Z"
           id="path1360" />
        <path
           style="fill:#f2f2f2;fill-rule:evenodd;stroke:none;stroke-width:0.404813;stroke-linecap:square;stroke-miterlimit:4;stroke-dasharray:none"
           d="m 50.568927,81.814283 v -10.25525 h 10.255251 10.25525 v 10.25525 10.25525 H 60.824178 50.568927 Z"
           id="path1362" />
        <path
           style="fill:#f2f2f2;fill-rule:evenodd;stroke:none;stroke-width:0.404813;stroke-linecap:square;stroke-miterlimit:4;stroke-dasharray:none"
           d="m 71.603303,81.814283 v -10.25525 h 10.25525 10.25525 v 10.25525 10.25525 h -10.25525 -10.25525 z"
           id="path1364" />
        <path
           style="fill:#f2f2f2;fill-rule:evenodd;stroke:none;stroke-width:0.404813;stroke-linecap:square;stroke-miterlimit:4;stroke-dasharray:none"
           d="M 92.637678,102.84866 V 92.593408 h 10.255252 10.25525 v 10.255252 10.25525 H 102.89293 92.637678 Z"
           id="path1366" />
        <path
           style="fill:#f2f2f2;fill-rule:evenodd;stroke:none;stroke-width:0.404813;stroke-linecap:square;stroke-miterlimit:4;stroke-dasharray:none"
           d="M 29.668166,102.84866 V 92.593408 h 10.187782 10.187781 v 10.255252 10.25525 H 39.855948 29.668166 Z"
           id="path1368" />
        <path
           style="fill:#f2f2f2;fill-rule:evenodd;stroke:none;stroke-width:0.404813;stroke-linecap:square;stroke-miterlimit:4;stroke-dasharray:none"
           d="M 8.6324667,102.84866 V 92.593408 H 18.887717 29.142969 v 10.255252 10.25525 H 18.887717 8.6324667 Z"
           id="path1370" />
      </g>
      <path
         d="M 8.4005159,8.4005161 V 113.30782 M 29.381974,8.4005161 V 113.30782 M 50.363432,8.4005161 V 113.30782 M 71.344889,8.4005161 V 113.30782 M 92.326353,8.4005161 V 113.30782 M 113.30782,8.4005161 V 113.30782 M 8.4005159,8.4005161 H 113.30782 M 8.4005159,29.381973 H 113.30782 M 8.4005159,50.363429 H 113.30782 M 8.4005159,71.344886 H 113.30782 M 8.4005159,92.326352 H 113.30782 M 8.4005159,113.30782 H 113.30782"
         style="display:inline;fill:none;stroke:#000000;stroke-width:0.926032;stroke-linecap:square;stroke-miterlimit:4;stroke-dasharray:none"
         id="path1320" />
    </g>
    <rect
       style="display:inline;opacity:1;fill:url(#linearGradient3133);fill-opacity:1;fill-rule:evenodd;stroke:none;stroke-width:2.03044;stroke-linejoin:miter;stroke-miterlimit:4;stroke-dasharray:none;stroke-opacity:1"
       id="rect3125"
       width="105.83334"
       height="105.83334"
       x="7.9375"
       y="7.9375" />
  </g>
  <g
     id="layer2"
     style="display:inline">
    <g
       id="g3823"
       transform="matrix(0.56977221,0,0,0.56977221,-34.215962,-23.362543)">
      <path
         style="display:inline;opacity:1;fill:url(#linearGradient893);fill-opacity:1;stroke:#000000;stroke-width:0.264583px;stroke-linecap:butt;stroke-linejoin:miter;stroke-opacity:1"
         d="m 242.52141,176.24379 c -12.35724,0.58405 -34.73556,5.13419 -37.4937,6.25283 -1.961,0.79534 -3.67053,2.26128 -4.54292,3.95793 -4.11438,8.00182 -5.53231,38.42271 -5.3548,46.5575 0.0352,1.61477 -0.24097,2.95092 1.18907,5.05375 6.38037,9.38213 17.59746,19.95184 30.15216,30.06154 1.34177,1.08046 2.74938,0.93464 4.84528,0.3816 13.8796,-3.66237 26.65168,-8.37263 38.98713,-15.48919 1.49209,-0.86082 2.5246,-2.24992 3.11171,-3.74448 5.35167,-13.62336 10.25371,-28.0429 13.41633,-42.38816 0.52605,-2.38606 1.04246,-5.5911 -2.79082,-8.63938 -15.91327,-12.6545 -26.98425,-17.94873 -33.58958,-21.16742 -3.05185,-1.48713 -6.22609,-0.91705 -7.92986,-0.83652 z"
         id="path3587" />
      <path
         id="path3689"
         style="display:inline;opacity:1;fill:url(#linearGradient873);fill-opacity:1;stroke:none;stroke-width:0.264583px;stroke-linecap:butt;stroke-linejoin:miter;stroke-opacity:1"
         d="m 232.91437,254.65917 c -7.05725,0 -13.82439,1.06902 -19.03027,2.56188 3.56664,3.56913 7.60546,6.78062 12.58725,10.90655 1.46976,0.89864 2.74928,0.93441 4.84518,0.38137 9.24588,-2.43968 17.97592,-5.38937 26.43715,-9.16068 -5.66205,-2.85154 -14.6635,-4.68912 -24.83931,-4.68912 z" />
      <path
         id="path3633"
         style="display:inline;opacity:1;fill:url(#linearGradient895);fill-opacity:1;stroke:none;stroke-width:0.264583px;stroke-linecap:butt;stroke-linejoin:miter;stroke-opacity:1"
         d="m 234.82019,210.41071 c 3.48195,3.29211 3.03446,10.57018 3.50573,8.89558 0.70855,-2.51773 9.62025,-6.90042 6.52519,-6.30814 -4.84003,0.9262 -6.9242,-0.15348 -10.03092,-2.58744 z" />
      <path
         id="path3605"
         style="display:inline;opacity:1;fill:url(#linearGradient871);fill-opacity:1;stroke:none;stroke-width:0.264583px;stroke-linecap:butt;stroke-linejoin:miter;stroke-opacity:1"
         d="m 202.23975,185.55228 c -0.46934,0.0123 -0.95653,0.0371 -1.33325,0.28371 -0.21153,0.13849 -0.31279,0.39819 -0.42168,0.61856 -3.98601,8.06654 -5.53219,38.42258 -5.35471,46.55737 0.0352,1.61476 -0.21724,2.9393 1.18895,5.05388 6.29266,9.46273 16.94243,20.06853 29.04073,29.13111 0.86144,0.64529 3.19652,-0.5213 3.61838,-2.56677 l 9.34775,-45.32385 c 0.3514,-1.70378 0.2372,-5.90353 -3.50573,-8.89558 l -30.07155,-24.03884 c -0.84007,-0.67155 -1.72968,-0.84005 -2.50889,-0.81959 z" />
      <path
         id="path3589"
         style="display:inline;opacity:1;fill:url(#linearGradient863);fill-opacity:1;stroke:none;stroke-width:0.264583px;stroke-linecap:butt;stroke-linejoin:miter;stroke-opacity:1"
         d="m 284.89724,202.89489 c -0.0986,0.002 -0.20329,-0.0105 -0.30593,0.0155 l -39.7402,10.08776 c -3.05436,0.77533 -5.99687,3.74652 -6.52519,6.30814 l -9.34775,45.32385 c -0.49507,2.40046 1.72901,3.98609 2.89699,3.72793 13.80601,-3.0516 26.26017,-8.3164 38.42865,-15.33807 1.49202,-0.86095 2.52433,-2.24991 3.11144,-3.74448 5.35167,-13.62336 10.25362,-28.04337 13.41624,-42.38863 0.19484,-0.88374 0.67248,-1.92701 0.35863,-2.93832 -0.23654,-0.76218 -1.17827,-1.07152 -2.29288,-1.05368 z" />
      <path
         style="display:inline;opacity:1;fill:none;stroke:#000000;stroke-width:0.79375;stroke-linecap:butt;stroke-linejoin:miter;stroke-miterlimit:4;stroke-dasharray:none;stroke-opacity:1"
         d="m 242.52141,176.24379 c -12.35724,0.58405 -34.73556,5.13419 -37.4937,6.25283 -1.961,0.79534 -3.67053,2.26128 -4.54292,3.95793 -4.11438,8.00182 -5.53231,38.42271 -5.3548,46.5575 0.0352,1.61477 -0.24097,2.95092 1.18907,5.05375 6.38037,9.38213 17.59746,19.95184 30.15216,30.06154 1.34177,1.08046 2.74938,0.93464 4.84528,0.3816 13.8796,-3.66237 26.65168,-8.37263 38.98713,-15.48919 1.49209,-0.86082 2.5246,-2.24992 3.11171,-3.74448 5.35167,-13.62336 10.25371,-28.0429 13.41633,-42.38816 0.52605,-2.38606 1.04246,-5.5911 -2.79082,-8.63938 -15.91327,-12.6545 -26.98425,-17.94873 -33.58958,-21.16742 -3.05185,-1.48713 -6.22609,-0.91705 -7.92986,-0.83652 z"
         id="path1493" />
      <ellipse
         style="opacity:1;fill:#1a1a1a;fill-opacity:1;stroke:#1a1a1a;stroke-width:0.546995;stroke-miterlimit:4;stroke-dasharray:none"
         id="path3720"
         cx="278.20755"
         cy="333.94772"
         rx="5.5781145"
         ry="5.2204232"
         transform="matrix(0.93587592,-0.35232977,0,1,0,0)" />
      <path
         id="ellipse3732"
         style="display:inline;opacity:1;fill:#4d4d4d;fill-opacity:1;stroke:none;stroke-width:0.264583;stroke-miterlimit:4;stroke-dasharray:none"
         d="m 262.73064,230.3821 a 4.3294365,6.2947724 39.669823 0 1 1.20716,2.88458 4.3294365,6.2947724 39.669823 0 1 -5.22035,7.18561 4.3294365,6.2947724 39.669823 0 1 -2.36265,0.32453 4.3294365,6.2947724 39.669823 0 0 4.01319,0.37052 4.3294365,6.2947724 39.669823 0 0 5.22035,-7.18561 4.3294365,6.2947724 39.669823 0 0 -2.8577,-3.57963 z" />
      <ellipse
         style="opacity:1;fill:#1a1a1a;fill-opacity:1;stroke:#1a1a1a;stroke-width:0.54909;stroke-miterlimit:4;stroke-dasharray:none"
         id="path3760"
         cx="248.9454"
         cy="115.03697"
         rx="4.2097425"
         ry="5.1139641"
         transform="matrix(0.89336668,0.44932835,-0.08613025,0.99628389,0,0)" />
      <ellipse
         style="opacity:1;fill:#1a1a1a;fill-opacity:1;stroke:#1a1a1a;stroke-width:0.54909;stroke-miterlimit:4;stroke-dasharray:none"
         id="ellipse3770"
         cx="263.06702"
         cy="101.83763"
         rx="4.6845651"
         ry="5.6907735"
         transform="matrix(0.89336668,0.44932835,-0.08613025,0.99628389,0,0)" />
      <ellipse
         style="opacity:1;fill:#1a1a1a;fill-opacity:1;stroke:#1a1a1a;stroke-width:0.54909;stroke-miterlimit:4;stroke-dasharray:none"
         id="ellipse3772"
         cx="240.19942"
         cy="96.387436"
         rx="4.0937676"
         ry="4.9730763"
         transform="matrix(0.89336668,0.44932835,-0.08613025,0.99628389,0,0)" />
      <ellipse
         style="opacity:1;fill:#1a1a1a;fill-opacity:1;stroke:#1a1a1a;stroke-width:0.54909;stroke-miterlimit:4;stroke-dasharray:none"
         id="ellipse3774"
         cx="237.76851"
         cy="125.63835"
         rx="3.5712905"
         ry="4.3383751"
         transform="matrix(0.89336668,0.44932835,-0.08613025,0.99628389,0,0)" />
      <ellipse
         style="opacity:1;fill:#1a1a1a;fill-opacity:1;stroke:#1a1a1a;stroke-width:0.54909;stroke-miterlimit:4;stroke-dasharray:none"
         id="ellipse3776"
         cx="258.65689"
         cy="134.79164"
         rx="4.3688812"
         ry="5.3072829"
         transform="matrix(0.89336668,0.44932835,-0.08613025,0.99628389,0,0)" />
      <ellipse
         style="fill:#1a1a1a;stroke:#1a1a1a;stroke-width:0.546231;stroke-miterlimit:4;stroke-dasharray:none"
         id="path853"
         cx="13.954718"
         cy="305.51981"
         rx="4.6244955"
         ry="5.0432429"
         transform="matrix(0.87187772,-0.48972364,0.76065629,0.64915484,0,0)" />
      <ellipse
         style="fill:#1a1a1a;stroke:#1a1a1a;stroke-width:0.546231;stroke-miterlimit:4;stroke-dasharray:none"
         id="ellipse855"
         cx="26.253912"
         cy="322.67294"
         rx="4.4670072"
         ry="4.8714943"
         transform="matrix(0.87187772,-0.48972364,0.76065629,0.64915484,0,0)" />
      <ellipse
         style="fill:#1a1a1a;stroke:#1a1a1a;stroke-width:0.546231;stroke-miterlimit:4;stroke-dasharray:none"
         id="ellipse857"
         cx="1.9880424"
         cy="288.71225"
         rx="4.4670072"
         ry="4.8714943"
         transform="matrix(0.87187772,-0.48972364,0.76065629,0.64915484,0,0)" />
      <path
         id="ellipse859"
         style="display:inline;opacity:1;fill:#333333;fill-opacity:1;stroke:none;stroke-width:0.264583;stroke-miterlimit:4;stroke-dasharray:none"
         d="m 211.60972,221.0328 a 5.5644403,3.5932664 73.674017 0 0 -2.87941,3.54345 5.5644403,3.5932664 73.674017 0 0 3.32073,6.98666 5.5644403,3.5932664 73.674017 0 0 2.83962,-0.19534 5.5644406,3.5932664 73.674017 0 1 -1.16737,-0.33383 5.5644406,3.5932664 73.674017 0 1 -3.32021,-6.98665 5.5644406,3.5932664 73.674017 0 1 1.36219,-3.0086 5.5644403,3.5932664 73.674017 0 0 -0.15555,-0.006 z" />
      <path
         id="ellipse861"
         style="display:inline;opacity:1;fill:#333333;fill-opacity:1;stroke:none;stroke-width:0.264583;stroke-miterlimit:4;stroke-dasharray:none"
         d="m 225.23576,213.61517 a 6.19206,3.9985554 73.674002 0 0 -3.17654,3.94239 6.19206,3.9985554 73.674002 0 0 3.69486,7.77472 6.19206,3.9985554 73.674002 0 0 3.23443,-0.27905 6.19206,3.9985554 73.674002 0 1 -1.31672,-0.37311 6.19206,3.9985554 73.674002 0 1 -3.69486,-7.7742 6.19206,3.9985554 73.674002 0 1 1.44022,-3.28559 6.19206,3.9985554 73.674002 0 0 -0.18139,-0.005 z" />
      <path
         id="ellipse863"
         style="display:inline;opacity:1;fill:#333333;fill-opacity:1;stroke:none;stroke-width:0.264583;stroke-miterlimit:4;stroke-dasharray:none"
         d="m 205.23544,198.67964 a 5.4111428,3.4942744 73.673991 0 0 -2.60863,3.43855 5.4111428,3.4942744 73.673991 0 0 3.22926,6.7939 5.4111428,3.4942744 73.673991 0 0 2.78071,-0.20515 5.4111428,3.4942744 73.673991 0 1 -1.47691,-0.32401 5.4111428,3.4942744 73.673991 0 1 -3.22875,-6.7939 5.4111428,3.4942744 73.673991 0 1 1.30432,-2.90939 z" />
      <path
         id="ellipse865"
         style="display:inline;opacity:1;fill:#333333;fill-opacity:1;stroke:none;stroke-width:0.264583;stroke-miterlimit:4;stroke-dasharray:none"
         d="m 200.76491,227.3983 a 4.7205324,3.0483091 73.673989 0 0 -2.36213,3.00447 4.7205324,3.0483091 73.673989 0 0 2.81688,5.92729 4.7205324,3.0483091 73.673989 0 0 2.49907,-0.24236 4.7205324,3.0483091 73.673989 0 1 -1.19527,-0.28681 4.7205324,3.0483091 73.673989 0 1 -2.81689,-5.92728 4.7205324,3.0483091 73.673989 0 1 1.06505,-2.47531 4.7205324,3.0483091 73.673989 0 0 -0.007,0 z" />
      <path
         id="ellipse867"
         style="display:inline;opacity:1;fill:#333333;fill-opacity:1;stroke:none;stroke-width:0.264583;stroke-miterlimit:4;stroke-dasharray:none"
         d="m 218.54005,244.87217 a 5.7747888,3.7291003 73.674 0 0 -2.97708,3.6773 5.7747888,3.7291003 73.674 0 0 3.44579,7.25072 5.7747888,3.7291003 73.674 0 0 3.07268,-0.30955 5.7747888,3.7291003 73.673999 0 1 -1.15445,-0.34261 5.7747888,3.7291003 73.673999 0 1 -3.44579,-7.25072 5.7747888,3.7291003 73.673999 0 1 1.28726,-3.0148 5.7747888,3.7291003 73.674 0 0 -0.22841,-0.0103 z" />
      <path
         id="ellipse895"
         style="display:inline;fill:#595959;fill-opacity:1;stroke:none;stroke-width:0.264583;stroke-miterlimit:4;stroke-dasharray:none"
         d="m 243.72559,187.51496 a 5.6314918,3.8867155 12.190312 0 0 -2.9993,0.70693 5.6314918,3.8867155 12.190312 0 0 -1.72909,2.64738 5.6314918,3.8867155 12.190313 0 1 1.38131,-1.3286 5.6314918,3.8867155 12.190313 0 1 7.86826,1.00924 5.6314918,3.8867155 12.190313 0 1 1.53324,2.89078 5.6314918,3.8867155 12.190312 0 0 -1.18546,-4.20956 5.6314918,3.8867155 12.190312 0 0 -4.86896,-1.71617 z" />
      <path
         id="ellipse897"
         style="display:inline;fill:#595959;fill-opacity:1;stroke:none;stroke-width:0.264583;stroke-miterlimit:4;stroke-dasharray:none"
         d="m 267.47556,192.76218 a 5.4397102,3.7543524 12.190316 0 0 -2.84788,0.68316 5.4397102,3.7543524 12.190316 0 0 -1.6428,2.1885 5.4397102,3.7543527 12.190317 0 1 1.1219,-0.95653 5.4397102,3.7543527 12.190317 0 1 7.60005,0.97461 5.4397102,3.7543527 12.190317 0 1 1.45418,3.16105 5.4397102,3.7543524 12.190316 0 0 -0.93276,-4.39301 5.4397102,3.7543524 12.190316 0 0 -4.75269,-1.65778 z" />
      <path
         id="ellipse899"
         style="display:inline;fill:#595959;fill-opacity:1;stroke:none;stroke-width:0.264583;stroke-miterlimit:4;stroke-dasharray:none"
         d="m 220.48618,182.60001 a 5.4397102,3.7543524 12.190316 0 0 -2.84737,0.68316 5.4397102,3.7543524 12.190316 0 0 -1.65002,2.89646 5.4397102,3.7543527 12.190317 0 1 1.47587,-1.57768 5.4397102,3.7543527 12.190317 0 1 7.60057,0.97462 5.4397102,3.7543527 12.190317 0 1 1.4609,2.45308 5.4397102,3.7543524 12.190316 0 0 -1.28726,-3.77186 5.4397102,3.7543524 12.190316 0 0 -4.75269,-1.65778 z" />
    </g>
  </g>
  <g
     id="layer3"
     style="display:none;opacity:1" />
</svg>
