<?xml version="1.0" encoding="UTF-8" standalone="no"?>
<svg
   xmlns:dc="http://purl.org/dc/elements/1.1/"
   xmlns:cc="http://creativecommons.org/ns#"
   xmlns:rdf="http://www.w3.org/1999/02/22-rdf-syntax-ns#"
   xmlns:svg="http://www.w3.org/2000/svg"
   xmlns="http://www.w3.org/2000/svg"
   xmlns:sodipodi="http://sodipodi.sourceforge.net/DTD/sodipodi-0.dtd"
   xmlns:inkscape="http://www.inkscape.org/namespaces/inkscape"
   sodipodi:docname="remove_uv_distortion.svg"
   inkscape:version="0.92.4 (5da689c313, 2019-01-14)"
   id="svg8"
   version="1.1"
   viewBox="0 0 132.29167 132.29167"
   height="132.29167mm"
   width="132.29167mm">
  <defs
     id="defs2">
    <inkscape:path-effect
       lpeversion="1"
       is_visible="true"
       id="path-effect916"
       effect="spiro" />
    <inkscape:path-effect
       lpeversion="1"
       is_visible="true"
       id="path-effect912"
       effect="spiro" />
    <inkscape:path-effect
       lpeversion="1"
       is_visible="true"
       id="path-effect908"
       effect="spiro" />
  </defs>
  <sodipodi:namedview
     inkscape:window-maximized="1"
     inkscape:window-y="-8"
     inkscape:window-x="-8"
     inkscape:window-height="1027"
     inkscape:window-width="1920"
     showgrid="false"
     inkscape:document-rotation="0"
     inkscape:current-layer="layer1"
     inkscape:document-units="mm"
     inkscape:cy="198.01274"
     inkscape:cx="-41.760643"
     inkscape:zoom="0.7"
     inkscape:pageshadow="2"
     inkscape:pageopacity="0.0"
     borderopacity="1.0"
     bordercolor="#666666"
     pagecolor="#ffffff"
     id="base" />
  <metadata
     id="metadata5">
    <rdf:RDF>
      <cc:Work
         rdf:about="">
        <dc:format>image/svg+xml</dc:format>
        <dc:type
           rdf:resource="http://purl.org/dc/dcmitype/StillImage" />
        <dc:title />
      </cc:Work>
    </rdf:RDF>
  </metadata>
  <g
     transform="translate(-445.2155,213.70018)"
     id="layer1"
     inkscape:groupmode="layer"
     inkscape:label="Layer 1">
    <g
       id="Layer_2_1_-3"
       transform="matrix(0.26458333,0,0,0.26458333,445.2155,-213.70018)"
       style="display:inline">
      <path
         inkscape:connector-curvature="0"
         id="path5754"
         d="M 250,0 C 111.9,0 0,111.9 0,250 0,388.1 111.9,500 250,500 388.1,500 500,388.1 500,250 500,111.9 388.1,0 250,0 Z m 0,437.5 C 146.4,437.5 62.5,353.6 62.5,250 62.5,146.4 146.4,62.5 250,62.5 c 103.6,0 187.5,83.9 187.5,187.5 0,103.6 -83.9,187.5 -187.5,187.5 z"
         class="st0"
         style="display:inline;fill:#000000;fill-opacity:1" />
    </g>
    <g
       id="g6318"
       transform="matrix(0.26458333,0,0,0.26458333,445.2155,-213.70018)"
       style="display:inline">
      <path
         inkscape:connector-curvature="0"
         id="path6310"
         d="m 334.3,161.4 58.3,0.1 C 378,138.3 358,119 334.3,105.3 Z" />
      <path
         inkscape:connector-curvature="0"
         id="path6312"
         d="M 334,161.7 H 247.2 L 206.08883,171.50153 247.2,82.8 c -32,0.6 -61.8,10.2 -87.1,26.2 l -14.9,100.87143 60.88883,-38.3699 5.29688,78.42704 L 333.9,248.3 l 0.1,86.8 61.1,0.1 c 14.6,-24.9 23,-53.8 23,-84.7 v -2.2 l -84.2,-0.1 v -86.5 z"
         sodipodi:nodetypes="cccccccccccscccc" />
      <path
         inkscape:connector-curvature="0"
         id="path6314"
         d="M 334,335.4 222.1,362.44286 211.38571,249.92857 160.2,248.4 145.2,209.87143 108.2,161.5 C 92.3,186.7 83,216.4 82.6,248.4 l 77.6,0.1 0.1,86.8 61.8,27.14286 25.1,55.95714 h 3.1 c 30.5,0 59.1,-8.1 83.7,-22.3 z"
         sodipodi:nodetypes="cccccccccccscc" />
      <path
         inkscape:connector-curvature="0"
         id="path6316"
         d="m 160.2,335.4 -54.8,-0.1 c 13.5,23.1 32.3,42.6 54.8,56.9 z" />
    </g>
    <path
       style="color:#000000;font-style:normal;font-variant:normal;font-weight:normal;font-stretch:normal;font-size:medium;line-height:normal;font-family:sans-serif;font-variant-ligatures:normal;font-variant-position:normal;font-variant-caps:normal;font-variant-numeric:normal;font-variant-alternates:normal;font-feature-settings:normal;text-indent:0;text-align:start;text-decoration:none;text-decoration-line:none;text-decoration-style:solid;text-decoration-color:#000000;letter-spacing:normal;word-spacing:normal;text-transform:none;writing-mode:lr-tb;direction:ltr;text-orientation:mixed;dominant-baseline:auto;baseline-shift:baseline;text-anchor:start;white-space:normal;shape-padding:0;clip-rule:nonzero;display:inline;overflow:visible;visibility:visible;opacity:1;isolation:auto;mix-blend-mode:normal;color-interpolation:sRGB;color-interpolation-filters:linearRGB;solid-color:#000000;solid-opacity:1;vector-effect:none;fill:#ff6600;fill-opacity:1;fill-rule:nonzero;stroke:none;stroke-width:3.70416665;stroke-linecap:butt;stroke-linejoin:miter;stroke-miterlimit:10;stroke-dasharray:none;stroke-dashoffset:0;stroke-opacity:1;color-rendering:auto;image-rendering:auto;shape-rendering:auto;text-rendering:auto;enable-background:accumulate"
       d="m 511.44141,-193.64453 c -25.53539,0 -46.2754,20.74001 -46.27539,46.27539 -10e-6,25.53538 20.74,46.27539 46.27539,46.27539 25.53538,0 46.27539,-20.74001 46.27539,-46.27539 0,-25.53538 -20.74001,-46.27539 -46.27539,-46.27539 z m 0,3.70312 c 23.5335,0 42.57031,19.03877 42.57031,42.57227 0,23.5335 -19.03681,42.57227 -42.57031,42.57226 -23.53351,1e-5 -42.57227,-19.03876 -42.57227,-42.57226 0,-23.5335 19.03876,-42.57227 42.57227,-42.57227 z"
       id="circle6320"
       inkscape:connector-curvature="0" />
    <g
       id="g7488"
       transform="matrix(0.26458333,0,0,0.26458333,445.2155,-213.67372)"
       style="display:inline">
      <path
         inkscape:connector-curvature="0"
         id="path7480"
         d="m 334.3,161.4 58.3,0.1 C 378,138.3 358,119 334.3,105.3 Z" />
      <path
         inkscape:connector-curvature="0"
         id="path7482"
         d="m 334,161.7 -86.8,-0.1 V 82.8 c 0,78.8 0,0 -0.2,78.6 l 0.1,86.8 86.8,0.1 0.1,86.8 61.1,0.1 c 14.6,-24.9 23,-53.8 23,-84.7 v -2.2 l -84.2,-0.1 v -86.5 z"
         sodipodi:nodetypes="ccccccccscccc" />
      <path
         inkscape:connector-curvature="0"
         id="path7484"
         d="m 334,335.4 -86.9,-0.1 v -86.8 c 0,86.9 0,86.9 0,86.9 l 0.1,83 h 3.1 c 30.5,0 59.1,-8.1 83.7,-22.3 z"
         sodipodi:nodetypes="cccccscc" />
    </g>
    <path
       style="color:#000000;font-style:normal;font-variant:normal;font-weight:normal;font-stretch:normal;font-size:medium;line-height:normal;font-family:sans-serif;font-variant-ligatures:normal;font-variant-position:normal;font-variant-caps:normal;font-variant-numeric:normal;font-variant-alternates:normal;font-feature-settings:normal;text-indent:0;text-align:start;text-decoration:none;text-decoration-line:none;text-decoration-style:solid;text-decoration-color:#000000;letter-spacing:normal;word-spacing:normal;text-transform:none;writing-mode:lr-tb;direction:ltr;text-orientation:mixed;dominant-baseline:auto;baseline-shift:baseline;text-anchor:start;white-space:normal;shape-padding:0;clip-rule:nonzero;display:inline;overflow:visible;visibility:visible;opacity:1;isolation:auto;mix-blend-mode:normal;color-interpolation:sRGB;color-interpolation-filters:linearRGB;solid-color:#000000;solid-opacity:1;vector-effect:none;fill:#00a9b2;fill-opacity:1;fill-rule:nonzero;stroke:none;stroke-width:3.70416665;stroke-linecap:butt;stroke-linejoin:miter;stroke-miterlimit:10;stroke-dasharray:none;stroke-dashoffset:0;stroke-opacity:1;color-rendering:auto;image-rendering:auto;shape-rendering:auto;text-rendering:auto;enable-background:accumulate"
       d="m 509.58789,-193.61914 v 92.55273 h 1.85352 c 25.53538,0 46.27539,-20.74001 46.27539,-46.27539 0,-25.53539 -20.74001,-46.27735 -46.27539,-46.27734 z m 3.70508,3.89062 c 22.65304,0.9884 40.71875,19.48757 40.71875,42.38672 0,22.89915 -18.06571,41.39636 -40.71875,42.38477 z"
       id="circle7490"
       inkscape:connector-curvature="0" />
  </g>
  <style
     type="text/css"
     id="style855">
	.st0{display:none;fill:#FF6600;}
	.st1{fill:#FF6600;}
	.st2{fill:url(#SVGID_1_);}
	.st3{fill:#B5B5B5;}
	.st4{opacity:0.5;fill:url(#SVGID_2_);enable-background:new    ;}
	.st5{fill:#FFFFFF;}
	.st6{display:none;}
	.st7{display:inline;}
	.st8{fill:none;stroke:#EDEDED;stroke-width:0.5;stroke-miterlimit:10;}
	.st9{fill:none;stroke:#BDBDBD;stroke-miterlimit:10;}
</style>
  <style
     type="text/css"
     id="style1747">
	.st0{fill:#FF6600;}
	.st1{display:none;}
	.st2{display:inline;}
	.st3{fill:none;stroke:#EDEDED;stroke-width:0.5;stroke-miterlimit:10;}
	.st4{fill:none;stroke:#BDBDBD;stroke-miterlimit:10;}
	.st5{display:inline;fill:none;stroke:#BDBDBD;stroke-miterlimit:10;}
	.st6{fill:#FFFFFF;stroke:#00A9B2;stroke-width:14;stroke-miterlimit:10;}
	.st7{fill:none;stroke:#00A9B2;stroke-width:14;stroke-miterlimit:10;}
</style>
  <style
     type="text/css"
     id="style2619">
	.st0{fill:#FF6600;}
	.st1{fill:url(#SVGID_1_);}
	.st2{fill:#B5B5B5;}
	.st3{opacity:0.5;fill:url(#SVGID_2_);enable-background:new    ;}
	.st4{fill:#FFFFFF;}
	.st5{fill:#D1D3D4;}
	.st6{display:none;}
	.st7{display:inline;}
	.st8{fill:none;stroke:#EDEDED;stroke-width:0.5;stroke-miterlimit:10;}
	.st9{display:inline;fill:none;stroke:#BDBDBD;stroke-miterlimit:10;}
</style>
  <style
     type="text/css"
     id="style3502">
	.st0{fill:#FCFCFC;}
	.st1{fill:none;stroke:#FF6600;stroke-width:60;stroke-miterlimit:10;}
	.st2{fill:#FF6600;}
	.st3{display:none;}
	.st4{display:inline;}
	.st5{fill:none;stroke:#EDEDED;stroke-width:0.5;stroke-miterlimit:10;}
	.st6{fill:none;stroke:#BDBDBD;stroke-miterlimit:10;}
	.st7{fill:#FCFCFC;stroke:#000000;stroke-width:9;stroke-miterlimit:10;}
</style>
  <style
     type="text/css"
     id="style4884">
	.st0{fill:#FCFCFC;}
	.st1{fill:none;stroke:#FF6600;stroke-width:60;stroke-miterlimit:10;}
	.st2{fill:#FF6600;}
	.st3{display:none;}
	.st4{display:inline;}
	.st5{fill:none;stroke:#EDEDED;stroke-width:0.5;stroke-miterlimit:10;}
	.st6{fill:none;stroke:#BDBDBD;stroke-miterlimit:10;}
	.st7{fill:#FCFCFC;stroke:#000000;stroke-width:9;stroke-miterlimit:10;}
</style>
  <style
     type="text/css"
     id="style5752">
	.st0{fill:#FF6600;}
	.st1{display:none;}
	.st2{display:inline;}
	.st3{fill:none;stroke:#EDEDED;stroke-width:0.5;stroke-miterlimit:10;}
	.st4{fill:none;stroke:#BDBDBD;stroke-miterlimit:10;}
	.st5{display:inline;fill:none;stroke:#BDBDBD;stroke-miterlimit:10;}
	.st6{fill:#FFFFFF;stroke:#00A9B2;stroke-width:14;stroke-miterlimit:10;}
	.st7{fill:none;stroke:#00A9B2;stroke-width:14;stroke-miterlimit:10;}
</style>
  <style
     type="text/css"
     id="style6922">
	.st0{fill:#FF6600;}
	.st1{display:none;}
	.st2{display:inline;}
	.st3{fill:none;stroke:#EDEDED;stroke-width:0.5;stroke-miterlimit:10;}
	.st4{fill:none;stroke:#BDBDBD;stroke-miterlimit:10;}
	.st5{display:inline;fill:none;stroke:#BDBDBD;stroke-miterlimit:10;}
	.st6{fill:#FFFFFF;stroke:#00A9B2;stroke-width:14;stroke-miterlimit:10;}
	.st7{fill:none;stroke:#00A9B2;stroke-width:14;stroke-miterlimit:10;}
</style>
</svg>
