<?xml version="1.0" encoding="UTF-8" standalone="no"?>
<!-- Created with Inkscape (http://www.inkscape.org/) -->

<svg
   xmlns:dc="http://purl.org/dc/elements/1.1/"
   xmlns:cc="http://creativecommons.org/ns#"
   xmlns:rdf="http://www.w3.org/1999/02/22-rdf-syntax-ns#"
   xmlns:svg="http://www.w3.org/2000/svg"
   xmlns="http://www.w3.org/2000/svg"
   xmlns:sodipodi="http://sodipodi.sourceforge.net/DTD/sodipodi-0.dtd"
   xmlns:inkscape="http://www.inkscape.org/namespaces/inkscape"
   width="135.46666mm"
   height="96.793449mm"
   viewBox="0 0 135.46666 96.793449"
   version="1.1"
   id="svg8"
   inkscape:version="0.92.4 (5da689c313, 2019-01-14)"
   sodipodi:docname="roadicon.svg">
  <defs
     id="defs2" />
  <sodipodi:namedview
     id="base"
     pagecolor="#ffffff"
     bordercolor="#666666"
     borderopacity="1.0"
     inkscape:pageopacity="0.0"
     inkscape:pageshadow="2"
     inkscape:zoom="0.98994949"
     inkscape:cx="239.91313"
     inkscape:cy="97.47411"
     inkscape:document-units="mm"
     inkscape:current-layer="layer1"
     showgrid="false"
     inkscape:window-width="1920"
     inkscape:window-height="1027"
     inkscape:window-x="-8"
     inkscape:window-y="-8"
     inkscape:window-maximized="1" />
  <metadata
     id="metadata5">
    <rdf:RDF>
      <cc:Work
         rdf:about="">
        <dc:format>image/svg+xml</dc:format>
        <dc:type
           rdf:resource="http://purl.org/dc/dcmitype/StillImage" />
        <dc:title></dc:title>
      </cc:Work>
    </rdf:RDF>
  </metadata>
  <g
     inkscape:label="Layer 1"
     inkscape:groupmode="layer"
     id="layer1"
     transform="translate(-32.265929,-97.556272)">
    <path
       style="fill:#333333;stroke-width:0.26458332"
       d="m 33.588849,194.15453 c -1.29054,-0.47452 -1.32292,-0.63058 -1.32292,-6.37644 v -5.4238 l 16.15816,-40.50654 c 8.88699,-22.2786 16.43993,-40.99115 16.78431,-41.58345 0.34439,-0.5923 1.12938,-1.42573 1.74443,-1.85208 l 1.11827,-0.77518 13.2521,-0.0609 c 11.65482,-0.0536 13.16881,-0.015 12.56103,0.32005 -0.38009,0.20951 -0.82483,0.71316 -0.9883,1.11922 -0.29031,0.72115 -1.36333,12.81638 -1.36333,15.36773 0,1.00174 0.13521,1.41264 0.61236,1.8609 0.5981,0.56188 0.78199,0.57529 7.891381,0.57529 7.26657,0 7.28,-10e-4 7.85431,-0.61237 0.41274,-0.43934 0.57493,-0.94395 0.57403,-1.78594 -0.003,-2.52902 -1.07815,-14.70912 -1.36026,-15.40561 -0.16447,-0.40606 -0.61003,-0.90971 -0.99012,-1.11922 -0.60778,-0.33502 0.90621,-0.3736 12.56103,-0.32005 l 13.2521,0.0609 1.11827,0.77518 c 0.61505,0.42635 1.39857,1.25978 1.74117,1.85208 0.3426,0.5923 7.89554,19.30484 16.78431,41.58343 l 16.16141,40.50652 v 5.42382 c 0,5.17779 -0.0253,5.44669 -0.55688,5.92785 -0.53885,0.4877 -1.42758,0.50629 -27.42703,0.5739 l -26.87014,0.0699 0.70411,-0.65255 c 0.61063,-0.56591 0.70233,-0.85621 0.69071,-2.18654 -0.029,-3.32365 -1.4875,-19.54725 -1.81082,-20.14336 -0.70318,-1.29647 -1.34336,-1.36667 -12.463281,-1.36667 -11.11982,0 -11.75942,0.0701 -12.46384,1.36667 -0.32492,0.59802 -1.78581,16.84139 -1.81165,20.14336 -0.0104,1.3272 0.0824,1.62145 0.68809,2.18282 l 0.70009,0.64882 -26.56311,-0.0209 c -14.60971,-0.0115 -26.74171,-0.0866 -26.95999,-0.16682 z M 110.1848,155.33364 c 0.61041,-0.25505 0.96712,-0.61447 1.08806,-1.09634 0.15573,-0.62046 -1.21531,-21.20208 -1.65447,-24.8365 -0.11445,-0.94718 -0.36318,-1.51415 -0.89956,-2.05053 l -0.74136,-0.74136 h -7.978211 -7.9782 l -0.73447,0.73446 c -0.49529,0.4953 -0.78625,1.11995 -0.8935,1.91823 -0.40125,2.98656 -1.82669,24.34111 -1.66722,24.97652 0.34389,1.37017 0.9801,1.45324 11.21575,1.4646 7.526511,0.008 9.511001,-0.0632 10.243181,-0.36908 z"
       id="path3735"
       inkscape:connector-curvature="0" />
  </g>
</svg>
