<?xml version="1.0" encoding="utf-8"?>
<!-- Generator: Adobe Illustrator 23.1.1, SVG Export Plug-In . SVG Version: 6.00 Build 0)  -->
<svg version="1.1" id="Layer_1" xmlns="http://www.w3.org/2000/svg" xmlns:xlink="http://www.w3.org/1999/xlink" x="0px" y="0px"
	 viewBox="0 0 400 400" style="enable-background:new 0 0 400 400;" xml:space="preserve">
<style type="text/css">
	.st0{fill:#FFFFFF;}
	.st1{fill:#FF6600;}
</style>
<rect x="-0.2" y="-0.17" class="st0" width="400" height="400"/>
<g>
	<path class="st1" d="M-0.2-0.17v400h43.76c29.8-68.51,57.57-132.44,72.09-165.88c6.97-16.04,10.35-33.33,9.98-50.81l-2.1-99.4
		c-12.42-10.64-13.3-18.62,0.89-18.62h14.33l-3.62-19.44c-0.35-1.87,0.15-3.78,1.37-5.24s3-2.3,4.9-2.3h116.8
		c1.9,0,3.69,0.84,4.9,2.3s1.71,3.37,1.37,5.24l-3.62,19.44h14.33c14.19,0,13.3,7.98,0.89,18.62l-2.1,99.4
		c-0.37,17.48,3.01,34.77,9.98,50.81c14.52,33.44,42.29,97.37,72.09,165.88h43.76v-400L-0.2-0.17L-0.2-0.17z"/>
	<path class="st1" d="M179.85,228.13c-13.03-1.86-25.16,0.17-35.36,3.48c-1.45,4.44-3.08,8.83-4.95,13.16
		c-14.14,32.57-39.65,91.29-67.39,155.07h253.28c-22.95-52.78-44.38-102.09-59.1-135.98C224.16,259.66,209.26,232.33,179.85,228.13z
		 M143.65,369.72c-9.81,0-17.76-7.95-17.76-17.76s7.95-17.76,17.76-17.76s17.76,7.95,17.76,17.76
		C161.41,361.76,153.46,369.72,143.65,369.72z M177.76,300.93c-7.52,0-13.62-6.1-13.62-13.62s6.1-13.62,13.62-13.62
		c7.52,0,13.62,6.1,13.62,13.62C191.37,294.83,185.28,300.93,177.76,300.93z M240.67,364.92c-15.35,0-27.79-12.44-27.79-27.79
		s12.44-27.79,27.79-27.79s27.79,12.44,27.79,27.79C268.46,352.48,256.02,364.92,240.67,364.92z"/>
	<path class="st1" d="M169.44,128.98l60.72-0.25c2.04-0.01,3.79-1.47,4.16-3.47l12.63-67.9c0.49-2.62-1.53-5.04-4.2-5.03
		l-86.32,0.36c-2.66,0.01-4.66,2.44-4.16,5.05l12.98,67.79C165.63,127.53,167.39,128.98,169.44,128.98z"/>
</g>
</svg>
