<?xml version="1.0" encoding="UTF-8" standalone="no"?><!DOCTYPE svg PUBLIC "-//W3C//DTD SVG 1.1//EN" "http://www.w3.org/Graphics/SVG/1.1/DTD/svg11.dtd"><svg width="100%" height="100%" viewBox="0 0 173 173" version="1.1" xmlns="http://www.w3.org/2000/svg" xmlns:xlink="http://www.w3.org/1999/xlink" xml:space="preserve" xmlns:serif="http://www.serif.com/" style="fill-rule:evenodd;clip-rule:evenodd;stroke-linejoin:round;stroke-miterlimit:2;"><path d="M172.2,20L172.2,152.2C172.2,163.238 163.238,172.2 152.2,172.2L20,172.2C8.962,172.2 0,163.238 0,152.2L0,20C0,8.962 8.962,0 20,0L152.2,0C163.238,0 172.2,8.962 172.2,20Z" style="fill:white;"/><path d="M49.956,138.979L49.956,162.915L41.348,162.915C41.124,162.915 40.324,162.851 40.324,161.923C40.324,161.475 40.612,161.187 41.028,161.059C42.148,160.707 42.116,160.515 42.116,159.331L42.116,142.563C42.116,141.379 42.148,141.187 41.028,140.835C40.612,140.707 40.324,140.419 40.324,139.971C40.324,139.043 41.124,138.979 41.348,138.979L49.956,138.979ZM51.396,140.835L51.396,138.979L52.388,138.979C54.404,138.979 56.452,139.011 58.308,139.907C60.292,140.899 61.444,142.563 61.444,144.835C61.444,148.355 58.5,149.987 55.396,150.467L55.396,150.531C58.948,151.107 61.764,152.675 61.764,156.675C61.764,158.947 60.772,160.739 58.756,161.859C56.708,163.011 54.692,162.915 52.42,162.915L51.396,162.915L51.396,161.059C53.54,160.963 53.796,159.747 53.796,158.595L53.796,154.467C53.796,152.995 53.444,151.619 51.396,151.459L51.396,149.603C53.732,149.411 53.796,148.035 53.796,146.851L53.796,143.651C53.796,142.307 53.316,141.027 51.396,140.835ZM66.084,139.971C66.084,139.043 67.14,138.979 67.268,138.979L75.716,138.979L75.716,162.915L67.268,162.915C67.14,162.915 66.084,162.851 66.084,161.923C66.084,161.475 66.372,161.187 66.788,161.059C67.908,160.707 67.876,160.515 67.876,159.331L67.876,142.563C67.876,141.379 67.908,141.187 66.788,140.835C66.372,140.707 66.084,140.419 66.084,139.971ZM77.156,140.835L77.156,138.979L84.292,138.979L84.292,145.475C84.292,145.635 84.26,146.243 83.3,146.243C82.756,146.243 82.596,145.923 82.436,145.443C81.604,142.851 79.972,141.283 77.156,140.835ZM77.156,162.915L77.156,161.059C79.748,160.739 81.732,158.979 82.596,156.419C82.82,155.939 83.012,155.427 83.588,155.427C84.612,155.427 84.516,156.387 84.516,156.515L84.516,162.915L77.156,162.915ZM77.156,151.651L77.156,149.667C78.5,149.315 79.108,148.067 79.396,146.851C79.556,146.307 79.748,145.795 80.42,145.795C81.412,145.795 81.252,146.947 81.252,147.203L81.252,154.115C81.252,154.371 81.412,155.523 80.42,155.523C79.748,155.523 79.556,155.011 79.396,154.467C79.108,153.251 78.5,152.003 77.156,151.651ZM94.308,159.331L94.308,138.979L102.148,138.979L102.148,159.331C102.148,160.515 102.116,160.707 103.236,161.059C103.652,161.187 103.94,161.475 103.94,161.923C103.94,162.851 102.884,162.915 102.756,162.915L93.7,162.915C93.572,162.915 92.516,162.851 92.516,161.923C92.516,161.475 92.804,161.187 93.22,161.059C94.34,160.707 94.308,160.515 94.308,159.331ZM108.196,138.979L108.196,146.435C108.196,146.563 108.1,147.363 107.14,147.363C106.244,147.363 106.084,146.531 105.988,145.827C105.7,144.131 105.252,142.019 103.588,140.835L103.588,138.979L108.196,138.979ZM88.26,146.435L88.26,138.979L92.868,138.979L92.868,140.835C91.204,142.019 90.756,144.131 90.468,145.827C90.372,146.531 90.212,147.363 89.316,147.363C88.356,147.363 88.26,146.563 88.26,146.435ZM116.964,143.459L117.796,147.075L114.788,158.019C114.276,159.971 114.724,160.515 115.812,160.995C116.324,161.219 116.772,161.411 116.772,162.051C116.772,162.947 115.748,162.915 115.108,162.915L111.428,162.915C110.788,162.915 109.636,162.883 109.636,161.955C109.636,161.187 110.18,161.219 110.884,160.867C111.556,160.515 112.42,159.779 113.028,157.507L116.868,143.459L116.964,143.459ZM121.86,159.171L121.22,156.707L116.548,156.707L116.996,154.851L120.9,154.851L117.668,140.707L118.084,138.979L125.156,138.979L129.956,159.203C130.148,160.099 130.18,160.707 131.076,161.091C131.524,161.283 131.876,161.507 131.876,162.083C131.876,162.947 130.724,162.915 130.116,162.915L122.148,162.915C121.508,162.915 120.58,162.851 120.58,162.019C120.58,161.507 120.772,161.347 121.188,161.123C122.02,160.643 122.148,160.419 121.86,159.171ZM79.104,77.507C88.384,78.799 93.024,87.338 106.205,88.737C109.842,97.034 114.78,108.409 120.24,120.961C121.217,123.205 120.997,125.79 119.656,127.836C118.315,129.883 116.032,131.116 113.585,131.116L56.627,131.116C54.183,131.116 51.903,129.886 50.561,127.844C49.219,125.801 48.995,123.221 49.965,120.977L66.516,82.698C67.11,81.342 67.619,79.964 68.063,78.587C71.61,77.379 75.389,77.01 79.104,77.507ZM78.489,100.221L78.553,100.305L78.575,100.305C80.915,100.259 82.773,98.324 82.727,95.983C82.727,93.643 80.829,91.746 78.489,91.746C76.149,91.746 74.25,93.643 74.25,95.983C74.25,98.324 76.149,100.221 78.489,100.221ZM98.174,120.203C102.964,120.203 106.85,116.327 106.861,111.537L106.861,111.516C106.861,106.717 102.972,102.828 98.174,102.828C93.376,102.828 89.487,106.717 89.487,111.516C89.487,116.314 93.376,120.203 98.174,120.203ZM67.894,121.707C70.959,121.707 73.445,119.221 73.445,116.156C73.445,113.09 70.959,110.604 67.894,110.604C64.828,110.604 62.342,113.09 62.342,116.156C62.342,119.221 64.828,121.707 67.894,121.707ZM165.524,131.116L137.507,131.116C135.497,131.116 133.679,129.923 132.88,128.079L111.735,79.307C109.577,74.307 108.514,68.903 108.619,63.457L109.277,32.416C113.239,29.088 113.43,26.588 109.001,26.588L104.531,26.588L105.612,20.613C105.633,20.497 105.644,20.379 105.644,20.261C105.65,19.162 104.762,18.266 103.663,18.261L67.215,18.261C66.623,18.253 66.062,18.519 65.691,18.98C65.304,19.431 65.14,20.029 65.245,20.613L66.389,26.673L61.897,26.673C57.364,26.673 57.744,29.173 61.601,32.5L62.257,63.457C62.386,68.904 61.323,74.313 59.143,79.307L37.689,128.987C37.103,130.343 35.768,131.221 34.291,131.221C34.138,131.221 16.529,131.167 6.676,131.136L6.676,20C6.676,12.646 12.646,6.676 20,6.676L152.2,6.676C159.554,6.676 165.524,12.646 165.524,20L165.524,131.116ZM75.946,46.527C75.341,46.551 74.799,46.156 74.632,45.574L70.585,24.384C70.571,24.306 70.561,24.226 70.561,24.147C70.551,23.41 71.14,22.805 71.877,22.794L98.831,22.689C98.924,22.688 99.018,22.696 99.111,22.713C99.822,22.855 100.285,23.545 100.145,24.257L96.203,45.447C96.09,46.072 95.546,46.527 94.911,46.527L75.946,46.527Z" style="fill:rgb(242,102,33);"/></svg>