<?xml version="1.0" encoding="UTF-8" standalone="no"?><!DOCTYPE svg PUBLIC "-//W3C//DTD SVG 1.1//EN" "http://www.w3.org/Graphics/SVG/1.1/DTD/svg11.dtd"><svg width="100%" height="100%" viewBox="0 0 172 173" version="1.1" xmlns="http://www.w3.org/2000/svg" xmlns:xlink="http://www.w3.org/1999/xlink" xml:space="preserve" xmlns:serif="http://www.serif.com/" style="fill-rule:evenodd;clip-rule:evenodd;stroke-linejoin:round;stroke-miterlimit:2;"><path d="M171.975,19.971L171.975,151.982C171.975,163.005 163.026,171.954 152.004,171.954L19.993,171.954C8.97,171.954 0.021,163.005 0.021,151.982L0.021,19.971C0.021,8.949 8.97,0 19.993,0L152.004,0C163.026,0 171.975,8.949 171.975,19.971Z" style="fill:white;"/><path d="M77.316,98.213C90.099,99.993 96.49,111.755 114.645,113.681C120.978,128.128 130.173,149.347 140.067,172.055L31.142,172.055L59.978,105.363C60.796,103.496 61.497,101.597 62.108,99.701C66.994,98.038 72.2,97.529 77.316,98.213ZM76.47,129.5L76.557,129.616L76.588,129.616C79.81,129.553 82.37,126.887 82.307,123.663C82.307,120.439 79.692,117.826 76.47,117.826C73.245,117.826 70.63,120.439 70.63,123.663C70.63,126.887 73.245,129.5 76.47,129.5ZM103.583,157.023C110.181,157.023 115.533,151.684 115.548,145.086L115.548,145.058C115.548,138.447 110.192,133.09 103.583,133.09C96.975,133.09 91.618,138.447 91.618,145.058C91.618,151.666 96.975,157.023 103.583,157.023ZM61.876,159.095C66.098,159.095 69.521,155.671 69.521,151.449C69.521,147.226 66.098,143.802 61.876,143.802C57.652,143.802 54.229,147.226 54.229,151.449C54.229,155.671 57.652,159.095 61.876,159.095ZM20,0L151.996,0C163.042,-0 171.996,8.954 171.996,20L171.996,154.201C171.996,164.062 164.002,172.055 154.141,172.055C153.571,172.055 153.054,171.717 152.827,171.193L122.263,100.692C119.29,93.806 117.826,86.362 117.971,78.861L118.876,36.105C124.334,31.521 124.597,28.078 118.497,28.078L112.34,28.078L113.828,19.847C113.857,19.687 113.872,19.525 113.872,19.363C113.881,17.848 112.658,16.614 111.143,16.608L60.941,16.608C60.125,16.597 59.351,16.963 58.841,17.599C58.308,18.219 58.082,19.043 58.227,19.847L59.803,28.194L53.615,28.194C47.371,28.194 47.895,31.637 53.208,36.221L54.111,78.861C54.288,86.364 52.824,93.814 49.821,100.692L18.942,172.2L18.02,172.2C13.241,172.2 8.657,170.301 5.278,166.922C1.899,163.543 -0,158.959 0,154.18L0,20C0,14.696 2.107,9.609 5.858,5.858C9.609,2.107 14.696,-0 20,0ZM72.966,55.542C72.133,55.574 71.386,55.031 71.156,54.229L65.582,25.042C65.562,24.934 65.549,24.825 65.549,24.715C65.536,23.7 66.347,22.867 67.362,22.852L104.488,22.707C104.617,22.705 104.746,22.716 104.873,22.74C105.853,22.935 106.491,23.887 106.298,24.866L100.869,54.053C100.713,54.915 99.964,55.542 99.089,55.542L72.966,55.542Z" style="fill:rgb(242,102,33);"/></svg>