<?xml version="1.0" encoding="UTF-8" standalone="no"?>
<!DOCTYPE svg PUBLIC "-//W3C//DTD SVG 1.1//EN" "http://www.w3.org/Graphics/SVG/1.1/DTD/svg11.dtd">
<svg width="100%" height="100%" viewBox="0 0 173 173" version="1.1" xmlns="http://www.w3.org/2000/svg" xmlns:xlink="http://www.w3.org/1999/xlink" xml:space="preserve" xmlns:serif="http://www.serif.com/" style="fill-rule:evenodd;clip-rule:evenodd;stroke-linejoin:round;stroke-miterlimit:2;">
    <g transform="matrix(1.01449,0,0,1.01449,1546.39,-937.273)">
        <g transform="matrix(0.288256,0,0,0.442668,-1483.08,967.711)">
            <path d="M446,-29.962C446,-68.065 398.494,-99 339.98,-99L-36.98,-99C-95.494,-99 -143,-68.065 -143,-29.962L-143,215.962C-143,254.065 -95.494,285 -36.98,285L339.98,285C398.494,285 446,254.065 446,215.962L446,-29.962Z" style="fill:rgb(242,103,34);"/>
        </g>
        <g transform="matrix(0.288256,0,0,0.442668,-1483.08,967.711)">
            <path d="M446,-29.962C446,-68.065 398.494,-99 339.98,-99L-36.98,-99C-95.494,-99 -143,-68.065 -143,-29.962L-143,215.962C-143,254.065 -95.494,285 -36.98,285L339.98,285C398.494,285 446,254.065 446,215.962L446,-29.962Z" style="fill:rgb(242,103,34);"/>
            <clipPath id="_clip1">
                <path d="M446,-29.962C446,-68.065 398.494,-99 339.98,-99L-36.98,-99C-95.494,-99 -143,-68.065 -143,-29.962L-143,215.962C-143,254.065 -95.494,285 -36.98,285L339.98,285C398.494,285 446,254.065 446,215.962L446,-29.962Z"/>
            </clipPath>
            <g clip-path="url(#_clip1)">
                <g transform="matrix(1.18291,2.87493e-18,-2.10059e-18,-0.355326,-27.7116,266.664)">
                    <rect x="-143" y="-99" width="589" height="384" style="fill:white;"/>
                </g>
            </g>
        </g>
        <g transform="matrix(0.677046,0,0,0.677046,-1497.72,924.172)">
            <g transform="matrix(0.228479,0,0,0.426496,51.5069,50.7242)">
                <rect x="-143" y="-99" width="589" height="384" style="fill:white;"/>
            </g>
            <g transform="matrix(2.92284,0,0,2.92284,-95.0215,-86.4868)">
                <path d="M32.51,29.59L32.51,88.59L39,88.59L49.58,64.09C50.609,61.734 51.11,59.181 51.05,56.61L50.74,42C48.92,40.43 48.74,39.25 50.88,39.25L53,39.25L52.46,36.39C52.411,36.115 52.488,35.832 52.67,35.62C52.845,35.402 53.111,35.277 53.39,35.28L70.59,35.28C71.104,35.282 71.526,35.706 71.526,36.22C71.526,36.277 71.52,36.334 71.51,36.39L71,39.21L73.11,39.21C75.2,39.21 75.11,40.39 73.24,41.96L72.93,56.61C72.88,59.18 73.382,61.73 74.4,64.09L85,88.54L91.44,88.54L91.44,29.59L32.51,29.59Z" style="fill:rgb(242,103,34);fill-rule:nonzero;"/>
            </g>
            <g transform="matrix(2.92284,0,0,2.92284,-95.0215,-86.4868)">
                <path d="M59,63.24C57.247,63.006 55.464,63.18 53.79,63.75C53.58,64.4 53.34,65.05 53.06,65.69L43.18,88.54L80.5,88.54C77.11,80.76 73.96,73.49 71.79,68.54C65.57,67.88 63.38,63.85 59,63.24ZM53.71,84.1C52.273,84.1 51.09,82.917 51.09,81.48C51.09,80.043 52.273,78.86 53.71,78.86C55.147,78.86 56.33,80.043 56.33,81.48C56.33,82.917 55.147,84.1 53.71,84.1ZM58.71,73.96C57.613,73.96 56.71,73.057 56.71,71.96C56.71,70.863 57.613,69.96 58.71,69.96C59.807,69.96 60.71,70.863 60.71,71.96L60.71,72C60.71,73.086 59.826,73.984 58.74,74L58.71,73.96ZM68,83.39C65.751,83.39 63.9,81.539 63.9,79.29C63.9,77.041 65.751,75.19 68,75.19C70.249,75.19 72.1,77.041 72.1,79.29L72.1,79.3C72.095,81.545 70.245,83.39 68,83.39Z" style="fill:rgb(242,103,34);fill-rule:nonzero;"/>
            </g>
            <g transform="matrix(2.92284,0,0,2.92284,-95.0215,-86.4868)">
                <path d="M57.51,48.62L66.46,48.62C66.759,48.62 67.017,48.404 67.07,48.11L68.93,38.11C68.938,38.07 68.942,38.03 68.942,37.99C68.942,37.65 68.662,37.37 68.322,37.37L68.31,37.37L55.59,37.42C55.248,37.425 54.968,37.708 54.968,38.05C54.968,38.09 54.972,38.13 54.98,38.17L56.89,48.17C56.968,48.444 57.225,48.631 57.51,48.62Z" style="fill:rgb(242,103,34);fill-rule:nonzero;"/>
            </g>
        </g>
        <g transform="matrix(0.59225,0,0,0.59225,-1516.61,1019.48)">
            <g transform="matrix(82.3667,0,0,82.3667,230.383,108)">
            </g>
            <text x="27px" y="108px" style="font-family:'Stencil', fantasy;font-size:82.367px;fill:rgb(242,103,34);">BETA</text>
        </g>
    </g>
</svg>
