<?xml version="1.0" encoding="UTF-8" standalone="no"?><!DOCTYPE svg PUBLIC "-//W3C//DTD SVG 1.1//EN" "http://www.w3.org/Graphics/SVG/1.1/DTD/svg11.dtd"><svg width="100%" height="100%" viewBox="0 0 173 173" version="1.1" xmlns="http://www.w3.org/2000/svg" xmlns:xlink="http://www.w3.org/1999/xlink" xml:space="preserve" xmlns:serif="http://www.serif.com/" style="fill-rule:evenodd;clip-rule:evenodd;stroke-linejoin:round;stroke-miterlimit:2;"><path d="M172.2,20L172.2,152.2C172.2,163.238 163.238,172.2 152.2,172.2L20,172.2C8.962,172.2 0,163.238 0,152.2L0,20C0,8.962 8.962,0 20,0L152.2,0C163.238,0 172.2,8.962 172.2,20Z" style="fill:white;"/><path d="M34.229,143.864L35.062,147.482L32.052,158.432C31.54,160.385 31.988,160.93 33.077,161.41C33.589,161.634 34.037,161.826 34.037,162.467C34.037,163.363 33.013,163.331 32.372,163.331L28.69,163.331C28.05,163.331 26.897,163.299 26.897,162.37C26.897,161.602 27.441,161.634 28.146,161.282C28.818,160.93 29.683,160.193 30.291,157.92L34.133,143.864L34.229,143.864ZM39.128,159.585L38.488,157.119L33.813,157.119L34.261,155.262L38.168,155.262L34.934,141.11L35.35,139.381L42.426,139.381L47.229,159.617C47.421,160.513 47.453,161.122 48.35,161.506C48.798,161.698 49.15,161.922 49.15,162.499C49.15,163.363 47.997,163.331 47.389,163.331L39.416,163.331C38.776,163.331 37.847,163.267 37.847,162.435C37.847,161.922 38.04,161.762 38.456,161.538C39.288,161.058 39.416,160.834 39.128,159.585ZM61.926,142.967L61.926,163.331L53.473,163.331C53.345,163.331 52.288,163.267 52.288,162.338C52.288,161.89 52.576,161.602 52.992,161.474C54.113,161.122 54.081,160.93 54.081,159.745L54.081,142.967C54.081,141.782 54.113,141.59 52.992,141.238C52.576,141.11 52.288,140.822 52.288,140.373C52.288,139.445 53.345,139.381 53.473,139.381L62.534,139.381C62.662,139.381 63.719,139.445 63.719,140.373C63.719,140.822 63.431,141.11 63.014,141.238C61.894,141.59 61.926,141.782 61.926,142.967ZM63.367,163.331L63.367,161.474C65.96,161.122 67.433,158.88 68.105,155.903C68.265,155.198 68.65,155.006 69.322,155.006C70.059,155.006 70.123,155.614 70.123,156.223L70.123,163.331L63.367,163.331ZM83.827,141.238L83.827,139.381C86.868,139.381 88.662,139.701 90.166,140.566C92.536,141.974 93.464,144.088 93.464,146.777C93.464,149.467 92.536,151.58 90.166,152.989C88.662,153.853 86.868,154.174 83.827,154.174L83.827,152.317C85.716,151.964 85.812,150.652 85.812,149.083L85.812,144.248C85.812,142.807 85.524,141.494 83.827,141.238ZM74.541,159.745L74.541,142.967C74.541,141.782 74.573,141.59 73.453,141.238C73.036,141.11 72.748,140.822 72.748,140.373C72.748,139.445 73.805,139.381 73.933,139.381L82.386,139.381L82.386,159.745C82.386,160.93 82.354,161.122 83.474,161.474C83.891,161.602 84.179,161.89 84.179,162.338C84.179,163.267 83.122,163.331 82.994,163.331L73.933,163.331C73.805,163.331 72.748,163.267 72.748,162.338C72.748,161.89 73.036,161.602 73.453,161.474C74.573,161.122 74.541,160.93 74.541,159.745ZM106.016,142.967L106.016,159.745C106.016,160.93 105.984,161.122 107.104,161.474C107.521,161.602 107.809,161.89 107.809,162.338C107.809,163.267 106.752,163.331 106.624,163.331L97.563,163.331C97.435,163.331 96.378,163.267 96.378,162.338C96.378,161.89 96.666,161.602 97.083,161.474C98.203,161.122 98.171,160.93 98.171,159.745L98.171,142.967C98.171,141.782 98.203,141.59 97.083,141.238C96.666,141.11 96.378,140.822 96.378,140.373C96.378,139.445 97.435,139.381 97.563,139.381L106.624,139.381C106.752,139.381 107.809,139.445 107.809,140.373C107.809,140.822 107.521,141.11 107.104,141.238C105.984,141.59 106.016,141.782 106.016,142.967ZM110.274,159.745L110.274,152.092L107.457,152.092L107.457,150.235L110.274,150.235L110.274,142.967C110.274,141.782 110.306,141.59 109.186,141.238C108.769,141.11 108.481,140.822 108.481,140.373C108.481,139.445 109.538,139.381 109.666,139.381L118.727,139.381C118.855,139.381 119.912,139.445 119.912,140.373C119.912,140.822 119.624,141.11 119.208,141.238C118.087,141.59 118.119,141.782 118.119,142.967L118.119,159.745C118.119,160.93 118.087,161.122 119.208,161.474C119.624,161.602 119.912,161.89 119.912,162.338C119.912,163.267 118.855,163.331 118.727,163.331L109.666,163.331C109.538,163.331 108.481,163.267 108.481,162.338C108.481,161.89 108.769,161.602 109.186,161.474C110.306,161.122 110.274,160.93 110.274,159.745ZM130.382,143.864L131.215,147.482L128.205,158.432C127.693,160.385 128.141,160.93 129.23,161.41C129.742,161.634 130.19,161.826 130.19,162.467C130.19,163.363 129.165,163.331 128.525,163.331L124.843,163.331C124.203,163.331 123.05,163.299 123.05,162.37C123.05,161.602 123.594,161.634 124.299,161.282C124.971,160.93 125.836,160.193 126.444,157.92L130.286,143.864L130.382,143.864ZM135.281,159.585L134.641,157.119L129.966,157.119L130.414,155.262L134.321,155.262L131.087,141.11L131.503,139.381L138.579,139.381L143.382,159.617C143.574,160.513 143.606,161.122 144.503,161.506C144.951,161.698 145.303,161.922 145.303,162.499C145.303,163.363 144.15,163.331 143.542,163.331L135.569,163.331C134.929,163.331 134,163.267 134,162.435C134,161.922 134.192,161.762 134.609,161.538C135.441,161.058 135.569,160.834 135.281,159.585ZM79.104,77.507C88.384,78.799 93.024,87.338 106.205,88.737C109.842,97.034 114.78,108.409 120.24,120.961C121.217,123.205 120.997,125.79 119.656,127.836C118.315,129.883 116.032,131.116 113.585,131.116L56.627,131.116C54.183,131.116 51.903,129.886 50.561,127.844C49.219,125.801 48.995,123.221 49.965,120.977L66.516,82.698C67.11,81.342 67.619,79.964 68.063,78.587C71.61,77.379 75.389,77.01 79.104,77.507ZM78.489,100.221L78.553,100.305L78.575,100.305C80.915,100.259 82.773,98.324 82.727,95.983C82.727,93.643 80.829,91.746 78.489,91.746C76.149,91.746 74.25,93.643 74.25,95.983C74.25,98.324 76.149,100.221 78.489,100.221ZM67.894,121.707C70.959,121.707 73.445,119.221 73.445,116.156C73.445,113.09 70.959,110.604 67.894,110.604C64.828,110.604 62.342,113.09 62.342,116.156C62.342,119.221 64.828,121.707 67.894,121.707ZM98.174,120.203C102.964,120.203 106.85,116.327 106.861,111.537L106.861,111.516C106.861,106.717 102.972,102.828 98.174,102.828C93.376,102.828 89.487,106.717 89.487,111.516C89.487,116.314 93.376,120.203 98.174,120.203ZM165.524,131.116L137.507,131.116C135.497,131.116 133.679,129.923 132.88,128.079L111.735,79.307C109.577,74.307 108.514,68.903 108.619,63.457L109.277,32.416C113.239,29.088 113.43,26.588 109.001,26.588L104.531,26.588L105.612,20.613C105.633,20.497 105.644,20.379 105.644,20.261C105.65,19.162 104.762,18.266 103.663,18.261L67.215,18.261C66.623,18.253 66.062,18.519 65.691,18.98C65.304,19.431 65.14,20.029 65.245,20.613L66.389,26.673L61.897,26.673C57.364,26.673 57.744,29.173 61.601,32.5L62.257,63.457C62.386,68.904 61.323,74.313 59.143,79.307L37.689,128.987C37.103,130.343 35.768,131.221 34.291,131.221C34.138,131.221 16.529,131.167 6.676,131.136L6.676,20C6.676,12.646 12.646,6.676 20,6.676L152.2,6.676C159.554,6.676 165.524,12.646 165.524,20L165.524,131.116ZM75.946,46.527C75.341,46.551 74.799,46.156 74.632,45.574L70.585,24.384C70.571,24.306 70.561,24.226 70.561,24.147C70.551,23.41 71.14,22.805 71.877,22.794L98.831,22.689C98.924,22.688 99.018,22.696 99.111,22.713C99.822,22.855 100.285,23.545 100.145,24.257L96.203,45.447C96.09,46.072 95.546,46.527 94.911,46.527L75.946,46.527Z" style="fill:rgb(242,102,33);"/></svg>