<?xml version="1.0" encoding="UTF-8" standalone="no"?>
<svg
   xmlns:dc="http://purl.org/dc/elements/1.1/"
   xmlns:cc="http://creativecommons.org/ns#"
   xmlns:rdf="http://www.w3.org/1999/02/22-rdf-syntax-ns#"
   xmlns:svg="http://www.w3.org/2000/svg"
   xmlns="http://www.w3.org/2000/svg"
   xmlns:sodipodi="http://sodipodi.sourceforge.net/DTD/sodipodi-0.dtd"
   xmlns:inkscape="http://www.inkscape.org/namespaces/inkscape"
   sodipodi:docname="skinningconverter.svg"
   inkscape:version="1.0 (4035a4fb49, 2020-05-01)"
   id="svg8"
   version="1.1"
   viewBox="0 0 37.719002 36.017754"
   height="36.017754mm"
   width="37.719002mm">
  <defs
     id="defs2" />
  <sodipodi:namedview
     inkscape:window-maximized="1"
     inkscape:window-y="113"
     inkscape:window-x="1912"
     inkscape:window-height="1017"
     inkscape:window-width="1920"
     showgrid="false"
     inkscape:document-rotation="0"
     inkscape:current-layer="layer1"
     inkscape:document-units="mm"
     inkscape:cy="57.714595"
     inkscape:cx="42.129085"
     inkscape:zoom="2.8"
     inkscape:pageshadow="2"
     inkscape:pageopacity="0.0"
     borderopacity="1.0"
     bordercolor="#666666"
     pagecolor="#ffffff"
     id="base">
    <sodipodi:guide
       id="guide1297"
       orientation="0,793.70079"
       position="-91.184647,272.0267" />
    <sodipodi:guide
       id="guide1299"
       orientation="1122.5197,0"
       position="118.81535,272.0267" />
    <sodipodi:guide
       id="guide1301"
       orientation="0,-793.70079"
       position="118.81535,-24.973293" />
    <sodipodi:guide
       id="guide1303"
       orientation="-1122.5197,0"
       position="-91.184647,-24.973293" />
  </sodipodi:namedview>
  <metadata
     id="metadata5">
    <rdf:RDF>
      <cc:Work
         rdf:about="">
        <dc:format>image/svg+xml</dc:format>
        <dc:type
           rdf:resource="http://purl.org/dc/dcmitype/StillImage" />
        <dc:title></dc:title>
      </cc:Work>
    </rdf:RDF>
  </metadata>
  <g
     transform="translate(-91.18465,-236.00895)"
     id="layer1"
     inkscape:groupmode="layer"
     inkscape:label="Layer 1">
    <path
       transform="scale(0.26458333)"
       d="m 464.24414,951.52539 a 38.890874,38.890874 0 0 1 -35.93945,24.0293 38.890874,38.890874 0 0 1 -0.61524,-0.006 38.890874,38.890874 0 0 1 -18.16797,27.83791 38.890874,38.890874 0 0 0 33.93555,19.8985 38.890874,38.890874 0 0 0 38.89063,-38.89071 38.890874,38.890874 0 0 0 -18.10352,-32.86914 z"
       style="fill:#0b4747;fill-opacity:1;stroke:#0b4747;stroke-width:9.69449;stroke-opacity:1"
       id="path865-0-7" />
    <circle
       r="10.289877"
       cy="256.83789"
       cx="102.75703"
       id="path865"
       style="fill:none;fill-opacity:1;stroke:#ff6600;stroke-width:2.565;stroke-miterlimit:4;stroke-dasharray:none;stroke-opacity:1" />
    <circle
       style="fill:none;stroke:#0c7173;stroke-width:2.565;stroke-opacity:1"
       id="path865-0"
       cx="113.43633"
       cy="247.58133"
       r="10.289877" />
    <path
       transform="scale(0.26458333)"
       d="m 438.06445,898.56836 -44.58984,44.58789 0.17969,0.17969 44.68554,-44.68555 a 38.890874,38.890874 0 0 0 -0.27539,-0.082 z m 17.07032,10.32812 -49.53711,49.53907 0.17773,0.17773 49.53516,-49.53516 a 38.890874,38.890874 0 0 0 -0.17578,-0.18164 z m 10.01757,18.77149 -44.40234,44.4043 0.17773,0.17773 44.28711,-44.28711 a 38.890874,38.890874 0 0 0 -0.0625,-0.29492 z"
       style="fill:#009d00;fill-opacity:1;stroke:#0c7173;stroke-width:9.69449;stroke-miterlimit:4;stroke-dasharray:none;stroke-opacity:1"
       id="rect1189" />
  </g>
</svg>
