<svg xmlns="http://www.w3.org/2000/svg" width="720" height="720" viewBox="0 0 720 720">
  <metadata><?xpacket begin="﻿" id="W5M0MpCehiHzreSzNTczkc9d"?>
<x:xmpmeta xmlns:x="adobe:ns:meta/" x:xmptk="Adobe XMP Core 5.6-c142 79.160924, 2017/07/13-01:06:39        ">
   <rdf:RDF xmlns:rdf="http://www.w3.org/1999/02/22-rdf-syntax-ns#">
      <rdf:Description rdf:about=""/>
   </rdf:RDF>
</x:xmpmeta>
                                                                                                    
                                                                                                    
                                                                                                    
                                                                                                    
                                                                                                    
                                                                                                    
                                                                                                    
                                                                                                    
                                                                                                    
                                                                                                    
                                                                                                    
                                                                                                    
                                                                                                    
                                                                                                    
                                                                                                    
                                                                                                    
                                                                                                    
                                                                                                    
                                                                                                    
                                                                                                    
                           
<?xpacket end="w"?></metadata>
<defs>
    <style>
      .cls-1 {
        fill: #f60;
        fill-rule: evenodd;
      }
    </style>
  </defs>
  <path class="cls-1" d="M470,168c13.826,9.368,11.813,23.523,20,27,19.233,8.169,34.3-11.491,30-9,34.859-20.191,64.667-58.9,77-72,19.1-20.3,47.333-59.641,70-37,28.964,28.931-35.7,56.448-56,66-8.043,3.785-46.108,32.421-79,69-12.024,13.371-11.767,14.378-17,22-7.07,10.3-.044,22.363,3,38,1.852,9.511-16.622,27.543-3,34,14.425,6.837,24.55,18.777,48,17,19.818-1.5,88.209-41.391,98,6,8.208,39.733-83.736,26.6-101,26-26.515-.915-15.321,32.964-20,59-2.717,15.119,3.125,26.432,26,33,40.437,11.611,54.2,15.482,51,40-5.142,39.445-64.3,4.924-105-15-36.019-17.631-58.279,18.953-62,32-3.708,13-43.964,10.324-38,25,13.313,32.764,45.676,71.259,23,85-33,19.994-52.973-43.137-63-77-6.645-22.441-53.772-5-65-5-10.022,0-47.516-34.447-72-10-26.167,26.127-52.8,89.413-92,60-48.842-36.645,46-97,46-97s-17.434-7.619-14-28c1.819-10.8-16.279-10.972-20-18-10.732-20.271-14-34-14-34s-20.853.694-37,9c-20.779,10.689-61.621,45.834-84-3-21.5-54.38,25.782-66.416,47-67,24.595-.676,58.958,6.709,64-11,6.524-22.912-45.633-14.554-32-61,10.129-34.51,40.168-8.761,49-33,9.422-25.859-5.86-22.773-18-32C106.177,188.894-7.5,151.363,43,103c46.653-44.678,89.873,56.881,107,75,24.638,26.065,68.464.275,62-14-7.432-16.411-4.629-40.124,18-50,21.66-9.453,43.43,13.1,53,32,10.614,20.959,67.123,5.566,76-18,10.459-27.767-18.3-39.99,11-76,26.707-32.824,73.055-18.663,91,20,10.863,45.152-44.948,69.739-23,89C454.589,175.558,457.435,155.413,470,168ZM104,614a35,35,0,1,1-35,35A35,35,0,0,1,104,614Zm197-44a22,22,0,1,1-22,22A22,22,0,0,1,301,570Zm273.5-36A53.5,53.5,0,1,1,521,587.5,53.5,53.5,0,0,1,574.5,534ZM175,45a31,31,0,1,1-31,31A31,31,0,0,1,175,45Z"/>
</svg>
