<svg id="be1177da-1c24-4284-b2e4-b90ae1910028" data-name="Stickynote - bestpractice" xmlns="http://www.w3.org/2000/svg" xmlns:xlink="http://www.w3.org/1999/xlink" width="141.0014mm" height="145.4094mm" viewBox="0 0 399.6889 412.1842"><defs><style>.a3eb1999-f643-4ee4-8e0f-0a61c6565647,.b3b1a488-9acf-4e32-989a-c9e8aad09184{fill-rule:evenodd;}.a3eb1999-f643-4ee4-8e0f-0a61c6565647{fill:url(#f5df7e84-dfca-44fb-97e9-7af882e95a9f);}.b3b1a488-9acf-4e32-989a-c9e8aad09184,.b4922c38-8c37-4ba3-8f2c-f0329de09683{stroke:#999;}.b3b1a488-9acf-4e32-989a-c9e8aad09184{stroke-miterlimit:10;fill:url(#e532699b-d7a5-4d86-aabf-8620e6c54fa5);}.b4922c38-8c37-4ba3-8f2c-f0329de09683{fill:none;stroke-linecap:square;stroke-dasharray:2 4;}</style><linearGradient id="f5df7e84-dfca-44fb-97e9-7af882e95a9f" x1="235.505" y1="480.2083" x2="235.505" y2="160.653" gradientTransform="matrix(0.8216, 0, 0, -1.2171, -7.9526, 646.2527)" gradientUnits="userSpaceOnUse"><stop offset="0"/><stop offset="1" stop-opacity="0"/></linearGradient><linearGradient id="e532699b-d7a5-4d86-aabf-8620e6c54fa5" x1="223.9668" y1="299.3368" x2="279.9343" y2="94.1005" gradientTransform="matrix(0.9844, 0, 0, -1.0159, -0.7355, 510.5554)" gradientUnits="userSpaceOnUse"><stop offset="0" stop-color="#f70"/><stop offset="1" stop-color="#ffe4cc"/></linearGradient></defs><path id="ba871f74-d169-4e75-9365-c1e940259ce1" data-name="shadow" class="a3eb1999-f643-4ee4-8e0f-0a61c6565647" d="M320.3658,394.71,54.4537,450.7232s-3.4209-86.77-3.72-182.4913c-.1406-44.9652,1.5824-162.6252,1.5824-162.6252L307.5134,61.795Z" transform="translate(-50.5328 -43.8804)"/><path id="f47aa9e5-0e35-476f-9ae5-c44743569446" data-name="sticky" class="b3b1a488-9acf-4e32-989a-c9e8aad09184" d="M52.3158,105.6067,351.2734,44.4976q-2.8471,78.1248,13.7934,171.1987c11.58,64.21,39.163,117.8425,84.2079,167.38l-319.84,72.4265C95.3237,406.3653,70.9042,353.5166,61.49,291.69A912.327,912.327,0,0,1,52.3158,105.6067Z" transform="translate(-50.5328 -43.8804)"/><path id="f373f16c-254d-499e-b73b-6784935ed4f0" data-name="dashed line" class="b4922c38-8c37-4ba3-8f2c-f0329de09683" d="M54.4537,168.987l295.2631-68.8716" transform="translate(-50.5328 -43.8804)"/></svg>