<svg id="Layer_1" data-name="Layer 1" xmlns="http://www.w3.org/2000/svg" viewBox="0 0 943.07 883.43"><defs><style>.cls-1{fill:#f60;}</style></defs><g id="NEW_BODY_FLATTEN" data-name="NEW BODY FLATTEN"><path class="cls-1" d="M840.54,667c-10.4-40.64-.72-74.47,28.78-100.56l.27-.23c34.55-28.82,75.23-46.44,115.06-62.93-40.43-16.89-67.68-30.34-88.43-43.48-30.42-19.27-48.05-39-55.47-62.07C833.43,375,836,349.1,848.89,316.3c8.93-22.73,23.16-49.81,45.21-85.78-42.64,9.68-72.63,14.53-97.24,15.86-36.1,1.94-62.13-3.91-81.91-18.43-36.26-26.62-49.36-81.66-56.44-166.54-60.66,68-102,102.52-146,102.52h-.28c-44.16-.15-86.46-35.9-145.09-102.33-8,87.48-21.1,140.9-57,167s-89.58,22.14-178.37,1.92C176.41,303,198.41,355,184.58,397.86s-61.22,71.69-143,105.46c84.14,35.48,130,63.56,143.47,105.52s-7.76,92.47-53.45,167c42.5-9.69,72.46-14.54,97.12-15.87,36.09-1.93,62.12,3.93,81.92,18.46,36.3,26.62,49.43,81.5,56.49,166.08,27.79-31.8,49.51-53.53,68.76-68.93,27.83-22.27,52.22-32.64,76.76-32.66h.06c24.55,0,49,10.36,76.81,32.62,19.32,15.43,41.18,37.27,69.23,69.3,4-43.18,8.72-73,15.09-96.71,9.16-34.1,22.4-56.51,41.65-70.5,35.7-26,89.9-21.74,180.12-1.31q-3.69-6.11-7.61-12.45C869.78,734.1,849.09,700.41,840.54,667ZM513,643.7c-116.29,0-224-51.23-297.27-140.87C289,413.2,396.71,362,513,362s224,51.2,297.26,140.83C737,592.46,629.29,643.66,513,643.7Z" transform="translate(-41.58 -61.41)"/></g></svg>