<?xml version="1.0" encoding="utf-8"?>
<!-- Generator: Adobe Illustrator 22.1.0, SVG Export Plug-In . SVG Version: 6.00 Build 0)  -->
<svg version="1.1" xmlns="http://www.w3.org/2000/svg" xmlns:xlink="http://www.w3.org/1999/xlink" x="0px" y="0px"
	 viewBox="0 0 500 500" style="enable-background:new 0 0 500 500;" xml:space="preserve">
<style type="text/css">
	.st0{fill:#FF6600;}
	.st1{opacity:0.5;fill:url(#SVGID_1_);}
	.st2{opacity:0.5;fill:url(#SVGID_2_);}
	.st3{opacity:0.5;fill:url(#SVGID_3_);}
	.st4{opacity:0.5;fill:url(#SVGID_4_);}
	.st5{fill:url(#SVGID_5_);}
	.st6{fill:#FFFFFF;}
	.st7{display:none;}
	.st8{display:inline;}
	.st9{fill:none;stroke:#EDEDED;stroke-width:0.5;stroke-miterlimit:10;}
	.st10{fill:none;stroke:#BDBDBD;stroke-miterlimit:10;}
	.st11{display:inline;fill:none;stroke:#BDBDBD;stroke-miterlimit:10;}
</style>
<g id="Layer_2">
	<path class="st0" d="M400,500H100C44.8,500,0,455.2,0,400V100C0,44.8,44.8,0,100,0h300c55.2,0,100,44.8,100,100v300
		C500,455.2,455.2,500,400,500z"/>
</g>
<g id="Layer_3_copy">
	<linearGradient id="SVGID_1_" gradientUnits="userSpaceOnUse" x1="547.7845" y1="252.2348" x2="283.7766" y2="99.8098">
		<stop  offset="0" style="stop-color:#FF6600"/>
		<stop  offset="1" style="stop-color:#231F20"/>
	</linearGradient>
	<path class="st1" d="M349,62.5L331.6,17l169.5,123.6L500,231l-0.9,40.1c0,48.1,0.9,10.2,0.9,32.9v31L307.8,218.8"/>
	<linearGradient id="SVGID_2_" gradientUnits="userSpaceOnUse" x1="329.9099" y1="473.2191" x2="89.9827" y2="334.697">
		<stop  offset="0" style="stop-color:#FF6600"/>
		<stop  offset="1" style="stop-color:#231F20"/>
	</linearGradient>
	<path class="st2" d="M154.6,298.4l-17.4-45.5l169.5,123.6l-1.1,90.4l-1.1,33.1c0,48.1,0-22.8,0,0H187.5l-74.1-45.3"/>
	<linearGradient id="SVGID_3_" gradientUnits="userSpaceOnUse" x1="530.3276" y1="373.7352" x2="69.3142" y2="107.5691">
		<stop  offset="0" style="stop-color:#FF6600"/>
		<stop  offset="1" style="stop-color:#231F20"/>
	</linearGradient>
	<path class="st3" d="M139.1,62.4l-17.4-45.5l169.5,123.6L500,281.3V304c0,48.1,1.1,37.1,1.1,59.9L478,464.4L97.9,218.6"/>
	<linearGradient id="SVGID_4_" gradientUnits="userSpaceOnUse" x1="492.7185" y1="443.2676" x2="299.5468" y2="331.7399">
		<stop  offset="0" style="stop-color:#FF6600"/>
		<stop  offset="1" style="stop-color:#231F20"/>
	</linearGradient>
	<path class="st4" d="M363.6,296.4l-17.4-45.5l154.9,112.9l0,0l-1.1,42.4c0,48.1-31.3,70.8-62.5,86.5l-31.3,7.3l-83.9-47.3"/>
	<linearGradient id="SVGID_5_" gradientUnits="userSpaceOnUse" x1="771.0322" y1="343.4201" x2="771.0322" y2="343.4201">
		<stop  offset="0" style="stop-color:#FF6600"/>
		<stop  offset="1" style="stop-color:#231F20"/>
	</linearGradient>
	<path class="st5" d="M771,343.4"/>
	<path class="st6" d="M199,109.4c-2,18.9-5,25-15.6,31.1c15.6-21.7-7.8-65.5-15.6-77.8c-7.1-11.2-43.2-47.7-46.7-46.7
		c0,0,11.3,20.3,0,46.7c-14.4,33.8-46.7,62.3-46.7,93.4c0,61.3,41.1,77.8,62.3,77.8c31.1,0,63.5-13.6,77.8-46.7
		C227.2,146.2,206.8,120.8,199,109.4z M178.6,206.7c-6.4,14.8-21.3,23.3-36.9,23.3c0,0-23.1,0.5-31.1-15.6
		c-7.8-15.6-4.3-33.6,1-38.9c1.1,12,2.7,16.4,8.8,18.8c-10.4-16.8-3.9-34.8,0.4-44c3.4-7.3,10-13.8,22.7-29.3
		c-10.2,35-1.8,43,14.9,62.3c-1.5-17.9,1.4-25.4,14.4-31.1C163.4,177,186.3,188.6,178.6,206.7z"/>
	<path class="st6" d="M212,343.8c-2,18.9-5,25-15.6,31.1c15.6-21.7-7.8-65.5-15.6-77.8c-7.1-11.2-43.2-47.7-46.7-46.7
		c0,0,11.3,20.3,0,46.7c-14.4,33.8-46.7,62.3-46.7,93.4c0,61.3,41.1,77.8,62.3,77.8c31.1,0,63.5-13.6,77.8-46.7
		C240.2,380.6,219.8,355.2,212,343.8z M191.6,441.1c-6.4,14.8-21.3,23.3-36.9,23.3c0,0-23.1,0.5-31.1-15.6
		c-7.8-15.6-4.3-33.6,1-38.9c1.1,12,2.7,16.4,8.8,18.8c-10.4-16.8-3.9-34.8,0.4-44c3.4-7.3,10-13.8,22.7-29.3
		c-10.2,35-1.8,43,14.9,62.3c-1.5-17.9,1.4-25.4,14.4-31.1C176.4,411.4,199.3,423,191.6,441.1z"/>
	<path class="st6" d="M409.4,110.4c-2,18.9-5,25-15.6,31.1c15.6-21.7-7.8-65.5-15.6-77.8c-7.1-11.2-43.2-47.7-46.7-46.7
		c0,0,11.3,20.3,0,46.7c-14.4,33.8-46.7,62.3-46.7,93.4c0,61.3,41.1,77.8,62.3,77.8c31.1,0,63.5-13.6,77.8-46.7
		C437.5,147.2,417.2,121.8,409.4,110.4z M388.9,207.7c-6.4,14.8-21.3,23.3-36.9,23.3c0,0-23.1,0.5-31.1-15.6
		c-7.8-15.6-4.3-33.6,1-38.9c1.1,12,2.7,16.4,8.8,18.8c-10.4-16.8-3.9-34.8,0.4-44c3.4-7.3,10-13.8,22.7-29.3
		c-10.2,35-1.8,43,14.9,62.3c-1.5-17.9,1.4-25.4,14.4-31.1C373.7,178,396.7,189.6,388.9,207.7z"/>
	<path class="st6" d="M422.4,344.8c-2,18.9-5,25-15.6,31.1c15.6-21.7-7.8-65.5-15.6-77.8c-7.1-11.2-43.2-47.7-46.7-46.7
		c0,0,11.3,20.3,0,46.7c-14.4,33.8-46.7,62.3-46.7,93.4c0,61.3,41.1,77.8,62.3,77.8c31.1,0,63.5-13.6,77.8-46.7
		C450.5,381.6,430.2,356.2,422.4,344.8z M401.9,442.1c-6.4,14.8-21.3,23.3-36.9,23.3c0,0-23.1,0.5-31.1-15.6
		c-7.8-15.6-4.3-33.6,1-38.9c1.1,12,2.7,16.4,8.8,18.8c-10.4-16.8-3.9-34.8,0.4-44c3.4-7.3,10-13.8,22.7-29.3
		c-10.2,35-1.8,43,14.9,62.3c-1.5-17.9,1.4-25.4,14.4-31.1C386.7,412.4,409.7,424,401.9,442.1z"/>
</g>
<g id="Layer_1" class="st7">
	<g class="st8">
		<rect x="250" y="375" class="st9" width="31.3" height="31.3"/>
		<rect x="156.3" y="375" class="st9" width="31.3" height="31.3"/>
		<rect x="218.8" y="375" class="st9" width="31.3" height="31.3"/>
		<rect x="187.5" y="375" class="st9" width="31.3" height="31.3"/>
		<rect x="93.8" y="343.8" class="st9" width="31.3" height="31.3"/>
		<rect x="93.8" y="375" class="st9" width="31.3" height="31.3"/>
		<rect x="125" y="375" class="st9" width="31.3" height="31.3"/>
		<rect x="281.3" y="375" class="st9" width="31.3" height="31.3"/>
		<rect x="375" y="312.5" class="st9" width="31.3" height="31.3"/>
		<rect x="93.8" y="312.5" class="st9" width="31.3" height="31.3"/>
		<rect x="375" y="343.8" class="st9" width="31.3" height="31.3"/>
		<rect x="375" y="281.3" class="st9" width="31.3" height="31.3"/>
		<rect x="312.5" y="375" class="st9" width="31.3" height="31.3"/>
		<rect x="375" y="375" class="st9" width="31.3" height="31.3"/>
		<rect x="375" y="250" class="st9" width="31.3" height="31.3"/>
		<rect x="343.8" y="375" class="st9" width="31.3" height="31.3"/>
		<rect x="250" y="93.8" class="st9" width="31.3" height="31.3"/>
		<rect x="218.8" y="93.8" class="st9" width="31.3" height="31.3"/>
		<rect x="187.5" y="93.8" class="st9" width="31.3" height="31.3"/>
		<rect x="312.5" y="93.8" class="st9" width="31.3" height="31.3"/>
		<rect x="343.8" y="93.8" class="st9" width="31.3" height="31.3"/>
		<rect x="156.3" y="93.8" class="st9" width="31.3" height="31.3"/>
		<rect x="281.3" y="93.8" class="st9" width="31.3" height="31.3"/>
		<rect x="93.8" y="156.3" class="st9" width="31.3" height="31.3"/>
		<rect x="93.8" y="187.5" class="st9" width="31.3" height="31.3"/>
		<rect x="93.8" y="218.8" class="st9" width="31.3" height="31.3"/>
		<rect x="93.8" y="250" class="st9" width="31.3" height="31.3"/>
		<rect x="93.8" y="281.3" class="st9" width="31.3" height="31.3"/>
		<rect x="125" y="93.8" class="st9" width="31.3" height="31.3"/>
		<rect x="93.8" y="93.8" class="st9" width="31.3" height="31.3"/>
		<rect x="93.8" y="125" class="st9" width="31.3" height="31.3"/>
		<rect x="375" y="125" class="st9" width="31.3" height="31.3"/>
		<rect x="62.5" y="281.3" class="st9" width="31.3" height="31.3"/>
		<rect x="62.5" y="312.5" class="st9" width="31.3" height="31.3"/>
		<rect x="62.5" y="250" class="st9" width="31.3" height="31.3"/>
		<rect x="62.5" y="156.3" class="st9" width="31.3" height="31.3"/>
		<rect x="62.5" y="125" class="st9" width="31.3" height="31.3"/>
		<rect x="62.5" y="187.5" class="st9" width="31.3" height="31.3"/>
		<rect x="62.5" y="218.8" class="st9" width="31.3" height="31.3"/>
		<rect x="62.5" y="343.8" class="st9" width="31.3" height="31.3"/>
		<rect x="187.5" y="406.3" class="st9" width="31.3" height="31.3"/>
		<rect x="218.8" y="406.3" class="st9" width="31.3" height="31.3"/>
		<rect x="156.3" y="406.3" class="st9" width="31.3" height="31.3"/>
		<rect x="125" y="406.3" class="st9" width="31.3" height="31.3"/>
		<rect x="62.5" y="406.3" class="st9" width="31.3" height="31.3"/>
		<rect x="93.8" y="406.3" class="st9" width="31.3" height="31.3"/>
		<rect x="62.5" y="375" class="st9" width="31.3" height="31.3"/>
		<rect x="62.5" y="93.8" class="st9" width="31.3" height="31.3"/>
		<rect x="375" y="62.5" class="st9" width="31.3" height="31.3"/>
		<rect x="312.5" y="62.5" class="st9" width="31.3" height="31.3"/>
		<rect x="281.3" y="62.5" class="st9" width="31.3" height="31.3"/>
		<rect x="375" y="93.8" class="st9" width="31.3" height="31.3"/>
		<rect x="343.8" y="125" class="st9" width="31.3" height="31.3"/>
		<rect x="375" y="187.5" class="st9" width="31.3" height="31.3"/>
		<rect x="375" y="156.3" class="st9" width="31.3" height="31.3"/>
		<rect x="62.5" y="62.5" class="st9" width="31.3" height="31.3"/>
		<rect x="93.8" y="62.5" class="st9" width="31.3" height="31.3"/>
		<rect x="375" y="218.8" class="st9" width="31.3" height="31.3"/>
		<rect x="125" y="62.5" class="st9" width="31.3" height="31.3"/>
		<rect x="250" y="62.5" class="st9" width="31.3" height="31.3"/>
		<rect x="218.8" y="62.5" class="st9" width="31.3" height="31.3"/>
		<rect x="187.5" y="62.5" class="st9" width="31.3" height="31.3"/>
		<rect x="156.3" y="62.5" class="st9" width="31.3" height="31.3"/>
		<rect x="281.3" y="156.3" class="st9" width="31.3" height="31.3"/>
		<rect x="156.3" y="156.3" class="st9" width="31.3" height="31.3"/>
		<rect x="156.3" y="218.8" class="st9" width="31.3" height="31.3"/>
		<rect x="156.3" y="187.5" class="st9" width="31.3" height="31.3"/>
		<rect x="187.5" y="156.3" class="st9" width="31.3" height="31.3"/>
		<rect x="250" y="406.3" class="st9" width="31.3" height="31.3"/>
		<rect x="250" y="156.3" class="st9" width="31.3" height="31.3"/>
		<rect x="281.3" y="187.5" class="st9" width="31.3" height="31.3"/>
		<rect x="218.8" y="156.3" class="st9" width="31.3" height="31.3"/>
		<rect x="250" y="312.5" class="st9" width="31.3" height="31.3"/>
		<rect x="312.5" y="312.5" class="st9" width="31.3" height="31.3"/>
		<rect x="281.3" y="312.5" class="st9" width="31.3" height="31.3"/>
		<rect x="218.8" y="312.5" class="st9" width="31.3" height="31.3"/>
		<rect x="156.3" y="281.3" class="st9" width="31.3" height="31.3"/>
		<rect x="156.3" y="312.5" class="st9" width="31.3" height="31.3"/>
		<rect x="187.5" y="312.5" class="st9" width="31.3" height="31.3"/>
		<rect x="156.3" y="250" class="st9" width="31.3" height="31.3"/>
		<rect x="187.5" y="187.5" class="st9" width="31.3" height="31.3"/>
		<rect x="218.8" y="187.5" class="st9" width="31.3" height="31.3"/>
		<rect x="250" y="218.8" class="st9" width="31.3" height="31.3"/>
		<rect x="250" y="187.5" class="st9" width="31.3" height="31.3"/>
		<rect x="281.3" y="218.8" class="st9" width="31.3" height="31.3"/>
		<rect x="218.8" y="250" class="st9" width="31.3" height="31.3"/>
		<rect x="250" y="250" class="st9" width="31.3" height="31.3"/>
		<rect x="218.8" y="218.8" class="st9" width="31.3" height="31.3"/>
		<rect x="281.3" y="281.3" class="st9" width="31.3" height="31.3"/>
		<rect x="250" y="281.3" class="st9" width="31.3" height="31.3"/>
		<rect x="281.3" y="250" class="st9" width="31.3" height="31.3"/>
		<rect x="187.5" y="218.8" class="st9" width="31.3" height="31.3"/>
		<rect x="187.5" y="250" class="st9" width="31.3" height="31.3"/>
		<rect x="187.5" y="281.3" class="st9" width="31.3" height="31.3"/>
		<rect x="218.8" y="281.3" class="st9" width="31.3" height="31.3"/>
		<rect x="343.8" y="156.3" class="st9" width="31.3" height="31.3"/>
		<rect x="218.8" y="343.8" class="st9" width="31.3" height="31.3"/>
		<rect x="187.5" y="343.8" class="st9" width="31.3" height="31.3"/>
		<rect x="250" y="343.8" class="st9" width="31.3" height="31.3"/>
		<rect x="156.3" y="343.8" class="st9" width="31.3" height="31.3"/>
		<rect x="125" y="312.5" class="st9" width="31.3" height="31.3"/>
		<rect x="125" y="343.8" class="st9" width="31.3" height="31.3"/>
		<rect x="281.3" y="343.8" class="st9" width="31.3" height="31.3"/>
		<rect x="343.8" y="312.5" class="st9" width="31.3" height="31.3"/>
		<rect x="343.8" y="250" class="st9" width="31.3" height="31.3"/>
		<rect x="343.8" y="218.8" class="st9" width="31.3" height="31.3"/>
		<rect x="312.5" y="343.8" class="st9" width="31.3" height="31.3"/>
		<rect x="343.8" y="187.5" class="st9" width="31.3" height="31.3"/>
		<rect x="343.8" y="343.8" class="st9" width="31.3" height="31.3"/>
		<rect x="125" y="281.3" class="st9" width="31.3" height="31.3"/>
		<rect x="343.8" y="281.3" class="st9" width="31.3" height="31.3"/>
		<rect x="312.5" y="218.8" class="st9" width="31.3" height="31.3"/>
		<rect x="125" y="250" class="st9" width="31.3" height="31.3"/>
		<rect x="281.3" y="125" class="st9" width="31.3" height="31.3"/>
		<rect x="312.5" y="156.3" class="st9" width="31.3" height="31.3"/>
		<rect x="312.5" y="187.5" class="st9" width="31.3" height="31.3"/>
		<rect x="312.5" y="250" class="st9" width="31.3" height="31.3"/>
		<rect x="312.5" y="281.3" class="st9" width="31.3" height="31.3"/>
		<rect x="250" y="125" class="st9" width="31.3" height="31.3"/>
		<rect x="312.5" y="125" class="st9" width="31.3" height="31.3"/>
		<rect x="125" y="187.5" class="st9" width="31.3" height="31.3"/>
		<rect x="125" y="218.8" class="st9" width="31.3" height="31.3"/>
		<rect x="125" y="156.3" class="st9" width="31.3" height="31.3"/>
		<rect x="156.3" y="125" class="st9" width="31.3" height="31.3"/>
		<rect x="187.5" y="125" class="st9" width="31.3" height="31.3"/>
		<rect x="125" y="125" class="st9" width="31.3" height="31.3"/>
		<rect x="218.8" y="125" class="st9" width="31.3" height="31.3"/>
		<rect x="343.8" y="62.5" class="st9" width="31.3" height="31.3"/>
		<rect y="93.8" class="st9" width="31.3" height="31.3"/>
		<rect y="125" class="st9" width="31.3" height="31.3"/>
		<rect y="62.5" class="st9" width="31.3" height="31.3"/>
		<rect y="156.3" class="st9" width="31.3" height="31.3"/>
		<rect class="st9" width="31.3" height="31.3"/>
		<rect x="31.3" class="st9" width="31.3" height="31.3"/>
		<rect y="187.5" class="st9" width="31.3" height="31.3"/>
		<rect y="31.3" class="st9" width="31.3" height="31.3"/>
		<rect y="343.8" class="st9" width="31.3" height="31.3"/>
		<rect x="62.5" class="st9" width="31.3" height="31.3"/>
		<rect y="375" class="st9" width="31.3" height="31.3"/>
		<rect y="218.8" class="st9" width="31.3" height="31.3"/>
		<rect y="406.3" class="st9" width="31.3" height="31.3"/>
		<rect y="250" class="st9" width="31.3" height="31.3"/>
		<rect y="312.5" class="st9" width="31.3" height="31.3"/>
		<rect y="281.3" class="st9" width="31.3" height="31.3"/>
		<rect x="312.5" class="st9" width="31.3" height="31.3"/>
		<rect x="406.3" class="st9" width="31.3" height="31.3"/>
		<rect x="375" class="st9" width="31.3" height="31.3"/>
		<rect x="437.5" class="st9" width="31.3" height="31.3"/>
		<rect x="437.5" y="31.3" class="st9" width="31.3" height="31.3"/>
		<rect x="437.5" y="93.8" class="st9" width="31.3" height="31.3"/>
		<rect x="437.5" y="62.5" class="st9" width="31.3" height="31.3"/>
		<rect x="93.8" class="st9" width="31.3" height="31.3"/>
		<rect x="343.8" class="st9" width="31.3" height="31.3"/>
		<rect x="156.3" class="st9" width="31.3" height="31.3"/>
		<rect x="125" class="st9" width="31.3" height="31.3"/>
		<rect x="437.5" y="125" class="st9" width="31.3" height="31.3"/>
		<rect x="281.3" class="st9" width="31.3" height="31.3"/>
		<rect x="218.8" class="st9" width="31.3" height="31.3"/>
		<rect y="437.5" class="st9" width="31.3" height="31.3"/>
		<rect x="250" class="st9" width="31.3" height="31.3"/>
		<rect x="187.5" class="st9" width="31.3" height="31.3"/>
		<rect x="468.8" y="281.3" class="st9" width="31.3" height="31.3"/>
		<rect x="468.8" y="312.5" class="st9" width="31.3" height="31.3"/>
		<rect x="468.8" y="250" class="st9" width="31.3" height="31.3"/>
		<rect x="468.8" y="375" class="st9" width="31.3" height="31.3"/>
		<rect x="468.8" y="406.3" class="st9" width="31.3" height="31.3"/>
		<rect x="468.8" y="218.8" class="st9" width="31.3" height="31.3"/>
		<rect x="468.8" y="343.8" class="st9" width="31.3" height="31.3"/>
		<rect x="468.8" y="437.5" class="st9" width="31.3" height="31.3"/>
		<rect x="468.8" y="62.5" class="st9" width="31.3" height="31.3"/>
		<rect x="468.8" y="31.3" class="st9" width="31.3" height="31.3"/>
		<rect x="468.8" class="st9" width="31.3" height="31.3"/>
		<rect x="468.8" y="125" class="st9" width="31.3" height="31.3"/>
		<rect x="468.8" y="156.3" class="st9" width="31.3" height="31.3"/>
		<rect x="468.8" y="93.8" class="st9" width="31.3" height="31.3"/>
		<rect x="468.8" y="187.5" class="st9" width="31.3" height="31.3"/>
		<rect x="343.8" y="468.8" class="st9" width="31.3" height="31.3"/>
		<rect x="218.8" y="468.8" class="st9" width="31.3" height="31.3"/>
		<rect x="125" y="468.8" class="st9" width="31.3" height="31.3"/>
		<rect x="468.8" y="468.8" class="st9" width="31.3" height="31.3"/>
		<rect x="156.3" y="468.8" class="st9" width="31.3" height="31.3"/>
		<rect x="93.8" y="468.8" class="st9" width="31.3" height="31.3"/>
		<rect x="31.3" y="468.8" class="st9" width="31.3" height="31.3"/>
		<rect x="62.5" y="468.8" class="st9" width="31.3" height="31.3"/>
		<rect x="187.5" y="468.8" class="st9" width="31.3" height="31.3"/>
		<rect x="406.3" y="468.8" class="st9" width="31.3" height="31.3"/>
		<rect x="250" y="468.8" class="st9" width="31.3" height="31.3"/>
		<rect x="437.5" y="468.8" class="st9" width="31.3" height="31.3"/>
		<rect x="375" y="468.8" class="st9" width="31.3" height="31.3"/>
		<rect x="281.3" y="468.8" class="st9" width="31.3" height="31.3"/>
		<rect x="312.5" y="468.8" class="st9" width="31.3" height="31.3"/>
		<rect y="468.8" class="st9" width="31.3" height="31.3"/>
		<rect x="187.5" y="31.3" class="st9" width="31.3" height="31.3"/>
		<rect x="281.3" y="31.3" class="st9" width="31.3" height="31.3"/>
		<rect x="250" y="31.3" class="st9" width="31.3" height="31.3"/>
		<rect x="218.8" y="31.3" class="st9" width="31.3" height="31.3"/>
		<rect x="343.8" y="31.3" class="st9" width="31.3" height="31.3"/>
		<rect x="375" y="31.3" class="st9" width="31.3" height="31.3"/>
		<rect x="312.5" y="31.3" class="st9" width="31.3" height="31.3"/>
		<rect x="281.3" y="406.3" class="st9" width="31.3" height="31.3"/>
		<rect x="31.3" y="31.3" class="st9" width="31.3" height="31.3"/>
		<rect x="406.3" y="31.3" class="st9" width="31.3" height="31.3"/>
		<rect x="156.3" y="31.3" class="st9" width="31.3" height="31.3"/>
		<rect x="31.3" y="93.8" class="st9" width="31.3" height="31.3"/>
		<rect x="31.3" y="62.5" class="st9" width="31.3" height="31.3"/>
		<rect x="62.5" y="31.3" class="st9" width="31.3" height="31.3"/>
		<rect x="125" y="31.3" class="st9" width="31.3" height="31.3"/>
		<rect x="93.8" y="31.3" class="st9" width="31.3" height="31.3"/>
		<rect x="312.5" y="406.3" class="st9" width="31.3" height="31.3"/>
		<rect x="406.3" y="312.5" class="st9" width="31.3" height="31.3"/>
		<rect x="406.3" y="343.8" class="st9" width="31.3" height="31.3"/>
		<rect x="406.3" y="406.3" class="st9" width="31.3" height="31.3"/>
		<rect x="406.3" y="62.5" class="st9" width="31.3" height="31.3"/>
		<rect x="31.3" y="125" class="st9" width="31.3" height="31.3"/>
		<rect x="343.8" y="406.3" class="st9" width="31.3" height="31.3"/>
		<rect x="375" y="406.3" class="st9" width="31.3" height="31.3"/>
		<rect x="406.3" y="375" class="st9" width="31.3" height="31.3"/>
		<rect x="406.3" y="156.3" class="st9" width="31.3" height="31.3"/>
		<rect x="406.3" y="125" class="st9" width="31.3" height="31.3"/>
		<rect x="406.3" y="93.8" class="st9" width="31.3" height="31.3"/>
		<rect x="406.3" y="281.3" class="st9" width="31.3" height="31.3"/>
		<rect x="406.3" y="250" class="st9" width="31.3" height="31.3"/>
		<rect x="406.3" y="187.5" class="st9" width="31.3" height="31.3"/>
		<rect x="406.3" y="218.8" class="st9" width="31.3" height="31.3"/>
		<rect x="437.5" y="187.5" class="st9" width="31.3" height="31.3"/>
		<rect x="31.3" y="156.3" class="st9" width="31.3" height="31.3"/>
		<rect x="375" y="437.5" class="st9" width="31.3" height="31.3"/>
		<rect x="250" y="437.5" class="st9" width="31.3" height="31.3"/>
		<rect x="437.5" y="406.3" class="st9" width="31.3" height="31.3"/>
		<rect x="281.3" y="437.5" class="st9" width="31.3" height="31.3"/>
		<rect x="312.5" y="437.5" class="st9" width="31.3" height="31.3"/>
		<rect x="343.8" y="437.5" class="st9" width="31.3" height="31.3"/>
		<rect x="437.5" y="437.5" class="st9" width="31.3" height="31.3"/>
		<rect x="437.5" y="218.8" class="st9" width="31.3" height="31.3"/>
		<rect x="437.5" y="156.3" class="st9" width="31.3" height="31.3"/>
		<rect x="437.5" y="250" class="st9" width="31.3" height="31.3"/>
		<rect x="437.5" y="375" class="st9" width="31.3" height="31.3"/>
		<rect x="437.5" y="343.8" class="st9" width="31.3" height="31.3"/>
		<rect x="437.5" y="312.5" class="st9" width="31.3" height="31.3"/>
		<rect x="437.5" y="281.3" class="st9" width="31.3" height="31.3"/>
		<rect x="406.3" y="437.5" class="st9" width="31.3" height="31.3"/>
		<rect x="31.3" y="312.5" class="st9" width="31.3" height="31.3"/>
		<rect x="31.3" y="343.8" class="st9" width="31.3" height="31.3"/>
		<rect x="31.3" y="281.3" class="st9" width="31.3" height="31.3"/>
		<rect x="31.3" y="218.8" class="st9" width="31.3" height="31.3"/>
		<rect x="31.3" y="187.5" class="st9" width="31.3" height="31.3"/>
		<rect x="31.3" y="375" class="st9" width="31.3" height="31.3"/>
		<rect x="31.3" y="250" class="st9" width="31.3" height="31.3"/>
		<rect x="187.5" y="437.5" class="st9" width="31.3" height="31.3"/>
		<rect x="125" y="437.5" class="st9" width="31.3" height="31.3"/>
		<rect x="156.3" y="437.5" class="st9" width="31.3" height="31.3"/>
		<rect x="218.8" y="437.5" class="st9" width="31.3" height="31.3"/>
		<rect x="93.8" y="437.5" class="st9" width="31.3" height="31.3"/>
		<rect x="31.3" y="406.3" class="st9" width="31.3" height="31.3"/>
		<rect x="31.3" y="437.5" class="st9" width="31.3" height="31.3"/>
		<rect x="62.5" y="437.5" class="st9" width="31.3" height="31.3"/>
	</g>
	<g class="st8">
		<rect class="st10" width="500" height="500"/>
		<rect class="st10" width="62.5" height="62.5"/>
		<rect x="437.5" class="st10" width="62.5" height="62.5"/>
		<rect y="437.5" class="st10" width="62.5" height="62.5"/>
		<rect x="437.5" y="437.5" class="st10" width="62.5" height="62.5"/>
		<rect x="62.5" y="62.5" class="st10" width="187.5" height="187.5"/>
		<rect x="250" y="62.5" class="st10" width="187.5" height="187.5"/>
		<rect x="62.5" y="250" class="st10" width="187.5" height="187.5"/>
		<rect x="250" y="250" class="st10" width="187.5" height="187.5"/>
		<line class="st10" x1="0" y1="0" x2="500" y2="500"/>
		<line class="st10" x1="500" y1="0" x2="0" y2="500"/>
		<circle class="st10" cx="250" cy="250" r="187.5"/>
		<circle class="st10" cx="250" cy="250" r="250"/>
	</g>
	<rect x="62.5" class="st11" width="375" height="500"/>
</g>
</svg>
