<?xml version="1.0" encoding="UTF-8" standalone="no"?>
<svg
   xmlns:dc="http://purl.org/dc/elements/1.1/"
   xmlns:cc="http://creativecommons.org/ns#"
   xmlns:rdf="http://www.w3.org/1999/02/22-rdf-syntax-ns#"
   xmlns:svg="http://www.w3.org/2000/svg"
   xmlns="http://www.w3.org/2000/svg"
   xmlns:sodipodi="http://sodipodi.sourceforge.net/DTD/sodipodi-0.dtd"
   xmlns:inkscape="http://www.inkscape.org/namespaces/inkscape"
   version="1.1"
   inkscape:output_extension="org.inkscape.output.svg.inkscape"
   sodipodi:docname="tree_branch_generator.svg"
   inkscape:version="1.0 (4035a4fb49, 2020-05-01)"
   sodipodi:version="0.32"
   id="svg13017"
   height="48px"
   width="48px">
  <defs
     id="defs13019">
    <linearGradient
       gradientTransform="matrix(0.9997,-2.34e-2,2.34e-2,0.9997,-109.8835,16.3628)"
       y2="179.3924"
       x2="434.8009"
       y1="176.7847"
       x1="433.0474"
       gradientUnits="userSpaceOnUse"
       id="SVGID_113_">
      <stop
         id="stop7123"
         style="stop-color:#8EE361"
         offset="0" />
      <stop
         id="stop7125"
         style="stop-color:#4C9C23"
         offset="0.489" />
      <stop
         id="stop7127"
         style="stop-color:#4C9C23"
         offset="0.5549" />
    </linearGradient>
    <linearGradient
       gradientTransform="matrix(0.9997,-2.34e-2,2.34e-2,0.9997,-109.8835,16.3628)"
       y2="179.7685"
       x2="433.9787"
       y1="178.877"
       x1="432.0366"
       gradientUnits="userSpaceOnUse"
       id="SVGID_112_">
      <stop
         id="stop7116"
         style="stop-color:#83D857"
         offset="0" />
      <stop
         id="stop7118"
         style="stop-color:#5DAE33"
         offset="0.7637" />
    </linearGradient>
    <linearGradient
       gradientTransform="matrix(0.9997,-2.34e-2,2.34e-2,0.9997,-109.8835,16.3628)"
       y2="180.9322"
       x2="433.8597"
       y1="179.8569"
       x1="431.1714"
       gradientUnits="userSpaceOnUse"
       id="SVGID_111_">
      <stop
         id="stop7103"
         style="stop-color:#8EE361"
         offset="0" />
      <stop
         id="stop7105"
         style="stop-color:#86DA5A"
         offset="0.1415" />
      <stop
         id="stop7107"
         style="stop-color:#71C345"
         offset="0.3672" />
      <stop
         id="stop7109"
         style="stop-color:#4E9E25"
         offset="0.6477" />
      <stop
         id="stop7111"
         style="stop-color:#4C9C23"
         offset="0.6593" />
    </linearGradient>
    <linearGradient
       gradientTransform="matrix(0.9997,-2.34e-2,2.34e-2,0.9997,-109.8835,16.3628)"
       y2="179.5467"
       x2="434.5643"
       y1="176.9453"
       x1="432.8149"
       gradientUnits="userSpaceOnUse"
       id="SVGID_110_">
      <stop
         id="stop7090"
         style="stop-color:#8EE361"
         offset="0" />
      <stop
         id="stop7092"
         style="stop-color:#4C9C23"
         offset="0.489" />
      <stop
         id="stop7094"
         style="stop-color:#4C9C23"
         offset="0.5549" />
      <stop
         id="stop7096"
         style="stop-color:#61B237"
         offset="0.7149" />
      <stop
         id="stop7098"
         style="stop-color:#8EE361"
         offset="1" />
    </linearGradient>
    <linearGradient
       gradientTransform="matrix(0.9997,-2.34e-2,2.34e-2,0.9997,-109.8835,16.3628)"
       y2="180.1682"
       x2="433.6391"
       y1="177.5688"
       x1="431.8911"
       gradientUnits="userSpaceOnUse"
       id="SVGID_109_">
      <stop
         id="stop7077"
         style="stop-color:#8EE361"
         offset="0" />
      <stop
         id="stop7079"
         style="stop-color:#4C9C23"
         offset="0.489" />
      <stop
         id="stop7081"
         style="stop-color:#4C9C23"
         offset="0.5549" />
      <stop
         id="stop7083"
         style="stop-color:#61B237"
         offset="0.7149" />
      <stop
         id="stop7085"
         style="stop-color:#8EE361"
         offset="1" />
    </linearGradient>
    <linearGradient
       gradientTransform="matrix(0.9997,-2.34e-2,2.34e-2,0.9997,-109.8835,16.3628)"
       y2="180.8759"
       x2="432.5884"
       y1="178.2749"
       x1="430.8394"
       gradientUnits="userSpaceOnUse"
       id="SVGID_108_">
      <stop
         id="stop7064"
         style="stop-color:#8EE361"
         offset="0" />
      <stop
         id="stop7066"
         style="stop-color:#4C9C23"
         offset="0.489" />
      <stop
         id="stop7068"
         style="stop-color:#4C9C23"
         offset="0.5549" />
      <stop
         id="stop7070"
         style="stop-color:#61B237"
         offset="0.7149" />
      <stop
         id="stop7072"
         style="stop-color:#8EE361"
         offset="1" />
    </linearGradient>
    <linearGradient
       gradientTransform="matrix(0.9997,-2.34e-2,2.34e-2,0.9997,-109.8835,16.3628)"
       y2="177.5154"
       x2="435.4725"
       y1="181.167"
       x1="430.0161"
       gradientUnits="userSpaceOnUse"
       id="SVGID_107_">
      <stop
         id="stop7051"
         style="stop-color:#4C9C23"
         offset="0" />
      <stop
         id="stop7053"
         style="stop-color:#61B237"
         offset="0.0276" />
      <stop
         id="stop7055"
         style="stop-color:#8EE361"
         offset="0.0769" />
      <stop
         id="stop7057"
         style="stop-color:#4C9C23"
         offset="0.6209" />
      <stop
         id="stop7059"
         style="stop-color:#4C9C23"
         offset="1" />
    </linearGradient>
    <linearGradient
       gradientTransform="matrix(0.9997,-2.34e-2,2.34e-2,0.9997,-109.8835,16.3628)"
       y2="179.1586"
       x2="433.1459"
       y1="177.4697"
       x1="432.0103"
       gradientUnits="userSpaceOnUse"
       id="SVGID_106_">
      <stop
         id="stop7034"
         style="stop-color:#74D43F"
         offset="0" />
      <stop
         id="stop7036"
         style="stop-color:#57B425"
         offset="0.3162" />
      <stop
         id="stop7038"
         style="stop-color:#389109"
         offset="0.6209" />
      <stop
         id="stop7040"
         style="stop-color:#458C1F"
         offset="0.7811" />
      <stop
         id="stop7042"
         style="stop-color:#458C20"
         offset="0.7857" />
      <stop
         id="stop7044"
         style="stop-color:#57A22F"
         offset="0.8807" />
      <stop
         id="stop7046"
         style="stop-color:#71C446"
         offset="1" />
    </linearGradient>
    <linearGradient
       gradientTransform="matrix(0.9997,-2.34e-2,2.34e-2,0.9997,-109.8835,16.3628)"
       y2="180.1775"
       x2="433.9128"
       y1="178.9761"
       x1="433.0083"
       gradientUnits="userSpaceOnUse"
       id="SVGID_105_">
      <stop
         id="stop7017"
         style="stop-color:#4C9C23"
         offset="0" />
      <stop
         id="stop7019"
         style="stop-color:#4C9C23"
         offset="0.0824" />
      <stop
         id="stop7021"
         style="stop-color:#58A628"
         offset="0.153" />
      <stop
         id="stop7023"
         style="stop-color:#7DC438"
         offset="0.4032" />
      <stop
         id="stop7025"
         style="stop-color:#98D944"
         offset="0.6357" />
      <stop
         id="stop7027"
         style="stop-color:#A8E64B"
         offset="0.8418" />
      <stop
         id="stop7029"
         style="stop-color:#AEEB4D"
         offset="1" />
    </linearGradient>
    <linearGradient
       gradientTransform="matrix(1.0303124,0,0,1.0303124,-298.1572,-177.55718)"
       y2="209.091"
       x2="291.1737"
       y1="187.7451"
       x1="320.8823"
       gradientUnits="userSpaceOnUse"
       id="SVGID_114_">
      <stop
         id="stop7132"
         style="stop-color:#664B33"
         offset="0" />
      <stop
         id="stop7134"
         style="stop-color:#57402C"
         offset="0.481" />
      <stop
         id="stop7136"
         style="stop-color:#4C3826"
         offset="1" />
    </linearGradient>
    <radialGradient
       gradientTransform="matrix(1.0303124,0,0,1.0303124,-298.1572,-177.55718)"
       gradientUnits="userSpaceOnUse"
       r="26.4923"
       cy="192.9028"
       cx="311.6753"
       id="SVGID_115_">
      <stop
         id="stop7141"
         style="stop-color:#80644C"
         offset="0" />
      <stop
         id="stop7143"
         style="stop-color:#8A6C52"
         offset="0.1519" />
      <stop
         id="stop7145"
         style="stop-color:#A88464"
         offset="0.6938" />
      <stop
         id="stop7147"
         style="stop-color:#B38D6B"
         offset="1" />
    </radialGradient>
    <linearGradient
       gradientTransform="matrix(8.53e-2,0.9964,-0.9964,8.53e-2,5529.9956,4708.1406)"
       y2="4805.5063"
       x2="-4936.6333"
       y1="4803.4614"
       x1="-4938.0083"
       gradientUnits="userSpaceOnUse"
       id="SVGID_124_">
      <stop
         id="stop7268"
         style="stop-color:#8EE361"
         offset="0" />
      <stop
         id="stop7270"
         style="stop-color:#4C9C23"
         offset="0.489" />
      <stop
         id="stop7272"
         style="stop-color:#4C9C23"
         offset="0.5549" />
    </linearGradient>
    <linearGradient
       gradientTransform="matrix(8.53e-2,0.9964,-0.9964,8.53e-2,5529.9956,4708.1406)"
       y2="4805.8027"
       x2="-4937.2773"
       y1="4805.103"
       x1="-4938.8022"
       gradientUnits="userSpaceOnUse"
       id="SVGID_123_">
      <stop
         id="stop7261"
         style="stop-color:#83D857"
         offset="0" />
      <stop
         id="stop7263"
         style="stop-color:#5DAE33"
         offset="0.7637" />
    </linearGradient>
    <linearGradient
       gradientTransform="matrix(8.53e-2,0.9964,-0.9964,8.53e-2,5529.9956,4708.1406)"
       y2="4806.7134"
       x2="-4937.3701"
       y1="4805.8696"
       x1="-4939.48"
       gradientUnits="userSpaceOnUse"
       id="SVGID_122_">
      <stop
         id="stop7248"
         style="stop-color:#8EE361"
         offset="0" />
      <stop
         id="stop7250"
         style="stop-color:#86DA5A"
         offset="0.1415" />
      <stop
         id="stop7252"
         style="stop-color:#71C345"
         offset="0.3672" />
      <stop
         id="stop7254"
         style="stop-color:#4E9E25"
         offset="0.6477" />
      <stop
         id="stop7256"
         style="stop-color:#4C9C23"
         offset="0.6593" />
    </linearGradient>
    <linearGradient
       gradientTransform="matrix(8.53e-2,0.9964,-0.9964,8.53e-2,5529.9956,4708.1406)"
       y2="4805.6274"
       x2="-4936.8188"
       y1="4803.5874"
       x1="-4938.1909"
       gradientUnits="userSpaceOnUse"
       id="SVGID_121_">
      <stop
         id="stop7235"
         style="stop-color:#8EE361"
         offset="0" />
      <stop
         id="stop7237"
         style="stop-color:#4C9C23"
         offset="0.489" />
      <stop
         id="stop7239"
         style="stop-color:#4C9C23"
         offset="0.5549" />
      <stop
         id="stop7241"
         style="stop-color:#61B237"
         offset="0.7149" />
      <stop
         id="stop7243"
         style="stop-color:#8EE361"
         offset="1" />
    </linearGradient>
    <linearGradient
       gradientTransform="matrix(8.53e-2,0.9964,-0.9964,8.53e-2,5529.9956,4708.1406)"
       y2="4806.1133"
       x2="-4937.5444"
       y1="4804.0757"
       x1="-4938.9146"
       gradientUnits="userSpaceOnUse"
       id="SVGID_120_">
      <stop
         id="stop7222"
         style="stop-color:#8EE361"
         offset="0" />
      <stop
         id="stop7224"
         style="stop-color:#4C9C23"
         offset="0.489" />
      <stop
         id="stop7226"
         style="stop-color:#4C9C23"
         offset="0.5549" />
      <stop
         id="stop7228"
         style="stop-color:#61B237"
         offset="0.7149" />
      <stop
         id="stop7230"
         style="stop-color:#8EE361"
         offset="1" />
    </linearGradient>
    <linearGradient
       gradientTransform="matrix(8.53e-2,0.9964,-0.9964,8.53e-2,5529.9956,4708.1406)"
       y2="4806.6709"
       x2="-4938.3677"
       y1="4804.6304"
       x1="-4939.7397"
       gradientUnits="userSpaceOnUse"
       id="SVGID_119_">
      <stop
         id="stop7209"
         style="stop-color:#8EE361"
         offset="0" />
      <stop
         id="stop7211"
         style="stop-color:#4C9C23"
         offset="0.489" />
      <stop
         id="stop7213"
         style="stop-color:#4C9C23"
         offset="0.5549" />
      <stop
         id="stop7215"
         style="stop-color:#61B237"
         offset="0.7149" />
      <stop
         id="stop7217"
         style="stop-color:#8EE361"
         offset="1" />
    </linearGradient>
    <linearGradient
       gradientTransform="matrix(8.53e-2,0.9964,-0.9964,8.53e-2,5529.9956,4708.1406)"
       y2="4804.0337"
       x2="-4936.1055"
       y1="4806.8979"
       x1="-4940.3853"
       gradientUnits="userSpaceOnUse"
       id="SVGID_118_">
      <stop
         id="stop7196"
         style="stop-color:#4C9C23"
         offset="0" />
      <stop
         id="stop7198"
         style="stop-color:#61B237"
         offset="0.0276" />
      <stop
         id="stop7200"
         style="stop-color:#8EE361"
         offset="0.0769" />
      <stop
         id="stop7202"
         style="stop-color:#4C9C23"
         offset="0.6209" />
      <stop
         id="stop7204"
         style="stop-color:#4C9C23"
         offset="1" />
    </linearGradient>
    <linearGradient
       gradientTransform="matrix(8.53e-2,0.9964,-0.9964,8.53e-2,5529.9956,4708.1406)"
       y2="4805.3228"
       x2="-4937.9312"
       y1="4803.9995"
       x1="-4938.8213"
       gradientUnits="userSpaceOnUse"
       id="SVGID_117_">
      <stop
         id="stop7179"
         style="stop-color:#74D43F"
         offset="0" />
      <stop
         id="stop7181"
         style="stop-color:#57B425"
         offset="0.3162" />
      <stop
         id="stop7183"
         style="stop-color:#389109"
         offset="0.6209" />
      <stop
         id="stop7185"
         style="stop-color:#458C1F"
         offset="0.7811" />
      <stop
         id="stop7187"
         style="stop-color:#458C20"
         offset="0.7857" />
      <stop
         id="stop7189"
         style="stop-color:#57A22F"
         offset="0.8807" />
      <stop
         id="stop7191"
         style="stop-color:#71C446"
         offset="1" />
    </linearGradient>
    <linearGradient
       gradientTransform="matrix(8.53e-2,0.9964,-0.9964,8.53e-2,5529.9956,4708.1406)"
       y2="4806.1216"
       x2="-4937.3291"
       y1="4805.1792"
       x1="-4938.0386"
       gradientUnits="userSpaceOnUse"
       id="SVGID_116_">
      <stop
         id="stop7162"
         style="stop-color:#4C9C23"
         offset="0" />
      <stop
         id="stop7164"
         style="stop-color:#4C9C23"
         offset="0.0824" />
      <stop
         id="stop7166"
         style="stop-color:#58A628"
         offset="0.153" />
      <stop
         id="stop7168"
         style="stop-color:#7DC438"
         offset="0.4032" />
      <stop
         id="stop7170"
         style="stop-color:#98D944"
         offset="0.6357" />
      <stop
         id="stop7172"
         style="stop-color:#A8E64B"
         offset="0.8418" />
      <stop
         id="stop7174"
         style="stop-color:#AEEB4D"
         offset="1" />
    </linearGradient>
    <linearGradient
       gradientTransform="matrix(-0.4481,-0.894,-0.894,0.4481,5066.8096,3122.3411)"
       y2="2938.437"
       x2="4761.7769"
       y1="2937.4351"
       x1="4761.103"
       gradientUnits="userSpaceOnUse"
       id="SVGID_133_">
      <stop
         id="stop7391"
         style="stop-color:#8EE361"
         offset="0" />
      <stop
         id="stop7393"
         style="stop-color:#4C9C23"
         offset="0.489" />
      <stop
         id="stop7395"
         style="stop-color:#4C9C23"
         offset="0.5549" />
    </linearGradient>
    <linearGradient
       gradientTransform="matrix(-0.4481,-0.894,-0.894,0.4481,5066.8096,3122.3411)"
       y2="2938.5803"
       x2="4761.4614"
       y1="2938.2388"
       x1="4760.7173"
       gradientUnits="userSpaceOnUse"
       id="SVGID_132_">
      <stop
         id="stop7384"
         style="stop-color:#83D857"
         offset="0" />
      <stop
         id="stop7386"
         style="stop-color:#5DAE33"
         offset="0.7637" />
    </linearGradient>
    <linearGradient
       gradientTransform="matrix(-0.4481,-0.894,-0.894,0.4481,5066.8096,3122.3411)"
       y2="2939.0264"
       x2="4761.416"
       y1="2938.6147"
       x1="4760.3872"
       gradientUnits="userSpaceOnUse"
       id="SVGID_131_">
      <stop
         id="stop7371"
         style="stop-color:#8EE361"
         offset="0" />
      <stop
         id="stop7373"
         style="stop-color:#86DA5A"
         offset="0.1415" />
      <stop
         id="stop7375"
         style="stop-color:#71C345"
         offset="0.3672" />
      <stop
         id="stop7377"
         style="stop-color:#4E9E25"
         offset="0.6477" />
      <stop
         id="stop7379"
         style="stop-color:#4C9C23"
         offset="0.6593" />
    </linearGradient>
    <linearGradient
       gradientTransform="matrix(-0.4481,-0.894,-0.894,0.4481,5066.8096,3122.3411)"
       y2="2938.4956"
       x2="4761.686"
       y1="2937.4966"
       x1="4761.0142"
       gradientUnits="userSpaceOnUse"
       id="SVGID_130_">
      <stop
         id="stop7358"
         style="stop-color:#8EE361"
         offset="0" />
      <stop
         id="stop7360"
         style="stop-color:#4C9C23"
         offset="0.489" />
      <stop
         id="stop7362"
         style="stop-color:#4C9C23"
         offset="0.5549" />
      <stop
         id="stop7364"
         style="stop-color:#61B237"
         offset="0.7149" />
      <stop
         id="stop7366"
         style="stop-color:#8EE361"
         offset="1" />
    </linearGradient>
    <linearGradient
       gradientTransform="matrix(-0.4481,-0.894,-0.894,0.4481,5066.8096,3122.3411)"
       y2="2938.73"
       x2="4761.3306"
       y1="2937.7368"
       x1="4760.6626"
       gradientUnits="userSpaceOnUse"
       id="SVGID_129_">
      <stop
         id="stop7345"
         style="stop-color:#8EE361"
         offset="0" />
      <stop
         id="stop7347"
         style="stop-color:#4C9C23"
         offset="0.489" />
      <stop
         id="stop7349"
         style="stop-color:#4C9C23"
         offset="0.5549" />
      <stop
         id="stop7351"
         style="stop-color:#61B237"
         offset="0.7149" />
      <stop
         id="stop7353"
         style="stop-color:#8EE361"
         offset="1" />
    </linearGradient>
    <linearGradient
       gradientTransform="matrix(-0.4481,-0.894,-0.894,0.4481,5066.8096,3122.3411)"
       y2="2939.0029"
       x2="4760.9277"
       y1="2938.0073"
       x1="4760.2583"
       gradientUnits="userSpaceOnUse"
       id="SVGID_128_">
      <stop
         id="stop7332"
         style="stop-color:#8EE361"
         offset="0" />
      <stop
         id="stop7334"
         style="stop-color:#4C9C23"
         offset="0.489" />
      <stop
         id="stop7336"
         style="stop-color:#4C9C23"
         offset="0.5549" />
      <stop
         id="stop7338"
         style="stop-color:#61B237"
         offset="0.7149" />
      <stop
         id="stop7340"
         style="stop-color:#8EE361"
         offset="1" />
    </linearGradient>
    <linearGradient
       gradientTransform="matrix(-0.4481,-0.894,-0.894,0.4481,5066.8096,3122.3411)"
       y2="2937.718"
       x2="4762.0337"
       y1="2939.1147"
       x1="4759.9468"
       gradientUnits="userSpaceOnUse"
       id="SVGID_127_">
      <stop
         id="stop7319"
         style="stop-color:#4C9C23"
         offset="0" />
      <stop
         id="stop7321"
         style="stop-color:#61B237"
         offset="0.0276" />
      <stop
         id="stop7323"
         style="stop-color:#8EE361"
         offset="0.0769" />
      <stop
         id="stop7325"
         style="stop-color:#4C9C23"
         offset="0.6209" />
      <stop
         id="stop7327"
         style="stop-color:#4C9C23"
         offset="1" />
    </linearGradient>
    <linearGradient
       gradientTransform="matrix(-0.4481,-0.894,-0.894,0.4481,5066.8096,3122.3411)"
       y2="2938.3455"
       x2="4761.1416"
       y1="2937.6997"
       x1="4760.7075"
       gradientUnits="userSpaceOnUse"
       id="SVGID_126_">
      <stop
         id="stop7302"
         style="stop-color:#74D43F"
         offset="0" />
      <stop
         id="stop7304"
         style="stop-color:#57B425"
         offset="0.3162" />
      <stop
         id="stop7306"
         style="stop-color:#389109"
         offset="0.6209" />
      <stop
         id="stop7308"
         style="stop-color:#458C1F"
         offset="0.7811" />
      <stop
         id="stop7310"
         style="stop-color:#458C20"
         offset="0.7857" />
      <stop
         id="stop7312"
         style="stop-color:#57A22F"
         offset="0.8807" />
      <stop
         id="stop7314"
         style="stop-color:#71C446"
         offset="1" />
    </linearGradient>
    <linearGradient
       gradientTransform="matrix(-0.4481,-0.894,-0.894,0.4481,5066.8096,3122.3411)"
       y2="2938.7371"
       x2="4761.438"
       y1="2938.2769"
       x1="4761.0913"
       gradientUnits="userSpaceOnUse"
       id="SVGID_125_">
      <stop
         id="stop7285"
         style="stop-color:#4C9C23"
         offset="0" />
      <stop
         id="stop7287"
         style="stop-color:#4C9C23"
         offset="0.0824" />
      <stop
         id="stop7289"
         style="stop-color:#58A628"
         offset="0.153" />
      <stop
         id="stop7291"
         style="stop-color:#7DC438"
         offset="0.4032" />
      <stop
         id="stop7293"
         style="stop-color:#98D944"
         offset="0.6357" />
      <stop
         id="stop7295"
         style="stop-color:#A8E64B"
         offset="0.8418" />
      <stop
         id="stop7297"
         style="stop-color:#AEEB4D"
         offset="1" />
    </linearGradient>
  </defs>
  <sodipodi:namedview
     inkscape:snap-global="false"
     inkscape:window-maximized="1"
     inkscape:document-rotation="0"
     inkscape:window-y="-8"
     inkscape:window-x="-8"
     inkscape:window-height="1377"
     inkscape:window-width="2560"
     inkscape:document-units="px"
     inkscape:grid-bbox="true"
     showgrid="true"
     inkscape:current-layer="layer1"
     inkscape:cy="24.012776"
     inkscape:cx="24.009828"
     inkscape:zoom="14.048325"
     inkscape:pageshadow="2"
     inkscape:pageopacity="0.0"
     borderopacity="1.0"
     bordercolor="#666666"
     pagecolor="#ffffff"
     id="base" />
  <metadata
     id="metadata13022">
    <rdf:RDF>
      <cc:Work
         rdf:about="">
        <dc:format>image/svg+xml</dc:format>
        <dc:type
           rdf:resource="http://purl.org/dc/dcmitype/StillImage" />
        <dc:title></dc:title>
      </cc:Work>
    </rdf:RDF>
  </metadata>
  <g
     inkscape:groupmode="layer"
     inkscape:label="Layer 1"
     id="layer1">
    <g
       id="g4099"
       transform="matrix(-0.07928376,-0.0750178,-0.0750178,0.07928376,21.548257,9.9486927)">
      <path
         style="fill:#00a9b2;fill-opacity:1;stroke:#006267;stroke-width:2;stroke-opacity:1"
         id="path4081"
         d="M 5.2543639,34.945216 C 6.8509797,32.858999 0.66860301,21.422942 11.710917,13.793407 c 9.291088,-6.4204779 19.293386,-3.411749 23.506019,-3.262291 4.213664,0.149457 4.97435,0.338082 10.823798,-0.9039592 1.999635,-0.4246648 -0.08452,1.9522212 -1.320378,3.1530332 -3.144787,3.05202 -4.915597,8.120167 -9.222028,13.93457 -4.308492,5.813371 -9.066386,9.99199 -16.700044,10.845443 -7.634689,0.855514 -8.9262062,-1.997574 -12.9048615,-1.324501" />
      <path
         style="fill:#00a9b2;fill-opacity:1;stroke:#006267;stroke-width:2;stroke-opacity:1"
         id="path4083"
         d="M 1.0891448,41.239943 C 2.3796309,38.316766 2.771312,36.146028 7.0859884,33.794911 11.400665,31.443793 26.921543,21.75484 30.543562,19.729437 34.16352,17.701972 43.784445,11.8618 44.798693,11.13719 45.81191,10.410519 46.30048,9.1983691 46.746791,9.6931241 47.007568,9.9837927 46.878725,10.336306 45.133683,11.487642 43.388641,12.640009 25.893896,22.99482 23.166558,24.943949 20.439221,26.892047 11.002799,32.224063 8.4104889,34.277297 5.8161171,36.331561 4.6689038,36.952066 3.6598096,38.775445 2.6507155,40.598823 2.1446223,41.511028 2.0333024,41.817158 1.9219825,42.122257 0.76033884,41.98723 1.0891448,41.239943 Z" />
      <path
         d="M 1.0891463,41.239947 C 2.3796326,38.316769 2.7713137,36.146031 7.0859902,33.794914 11.400667,31.443797 26.921546,21.754843 30.543565,19.72944 c 3.619958,-2.027465 13.240882,-7.867637 14.25513,-8.592247 1.013217,-0.726671 1.501788,-1.9388211 1.948098,-1.444066 0.260778,0.2906686 0.131935,0.643182 -1.613107,1.794518 C 43.388643,12.640012 25.893898,22.994823 23.166561,24.943952 20.439223,26.89205 11.002801,32.224067 8.4104907,34.2773 5.8161188,36.331564 4.6689055,36.95207 3.6598113,38.775448 2.6507171,40.598827 2.1446239,41.511032 2.033304,41.817161 1.9219841,42.12226 0.7603404,41.987233 1.0891463,41.239947 Z"
         id="path4085"
         style="fill:#ffffff" />
      <path
         d="m 12.494282,30.632604 c 1.134844,-5.284602 -1.285333,-7.626443 0.04844,-15.144658 -0.732856,5.86697 0.984357,9.735336 0.623598,14.738547 z"
         id="path4087"
         style="fill:#ffffff" />
      <path
         d="m 21.726617,25.02435 c 1.252349,-3.436487 -0.681319,-8.477835 -0.27933,-13.92014 0.03401,4.683681 1.924391,10.536221 0.809131,13.596487 z"
         id="path4089"
         style="fill:#ffffff" />
      <path
         d="m 30.360093,19.81396 c 1.078154,-4.23634 -0.47414,-4.504332 1.053416,-8.321161 -0.996725,3.662218 0.08864,5.187713 -0.612259,8.090276 z"
         id="path4091"
         style="fill:#ffffff" />
      <path
         d="m 12.873594,31.319077 c 2.74486,2.219183 6.07518,3.63645 13.954154,2.516036 -10.544467,0.681319 -12.29054,-1.879039 -13.344987,-2.891225 z"
         id="path4093"
         style="fill:#ffffff" />
      <path
         d="m 21.916273,25.780913 c 2.74383,2.219182 7.236824,2.426361 13.034735,0.548353 -6.622503,1.581155 -10.698048,0.98848 -12.581209,-0.842114 z"
         id="path4095"
         style="fill:#ffffff" />
      <path
         d="m 30.545626,20.321084 c 2.763414,1.181228 5.476321,-1.740919 10.285752,-3.287029 -4.084821,0.985387 -8.182012,4.016793 -9.831195,2.993268 z"
         id="path4097"
         style="fill:#ffffff" />
    </g>
    <g
       transform="matrix(0.1459184,-0.04175129,0.04175129,0.1459184,33.81057,9.552665)"
       id="g3973">
      <path
         d="M 5.2543639,34.945216 C 6.8509797,32.858999 0.66860301,21.422942 11.710917,13.793407 c 9.291088,-6.4204779 19.293386,-3.411749 23.506019,-3.262291 4.213664,0.149457 4.97435,0.338082 10.823798,-0.9039592 1.999635,-0.4246648 -0.08452,1.9522212 -1.320378,3.1530332 -3.144787,3.05202 -4.915597,8.120167 -9.222028,13.93457 -4.308492,5.813371 -9.066386,9.99199 -16.700044,10.845443 -7.634689,0.855514 -8.9262062,-1.997574 -12.9048615,-1.324501"
         id="path6887"
         style="fill:#00a9b2;fill-opacity:1;stroke:#006267;stroke-width:2;stroke-opacity:1" />
      <path
         d="M 1.0891448,41.239943 C 2.3796309,38.316766 2.771312,36.146028 7.0859884,33.794911 11.400665,31.443793 26.921543,21.75484 30.543562,19.729437 34.16352,17.701972 43.784445,11.8618 44.798693,11.13719 45.81191,10.410519 46.30048,9.1983691 46.746791,9.6931241 47.007568,9.9837927 46.878725,10.336306 45.133683,11.487642 43.388641,12.640009 25.893896,22.99482 23.166558,24.943949 20.439221,26.892047 11.002799,32.224063 8.4104889,34.277297 5.8161171,36.331561 4.6689038,36.952066 3.6598096,38.775445 2.6507155,40.598823 2.1446223,41.511028 2.0333024,41.817158 1.9219825,42.122257 0.76033884,41.98723 1.0891448,41.239943 Z"
         id="path6889"
         style="fill:#00a9b2;fill-opacity:1;stroke:#006267;stroke-width:2;stroke-opacity:1" />
      <path
         style="fill:#ffffff"
         id="path6936"
         d="M 1.0891463,41.239947 C 2.3796326,38.316769 2.7713137,36.146031 7.0859902,33.794914 11.400667,31.443797 26.921546,21.754843 30.543565,19.72944 c 3.619958,-2.027465 13.240882,-7.867637 14.25513,-8.592247 1.013217,-0.726671 1.501788,-1.9388211 1.948098,-1.444066 0.260778,0.2906686 0.131935,0.643182 -1.613107,1.794518 C 43.388643,12.640012 25.893898,22.994823 23.166561,24.943952 20.439223,26.89205 11.002801,32.224067 8.4104907,34.2773 5.8161188,36.331564 4.6689055,36.95207 3.6598113,38.775448 2.6507171,40.598827 2.1446239,41.511032 2.033304,41.817161 1.9219841,42.12226 0.7603404,41.987233 1.0891463,41.239947 Z" />
      <path
         style="fill:#ffffff"
         id="path6949"
         d="m 12.494282,30.632604 c 1.134844,-5.284602 -1.285333,-7.626443 0.04844,-15.144658 -0.732856,5.86697 0.984357,9.735336 0.623598,14.738547 z" />
      <path
         style="fill:#ffffff"
         id="path6962"
         d="m 21.726617,25.02435 c 1.252349,-3.436487 -0.681319,-8.477835 -0.27933,-13.92014 0.03401,4.683681 1.924391,10.536221 0.809131,13.596487 z" />
      <path
         style="fill:#ffffff"
         id="path6975"
         d="m 30.360093,19.81396 c 1.078154,-4.23634 -0.47414,-4.504332 1.053416,-8.321161 -0.996725,3.662218 0.08864,5.187713 -0.612259,8.090276 z" />
      <path
         style="fill:#ffffff"
         id="path6988"
         d="m 12.873594,31.319077 c 2.74486,2.219183 6.07518,3.63645 13.954154,2.516036 -10.544467,0.681319 -12.29054,-1.879039 -13.344987,-2.891225 z" />
      <path
         style="fill:#ffffff"
         id="path6995"
         d="m 21.916273,25.780913 c 2.74383,2.219182 7.236824,2.426361 13.034735,0.548353 -6.622503,1.581155 -10.698048,0.98848 -12.581209,-0.842114 z" />
      <path
         style="fill:#ffffff"
         id="path7004"
         d="m 30.545626,20.321084 c 2.763414,1.181228 5.476321,-1.740919 10.285752,-3.287029 -4.084821,0.985387 -8.182012,4.016793 -9.831195,2.993268 z" />
    </g>
    <g
       id="g4119"
       transform="matrix(0.05331663,0.14210097,-0.14210097,0.05331663,35.494413,21.988649)">
      <path
         style="fill:#00a9b2;fill-opacity:1;stroke:#006267;stroke-width:2;stroke-opacity:1"
         id="path4101"
         d="M 5.2543639,34.945216 C 6.8509797,32.858999 0.66860301,21.422942 11.710917,13.793407 c 9.291088,-6.4204779 19.293386,-3.411749 23.506019,-3.262291 4.213664,0.149457 4.97435,0.338082 10.823798,-0.9039592 1.999635,-0.4246648 -0.08452,1.9522212 -1.320378,3.1530332 -3.144787,3.05202 -4.915597,8.120167 -9.222028,13.93457 -4.308492,5.813371 -9.066386,9.99199 -16.700044,10.845443 -7.634689,0.855514 -8.9262062,-1.997574 -12.9048615,-1.324501" />
      <path
         style="fill:#00a9b2;fill-opacity:1;stroke:#006267;stroke-width:2;stroke-opacity:1"
         id="path4103"
         d="M 1.0891448,41.239943 C 2.3796309,38.316766 2.771312,36.146028 7.0859884,33.794911 11.400665,31.443793 26.921543,21.75484 30.543562,19.729437 34.16352,17.701972 43.784445,11.8618 44.798693,11.13719 45.81191,10.410519 46.30048,9.1983691 46.746791,9.6931241 47.007568,9.9837927 46.878725,10.336306 45.133683,11.487642 43.388641,12.640009 25.893896,22.99482 23.166558,24.943949 20.439221,26.892047 11.002799,32.224063 8.4104889,34.277297 5.8161171,36.331561 4.6689038,36.952066 3.6598096,38.775445 2.6507155,40.598823 2.1446223,41.511028 2.0333024,41.817158 1.9219825,42.122257 0.76033884,41.98723 1.0891448,41.239943 Z" />
      <path
         d="M 1.0891463,41.239947 C 2.3796326,38.316769 2.7713137,36.146031 7.0859902,33.794914 11.400667,31.443797 26.921546,21.754843 30.543565,19.72944 c 3.619958,-2.027465 13.240882,-7.867637 14.25513,-8.592247 1.013217,-0.726671 1.501788,-1.9388211 1.948098,-1.444066 0.260778,0.2906686 0.131935,0.643182 -1.613107,1.794518 C 43.388643,12.640012 25.893898,22.994823 23.166561,24.943952 20.439223,26.89205 11.002801,32.224067 8.4104907,34.2773 5.8161188,36.331564 4.6689055,36.95207 3.6598113,38.775448 2.6507171,40.598827 2.1446239,41.511032 2.033304,41.817161 1.9219841,42.12226 0.7603404,41.987233 1.0891463,41.239947 Z"
         id="path4105"
         style="fill:#ffffff" />
      <path
         d="m 12.494282,30.632604 c 1.134844,-5.284602 -1.285333,-7.626443 0.04844,-15.144658 -0.732856,5.86697 0.984357,9.735336 0.623598,14.738547 z"
         id="path4107"
         style="fill:#ffffff" />
      <path
         d="m 21.726617,25.02435 c 1.252349,-3.436487 -0.681319,-8.477835 -0.27933,-13.92014 0.03401,4.683681 1.924391,10.536221 0.809131,13.596487 z"
         id="path4109"
         style="fill:#ffffff" />
      <path
         d="m 30.360093,19.81396 c 1.078154,-4.23634 -0.47414,-4.504332 1.053416,-8.321161 -0.996725,3.662218 0.08864,5.187713 -0.612259,8.090276 z"
         id="path4111"
         style="fill:#ffffff" />
      <path
         d="m 12.873594,31.319077 c 2.74486,2.219183 6.07518,3.63645 13.954154,2.516036 -10.544467,0.681319 -12.29054,-1.879039 -13.344987,-2.891225 z"
         id="path4113"
         style="fill:#ffffff" />
      <path
         d="m 21.916273,25.780913 c 2.74383,2.219182 7.236824,2.426361 13.034735,0.548353 -6.622503,1.581155 -10.698048,0.98848 -12.581209,-0.842114 z"
         id="path4115"
         style="fill:#ffffff" />
      <path
         d="m 30.545626,20.321084 c 2.763414,1.181228 5.476321,-1.740919 10.285752,-3.287029 -4.084821,0.985387 -8.182012,4.016793 -9.831195,2.993268 z"
         id="path4117"
         style="fill:#ffffff" />
    </g>
    <g
       id="g3729">
      <circle
         style="color:#000000;overflow:visible;fill:#000000;stroke:#eeeeec;stroke-width:0.5;stroke-linecap:round;stroke-linejoin:bevel"
         id="path1206"
         cx="38.428574"
         cy="38.428574"
         r="9.3214283" />
      <rect
         y="-44.168964"
         x="36.605659"
         height="11.602806"
         width="3.3102484"
         id="rect1210"
         style="color:#000000;overflow:visible;fill:#ffffff;stroke:none;stroke-width:0.5;stroke-linecap:round;stroke-linejoin:bevel"
         transform="rotate(90)" />
      <rect
         transform="scale(-1)"
         style="color:#000000;overflow:visible;fill:#ffffff;stroke:none;stroke-width:0.5;stroke-linecap:round;stroke-linejoin:bevel"
         id="rect1212"
         width="3.3102484"
         height="11.602806"
         x="-40.022686"
         y="-44.062187" />
    </g>
    <path
       style="fill:#a04800;fill-opacity:1"
       id="path7138"
       d="M -0.36497646,40.8062 C 0.097633814,40.387893 0.74570033,39.976798 0.93630812,39.88304 C 1.126916,39.787221 1.5751019,39.930434 1.6925575,39.814009 C 1.8100131,39.694493 2.4014124,39.175215 2.5909899,39.175215 C 2.7805674,39.175215 3.1823892,39.245277 3.3956639,39.102063 C 3.6068779,38.96091 4.837071,38.607513 5.2399231,38.487997 C 5.641745,38.371572 6.5638746,38.346844 6.7060577,38.252055 C 6.8472105,38.158297 8.1000704,36.999196 8.5503169,36.764284 C 9.0005635,36.527312 10.584154,35.507303 10.749004,35.463 C 10.914884,35.414575 11.221917,35.439303 11.434162,35.227058 C 11.646406,35.014814 12.45005,33.924743 12.45005,33.806257 C 12.45005,33.689832 13.223814,33.082978 13.34127,32.967583 C 13.460786,32.847037 13.866729,32.266971 14.196429,32.006302 C 14.52716,31.746663 15.382319,30.797745 15.595594,30.797745 C 15.806808,30.797745 16.399237,30.001314 16.517723,29.932283 C 16.635179,29.860161 16.896878,29.52737 17.510944,29.457309 C 17.817978,29.388278 18.478408,28.511482 18.478408,28.415663 C 18.478408,28.321904 19.284112,27.162803 19.520054,27.091711 C 19.758056,27.02165 22.122623,26.288068 22.404928,26.241704 C 22.688264,26.19534 23.255967,26.218006 23.470271,26.265401 C 23.682516,26.311765 24.438765,26.311765 24.628343,26.241704 C 24.81895,26.170612 25.338228,26.193279 25.550472,26.241704 C 25.763747,26.288068 26.614785,26.595101 26.827029,26.595101 C 27.040304,26.595101 27.679098,26.335462 27.891342,26.145885 C 28.104617,25.957337 29.876754,24.465445 30.185848,24.254231 C 30.492881,24.041987 32.526718,22.66961 32.92854,22.553185 C 33.331392,22.434699 35.103529,22.196697 35.293107,22.173 C 35.482684,22.150333 39.242294,23.188888 39.408174,23.188888 C 39.574055,23.188888 41.038129,22.99931 41.155584,22.929249 C 41.276131,22.860218 40.164424,22.196697 39.903755,22.220394 C 39.643086,22.242031 39.477205,22.33785 39.288658,22.290455 C 39.100111,22.242031 37.658704,21.701117 37.562885,21.701117 C 37.468096,21.701117 36.711847,21.74542 36.593361,21.74542 C 36.473845,21.74542 35.576442,21.322992 35.576442,21.228203 C 35.576442,21.133415 36.308995,20.823291 36.42645,20.823291 C 36.546997,20.823291 36.900394,20.941777 37.18476,20.658441 C 37.468096,20.377165 38.319134,20.281346 38.319134,20.281346 C 38.319134,20.281346 39.903755,19.809463 40.446729,19.784736 C 40.990734,19.762069 42.599052,19.950616 42.811296,19.975343 C 43.025601,19.99801 45.225318,20.75632 45.365441,20.75632 C 45.505563,20.75632 46.428723,21.038626 46.428723,21.038626 C 45.884718,20.659471 44.915194,20.257649 44.655555,20.022738 C 44.394886,19.785766 44.017792,19.478733 43.804517,19.454005 C 43.592273,19.430308 42.69281,19.312853 42.69281,19.312853 C 42.69281,19.312853 41.748014,19.218064 41.748014,19.076911 C 41.748014,18.933698 43.28524,17.940476 43.61597,17.728232 C 43.947731,17.513927 44.348522,17.254288 44.752405,17.232652 C 45.154227,17.209985 47.137578,17.232652 47.280792,17.209985 C 47.422975,17.185257 47.564127,16.974043 47.564127,16.974043 C 47.564127,16.974043 47.351883,16.99568 47.161275,16.99568 C 46.972728,16.99568 44.585494,16.99568 44.490705,16.900891 C 44.394886,16.808163 44.420644,16.310522 44.513372,16.144642 C 44.608161,15.979792 45.103741,15.009238 45.222227,14.939176 C 45.340713,14.868085 45.129499,14.65584 45.104772,14.536324 C 45.082105,14.418869 44.987316,14.133472 45.222227,13.945955 C 45.460229,13.755347 46.12169,13.282434 46.12169,13.282434 C 46.12169,13.282434 46.075326,12.974371 46.003204,13.000128 C 45.933143,13.021765 45.200591,13.66365 45.081074,13.66365 C 44.963619,13.66365 45.011013,13.446254 44.8678,13.446254 C 44.725617,13.446254 44.680283,13.732681 44.680283,13.732681 C 44.680283,13.732681 44.797739,14.301413 44.70192,14.631113 C 44.607131,14.961843 44.347492,15.24724 44.277431,15.411059 C 44.206339,15.57694 44.040459,16.687617 43.803487,16.8298 C 43.567546,16.974043 41.840742,18.133145 41.675892,18.133145 C 41.510012,18.133145 40.847521,18.461815 40.847521,18.461815 C 40.847521,18.461815 40.493093,18.913091 40.327213,18.959455 C 40.162363,19.003759 38.979564,19.195397 38.743623,19.219094 C 38.507681,19.244852 36.521239,19.905282 36.521239,19.905282 C 36.521239,19.905282 35.598079,20.448257 35.410562,20.542015 C 35.219954,20.637834 34.18243,20.897473 34.18243,20.897473 C 34.18243,20.897473 33.803275,21.346689 33.733214,21.300325 C 33.660061,21.251901 33.943397,20.637834 33.943397,20.637834 C 33.943397,20.637834 35.149893,18.816242 35.33844,18.67715 C 35.526987,18.530845 36.898333,17.020407 36.993122,16.974043 C 37.08688,16.925619 37.395974,16.809193 37.608219,16.617555 C 37.820463,16.427978 38.199618,16.003489 38.199618,16.003489 C 38.199618,16.003489 39.286597,15.198815 39.451447,15.080329 C 39.617328,14.962874 40.302485,14.110805 40.233455,14.088138 C 40.162363,14.064441 39.333992,14.65584 39.333992,14.65584 C 39.333992,14.65584 38.247012,15.388393 38.01004,15.553243 C 37.774099,15.720153 37.277488,15.813912 37.207427,15.837609 C 37.135305,15.861306 36.827242,16.214703 36.827242,16.214703 L 36.710816,16.617555 C 36.710816,16.617555 35.953537,17.233682 35.858748,17.233682 C 35.763959,17.233682 36.049356,15.128754 35.928809,14.987601 C 35.812384,14.844388 35.787656,15.033965 35.787656,15.033965 C 35.787656,15.033965 35.598079,16.214703 35.576442,16.310522 C 35.552745,16.406341 35.243652,17.303743 35.219954,17.445926 C 35.196257,17.58811 35.075711,18.107387 34.936618,18.202176 C 34.794435,18.297995 33.968125,19.030547 33.92073,19.149033 C 33.873336,19.265458 32.810054,21.064384 32.690537,21.110748 C 32.573082,21.157112 31.368647,22.080272 31.058522,22.244091 C 30.750459,22.412032 30.135363,23.025068 29.875724,23.050826 C 29.617115,23.072463 29.381174,23.285737 29.381174,23.285737 L 29.358507,23.546406 C 29.358507,23.546406 28.482741,24.469566 28.342619,24.540658 C 28.199406,24.608658 27.957282,24.836357 27.957282,24.836357 C 27.847039,24.94351 27.077395,24.997086 26.804362,25.027996 C 26.529269,25.053753 25.816293,24.752902 25.570048,24.752902 C 25.323804,24.752902 24.55519,24.862115 24.307915,24.997086 C 24.05961,25.137209 22.93657,25.081572 22.77172,25.081572 C 22.60687,25.081572 21.939227,25.077451 21.501344,25.077451 C 21.061401,25.077451 19.987816,25.533879 19.632358,25.562728 C 19.27587,25.588486 17.705674,26.860921 17.491369,26.608495 C 16.953545,25.971762 17.371852,25.089814 17.371852,24.870358 C 17.371852,24.648841 18.138405,23.378465 18.281618,22.844764 C 18.474287,22.113242 18.905987,21.71142 18.988412,21.602207 C 19.128535,21.499176 19.711692,18.750302 19.680782,18.470057 C 19.648843,18.192903 20.302061,15.998338 20.354607,15.805669 C 20.411274,15.615061 22.204018,13.485406 22.473959,13.340131 C 22.745962,13.195888 24.712828,11.873997 24.887981,11.789511 C 25.062104,11.703995 27.764614,10.520166 27.869706,10.487196 C 27.973767,10.455257 28.658925,8.9097877 28.813472,8.485299 C 28.963897,8.0608102 29.946815,6.3638854 29.999361,6.2618844 C 30.051907,6.1598835 29.714995,6.0939435 29.591358,6.1609138 C 29.469781,6.2268538 28.554863,7.3282578 28.492014,7.4920775 C 28.429165,7.6558975 27.723401,9.4960359 27.52249,9.6763405 C 27.319519,9.8576755 26.20369,10.417135 26.047083,10.46556 C 25.890475,10.516045 25.700898,10.376953 25.720474,10.1678 C 25.74211,9.9607068 26.053265,8.5059052 26.160417,8.0391737 C 26.271691,7.5724418 26.457147,6.6204332 26.40151,6.7234644 C 26.348964,6.8264957 25.666898,8.0278402 25.664837,8.1988721 C 25.663807,8.3729949 25.121862,10.287316 25.001316,10.5655 C 24.885921,10.844715 21.990743,12.564306 21.990743,12.564306 C 21.990743,12.564306 21.074795,12.822915 20.92643,13.112432 C 20.778065,13.40195 20.041392,14.222079 19.947633,14.353959 C 19.851814,14.48996 19.316052,14.214867 19.224354,14.140684 C 19.130596,14.066502 18.886412,13.627589 18.764835,13.460678 C 18.642227,13.293767 17.790159,12.464366 17.56349,12.296425 C 17.336822,12.127454 15.934566,12.267576 16.171538,12.466427 C 16.448692,12.687944 18.840047,14.987601 18.694773,15.515121 C 18.643258,17.072953 17.822099,20.038193 17.583066,20.375105 C 17.344034,20.713047 16.807241,21.737178 16.531117,22.146212 C 16.419844,22.33888 15.697595,24.290292 15.668746,24.48296 C 15.641958,24.676659 14.784738,25.894488 14.729101,26.03255 C 14.673464,26.170612 13.567939,27.58317 13.403089,27.664565 C 13.236178,27.74802 12.35114,28.466148 12.323321,28.634089 C 12.295503,28.796878 11.743256,29.185306 11.605194,29.241973 C 11.465071,29.29658 10.441971,30.208406 10.331727,30.567985 C 10.221484,30.927564 9.4487494,31.951695 9.4487494,31.951695 C 9.4487494,31.951695 9.0603216,32.03515 8.810986,32.062969 C 8.5616504,32.088727 7.5395805,32.837764 7.2902448,32.946977 C 7.0398789,33.05619 6.3495696,32.642004 6.1270221,32.642004 C 5.9075656,32.642004 5.1605891,32.669823 4.8267679,32.781097 C 4.4939769,32.89031 3.9128807,33.471406 3.2503898,33.58268 C 2.5868687,33.691893 2.670324,33.305526 2.0892278,33.195282 C 1.2958872,32.881037 0.071876004,34.282262 0.071876004,34.282262 C 0.071876004,34.282262 -0.36600678,35.33112 -0.36600678,35.682456 C -0.36600678,36.032763 -0.36600678,37.520534 -0.36600678,37.520534 C -0.36600678,37.520534 -0.89146611,38.744545 -0.97904267,39.09279 C -1.0676495,39.443097 -0.70910081,41.119415 -0.36497646,40.8062 z " />
    <path
       style="fill:#ff6600;fill-opacity:1"
       id="path7149"
       d="M 25.317622,11.010595 C 25.41241,10.968352 25.502048,10.9292 25.6092,10.881806 C 25.570048,10.860169 25.520593,10.865321 25.483502,10.837503 C 25.47732,10.831321 25.479381,10.821018 25.473199,10.816896 C 25.451562,10.8612 25.406229,10.921988 25.317622,11.010595 z M 17.237912,12.727096 C 18.045677,13.510133 19.230536,14.779478 19.230536,15.509969 C 19.230536,15.562515 19.224354,15.61094 19.21199,15.656274 L 19.231566,15.532636 C 19.17902,17.088408 18.360952,20.205103 18.017858,20.686259 L 16.974152,22.446033 C 16.889666,22.620155 16.249842,24.35108 16.194205,24.58187 C 16.171538,24.755993 16.052022,24.970298 15.491532,25.825457 L 15.212317,26.258189 C 15.150499,26.415826 13.979033,27.97778 13.63903,28.145721 C 13.500969,28.226085 12.900296,28.725787 12.795205,28.873122 L 12.849811,28.722696 C 12.759144,29.254337 11.816408,29.732402 11.807135,29.734463 C 11.6598,29.837494 10.935491,30.523682 10.836581,30.742108 C 10.718095,31.129506 10.125665,31.942422 9.8752987,32.274183 L 9.7465097,32.441093 L 8.8666228,32.59358 C 8.9212294,32.583277 8.1155251,33.066493 8.1155251,33.066493 L 7.5066105,33.436375 C 7.1449708,33.591952 6.7421186,33.430193 6.3516302,33.273586 C 6.3516302,33.273586 6.0806581,33.173646 6.0785974,33.173646 C 6.0775671,33.179827 4.9957391,33.289041 4.9957391,33.289041 C 4.9926482,33.289041 4.6619179,33.489951 4.6619179,33.489951 C 4.3280966,33.713529 3.8685773,34.020562 3.3379664,34.109169 C 2.7712946,34.202928 2.4900193,34.032926 2.2489262,33.849531 L 1.9851662,33.719711 C 1.6791634,33.608437 1.0187331,34.04735 0.5283044,34.584143 C 0.33975723,35.050875 0.17387693,35.549546 0.16872537,35.681426 L 0.16872537,37.619444 L -0.45873489,39.221579 C -0.45976521,39.234974 -0.46079552,39.248368 -0.46079552,39.265883 C -0.46079552,39.447218 -0.37837052,39.808858 -0.28667272,40.098375 C 0.13369475,39.801645 0.69727564,39.402914 0.69727564,39.402914 C 0.69521502,39.402914 1.3577059,39.318429 1.3577059,39.318429 C 1.3577059,39.318429 1.3937669,39.320489 1.4298278,39.32255 C 1.6595875,39.105154 2.1984409,38.636362 2.5909899,38.636362 L 2.7785068,38.644605 L 3.1226311,38.642544 C 3.2957236,38.524058 3.7902736,38.355087 4.9947088,38.000659 C 5.0905278,37.972841 5.9899906,37.830658 5.9899906,37.830658 C 5.9899906,37.830658 6.4495099,37.766778 6.476298,37.764718 C 6.4824799,37.741021 6.7307852,37.526716 6.7307852,37.526716 L 8.3020116,36.28725 L 9.3343847,35.669062 L 10.606821,34.943722 C 10.610942,34.943722 10.83349,34.90251 10.83349,34.90251 L 11.057067,34.845843 C 11.221917,34.678932 11.863802,33.803166 11.946227,33.628013 L 11.913257,33.805227 C 11.913257,33.4848 12.12035,33.296253 12.775629,32.745036 C 12.775629,32.745036 12.965206,32.584307 12.966236,32.582246 L 13.103268,32.413275 L 13.865699,31.583874 C 13.86776,31.581813 14.325218,31.153203 14.325218,31.153203 C 15.004194,30.490712 15.271045,30.259922 15.596624,30.259922 L 15.415289,30.302165 L 15.863475,29.839555 L 16.245721,29.469672 C 16.437359,29.302762 16.797968,28.99882 17.450156,28.923607 C 17.492399,28.869 17.898342,28.383723 17.984888,28.219903 L 17.943676,28.415663 C 17.943676,28.056084 18.932776,26.710496 19.366537,26.578616 C 19.367567,26.578616 19.652964,26.488979 19.652964,26.488979 L 22.318382,25.710062 C 22.320443,25.710062 23.588757,25.742002 23.588757,25.742002 C 23.72785,25.769821 24.309976,25.76776 24.459371,25.731699 C 24.798344,25.60394 25.456714,25.666789 25.671019,25.717275 L 26.116114,25.848124 L 26.848666,26.057278 C 26.96097,26.038732 27.430792,25.837821 27.535884,25.743032 C 27.535884,25.743032 27.828493,25.501939 27.946979,25.40406 C 27.742977,25.458666 27.465823,25.499879 27.018667,25.544182 L 26.86309,25.558606 C 26.858969,25.558606 25.952294,25.391696 25.952294,25.391696 L 25.557684,25.286604 C 25.347501,25.286604 24.710768,25.393756 24.566524,25.465878 C 24.315128,25.606001 23.8927,25.646183 22.887115,25.618365 C 22.77275,25.616304 22.403898,25.615274 22.403898,25.615274 L 21.501344,25.611152 L 20.567881,25.859458 L 19.67357,26.094369 C 19.729207,26.086126 19.027564,26.49413 19.027564,26.49413 C 18.145617,27.05359 17.507854,27.456442 17.081304,26.952619 C 16.482693,26.245825 16.700089,25.383453 16.80312,24.968237 L 16.83506,24.833267 C 16.832999,24.867267 17.271912,23.771014 17.271912,23.771014 L 17.76028,22.704641 C 17.955009,21.962816 18.35271,21.510509 18.522711,21.31578 C 18.522711,21.31578 18.534045,21.305477 18.537136,21.301356 C 18.673137,20.974747 19.135747,18.835818 19.141929,18.493754 C 19.139868,18.473148 19.137808,18.453572 19.137808,18.423693 C 19.137808,18.260904 19.213021,17.796233 19.808541,15.753123 C 19.919815,15.371908 21.242736,13.79553 21.891833,13.164978 C 21.654861,13.249464 21.430253,13.344253 21.366374,13.404011 C 21.401404,13.353526 20.583336,14.419899 20.583336,14.419899 L 20.248485,14.822751 L 19.953815,14.91754 C 19.526236,14.980389 18.955442,14.613598 18.884351,14.55487 L 18.483559,14.017047 L 18.327982,13.772863 C 18.218769,13.633771 17.42955,12.863097 17.239972,12.724005 L 17.237912,12.724005 L 17.237912,12.727096 z M 41.107159,18.933698 C 40.979401,19.042911 40.87843,19.128427 40.71461,19.27061 C 40.867097,19.282974 41.052553,19.296368 41.289525,19.315944 C 41.255524,19.242791 41.213282,19.17376 41.213282,19.076911 C 41.213282,19.005819 41.217403,18.945031 41.243161,18.876 C 41.191645,18.896606 41.116432,18.930607 41.107159,18.933698 z M 34.471948,21.369356 C 34.203036,21.67742 33.846548,22.019483 33.435453,21.74336 C 33.26133,21.631056 33.203633,21.472387 33.198481,21.298265 C 33.085147,21.436326 32.967691,21.577479 32.889388,21.608389 C 32.939873,21.586752 32.379383,21.982392 32.379383,21.982392 L 31.31404,22.717005 C 31.316101,22.714944 30.924582,23.008583 30.924582,23.008583 C 30.503184,23.345495 30.230151,23.553619 29.92827,23.583498 C 29.92827,23.583498 29.903542,23.596892 29.892209,23.603074 C 29.891178,23.619558 29.875724,23.780287 29.875724,23.780287 C 29.875724,23.780287 29.73251,23.930713 29.724268,23.941016 C 29.743844,23.924531 29.879845,23.810166 29.879845,23.810166 C 30.120938,23.645316 32.252655,22.190515 32.779144,22.034938 L 35.223045,21.638268 C 35.231288,21.638268 35.241591,21.638268 35.250864,21.638268 C 35.131347,21.515661 35.038619,21.38069 35.038619,21.228203 C 35.038619,21.21584 35.052013,21.209658 35.054074,21.198324 C 34.821223,21.268386 34.617222,21.329174 34.471948,21.369356 z " />
  </g>
</svg>
