<?xml version="1.0" encoding="UTF-8" standalone="no"?>
<svg
   xmlns:i="http://ns.adobe.com/AdobeIllustrator/10.0/"
   xmlns:dc="http://purl.org/dc/elements/1.1/"
   xmlns:cc="http://creativecommons.org/ns#"
   xmlns:rdf="http://www.w3.org/1999/02/22-rdf-syntax-ns#"
   xmlns:svg="http://www.w3.org/2000/svg"
   xmlns="http://www.w3.org/2000/svg"
   xmlns:sodipodi="http://sodipodi.sourceforge.net/DTD/sodipodi-0.dtd"
   xmlns:inkscape="http://www.inkscape.org/namespaces/inkscape"
   version="1.1"
   inkscape:output_extension="org.inkscape.output.svg.inkscape"
   sodipodi:docname="tree_controller.svg"
   inkscape:version="1.0 (4035a4fb49, 2020-05-01)"
   sodipodi:version="0.32"
   id="svg39719"
   height="48px"
   width="48px">
  <defs
     id="defs39721">
    <linearGradient
       id="linearGradient9072">
      <stop
         id="stop9074"
         offset="0"
         style="stop-color:#78490f;stop-opacity:1;" />
      <stop
         style="stop-color:#cd7d1a;stop-opacity:1;"
         offset="1"
         id="stop9080" />
    </linearGradient>
    <defs
       id="defs38094">
      <path
         d="M 25.274,28.547 C 25.382,28.838 25.797,28.655 25.797,28.655 C 25.797,28.655 25.994,28.875 26.104,28.634 C 26.104,28.634 26.17,28.546 26.213,28.698 C 26.213,28.698 26.521,28.327 26.718,28.391 C 26.718,28.391 26.542,28.939 26.783,29.222 C 26.783,29.222 27.132,29.18 27.284,29.31 C 27.306,29.202 27.525,29.18 27.649,28.823 C 27.649,28.823 27.306,28.502 27.111,28.48 C 27.111,28.415 27.306,28.348 27.306,28.348 C 27.306,28.348 27.83,28.588 27.984,28.457 C 27.787,28.609 28.015,29.082 28.015,29.082 C 27.813,29.172 27.497,29.645 27.497,29.961 C 27.497,30.277 27.518,30.481 27.518,30.481 C 27.812,30.278 28.127,29.94 28.127,29.94 C 28.127,29.94 27.971,29.241 28.239,29.172 C 28.285,29.354 28.33,29.713 28.33,29.713 C 28.33,29.713 28.962,29.533 28.962,29.354 C 29.187,29.489 29.684,29.443 29.684,29.443 C 29.571,29.331 29.662,29.105 29.662,29.105 C 29.909,29.151 30.293,29.489 30.293,29.489 C 30.293,29.196 30.97,29.286 30.97,29.286 C 30.97,29.038 31.715,29.376 31.715,29.376 C 31.332,29.376 31.624,29.76 31.624,29.76 C 31.421,29.76 31.421,30.392 31.94,30.212 C 31.556,30.436 31.308,30.978 31.308,30.978 C 31.308,30.978 31.263,30.619 31.196,30.595 C 31.444,30.574 31.421,30.235 31.421,30.235 L 31.4,30.031 C 31.061,30.008 30.837,30.347 30.837,30.347 C 30.837,30.347 30.589,30.279 30.544,30.347 C 30.499,30.527 30.611,30.978 30.611,30.978 C 30.407,30.843 30.205,30.843 30.048,30.978 C 30.319,30.978 30.634,31.317 30.634,31.317 C 30.137,31.295 29.98,31.475 29.98,31.475 C 30.228,31.722 30.544,32.061 30.747,32.061 C 30.59,32.355 30.658,32.58 30.658,32.58 C 30.454,32.58 30.252,32.807 30.252,32.807 L 30.387,32.965 C 29.957,32.829 29.936,33.212 29.936,33.212 L 29.731,33.301 C 29.731,33.301 29.395,33.301 29.3,33.34 C 29.3,33.34 29.373,32.983 29.226,32.833 C 29.226,32.833 28.981,32.982 28.962,33.227 L 28.607,33.283 C 28.645,33.602 28.906,33.714 28.906,33.714 C 28.813,33.808 29.395,33.921 29.395,33.771 L 29.524,33.734 L 29.774,33.754 L 30.006,33.987 C 30.006,33.987 30.151,33.843 30.151,34.203 C 30.151,34.203 30.294,33.81 30.118,33.619 C 30.118,33.619 30.323,33.619 30.458,33.484 C 30.458,33.484 30.608,33.556 30.608,33.713 C 30.551,33.713 30.412,33.901 30.44,33.957 C 30.467,34.014 30.598,33.967 30.749,33.863 C 30.897,33.759 30.787,33.667 30.787,33.667 L 30.983,33.563 C 30.983,33.563 30.992,33.648 30.935,33.759 C 30.879,33.872 30.805,34.209 30.805,34.209 C 30.805,34.209 30.907,34.563 31.104,34.546 C 31.3,34.526 31.394,33.983 31.356,33.722 L 31.479,33.581 C 31.479,33.581 31.675,33.983 31.796,34.104 C 31.796,34.104 31.871,33.853 31.871,33.758 C 31.871,33.665 31.638,33.432 31.638,33.432 L 31.909,33.356 C 31.909,33.356 31.976,33.581 32.069,33.61 C 32.161,33.637 32.471,33.366 32.453,33.309 C 32.435,33.252 32.405,33.095 32.527,33.095 C 32.649,33.095 32.563,33.282 32.527,33.348 C 32.489,33.412 32.667,33.61 32.799,33.647 C 32.929,33.684 33.163,33.498 33.163,33.498 C 33.163,33.498 33.172,33.384 33.191,33.319 C 33.21,33.253 33.313,33.309 33.313,33.309 C 33.313,33.309 33.48,33.104 33.407,32.879 C 33.407,32.879 33.621,32.991 33.902,32.991 C 34.183,32.991 34.191,32.803 34.191,32.803 L 34.219,32.953 L 34.445,32.982 C 34.445,32.982 34.445,33.103 34.472,33.16 C 34.5,33.215 34.894,33.15 34.827,33.038 C 34.931,33.047 34.978,32.897 34.911,32.841 C 35.006,32.815 35.015,32.617 35.015,32.617 C 35.015,32.617 34.874,32.681 34.92,32.504 C 34.968,32.326 35.07,32.449 35.07,32.449 C 35.07,32.449 35.079,32.42 35.079,32.326 C 35.079,32.233 35.229,32.271 35.229,32.271 L 35.257,32.429 C 35.257,32.429 35.172,32.4 35.125,32.503 C 35.078,32.606 35.218,32.635 35.218,32.635 L 35.218,32.757 L 35.294,32.793 C 35.294,32.793 35.388,33.084 35.462,33.186 C 35.538,33.29 35.733,33.271 35.733,33.271 C 35.733,33.271 35.882,33.009 35.882,32.906 C 35.882,32.804 35.725,32.617 35.48,32.513 C 35.649,32.466 35.827,32.588 35.827,32.588 L 35.995,32.531 C 35.995,32.531 36.015,32.484 35.874,32.344 C 35.931,32.502 36.202,32.465 36.268,32.315 C 36.249,32.362 36.389,32.541 36.511,32.569 C 36.464,32.673 36.651,32.85 36.829,32.85 C 36.791,32.961 36.968,33.233 37.175,33.213 C 37.212,33.326 37.598,33.336 37.718,33.336 C 37.839,33.336 38.093,32.801 38.027,32.53 L 38.131,32.418 C 38.131,32.418 38.318,32.447 38.375,32.39 C 38.674,32.933 39.104,33.036 39.188,33.045 C 39.272,33.055 39.712,32.765 39.75,32.68 C 39.787,32.596 39.637,32.55 39.563,32.409 C 39.646,32.409 39.843,32.214 39.843,32.054 C 39.843,32.054 40.086,31.905 40.076,31.755 C 40.076,31.755 40.225,31.755 40.3,31.689 C 40.3,31.689 40.291,31.289 40.291,31.203 C 40.291,31.119 40.198,31.119 40.095,31.072 C 40.095,31.072 40.236,31.008 40.236,30.913 C 40.236,30.913 40.527,30.865 40.715,30.838 C 40.715,30.838 40.424,30.408 40.32,30.391 C 40.218,30.37 40.133,30.361 39.965,30.418 C 39.965,30.418 40.274,29.818 40.219,29.584 C 40.219,29.584 40.33,29.537 40.434,29.65 C 40.434,29.65 40.575,29.622 40.537,29.416 C 40.537,29.416 41.07,29.668 41.239,29.678 C 41.079,29.266 40.676,29.004 40.658,28.976 C 40.64,28.949 40.088,28.93 39.807,28.949 C 39.938,28.864 39.853,28.528 39.77,28.303 C 39.77,28.303 39.89,28.303 40.059,28.36 C 40.172,28.256 40.303,27.797 40.153,27.592 C 40.321,27.592 40.434,27.581 40.546,27.459 C 40.546,27.459 40.612,27.581 40.771,27.629 C 40.771,27.629 40.949,27.311 40.959,27.197 C 40.969,27.086 40.809,26.908 40.481,26.683 C 40.481,26.683 40.659,26.683 40.762,26.776 C 40.762,26.776 40.836,26.58 40.706,26.495 C 40.706,26.495 40.864,26.412 40.931,26.289 C 41.025,26.523 41.427,26.486 41.427,26.486 C 41.427,26.486 41.323,26.15 41.1,26.112 C 41.1,26.112 41.52,25.726 41.745,25.474 L 41.857,25.643 C 41.857,25.643 42.12,25.512 42.242,25.306 C 42.242,25.306 42.316,25.38 42.456,25.465 C 42.456,25.465 42.494,25.345 42.456,25.222 L 42.672,25.176 C 42.672,25.176 42.719,24.988 42.635,24.82 L 42.934,24.615 L 42.935,24.312 L 42.677,24.208 C 42.677,24.208 42.479,24.274 42.373,24.407 L 42.259,24.473 C 42.231,24.188 41.851,23.959 41.497,23.996 C 41.497,23.996 41.896,24.254 42.059,24.453 C 42.059,24.453 41.984,24.33 41.698,24.31 C 41.413,24.292 41.375,24.625 41.498,24.815 C 41.498,24.815 41.127,24.702 41.032,24.806 L 41.251,25.006 C 41.251,25.006 41.431,25.062 41.556,25.263 C 41.556,25.263 41.118,25.006 40.993,25.158 C 40.993,25.158 40.794,24.949 40.555,25.015 C 40.555,25.015 40.613,24.911 40.728,24.911 C 40.699,24.873 40.623,24.702 40.281,24.834 C 40.281,24.834 40.166,24.463 40.013,24.473 C 40.013,24.473 39.909,24.502 39.824,24.606 C 39.72,24.121 39.176,23.997 38.928,24.074 C 38.889,23.817 38.546,23.54 38.3,23.54 C 38.3,23.54 38.29,23.36 38.195,23.294 L 38.32,23.274 C 38.32,23.274 38.653,23.521 38.842,23.512 L 38.832,23.217 L 38.861,23.131 C 38.861,23.131 39.005,23.245 39.109,23.264 C 39.213,23.284 39.661,23.064 39.614,22.903 C 39.566,22.741 39.147,22.665 39.013,22.979 C 39.013,22.979 38.899,22.588 38.737,22.588 C 38.946,22.492 38.852,22.255 38.717,22.121 C 38.822,22.083 38.793,22.006 38.737,21.978 L 38.946,21.845 C 39.223,21.654 39.079,21.57 38.976,21.578 L 39.051,21.405 C 39.051,21.405 39.088,21.502 39.336,21.502 C 39.584,21.502 39.746,21.388 39.746,21.216 C 39.746,21.045 39.414,20.911 39.174,21.15 C 39.174,21.15 39.174,20.732 39.101,20.559 C 39.101,20.559 39.243,20.322 39.28,20.226 C 39.28,20.226 39.557,20.168 39.527,19.951 C 39.651,19.951 40.167,19.666 40.06,19.246 C 40.309,19.369 40.432,19.094 40.432,18.987 C 40.593,19.036 40.803,18.751 40.602,18.58 C 40.602,18.58 40.784,18.522 40.993,18.38 C 41.203,18.237 41.355,18.256 41.526,18.322 C 41.422,18.151 41.193,18.095 40.976,18.237 C 40.976,18.237 40.747,18.027 40.565,18.151 C 40.565,18.151 40.336,18.027 40.318,17.922 C 40.3,17.817 40.393,17.693 40.403,17.626 C 40.403,17.626 40.87,17.922 41.069,17.989 C 40.937,17.542 40.794,17.387 40.469,17.464 L 40.642,17.304 C 40.642,17.304 40.813,17.304 41.013,17.122 C 41.212,16.941 41.135,16.76 40.84,16.78 C 40.84,16.78 41.135,16.388 41.013,16.113 C 41.013,16.113 40.632,16.246 40.546,16.522 C 40.488,16.284 40.012,16.151 39.832,16.246 C 39.832,16.246 40.031,16.333 40.117,16.503 C 40.117,16.503 39.917,16.665 39.955,16.808 C 39.955,16.808 39.851,16.732 39.783,16.781 C 39.783,16.781 39.975,16.342 39.631,16.324 C 39.631,16.324 39.508,15.99 39.233,16.038 L 39.252,15.953 C 39.461,15.99 39.651,15.723 39.546,15.629 C 39.546,15.629 39.757,15.496 39.918,15.315 C 39.918,15.315 39.499,15.372 39.403,15.62 C 39.403,15.62 39.204,15.372 39.005,15.372 C 39.005,15.372 39.632,14.82 39.403,14.659 C 39.471,14.63 39.452,14.391 39.233,14.325 C 39.233,14.325 39.756,14.039 39.756,13.888 C 39.851,14.059 40.222,14.02 40.422,13.934 C 40.422,13.934 40.26,13.8 40.041,13.772 C 40.041,13.772 40.45,13.707 40.869,13.792 C 40.869,13.792 40.746,13.678 40.67,13.603 L 40.821,13.537 C 40.821,13.537 40.24,13.307 40.089,13.451 C 40.089,13.451 39.965,13.279 39.795,13.336 C 39.917,13.221 39.842,12.84 39.678,12.803 C 39.678,12.803 39.832,12.66 39.774,12.518 C 39.803,12.432 40.147,12.528 40.451,12.594 C 40.451,12.422 40.024,12.127 40.024,12.127 C 40.024,12.127 39.631,11.984 39.566,12.272 C 39.566,12.272 39.29,12.194 39.327,12.594 C 39.327,12.594 39.156,12.336 38.909,12.46 C 38.909,12.46 39.194,12.051 38.889,12.117 C 38.889,12.117 39.004,11.928 38.909,11.746 C 38.909,11.746 38.585,11.891 38.471,12.136 C 38.471,12.136 38.251,11.918 38.08,11.928 C 38.08,11.928 38.051,12.223 38.318,12.498 C 37.851,12.299 38.003,13.06 38.184,13.412 C 38.184,13.412 37.909,13.365 37.822,13.603 C 37.822,13.603 37.689,13.392 37.461,13.659 C 37.233,13.926 37.137,13.603 37.242,13.555 C 37.269,13.555 37.642,13.537 37.709,13.318 C 37.776,13.099 37.576,13.051 37.442,13.098 C 37.442,13.098 37.527,12.909 37.736,12.936 C 37.736,12.936 37.613,12.776 37.469,12.803 L 37.603,12.66 C 37.404,12.422 37.146,12.469 37.033,12.783 C 36.975,12.687 36.738,12.67 36.652,12.831 C 36.652,12.831 36.394,12.754 36.109,12.935 C 36.109,12.935 36.347,12.66 36.414,12.593 C 36.414,12.593 36.185,12.507 36.004,12.602 C 36.004,12.517 35.842,12.242 35.633,12.269 C 36.033,11.907 36.101,11.335 35.871,11.212 C 36.147,11.107 36.033,10.879 35.881,10.821 C 36.203,10.708 36.281,10.516 36.234,10.44 C 36.604,10.317 36.948,10.764 37.014,10.963 C 37.09,10.629 36.813,10.277 36.348,10.297 C 36.348,10.297 36.776,9.935 36.633,9.906 C 36.633,9.906 36.899,9.763 36.899,9.639 C 36.899,9.639 37.253,9.307 37.462,9.021 C 37.462,9.021 36.948,9.21 36.929,9.421 C 36.929,9.421 36.853,9.335 36.814,9.382 C 36.814,8.925 36.663,8.829 36.482,8.724 C 36.482,8.724 36.443,8.974 36.568,9.203 C 36.568,9.203 36.273,9.135 36.158,9.193 L 36.33,8.992 L 36.13,8.934 C 36.13,8.934 35.74,9.144 35.854,9.392 C 35.854,9.392 35.531,9.24 35.37,9.392 C 35.427,9.298 35.122,9.001 34.97,9.172 C 34.97,9.172 34.98,8.897 34.847,8.839 C 34.847,8.839 34.989,8.716 35.104,8.63 C 35.218,8.544 35.02,8.372 34.999,8.458 C 34.98,8.544 34.732,8.534 34.752,8.334 C 34.771,8.136 35.047,8.296 35.219,8.525 C 35.256,8.449 35.209,8.04 35.076,7.849 C 35.209,7.791 35.447,7.964 35.514,7.924 C 35.58,7.887 35.428,7.773 35.285,7.725 C 35.428,7.705 35.56,7.334 35.418,7.249 C 35.57,6.802 35.846,7.088 35.904,7.239 C 36.037,6.848 35.59,6.639 35.285,6.706 C 35.285,6.706 35.475,6.345 35.104,6.353 L 34.964,6.414 L 35.03,6.279 L 35.2,6.057 C 35.2,6.057 34.862,5.687 34.76,5.804 C 34.76,5.804 34.304,5.753 34.134,5.99 C 34.134,5.99 33.576,6.076 33.542,6.228 C 33.542,6.228 33.288,5.923 33.322,5.652 L 33.644,5.262 C 33.644,5.262 33.879,5.279 33.948,5.399 C 33.948,5.399 34.167,5.178 34.354,5.279 C 34.354,5.279 34.016,5.026 33.931,5.026 C 33.931,5.026 33.981,4.857 34.217,4.925 C 34.217,4.925 33.981,4.637 33.846,4.739 C 33.846,4.739 33.795,4.636 33.78,4.501 C 33.762,4.366 33.644,4.45 33.644,4.45 L 33.508,4.331 C 33.508,4.331 33.237,4.519 33.237,4.704 L 33.1,4.506 C 33.1,4.506 32.878,4.506 32.862,4.727 C 32.862,4.727 32.591,4.608 32.49,4.727 C 32.135,4.491 32,4.811 31.915,4.862 C 31.915,4.862 31.915,4.692 31.78,4.642 C 31.453,4.52 31.136,5.082 31.204,5.267 C 31.204,5.267 30.747,5.37 30.714,5.724 C 30.714,5.724 30.707,5.591 30.494,5.477 C 30.281,5.362 30.174,5.651 30.174,5.651 C 30.174,5.651 30.115,5.353 29.84,5.424 C 29.84,5.424 29.535,4.992 29.307,5.018 C 29.307,5.018 29.739,4.611 29.917,4.635 C 29.917,4.635 29.764,4.203 29.356,4.229 C 29.356,4.229 29.535,3.975 29.714,4.102 C 29.714,4.102 29.255,3.745 29.127,3.873 L 28.618,3.567 C 28.618,3.567 28.084,3.668 27.932,4 L 27.752,3.744 C 27.752,3.744 27.728,3.338 27.32,3.134 C 27.32,3.134 27.142,4.076 26.99,4.102 C 26.506,3.846 26.684,3.186 26.913,2.983 C 26.71,2.907 26.506,3.238 26.506,3.238 C 26.506,3.238 26.379,3.568 26.124,3.544 C 26.124,3.544 26.022,4.204 25.947,4.407 C 25.947,4.407 25.845,4.255 25.514,4.102 C 25.514,4.102 25.514,4.407 25.31,4.407 C 25.31,4.407 25.437,4.534 25.285,4.738 C 25.285,4.738 25.819,4.738 25.973,4.865 L 25.895,5.145 C 25.973,5.094 26.302,5.246 26.429,5.5 L 26.175,5.703 C 25.946,5.629 25.716,5.832 25.741,5.908 C 25.921,5.883 26.148,6.289 26.148,6.289 C 26.148,6.289 26.148,6.467 25.92,6.442 C 25.92,6.442 26.275,6.492 26.377,6.771 C 26.148,6.644 25.74,6.644 25.563,6.899 C 25.563,6.899 25.818,6.72 25.588,6.545 C 25.359,6.365 25.055,6.264 24.951,6.569 C 24.749,6.314 24.443,6.416 24.215,6.416 C 24.342,6.519 24.012,7.104 23.96,7.255 C 23.96,7.255 23.706,7.052 23.451,6.849 C 23.451,6.849 23.324,7.002 23.324,7.255 C 23.324,7.255 23.096,7.154 23.045,6.949 C 22.79,6.949 22.561,7.255 22.561,7.612 C 22.561,7.612 22.001,7.383 22.001,7.077 L 21.641,7.18 C 21.641,7.18 21.709,6.942 22.047,6.807 C 22.047,6.807 21.472,6.875 21.303,6.807 C 21.44,6.942 21.201,7.01 21.201,7.01 L 20.965,6.774 L 20.865,7.01 L 20.527,6.977 L 20.561,7.18 C 20.561,7.18 20.29,6.909 19.987,7.01 C 19.987,7.01 20.155,7.213 19.987,7.382 C 19.987,7.382 19.58,7.382 19.75,7.687 C 19.75,7.687 19.241,7.857 19.073,8.127 C 19.376,7.889 19.75,8.297 19.918,8.533 C 19.918,8.533 19.445,8.297 19.276,8.635 C 19.276,8.635 19.005,8.737 19.207,8.973 C 19.207,8.973 18.936,8.938 18.7,8.838 C 18.7,8.838 18.565,9.008 18.7,9.277 C 18.7,9.277 18.395,9.007 18.225,8.838 C 18.225,8.838 17.989,9.008 17.989,9.108 C 17.989,9.108 17.583,8.938 17.516,8.703 C 17.516,8.703 17.041,8.703 17.041,8.872 C 17.041,8.872 16.434,8.601 16.33,8.263 C 16.33,8.263 15.586,8.06 15.687,8.33 C 15.687,8.33 15.044,8.33 14.943,8.669 C 15.282,8.534 15.619,8.805 15.925,8.974 L 15.281,9.38 C 15.281,9.38 14.975,9.447 14.603,9.447 C 14.603,9.447 15.178,9.752 15.178,9.887 C 15.178,9.887 15.483,9.751 15.617,9.785 L 16.058,9.175 C 16.058,9.175 16.701,8.973 17.004,9.311 C 17.004,9.311 17.749,9.311 17.952,9.617 C 17.952,9.617 18.596,9.413 18.899,9.651 C 18.899,9.651 18.46,9.752 18.46,10.022 C 18.154,10.022 17.783,10.563 17.749,11.241 C 17.309,10.97 17.309,10.463 17.343,10.022 C 17.343,10.022 16.904,10.09 16.868,10.497 C 16.597,10.429 16.43,9.684 16.835,9.548 C 16.327,9.347 16.091,9.921 16.091,9.921 C 16.091,9.921 15.956,10.192 15.718,10.327 C 15.718,10.327 15.55,9.888 15.245,10.056 C 15.245,10.056 15.481,10.903 15.042,11.308 C 15.313,11.173 15.516,11.274 15.718,11.545 C 15.855,11.274 16.327,11.274 16.294,11.512 C 16.294,11.512 16.632,11.85 16.531,12.287 C 16.531,12.287 15.923,12.391 15.923,12.896 C 15.314,12.66 15.042,13.101 14.941,13.642 C 14.941,13.642 15.415,13.406 15.685,13.574 L 15.177,14.117 C 15.177,14.117 15.075,14.725 15.21,14.929 C 14.671,14.793 14.096,15.334 14.263,15.572 C 13.214,15.267 13.046,16.079 13.79,16.35 C 13.79,16.35 13.079,16.384 12.774,16.687 C 12.774,16.687 13.249,16.79 13.587,17.229 C 13.587,17.229 13.249,17.297 12.944,17.466 C 12.944,17.466 13.655,17.703 13.688,17.838 C 13.688,17.838 14.061,17.229 14.229,17.331 C 14.331,16.959 15.176,16.451 15.717,16.686 C 15.717,16.686 15.515,15.638 15.752,15.841 C 15.752,15.841 16.09,15.198 16.225,15.502 L 16.395,15.096 C 16.395,14.792 16.801,14.489 17.072,14.556 C 16.632,14.251 17.038,13.54 17.038,13.54 C 17.613,13.303 17.884,13.607 17.884,13.607 C 17.884,13.066 18.493,12.795 18.493,12.795 C 18.629,12.49 19.542,13.133 19.542,13.133 C 19.644,12.524 20.017,12.221 20.017,12.221 C 19.542,12.153 19.273,11.813 19.273,11.813 C 19.408,11.645 19.611,11.645 19.611,11.645 C 19.306,11.34 19.611,10.934 19.611,10.934 C 20.152,11.102 20.422,11.34 20.422,11.34 C 20.626,11.002 21.27,11.203 21.303,11.543 C 21.619,11.299 21.698,11.451 21.698,11.451 C 21.544,11.707 21.569,12.316 21.569,12.316 C 21.315,12.188 20.909,12.494 20.909,12.494 C 21.138,12.647 20.501,12.57 20.425,12.698 C 20.603,12.9 20.731,13.231 20.731,13.231 C 20.603,13.384 20.451,13.384 20.451,13.384 C 20.603,13.459 20.476,13.791 20.476,13.791 C 20.755,13.638 21.265,14.171 21.265,14.171 C 21.393,14.02 21.952,14.069 22.105,14.275 C 22.08,13.919 22.231,13.563 22.231,13.563 L 22.41,13.563 C 22.435,13.231 22.563,13.231 22.563,13.231 C 22.714,13.511 22.615,13.996 22.615,13.996 C 22.615,13.996 22.511,14.783 22.359,14.859 C 22.69,14.757 23.351,14.707 23.351,14.707 C 23.351,14.529 23.707,14.02 23.707,14.02 L 23.911,14.045 C 23.911,14.045 23.911,14.427 23.886,14.579 C 23.81,14.554 23.707,14.909 23.707,14.909 C 23.858,14.858 24.062,14.985 24.062,14.985 C 24.062,14.731 24.495,14.731 24.495,14.731 C 24.47,14.553 24.725,14.249 25.03,14.299 C 25.08,14.17 25.182,14.044 25.182,14.044 L 25.741,14.044 C 25.741,13.764 26.175,13.941 26.175,13.941 C 26.175,13.941 26.378,13.484 26.784,13.688 L 26.709,13.865 C 26.938,13.738 27.473,14.018 27.473,14.018 C 27.142,13.688 27.32,13.457 27.32,13.457 C 27.142,13.432 26.889,13.127 26.889,13.127 C 26.889,13.331 26.505,13.306 26.505,13.306 L 26.378,13.127 C 26.57,13.214 27.001,12.855 27.001,12.855 L 27.004,12.855 C 27.021,12.954 27.068,13.086 27.191,13.229 C 27.191,13.229 27.357,13.104 27.505,13.104 C 27.651,13.104 27.714,13.292 27.714,13.522 C 27.714,13.522 27.839,13.522 27.944,13.585 L 27.975,13.452 C 28.097,13.404 28.245,13.719 28.245,13.719 C 28.077,13.814 27.839,14.053 27.839,14.053 C 28.15,13.933 28.269,14.053 28.269,14.053 C 28.269,13.886 28.556,13.671 28.556,13.671 C 28.413,13.6 28.818,13.287 29.106,13.334 C 29.393,13.383 29.226,13.647 29.226,13.647 C 29.514,13.647 29.393,13.814 29.393,13.814 C 29.082,13.837 28.986,14.34 28.986,14.34 C 29.25,14.268 29.489,14.316 29.489,14.316 C 29.609,14.005 30.16,14.126 30.16,14.126 C 30.16,14.364 29.586,14.963 29.586,14.963 C 29.441,14.963 29.369,15.347 29.369,15.347 C 29.537,15.322 29.92,15.562 29.92,15.562 C 30.065,15.371 30.136,15.322 30.136,15.082 C 30.136,14.844 30.494,14.533 30.854,14.605 C 30.974,14.581 31.069,14.581 31.069,14.581 C 30.949,14.986 30.279,15.418 30.183,15.586 C 30.255,15.705 30.399,15.922 29.825,16.184 C 29.778,16.304 29.729,16.424 29.729,16.424 C 29.561,16.208 29.18,16.041 29.18,16.041 C 29.012,15.85 29.131,15.682 29.131,15.682 C 29.012,15.682 28.914,15.515 28.676,15.658 C 28.438,15.802 28.174,15.97 28.174,15.97 C 28.366,15.97 28.414,16.113 28.414,16.113 C 28.628,15.924 28.914,16.185 28.914,16.305 C 28.914,16.425 28.892,16.591 28.892,16.591 C 28.892,16.736 28.668,16.855 28.668,16.855 C 28.765,16.914 28.89,16.935 29.02,16.806 C 28.953,16.923 29.122,17.144 29.307,17.261 C 29.274,17.279 29.104,17.398 29.155,17.652 C 29.088,17.601 28.733,17.686 28.564,17.67 C 28.598,17.736 28.582,17.94 28.852,18.244 C 28.682,18.262 28.529,18.363 28.412,18.498 C 28.293,18.633 28.327,18.922 28.395,19.09 C 28.395,19.09 28.276,19.124 28.174,19.175 C 28.005,19.039 27.651,19.108 27.666,19.514 C 27.717,19.463 28.021,19.463 28.021,19.463 C 28.021,19.463 28.072,19.58 28.173,19.53 C 27.853,19.716 28.021,20.054 28.275,20.138 C 28.275,20.138 27.97,20.122 27.885,20.341 C 27.716,20.257 27.208,20.324 27.157,20.747 L 26.937,20.916 C 26.666,20.849 26.481,21.204 26.548,21.356 C 26.496,21.373 26.481,21.508 26.481,21.508 C 26.481,21.508 26.329,21.356 26.26,21.305 C 26.194,21.254 26.21,20.9 26.21,20.9 L 25.719,20.577 C 25.722,20.384 25.722,20.02 25.836,19.901 C 26.17,19.616 25.648,19.037 25.722,18.906 C 25.836,18.956 25.885,18.919 25.858,18.833 C 25.712,18.376 25.549,18.073 25.918,18.548 C 26.076,18.42 26.081,18.23 26.04,17.616 C 26.187,17.33 25.926,17.016 25.787,16.992 C 25.787,16.992 25.331,16.992 24.835,17.127 C 24.835,16.834 25.443,16.946 25.443,16.946 C 25.443,16.946 25.24,16.652 24.947,16.743 C 24.947,16.675 25.083,16.359 25.083,16.359 L 24.947,16.202 C 24.947,16.202 24.653,16.157 24.225,16.427 C 24.225,16.427 24.426,16.089 24.743,15.931 C 24.743,15.931 24.36,15.706 23.954,16.067 C 23.954,16.067 23.864,15.841 24.067,15.707 C 24.067,15.707 23.729,15.639 23.547,15.91 C 23.547,15.91 22.938,15.639 22.825,15.842 C 22.825,15.842 22.126,16 22.08,15.797 C 22.036,15.594 21.133,15.369 20.953,15.639 C 20.547,15.187 19.892,15.457 19.848,15.729 C 20.277,15.729 20.456,16.114 20.434,16.384 C 20.817,16.384 20.998,16.699 21.133,17.196 C 21.067,17.016 20.57,16.7 20.299,16.7 C 20.028,16.7 19.848,16.971 19.848,17.083 C 19.848,17.083 19.397,17.332 19.239,17.671 C 19.239,17.671 19.013,17.49 18.856,17.423 C 18.856,17.423 18.404,17.558 18.404,17.76 C 18.472,17.714 18.946,17.671 18.946,17.671 C 19.329,17.761 18.991,18.076 18.991,18.076 C 18.901,18.21 18.722,18.054 18.722,18.054 L 18.472,18.144 C 18.584,18.415 18.45,18.843 18.315,18.978 C 18.315,18.978 18.021,18.708 17.817,18.369 C 17.751,18.551 17.231,18.619 17.231,18.619 C 17.502,18.664 17.999,19.341 17.954,19.498 C 17.909,19.656 17.705,20.041 17.705,20.041 L 16.973,20.615 C 17.525,20.265 17.92,19.938 18.394,20.277 C 18.531,20.209 19.038,20.716 19.038,20.716 C 18.902,20.14 19.375,19.566 19.375,19.566 C 19.512,19.869 19.512,20.446 19.512,20.446 C 19.749,20.209 20.256,19.804 20.527,19.837 C 20.798,19.869 21.034,20.209 21.001,20.684 C 21.169,20.514 21.542,20.75 21.542,20.75 C 21.542,20.107 22.186,19.735 22.186,19.735 C 22.05,20.074 22.119,20.648 22.119,20.648 C 22.492,20.58 23.166,21.021 23.166,21.123 C 22.322,20.919 22.457,21.461 22.254,21.63 C 22.051,21.799 21.746,21.63 21.746,21.63 C 21.746,21.969 21.137,22.611 21.137,22.611 C 20.733,22.375 20.258,22.442 20.258,22.442 C 20.529,22.781 19.953,23.254 19.953,23.254 C 19.683,22.848 19.683,22.51 19.683,22.51 C 19.683,22.51 18.971,22.239 18.769,22.41 L 18.971,22.747 C 18.725,22.769 18.249,22.611 18.249,22.611 L 18.136,22.724 C 18.407,22.79 18.363,23.017 18.363,23.017 L 18.136,23.039 C 18.497,23.175 17.978,23.468 17.978,23.468 C 18.521,23.626 17.415,24.438 17.415,24.438 C 17.233,24.212 16.783,24.236 16.783,24.236 C 16.489,23.896 16.038,24.257 16.061,24.438 C 16.331,24.123 16.692,24.438 16.692,24.438 C 16.894,24.46 16.85,24.687 16.85,24.687 C 16.579,24.528 16.42,25.318 16.42,25.318 C 16.759,25.318 16.736,25.838 16.736,25.838 C 16.588,25.834 16.58,26.095 16.531,26.221 C 16.531,26.221 16.657,26.348 16.633,26.604 C 16.633,26.604 16.404,26.831 16.328,26.831 C 16.099,26.729 16.049,26.323 16.226,26.196 C 16.226,26.196 15.82,25.792 15.871,25.562 C 15.871,25.562 15.541,25.436 15.465,25.309 C 15.465,25.309 14.958,25.512 14.807,25.689 C 15.339,25.689 15.262,25.918 15.262,26.399 C 15.262,26.399 14.756,26.069 14.426,26.298 C 14.426,26.298 14.197,26.652 14.324,26.957 L 14.652,27.008 C 14.958,26.779 15.186,27.008 15.261,27.236 C 15.973,26.628 15.997,27.618 15.997,27.491 C 15.795,27.186 15.54,27.439 15.54,27.439 C 15.54,27.439 15.058,27.516 14.983,27.769 C 14.983,27.769 14.551,27.516 14.551,27.262 C 14.551,27.262 14.043,27.236 13.892,27.516 C 14.222,27.363 14.526,27.694 14.728,27.92 C 14.728,27.92 15.235,27.92 15.463,28.098 C 15.463,28.098 15.108,28.479 15.16,28.682 C 15.16,28.682 14.931,28.682 14.627,28.53 C 14.627,28.53 14.83,28.936 14.499,28.962 C 14.499,28.962 14.805,29.089 14.906,29.216 C 14.906,29.216 14.906,29.495 14.703,29.47 C 14.703,29.47 14.297,29.621 14.246,29.773 C 14.246,29.773 14.499,29.877 14.424,30.104 C 14.424,30.104 14.754,30.002 14.855,30.104 C 14.855,30.104 14.907,30.255 14.678,30.484 C 14.678,30.484 15.083,30.484 15.235,30.738 C 15.235,30.738 14.983,30.84 15.008,31.17 C 15.008,31.17 14.627,31.17 14.576,31.297 C 14.576,31.297 13.992,31.043 13.916,31.348 C 13.916,31.348 13.916,31.881 13.662,32.21 L 13.135,31.561 L 13.244,31.295 C 13.107,31.158 12.832,31.488 12.832,31.488 C 12.639,31.461 12.639,31.101 12.639,31.101 L 12.418,30.854 C 12.418,30.854 12.501,31.046 12.391,31.158 C 12.694,31.406 12.501,31.625 12.501,31.625 C 12.722,31.873 12.666,32.287 12.666,32.287 C 12.445,32.039 12.336,31.681 12.336,31.681 C 12.143,31.681 12.143,31.461 12.143,31.461 C 11.952,31.625 11.427,31.295 11.427,31.295 C 11.619,31.322 11.84,30.992 11.84,30.992 C 11.674,31.267 11.18,31.158 11.18,31.158 C 10.959,31.267 10.464,31.075 10.353,30.8 C 10.436,31.047 10.133,31.516 9.803,31.322 L 9.812,31.338 C 9.872,31.399 9.965,31.435 10.106,31.439 L 10.014,31.608 C 10.275,31.587 10.33,31.848 10.763,31.597 C 11.194,31.348 11.375,31.62 11.375,31.62 C 11.25,31.746 11.193,31.857 11.193,31.857 C 11.33,31.869 11.738,32.198 11.896,32.095 C 11.738,32.607 11.862,32.89 12.35,32.947 C 12.384,33.23 12.644,33.548 13.085,33.433 C 13.04,33.729 13.257,33.785 13.257,33.785 C 13.234,34.172 13.676,34.614 13.868,34.512 C 14.061,34.41 14.096,34.026 14.015,33.922 C 14.287,34.092 14.73,33.979 14.536,33.526 C 14.616,33.571 14.719,33.786 14.719,33.786 C 14.946,33.583 15.001,33.185 14.865,33.05 C 15.035,33.085 15.205,32.823 15.295,32.857 C 15.455,33.05 15.942,33.198 16.147,32.779 C 16.101,32.721 15.966,32.597 15.966,32.597 L 15.738,32.539 C 15.896,32.381 15.806,32.153 15.806,32.153 C 15.693,32.075 15.579,31.961 15.579,31.961 C 15.839,32.019 15.931,31.883 15.931,31.883 L 16.067,31.995 C 16.135,32.143 16.407,32.097 16.407,32.097 C 16.357,31.597 16.605,31.152 16.878,31.152 C 16.878,30.929 16.928,30.533 17.373,30.632 C 17.373,30.384 17.621,30.286 17.621,30.286 C 17.621,30.286 18.115,30.261 18.189,30.384 L 18.239,30.21 C 18.115,29.864 17.621,29.642 17.447,29.69 L 17.323,29.442 C 17.422,29.096 18.165,29.296 18.165,29.393 C 18.165,29.145 18.512,29.145 18.512,29.145 C 18.141,28.999 17.819,28.478 17.819,28.478 C 18.042,28.602 18.686,28.577 18.686,28.577 C 18.19,28.378 18.29,28.181 18.29,28.181 L 18.017,27.737 C 18.191,27.884 19.132,28.479 19.132,28.479 L 19.396,28.345 C 19.396,28.345 19.107,28.255 19.107,28.083 C 18.91,28.131 18.538,27.959 18.538,27.959 C 18.217,27.736 18.365,27.265 18.365,27.265 C 18.217,27.142 18.043,26.919 18.043,26.919 C 18.043,27.117 17.796,27.315 17.796,27.315 C 17.796,27.315 17.475,27.167 17.424,27.043 C 17.375,26.919 17.279,26.441 17.638,26.358 C 17.93,26.268 18.201,26.901 18.201,26.901 C 18.246,26.63 18.403,26.223 18.403,26.223 L 18.675,26.223 C 18.675,26.223 18.786,26.517 18.765,26.743 C 18.945,26.878 18.629,27.216 18.629,27.216 C 18.809,27.216 18.831,27.487 18.831,27.487 C 18.944,27.081 19.372,27.035 19.531,27.058 C 19.688,27.08 19.914,27.419 19.914,27.645 C 19.914,27.87 19.662,28.211 19.572,28.211 C 19.46,28.368 19.891,28.389 19.983,28.41 C 20.184,28.096 20.861,27.892 21.043,27.96 C 21.29,27.982 21.11,28.389 21.11,28.389 C 21.312,28.389 21.833,28.524 21.833,28.524 C 21.787,28.254 21.833,28.073 21.833,28.073 C 22.103,28.029 22.599,28.322 22.599,28.322 C 22.712,27.983 23.028,27.961 23.208,28.073 C 23.591,27.893 23.93,27.509 24.675,27.87 L 24.505,28.049 L 24.811,27.962 C 24.811,27.962 25.162,27.983 25.423,27.983 C 25.427,27.979 25.143,28.262 25.274,28.547"
         id="XMLID_15_" />
    </defs>
  </defs>
  <sodipodi:namedview
     inkscape:window-maximized="1"
     inkscape:document-rotation="0"
     inkscape:window-y="-8"
     inkscape:window-x="-8"
     inkscape:window-height="1377"
     inkscape:window-width="2560"
     inkscape:document-units="px"
     inkscape:grid-bbox="true"
     showgrid="true"
     inkscape:current-layer="layer1"
     inkscape:cy="23.015545"
     inkscape:cx="26.291472"
     inkscape:zoom="19.79899"
     inkscape:pageshadow="2"
     inkscape:pageopacity="0.0"
     borderopacity="1.0"
     bordercolor="#666666"
     pagecolor="#ffffff"
     id="base" />
  <metadata
     id="metadata39724">
    <rdf:RDF>
      <cc:Work
         rdf:about="">
        <dc:format>image/svg+xml</dc:format>
        <dc:type
           rdf:resource="http://purl.org/dc/dcmitype/StillImage" />
        <dc:title></dc:title>
      </cc:Work>
    </rdf:RDF>
  </metadata>
  <g
     inkscape:groupmode="layer"
     inkscape:label="Layer 1"
     id="layer1">
    <path
       i:knockout="Off"
       d="M 25.64,43.306 C 25.768,43.324 25.732,43.506 25.749,43.634 C 25.85,43.574 25.913,43.327 25.969,43.525"
       id="path37744"
       style="fill:#00a9b2;fill-opacity:1" />
    <path
       i:knockout="Off"
       d="M 20.82,43.853 C 20.733,43.876 20.711,43.962 20.601,43.962"
       id="path37746"
       style="fill:#00a9b2;fill-opacity:1" />
    <path
       i:knockout="Off"
       d="M 20.82,43.853 C 20.943,43.835 20.88,43.744 20.82,43.744"
       id="path37748"
       style="fill:#00a9b2;fill-opacity:1" />
    <path
       i:knockout="Off"
       d="M 20.601,43.962 C 20.523,44.387 21.144,44.035 21.258,43.962 C 21.112,43.692 20.929,44.159 20.82,43.853"
       id="path37750"
       style="fill:#00a9b2;fill-opacity:1" />
    <path
       i:knockout="Off"
       d="M 16.657,46.153 C 16.921,46.198 16.893,45.952 17.204,46.044 C 17.223,46.355 16.876,46.3 16.876,46.592 C 16.78,46.524 16.679,46.46 16.657,46.592 C 16.374,46.564 16.808,46.404 16.657,46.153"
       id="path37752"
       style="fill:#00a9b2;fill-opacity:1" />
    <path
       i:knockout="Off"
       d="M 28.971,47.562 C 29.181,47.767 29.244,47.576 29.519,47.562 C 29.473,47.849 29.177,47.882 28.971,48 L 28.971,47.562 z "
       id="path37754"
       style="fill:#00a9b2;fill-opacity:1" />
    <path
       i:knockout="Off"
       d="M 27.109,47.124 C 27.181,46.882 27.862,47.525 27.985,47.233 C 28.315,47.398 27.903,47.725 27.657,47.671 C 27.871,47.297 27.72,47.411 27.328,47.452 C 27.232,47.366 27.263,47.151 27.109,47.124"
       id="path37756"
       style="fill:#00a9b2;fill-opacity:1" />
    <path
       i:knockout="Off"
       d="M 27.546,45.919 C 27.665,45.946 27.62,46.138 27.765,46.138 C 27.698,46.471 27.524,46.699 27.109,46.686 C 27.085,46.266 27.62,46.394 27.546,45.919"
       id="path37758"
       style="fill:#00a9b2;fill-opacity:1" />
    <path
       i:knockout="Off"
       d="M 19.614,45.496 C 20.372,45.368 19.88,45.884 20.491,45.605 C 20.464,46.189 20.044,45.692 19.723,45.934 C 19.705,45.842 19.764,45.833 19.832,45.825 C 19.761,45.716 19.583,45.71 19.614,45.496"
       id="path37760"
       style="fill:#00a9b2;fill-opacity:1" />
    <path
       i:knockout="Off"
       d="M 28.204,47.124 L 28.204,46.686 C 28.455,46.988 28.757,46.946 28.642,46.356 C 29.007,46.818 28.985,46.197 29.519,46.248 C 29.345,46.622 28.669,46.705 28.971,47.234 C 28.642,47.211 28.597,47.64 28.315,47.343 C 28.468,47.183 28.665,47.11 28.204,47.124"
       id="path37762"
       style="fill:#00a9b2;fill-opacity:1" />
    <path
       i:knockout="Off"
       d="M 26.78,45.261 C 26.934,45.399 27.03,45.681 26.888,45.81 C 26.73,45.714 26.541,45.645 26.56,45.371 C 26.69,45.39 26.757,45.348 26.78,45.261"
       id="path37764"
       style="fill:#00a9b2;fill-opacity:1" />
    <path
       i:knockout="Off"
       d="M 26.78,45.919 C 26.876,46.01 26.843,46.22 26.999,46.247 C 26.774,46.493 26.341,46.53 25.903,46.355 C 26.026,46.224 26.214,46.16 26.122,45.809 C 26.51,45.846 26.392,46.11 26.78,45.919"
       id="path37766"
       style="fill:#00a9b2;fill-opacity:1" />
    <path
       i:knockout="Off"
       d="M 24.37,45.81 C 24.388,45.686 24.48,45.749 24.48,45.81 C 24.79,45.9 24.762,45.654 25.026,45.7 C 24.674,45.563 24.926,45.221 25.356,45.262 C 25.292,45.705 25.679,45.207 26.012,45.371 C 25.934,45.715 25.72,45.514 25.465,45.48 C 25.971,45.782 25.326,45.988 25.903,46.138 C 25.835,46.238 25.771,46.333 25.903,46.356 C 25.501,46.677 25.135,46.371 24.807,46.686 C 24.967,46.43 25.039,46.48 24.916,46.138 C 25.209,46.435 25.332,46.001 25.573,45.919 C 25.605,45.667 25.259,45.796 25.244,45.59 C 25.035,45.745 24.93,46.005 24.588,46.028 C 24.538,45.933 24.493,45.831 24.37,45.81"
       id="path37768"
       style="fill:#00a9b2;fill-opacity:1" />
    <path
       i:knockout="Off"
       d="M 15.342,45.058 C 15.589,44.73 16.127,44.939 16.218,45.386 C 15.999,45.35 15.876,45.409 15.89,45.606 C 15.653,45.406 15.087,45.533 14.685,45.497 C 14.914,45.268 15.21,45.1 15.562,45.277 C 15.648,45.259 15.671,45.168 15.781,45.168 C 15.685,44.848 15.616,45.044 15.342,45.058"
       id="path37770"
       style="fill:#00a9b2;fill-opacity:1" />
    <path
       i:knockout="Off"
       d="M 20.82,44.839 C 20.487,44.761 20.496,45.03 20.163,44.948 C 20.437,44.757 20.241,44.77 20.383,44.51 C 20.702,44.593 20.738,44.829 20.93,44.62 C 21.196,44.893 20.944,45.578 20.602,45.605 C 20.591,45.268 20.947,45.296 20.82,44.839"
       id="path37772"
       style="fill:#00a9b2;fill-opacity:1" />
    <path
       i:knockout="Off"
       d="M 19.286,44.62 C 19.542,45.061 19.468,44.533 19.833,44.51 C 19.815,45.04 19.145,45.126 19.396,45.606 C 19.163,45.656 19.185,45.451 19.176,45.277 C 18.997,45.246 18.988,45.382 18.847,45.386 C 18.92,45.501 19.098,45.501 19.067,45.716 C 18.715,45.528 18.359,45.834 18.081,45.716 C 18.181,45.524 18.423,45.474 18.738,45.496 C 17.848,45.267 18.76,44.843 18.738,45.276 C 19.122,45.364 19.085,44.648 19.286,45.167 C 19.607,45.076 19.222,44.815 19.286,44.62"
       id="path37774"
       style="fill:#00a9b2;fill-opacity:1" />
    <path
       i:knockout="Off"
       d="M 21.915,44.401 C 21.705,44.327 22.034,44.23 22.024,44.401 C 22.207,44.099 22.311,44.35 22.682,44.181 C 22.814,44.641 22.221,44.377 22.133,44.619 C 22.016,44.593 22.062,44.405 21.915,44.401"
       id="path37776"
       style="fill:#00a9b2;fill-opacity:1" />
    <path
       i:knockout="Off"
       d="M 28.737,45.041 C 29.09,44.466 29.774,44.698 30.272,44.713 C 29.935,45.214 29.058,44.694 28.737,45.041"
       id="path37778"
       style="fill:#00a9b2;fill-opacity:1" />
    <path
       i:knockout="Off"
       d="M 28.628,44.933 C 28.373,44.695 28.263,45.214 27.752,45.041 C 27.747,45.374 28.145,45.306 28.081,45.698 C 28.022,45.297 27.428,45.434 27.314,45.37 C 27.217,45.47 28.314,44.355 28.299,44.822 C 28.463,44.657 28.463,44.334 28.847,44.384 C 28.802,44.595 28.532,44.585 28.628,44.933"
       id="path37780"
       style="fill:#00a9b2;fill-opacity:1" />
    <path
       i:knockout="Off"
       d="M 25.312,44.839 C 25.033,44.843 25.179,44.757 25.202,44.62 C 25.011,44.587 24.613,44.972 24.654,44.51 C 24.946,44.692 25.278,44.3 25.312,44.839"
       id="path37782"
       style="fill:#00a9b2;fill-opacity:1" />
    <path
       i:knockout="Off"
       d="M 22.134,43.962 C 22.527,43.743 22.782,44.081 23.231,43.853 C 23.39,44.113 23.462,44.059 23.339,44.402 C 23.558,44.292 23.513,43.918 23.887,43.963 C 23.827,44.232 23.632,44.365 23.449,44.511 C 23.614,44.65 23.943,44.27 24.217,44.621 C 24.321,44.621 24.303,44.488 24.326,44.402 C 24.281,44.242 24.184,44.447 23.998,44.402 C 24.568,43.767 24.308,44.867 24.874,44.84 C 24.695,45.328 23.19,44.388 23.34,44.949 C 23.277,45.214 23.026,44.683 23.232,44.621 C 22.92,44.529 22.948,44.775 22.684,44.73 C 22.719,44.437 23.13,44.539 23.232,44.072 C 23.25,43.981 23.191,43.972 23.122,43.963 C 22.96,44.437 22.769,44.077 22.134,43.962"
       id="path37784"
       style="fill:#00a9b2;fill-opacity:1" />
    <path
       i:knockout="Off"
       d="M 18.628,43.853 C 18.788,43.917 18.423,44.369 18.19,44.402 C 18.221,44.333 18.463,43.981 18.19,43.963 C 18.222,43.579 18.597,44.236 18.628,43.853"
       id="path37786"
       style="fill:#00a9b2;fill-opacity:1" />
    <path
       i:knockout="Off"
       d="M 30.57,43.634 C 30.597,43.515 30.789,43.561 30.789,43.415 C 31.055,43.483 30.566,43.876 31.009,43.853 C 30.789,44.19 31.151,44.423 30.9,44.73 C 30.767,44.387 30.732,44.456 30.79,43.853 C 30.554,43.785 30.444,44.164 30.462,43.744 C 30.72,43.835 30.967,43.588 30.57,43.634"
       id="path37788"
       style="fill:#00a9b2;fill-opacity:1" />
    <path
       i:knockout="Off"
       d="M 34.185,44.071 C 34.121,44.176 33.879,44.241 34.076,44.291 C 33.967,44.474 33.569,44.368 33.528,44.62 C 33.724,44.88 34.017,44.313 34.404,44.401 C 34.414,44.104 34.222,44.181 34.404,43.962"
       id="path37790"
       style="fill:#00a9b2;fill-opacity:1" />
    <path
       i:knockout="Off"
       d="M 33.198,44.071 C 33.066,44.217 33.157,44.245 33.198,44.401 C 33.39,44.13 33.673,44.222 33.856,44.071"
       id="path37792"
       style="fill:#00a9b2;fill-opacity:1" />
    <path
       i:knockout="Off"
       d="M 31.884,43.743 C 32.144,43.711 32.09,43.364 32.433,43.415 C 32.427,43.524 32.3,43.501 32.213,43.524 C 32.181,43.702 32.317,43.715 32.322,43.852 C 32.45,43.871 32.518,43.83 32.542,43.743"
       id="path37794"
       style="fill:#00a9b2;fill-opacity:1" />
    <path
       i:knockout="Off"
       d="M 31.008,43.086 C 31.213,43.296 30.945,43.286 31.008,43.634 C 31.104,43.798 31.172,43.606 31.446,43.743"
       id="path37796"
       style="fill:#00a9b2;fill-opacity:1" />
    <path
       i:knockout="Off"
       d="M 30.679,43.086 C 29.949,42.94 30.031,43.086 30.241,43.634 C 30.341,43.556 30.405,43.438 30.46,43.306"
       id="path37798"
       style="fill:#00a9b2;fill-opacity:1" />
    <path
       i:knockout="Off"
       d="M 28.817,43.306 C 29.211,43.858 29.132,43.699 29.694,43.962 C 29.84,43.853 29.908,43.665 30.132,43.634 C 30.071,43.479 29.962,43.368 29.803,43.306"
       id="path37800"
       style="fill:#00a9b2;fill-opacity:1" />
    <path
       i:knockout="Off"
       d="M 27.722,43.524 C 27.726,43.633 27.854,43.61 27.941,43.633 C 27.9,43.377 28.384,43.528 28.16,43.085 L 28.269,43.085"
       id="path37802"
       style="fill:#00a9b2;fill-opacity:1" />
    <path
       i:knockout="Off"
       d="M 26.626,43.634 C 26.845,43.638 26.768,43.935 27.064,43.853 C 27.059,43.748 26.93,43.771 26.844,43.744 C 26.867,43.589 27.172,43.707 27.172,43.525"
       id="path37804"
       style="fill:#00a9b2;fill-opacity:1" />
    <path
       i:knockout="Off"
       d="M 26.626,43.962 C 26.612,44.067 26.607,44.615 26.407,44.73 C 26.923,45.036 26.913,43.88 26.626,43.744"
       id="path37806"
       style="fill:#00a9b2;fill-opacity:1" />
    <path
       i:knockout="Off"
       d="M 26.077,43.743 C 26.196,44.071 25.649,44.218 25.421,44.51 C 25.609,44.615 25.64,44.876 25.859,44.948 C 25.96,44.811 25.722,44.774 25.75,44.401 C 25.947,44.414 25.982,44.268 26.188,44.291 C 25.568,44.843 26.804,44.346 26.188,44.182 C 26.202,43.794 26.548,44.414 26.517,44.072"
       id="path37808"
       style="fill:#00a9b2;fill-opacity:1" />
    <path
       i:knockout="Off"
       d="M 25.53,43.524 C 25.484,43.648 24.75,43.797 25.311,43.852 C 25.215,44.012 25.224,44.277 24.873,44.181 C 24.964,44.504 25.225,44.118 25.421,44.181 C 25.179,44.026 25.558,43.916 25.312,43.852 C 25.389,43.574 25.937,44.118 25.969,43.633"
       id="path37810"
       style="fill:#00a9b2;fill-opacity:1" />
    <path
       i:knockout="Off"
       d="M 24.216,43.524 C 24.517,43.624 23.882,43.77 24.216,43.962 C 24.343,43.944 24.307,43.762 24.325,43.634 C 24.475,43.67 24.417,43.907 24.434,44.072 C 24.612,44.105 24.622,43.972 24.762,43.963 C 24.927,43.918 24.717,43.822 24.762,43.635 C 25.028,43.681 25,43.434 25.311,43.526"
       id="path37812"
       style="fill:#00a9b2;fill-opacity:1" />
    <path
       i:knockout="Off"
       d="M 20.491,43.743 C 20.468,43.588 20.162,43.706 20.162,43.524"
       id="path37814"
       style="fill:#00a9b2;fill-opacity:1" />
    <path
       i:knockout="Off"
       d="M 20.82,43.743 C 20.674,43.876 20.647,43.788 20.492,43.743"
       id="path37816"
       style="fill:#00a9b2;fill-opacity:1" />
    <path
       i:knockout="Off"
       d="M 19.724,43.415 C 19.702,43.506 19.615,43.524 19.615,43.634 C 19.524,43.615 19.51,43.68 19.506,43.743 C 19.346,43.698 19.515,43.648 19.506,43.524 C 18.744,43.688 19.433,43.98 19.398,44.291 C 19.831,44.259 19.274,43.912 19.725,43.962 C 19.612,44.373 19.958,44.318 20.054,44.51 C 20.218,44.464 20.008,44.373 20.054,44.182 C 20.547,44.474 20.51,44.242 21.149,44.291 C 21.405,44.259 21.213,43.77 21.588,43.853 C 21.483,43.707 21.218,43.711 21.149,43.525 C 21.004,43.789 20.93,43.593 20.821,43.744"
       id="path37818"
       style="fill:#00a9b2;fill-opacity:1" />
    <path
       i:knockout="Off"
       d="M 17.861,43.634 C 18.085,43.364 18.309,43.999 18.628,43.634"
       id="path37820"
       style="fill:#00a9b2;fill-opacity:1" />
    <path
       i:knockout="Off"
       d="M 18.628,43.634 C 18.331,43.446 18.013,43.15 17.861,43.634"
       id="path37822"
       style="fill:#00a9b2;fill-opacity:1" />
    <path
       i:knockout="Off"
       d="M 19.724,43.415 C 19.345,43.337 19.094,43.487 18.628,43.634"
       id="path37824"
       style="fill:#00a9b2;fill-opacity:1" />
    <line
       i:knockout="Off"
       x1="25.969002"
       y1="43.633999"
       x2="25.969002"
       y2="43.523998"
       id="line37826"
       style="fill:#00a9b2;fill-opacity:1" />
    <path
       i:knockout="Off"
       d="M 26.077,43.743 C 26.097,43.651 26.036,43.643 25.969,43.634"
       id="path37828"
       style="fill:#00a9b2;fill-opacity:1" />
    <path
       i:knockout="Off"
       d="M 26.517,44.071 C 26.562,43.77 26.107,43.971 26.078,43.743"
       id="path37830"
       style="fill:#00a9b2;fill-opacity:1" />
    <path
       i:knockout="Off"
       d="M 26.626,43.962 C 26.644,44.059 26.585,44.067 26.517,44.071"
       id="path37832"
       style="fill:#00a9b2;fill-opacity:1" />
    <line
       i:knockout="Off"
       x1="26.625999"
       y1="43.743"
       x2="26.625999"
       y2="43.961998"
       id="line37834"
       style="fill:#00a9b2;fill-opacity:1" />
    <line
       i:knockout="Off"
       x1="26.625999"
       y1="43.633999"
       x2="26.625999"
       y2="43.743"
       id="line37836"
       style="fill:#00a9b2;fill-opacity:1" />
    <path
       i:knockout="Off"
       d="M 26.845,43.086 C 26.616,43.113 26.815,43.569 26.626,43.634"
       id="path37838"
       style="fill:#00a9b2;fill-opacity:1" />
    <path
       i:knockout="Off"
       d="M 31.446,43.743 C 31.61,43.429 31.286,43.245 31.774,43.195 C 31.381,42.803 31.441,43.506 31.007,43.086"
       id="path37840"
       style="fill:#00a9b2;fill-opacity:1" />
    <path
       i:knockout="Off"
       d="M 31.884,43.743 C 31.72,43.615 31.607,43.615 31.446,43.743"
       id="path37842"
       style="fill:#00a9b2;fill-opacity:1" />
    <path
       i:knockout="Off"
       d="M 31.775,43.524 C 31.794,43.615 31.884,43.633 31.884,43.743"
       id="path37844"
       style="fill:#00a9b2;fill-opacity:1" />
    <path
       i:knockout="Off"
       d="M 32.542,43.743 C 31.952,43.465 33.231,43.419 32.761,42.976"
       id="path37846"
       style="fill:#00a9b2;fill-opacity:1" />
    <path
       i:knockout="Off"
       d="M 33.198,44.071 C 33.112,43.975 33.08,43.825 33.089,43.633 C 32.778,43.541 32.806,43.787 32.542,43.742"
       id="path37848"
       style="fill:#00a9b2;fill-opacity:1" />
    <path
       i:knockout="Off"
       d="M 33.857,44.071 C 33.56,43.944 33.583,44.023 33.199,44.071"
       id="path37850"
       style="fill:#00a9b2;fill-opacity:1" />
    <line
       i:knockout="Off"
       x1="34.185001"
       y1="44.070999"
       x2="33.856998"
       y2="44.070999"
       id="line37852"
       style="fill:#00a9b2;fill-opacity:1" />
    <path
       i:knockout="Off"
       d="M 34.403,43.962 C 34.317,43.985 34.294,44.071 34.184,44.071"
       id="path37854"
       style="fill:#00a9b2;fill-opacity:1" />
    <path
       id="path37868"
       d="M 20.434,33.748001 C 20.434,33.748001 20.434,33.748001 20.434,33.748001 z "
       style="fill:none;stroke:#104c22;stroke-width:1.25" />
    <path
       id="path37874"
       d="M 34.830002,32.428001 C 34.703487,32.287428 34.766731,32.3577 34.830002,32.428001 z "
       style="fill:none;stroke:#104c22;stroke-width:1.25" />
    <path
       id="path37876"
       d="M 21.641001,32.639 C 21.647165,31.283216 19.309854,32.704796 19.381741,33.203384 C 19.724907,31.83746 18.068363,34.131686 18.404512,32.478518 C 18.802479,31.444041 16.918262,31.466125 18.423804,31.314521 C 18.670226,29.659248 21.989777,32.556574 22.009145,30.327451 C 21.897458,28.806315 23.321961,30.403037 22.866422,31.274464 C 22.914017,32.131606 22.717876,34.323049 21.641001,32.639 z "
       style="fill:none;stroke:#104c22;stroke-width:1.25" />
    <path
       style="fill-opacity:1;fill:#00a9b2;stroke:#008f96;stroke-opacity:1;stroke-width:0.5;stroke-miterlimit:4;stroke-dasharray:none"
       id="use37886"
       d="M 41.816,24.315 L 41.558,24.211 C 41.558,24.211 41.36,24.277 41.254,24.41 L 41.14,24.476 C 41.112,24.191 40.732,23.962 40.378,23.999 C 40.378,23.999 40.748,24.238 40.92,24.435 C 40.934,24.448 40.94,24.456 40.94,24.456 C 40.934,24.45 40.927,24.442 40.92,24.435 C 40.884,24.4 40.787,24.328 40.578,24.314 C 40.293,24.296 40.255,24.629 40.378,24.819 C 40.378,24.819 40.007,24.706 39.912,24.81 L 40.131,25.01 C 40.131,25.01 40.311,25.066 40.436,25.267 C 40.436,25.267 39.998,25.01 39.873,25.162 C 39.873,25.162 39.674,24.953 39.435,25.019 C 39.435,25.019 39.493,24.915 39.608,24.915 C 39.579,24.877 39.503,24.706 39.161,24.838 C 39.161,24.838 39.046,24.467 38.893,24.477 C 38.893,24.477 38.789,24.506 38.704,24.61 C 38.6,24.125 38.056,24.001 37.808,24.078 C 37.769,23.821 37.426,23.544 37.18,23.544 C 37.18,23.544 37.17,23.364 37.075,23.298 L 37.2,23.278 C 37.2,23.278 37.533,23.525 37.722,23.516 L 37.712,23.221 L 37.741,23.135 C 37.741,23.135 37.885,23.249 37.989,23.268 C 38.093,23.288 38.541,23.068 38.494,22.907 C 38.446,22.745 38.027,22.669 37.893,22.983 C 37.893,22.983 37.779,22.592 37.617,22.592 C 37.826,22.496 37.732,22.259 37.597,22.125 C 37.702,22.087 37.673,22.01 37.617,21.982 L 37.826,21.849 C 38.103,21.658 37.959,21.574 37.856,21.582 L 37.931,21.409 C 37.931,21.409 37.968,21.506 38.216,21.506 C 38.464,21.506 38.626,21.392 38.626,21.22 C 38.626,21.049 38.294,20.915 38.054,21.154 C 38.054,21.154 38.054,20.736 37.981,20.563 C 37.981,20.563 38.123,20.326 38.16,20.23 C 38.16,20.23 38.437,20.172 38.407,19.955 C 38.531,19.955 39.047,19.67 38.94,19.25 C 39.189,19.373 39.312,19.098 39.312,18.991 C 39.473,19.04 39.683,18.755 39.482,18.584 C 39.482,18.584 39.664,18.526 39.873,18.384 C 40.083,18.241 40.235,18.26 40.406,18.326 C 40.302,18.155 40.073,18.099 39.856,18.241 C 39.856,18.241 39.627,18.031 39.445,18.155 C 39.445,18.155 39.216,18.031 39.198,17.926 C 39.18,17.821 39.273,17.697 39.283,17.63 C 39.283,17.63 39.75,17.926 39.949,17.993 C 39.817,17.546 39.674,17.391 39.349,17.468 L 39.522,17.308 C 39.522,17.308 39.693,17.308 39.893,17.126 C 40.092,16.945 40.015,16.764 39.72,16.784 C 39.72,16.784 40.015,16.392 39.893,16.117 C 39.893,16.117 39.512,16.25 39.426,16.526 C 39.368,16.288 38.892,16.155 38.712,16.25 C 38.712,16.25 38.911,16.337 38.997,16.507 C 38.997,16.507 38.797,16.669 38.835,16.812 C 38.835,16.812 38.731,16.736 38.663,16.785 C 38.663,16.785 38.855,16.346 38.511,16.328 C 38.511,16.328 38.388,15.994 38.113,16.042 L 38.132,15.957 C 38.341,15.994 38.531,15.727 38.426,15.633 C 38.426,15.633 38.637,15.5 38.798,15.319 C 38.798,15.319 38.379,15.376 38.283,15.624 C 38.283,15.624 38.084,15.376 37.885,15.376 C 37.885,15.376 38.512,14.824 38.283,14.663 C 38.351,14.634 38.332,14.395 38.113,14.329 C 38.113,14.329 38.636,14.043 38.636,13.892 C 38.731,14.063 39.102,14.024 39.302,13.938 C 39.302,13.938 39.14,13.804 38.921,13.776 C 38.921,13.776 39.33,13.711 39.749,13.796 C 39.749,13.796 39.626,13.682 39.55,13.607 L 39.701,13.541 C 39.701,13.541 39.12,13.311 38.969,13.455 C 38.969,13.455 38.845,13.283 38.675,13.34 C 38.797,13.225 38.722,12.844 38.558,12.807 C 38.558,12.807 38.712,12.664 38.654,12.522 C 38.683,12.436 39.027,12.532 39.331,12.598 C 39.331,12.426 38.904,12.131 38.904,12.131 C 38.904,12.131 38.511,11.988 38.446,12.276 C 38.446,12.276 38.17,12.198 38.207,12.598 C 38.207,12.598 38.036,12.34 37.789,12.464 C 37.789,12.464 38.074,12.055 37.769,12.121 C 37.769,12.121 37.884,11.932 37.789,11.75 C 37.789,11.75 37.465,11.895 37.351,12.14 C 37.351,12.14 37.131,11.922 36.96,11.932 C 36.96,11.932 36.931,12.227 37.198,12.502 C 36.731,12.303 36.883,13.064 37.064,13.416 C 37.064,13.416 36.789,13.369 36.702,13.607 C 36.702,13.607 36.569,13.396 36.341,13.663 C 36.113,13.93 36.017,13.607 36.122,13.559 C 36.149,13.559 36.522,13.541 36.589,13.322 C 36.656,13.103 36.456,13.055 36.322,13.102 C 36.322,13.102 36.407,12.913 36.616,12.94 C 36.616,12.94 36.493,12.78 36.349,12.807 L 36.483,12.664 C 36.284,12.426 36.026,12.473 35.913,12.787 C 35.855,12.691 35.618,12.674 35.532,12.835 C 35.532,12.835 35.274,12.758 34.989,12.939 C 34.989,12.939 35.227,12.664 35.294,12.597 C 35.294,12.597 35.065,12.511 34.884,12.606 C 34.884,12.521 34.722,12.246 34.513,12.273 C 34.913,11.911 34.981,11.339 34.751,11.216 C 35.027,11.111 34.913,10.883 34.761,10.825 C 35.083,10.712 35.161,10.52 35.114,10.444 C 35.484,10.321 35.828,10.768 35.894,10.967 C 35.97,10.633 35.693,10.281 35.228,10.301 C 35.228,10.301 35.656,9.9389997 35.513,9.9099997 C 35.513,9.9099997 35.779,9.7669997 35.779,9.6429997 C 35.779,9.6429997 36.133,9.3109997 36.342,9.0249997 C 36.342,9.0249997 35.828,9.2139997 35.809,9.4249997 C 35.809,9.4249997 35.733,9.3389997 35.694,9.3859997 C 35.694,8.9289997 35.543,8.8329997 35.362,8.7279997 C 35.362,8.7279997 35.323,8.9779997 35.448,9.2069997 C 35.448,9.2069997 35.153,9.1389997 35.038,9.1969997 L 35.21,8.9959997 L 35.01,8.9379997 C 35.01,8.9379997 34.62,9.1479997 34.734,9.3959997 C 34.734,9.3959997 34.411,9.2439997 34.25,9.3959997 C 34.307,9.3019997 34.002,9.0049997 33.85,9.1759997 C 33.85,9.1759997 33.86,8.9009997 33.727,8.8429997 C 33.727,8.8429997 33.869,8.7199997 33.984,8.6339997 C 34.098,8.5479997 33.9,8.3759997 33.879,8.4619997 C 33.86,8.5479997 33.612,8.5379997 33.632,8.3379997 C 33.651,8.1399997 33.927,8.2999997 34.099,8.5289997 C 34.136,8.4529997 34.089,8.0439997 33.956,7.8529997 C 34.089,7.7949997 34.327,7.9679997 34.394,7.9279997 C 34.46,7.8909997 34.308,7.7769997 34.165,7.7289997 C 34.308,7.7089997 34.44,7.3379997 34.298,7.2529997 C 34.45,6.8059997 34.726,7.0919997 34.784,7.2429997 C 34.917,6.8519997 34.47,6.6429997 34.165,6.7099997 C 34.165,6.7099997 34.355,6.3489997 33.984,6.3569997 C 34.327,6.2339997 34.715,5.4239997 34.737,5.1579997 L 34.489,5.3099997 C 34.489,5.3099997 34.384,5.5479997 34.28,5.6059997 C 34.28,5.6059997 34.241,5.4439997 34.289,5.3569997 C 34.289,5.3569997 33.984,5.2909997 33.927,5.1479997 C 33.927,5.1479997 34.251,4.9659997 34.318,4.7959997 C 34.318,4.7959997 34.099,4.8229997 33.861,4.9389997 C 33.861,4.9389997 34.005,4.6439997 34.005,4.4819997 C 34.005,4.4819997 33.908,4.3489997 33.699,4.4719997 L 33.709,4.3959997 C 33.709,4.3959997 33.452,4.4249997 33.452,4.6529997 C 33.452,4.6529997 33.27,4.7109997 33.185,4.8429997 C 33.185,4.8429997 33.05,4.7589997 33.089,4.6619997 C 33.089,4.6619997 33.403,4.2429997 33.223,3.9479997 C 33.223,3.9479997 32.966,4.0139997 32.976,4.3769997 C 32.976,4.3769997 32.794,4.2619997 32.699,4.3679997 C 32.642,4.3189997 32.832,3.8899997 32.671,3.9479997 C 32.757,3.5379997 32.443,3.5009997 32.414,3.5009997 C 32.386,3.5009997 32.091,3.4909997 32.043,3.9389997 C 31.938,3.7959997 31.527,3.4709997 31.225,3.7389997 C 31.311,3.4709997 30.777,3.2149997 30.777,3.6339997 C 30.777,3.6339997 30.51,3.4529997 30.301,3.5479997 C 30.349,3.5479997 30.397,3.7009997 30.653,3.8239997 C 30.653,3.8239997 30.415,3.8349997 30.368,4.0329997 C 30.341,3.9099997 30.054,3.8429997 29.968,4.0239997 C 29.884,3.6239997 29.407,3.6619997 29.254,3.7579997 C 29.254,3.7579997 29.407,3.3099997 29.254,3.1659997 C 29.464,3.3099997 29.702,2.8809997 29.997,2.6899997 C 29.997,2.6899997 30.017,2.5459997 29.731,2.6229997 C 29.731,2.6229997 29.758,2.4339997 29.758,2.3279997 C 29.596,2.5009997 29.151,2.5469997 29.236,2.9569997 C 29.236,2.9569997 29.13,2.7759997 29.016,2.8609997 C 28.987,2.6989997 28.473,2.4909997 28.245,2.8899997 C 28.245,2.8899997 28.073,2.6709997 27.864,2.7469997 C 27.864,2.7469997 27.788,2.3659997 27.454,2.5459997 L 27.674,2.2509997 C 27.674,2.2509997 27.741,2.0619997 27.445,2.0319997 C 27.445,2.0319997 27.245,2.0319997 27.236,1.8699997 C 27.245,1.5759997 27.54,0.8809997 27.38,0.8809997 C 27.218,0.8809997 27.083,1.2049997 27.16,1.5579997 C 27.16,1.5579997 26.923,1.3569997 26.827,1.4059997 C 26.827,1.4059997 26.855,1.3009997 26.855,1.2539997 C 26.855,1.2059997 26.569,1.1859997 26.465,1.2919997 C 26.361,1.3959997 26.541,1.4999997 26.77,1.5479997 C 26.77,1.5479997 26.749,1.7199997 26.951,1.9569997 C 26.951,1.9569997 26.731,1.9669997 26.722,2.1659997 C 26.722,2.1659997 26.618,2.0809997 26.493,2.1009997 C 26.493,2.1009997 26.618,1.9289997 26.627,1.8439997 C 26.636,1.7589997 26.437,1.6249997 26.274,1.8049997 C 26.274,1.7289997 26.102,1.6349997 25.779,1.7099997 C 25.779,1.7099997 25.865,1.7769997 25.903,1.8999997 C 25.903,1.8999997 25.684,1.6909997 25.512,2.1839997 C 25.512,2.1479997 25.486,1.8509997 25.303,1.7469997 C 25.34,1.6899997 25.321,1.4519997 25.141,1.4339997 C 24.96,1.4149997 24.941,1.6439997 24.809,1.7379997 C 24.675,1.8339997 25.065,1.2059997 24.78,1.0149997 C 24.532,1.0909997 24.436,1.4429997 24.551,1.7009997 C 24.512,1.7279997 24.141,1.4709997 23.998,1.5189997 C 23.855,1.5669997 23.97,1.6909997 24.123,1.8039997 C 24.123,1.8039997 24.102,1.8429997 23.96,1.9559997 C 24.123,1.8989997 24.293,2.0419997 24.541,2.1759997 C 24.541,2.1759997 24.273,2.1269997 24.207,2.2419997 C 24.151,2.2139997 23.894,2.0609997 23.723,2.1759997 C 23.723,2.0989997 23.551,2.0719997 23.465,2.2799997 C 23.309,2.1989997 23.272,2.3519997 23.242,2.3319997 C 23.214,2.3129997 22.984,1.8849997 22.814,1.8849997 C 22.642,1.8849997 22.556,2.1609997 22.89,2.3519997 C 22.775,2.3629997 22.593,2.5509997 22.593,2.5509997 C 22.738,2.5509997 23.281,2.7989997 23.384,2.7989997 L 24.127,3.9889997 L 23.992,4.0859997 L 23.799,3.9609997 C 23.811,3.8589997 23.528,3.8139997 23.561,4.1879997 C 23.504,4.1319997 23.288,4.1759997 23.288,4.1759997 C 23.335,4.1099997 23.392,4.0199997 23.392,4.0199997 C 23.267,3.9609997 23.006,4.0199997 22.96,4.4379997 L 22.745,4.8559997 L 22.563,4.7099997 C 22.655,4.3699997 22.938,4.1549997 22.938,4.1549997 C 22.859,3.9849997 22.575,4.0199997 22.53,4.0749997 C 22.575,3.8039997 22.608,3.2249997 22.235,3.9389997 C 22.031,3.8029997 21.736,3.9949997 21.736,3.9949997 C 21.769,4.1099997 21.919,4.3489997 21.919,4.3489997 C 21.736,4.2809997 21.714,4.5639997 21.714,4.5639997 C 21.567,4.4839997 21.193,4.5289997 21.274,4.8239997 C 21.325,5.0209997 21.407,5.1069997 21.457,5.1399997 C 21.472,5.1499997 21.484,5.1559997 21.5,5.1649997 C 21.5,5.1649997 21.483,5.1579997 21.457,5.1399997 C 21.144,4.9699997 20.966,5.1869997 20.966,5.1869997 C 21.137,5.1519997 21.204,5.3009997 21.204,5.3009997 C 21.064,5.3659997 21.049,5.6219997 21.109,5.7749997 C 21.127,5.8009997 21.143,5.8299997 21.158,5.8569997 C 21.139,5.8369997 21.123,5.8069997 21.109,5.7749997 C 21.005,5.6069997 20.877,5.4749997 20.738,5.5049997 C 20.807,5.2549997 20.738,4.8799997 20.738,4.8799997 C 20.467,4.8919997 20.297,5.0969997 20.297,5.1869997 C 20.297,5.2779997 20.309,5.5269997 20.309,5.5269997 C 20.219,5.0879997 19.913,5.1749997 19.913,5.1749997 C 19.924,5.0289997 20.095,4.9259997 20.095,4.9259997 C 19.842,4.6759997 19.456,4.9019997 19.456,4.9019997 C 19.615,4.5739997 19.546,4.3009997 19.546,4.3009997 C 19.251,4.2329997 19.015,4.4699997 19.015,4.5489997 C 18.935,4.4029997 18.583,4.5039997 18.583,4.5039997 C 18.719,4.3469997 18.775,4.1979997 18.775,4.1979997 C 18.662,3.9959997 18.482,3.9839997 18.482,3.9839997 C 18.538,3.8589997 18.799,3.8239997 18.799,3.8239997 C 18.561,3.5409997 18.232,3.6879997 18.232,3.6879997 C 18.174,3.5629997 18.05,3.5529997 18.05,3.5529997 C 17.744,3.4379997 17.438,3.5299997 17.369,3.6089997 L 17.256,3.3489997 C 17.415,3.2689997 17.381,2.9529997 17.54,2.9069997 C 17.482,2.7929997 17.154,2.8499997 17.154,2.8499997 C 16.994,2.5889997 16.553,2.6579997 16.553,2.6579997 C 16.598,2.7359997 16.609,2.9859997 16.609,2.9859997 C 16.326,2.9069997 16.019,3.1109997 16.077,3.5529997 L 15.918,3.4279997 C 15.951,3.1669997 15.623,2.8829997 15.328,3.0189997 C 15.272,3.1319997 15.43,3.4169997 15.43,3.4169997 C 15.34,3.4169997 15.305,3.8579997 15.34,3.9379997 C 15.045,3.4959997 14.614,3.4739997 14.614,3.4739997 C 14.965,3.6439997 15.283,4.0049997 15.283,4.0049997 C 14.92,3.8369997 14.875,3.9949997 14.875,3.9949997 C 14.987,4.1649997 15.272,4.2439997 15.272,4.2439997 C 15.272,4.2439997 14.954,4.5959997 15.08,4.7099997 C 14.726,4.5619997 14.308,4.7769997 14.251,4.9249997 C 14.228,4.7549997 14.002,4.7219997 13.945,5.4459997 C 13.797,5.0709997 13.91,4.7429997 14.115,4.6749997 C 13.887,4.5159997 13.513,4.5729997 13.513,4.8569997 C 13.14,4.6999997 13.003,5.0949997 12.992,5.4799997 C 12.935,5.4009997 12.743,5.2199997 12.743,5.2199997 C 12.584,4.8899997 12.278,5.0489997 12.278,5.0489997 C 12.278,5.0489997 12.561,5.2639997 12.652,5.2989997 C 12.436,5.2639997 12.39,5.4909997 12.39,5.4909997 C 12.265,5.2989997 11.88,5.3099997 11.869,5.5029997 C 11.699,5.4799997 11.541,5.6959997 11.575,5.8189997 L 11.428,5.8189997 L 11.19,5.5699997 C 11.282,5.3089997 11.008,5.0589997 11.008,5.0589997 C 10.815,5.1389997 10.701,5.3889997 10.838,5.5589997 C 10.566,5.3659997 10.248,5.5359997 10.248,5.5359997 C 10.407,5.8309997 10.701,6.1259997 10.872,6.1379997 L 11.019,6.2619997 C 10.998,6.3529997 11.042,6.4549997 11.042,6.4549997 C 11.042,6.4549997 10.78,6.3989997 10.689,6.5909997 C 10.542,6.5559997 10.36,6.7159997 10.36,6.7159997 C 10.507,6.8069997 10.792,6.9429997 11.085,6.9309997 C 10.577,7.0329997 10.383,7.2829997 10.406,7.6219997 C 10.496,7.1699997 11.018,7.0109997 11.211,7.1009997 C 11.042,7.1699997 10.871,7.2709997 10.871,7.2709997 C 11.098,7.2609997 11.415,7.4549997 11.415,7.4549997 L 11.403,7.5659997 C 11.291,7.5329997 11.165,7.8499997 11.165,7.9409997 C 11.007,7.9289997 10.724,8.1329997 10.858,8.3259997 C 10.78,8.2479997 10.462,8.1109997 10.213,8.1459997 C 10.371,8.1909997 10.44,8.2689997 10.44,8.2689997 C 10.44,8.2689997 10.655,8.5079997 10.825,8.5079997 C 10.825,8.5079997 10.962,8.7689997 11.12,8.7799997 C 10.974,8.7899997 11.391,8.9029997 11.391,8.9029997 L 11.506,8.9949997 C 11.256,9.0519997 11.21,9.2449997 11.358,9.3809997 C 11.256,9.4379997 11.323,9.5949997 11.323,9.5949997 C 10.983,9.5739997 11.007,9.9489997 11.12,10.061 C 11.234,10.175 11.415,10.243 11.516,10.175 C 11.563,10.22 11.755,10.266 11.755,10.266 C 11.755,10.333 11.811,10.448 11.867,10.448 C 11.765,10.572 12.06,10.935 12.06,10.935 L 12.003,11.355 C 11.923,11.252 11.64,11.173 11.55,11.321 C 11.482,11.218 11.279,11.263 11.243,11.275 C 11.198,11.138 11.027,11.071 10.891,11.183 C 10.845,11.229 10.823,11.263 10.823,11.263 C 10.823,11.263 10.233,11.183 10.154,11.241 C 10.075,11.299 9.983,11.593 9.983,11.593 C 10.233,11.502 10.733,11.377 10.778,11.389 C 10.744,11.492 10.744,11.842 10.744,11.842 L 10.62,11.832 C 10.62,11.832 10.415,11.649 10.29,11.74 C 10.415,12.103 10.529,12.261 11.061,12.431 L 11.016,12.659 L 11.231,12.659 L 11.209,12.783 C 10.869,12.738 10.517,13.054 10.506,13.226 C 10.37,12.886 9.757,12.908 9.757,12.908 C 9.825,13.158 9.974,13.328 10.439,13.35 L 10.563,13.52 C 10.381,13.509 10.279,13.748 10.279,13.883 L 10.19,14.041 L 9.906,13.905 C 9.918,13.644 9.861,13.452 9.543,13.395 C 9.452,13.519 9.475,13.723 9.51,13.758 L 9.17,13.758 C 9.339,13.937 9.339,14.119 9.838,14.04 L 10.042,14.119 C 9.78,14.211 9.44,14.516 9.464,14.912 C 9.385,14.811 9.248,14.947 9.248,14.992 C 9.248,14.992 8.953,14.88 8.943,14.801 C 8.873,14.868 8.953,15.152 9.111,15.176 C 8.771,15.242 8.578,15.481 8.658,15.731 C 8.478,15.708 8.229,15.821 8.229,15.821 C 8.261,15.925 8.16,16.321 8.16,16.321 C 8.114,16.649 8.556,16.786 8.691,16.548 C 8.828,16.31 8.873,16.094 8.806,16.037 C 9.021,16.026 9.134,15.765 9.134,15.765 C 9.134,16.027 9.384,16.173 9.384,16.173 C 9.146,16.161 8.943,16.65 9.146,16.888 C 9.054,16.921 8.953,16.99 8.953,16.99 C 8.975,17.047 9.033,17.172 9.033,17.172 C 8.908,17.195 8.873,17.387 8.873,17.387 C 8.873,17.387 8.828,17.525 8.908,17.58 C 8.762,17.58 8.387,17.797 8.387,17.797 C 8.524,18.024 8.864,18.182 9.158,18.033 C 9.214,17.887 9.171,17.683 9.171,17.683 C 9.34,17.738 9.465,17.716 9.465,17.716 C 9.465,17.716 9.453,17.863 9.544,18.045 C 9.544,18.045 9.431,18.181 9.431,18.282 C 9.284,18.27 9.011,18.509 9.011,18.509 C 8.931,18.747 8.954,18.941 8.954,18.941 C 8.74,18.952 8.569,19.257 8.569,19.257 C 8.59,19.054 8.59,18.85 8.59,18.85 C 8.42,18.997 8.354,19.236 8.363,19.281 C 8.082,19.145 7.742,19.315 7.742,19.315 C 7.844,19.452 7.969,19.577 7.969,19.577 C 7.742,19.52 7.629,19.702 7.629,19.702 C 7.721,19.68 7.833,19.792 7.833,19.792 C 7.549,19.814 7.22,19.95 7.277,20.349 C 7.14,20.212 7.322,19.906 7.322,19.906 C 7.197,19.565 6.596,19.453 6.596,19.453 C 6.596,19.453 6.493,19.681 6.596,19.793 L 6.552,19.894 L 6.438,19.791 C 6.359,19.438 6.597,19.168 6.688,19.157 C 6.347,19.168 6.234,19.633 6.234,19.633 C 6.02,19.338 5.623,19.362 5.623,19.362 C 5.623,19.622 5.735,19.747 5.735,19.747 L 6.166,19.884 C 5.872,19.87 5.929,20.03 5.929,20.03 C 5.725,19.87 5.283,19.984 5.283,19.984 C 5.283,19.984 5.465,20.03 5.465,20.11 C 5.283,20.064 5.125,20.087 5.125,20.087 L 5.715,20.474 C 5.443,20.518 5.488,20.79 5.488,20.79 C 5.703,20.858 6.076,20.677 6.076,20.677 L 6.463,20.836 C 6.416,20.904 6.463,21.051 6.463,21.051 C 6.338,20.972 6.271,20.993 6.271,20.993 C 6.259,21.198 6.271,21.413 6.417,21.402 C 6.565,21.39 6.702,21.448 6.77,21.335 C 6.838,21.222 7.123,21.231 7.156,21.29 C 7.189,21.346 7.201,21.402 7.201,21.402 C 7.123,21.402 7.064,21.618 7.064,21.618 C 6.983,21.629 7.028,22.002 7.028,22.002 C 6.903,21.923 6.506,21.889 6.506,21.889 C 6.474,22.014 6.484,22.366 6.484,22.366 C 6.36,22.23 6.111,22.4 6.088,22.503 C 6.201,22.491 6.383,22.57 6.383,22.57 C 6.281,22.582 6.259,22.65 6.259,22.65 C 6.317,22.933 6.44,22.989 6.44,22.989 C 6.532,23.001 6.702,23.092 6.702,23.092 C 6.452,23.104 6.317,23.308 6.317,23.308 C 6.452,23.466 6.52,23.669 6.927,23.648 C 6.576,23.683 6.247,23.841 6.271,24.25 C 6.485,24.408 6.917,24.465 6.917,24.465 C 6.702,24.578 6.565,24.886 6.565,24.886 C 6.848,24.76 7.155,24.624 7.155,24.624 C 7.009,24.771 6.917,25.065 6.917,25.065 C 6.646,25.054 6.407,25.293 6.565,25.44 C 6.622,25.496 6.736,25.552 6.736,25.552 C 6.599,25.586 6.657,25.757 6.657,25.757 C 6.905,25.859 7.28,25.984 7.28,25.984 C 7.076,26.155 6.962,26.641 7.677,26.891 C 7.654,26.63 7.755,26.484 7.755,26.359 C 7.755,26.234 7.734,25.894 7.801,25.882 C 7.869,25.87 7.835,26.551 7.835,26.551 C 7.926,26.823 8.277,26.607 8.277,26.607 C 8.164,26.993 8.402,27.14 8.605,27.14 C 8.538,27.254 8.515,27.402 8.515,27.402 C 8.39,27.243 8.072,27.209 8.094,27.414 C 7.924,27.139 7.482,27.117 7.482,27.117 C 7.414,27.388 7.547,27.683 7.793,27.785 C 7.837,27.793 7.88,27.804 7.925,27.82 C 7.878,27.813 7.834,27.802 7.793,27.785 C 7.362,27.699 7.007,27.931 7.007,27.931 C 7.335,28.011 7.687,28.034 7.687,28.034 C 7.255,28.398 8.14,28.658 8.332,28.556 C 8.254,28.884 8.367,29.395 8.799,29.656 L 8.753,30.177 C 8.322,29.487 7.608,29.621 7.461,29.837 C 7.801,29.858 7.891,30.257 8.108,30.291 C 7.845,30.312 7.676,30.54 7.676,30.54 C 7.834,30.562 8.016,31.005 8.22,31.005 C 8.423,31.005 8.661,30.868 8.661,30.868 C 8.571,31.186 8.616,31.425 8.991,31.435 L 8.899,31.604 C 9.16,31.583 9.215,31.844 9.648,31.593 C 10.079,31.344 10.26,31.616 10.26,31.616 C 10.135,31.742 10.078,31.853 10.078,31.853 C 10.215,31.865 10.623,32.194 10.781,32.091 C 10.623,32.603 10.747,32.886 11.235,32.943 C 11.269,33.226 11.529,33.544 11.97,33.429 C 11.925,33.725 12.142,33.781 12.142,33.781 C 12.119,34.168 12.561,34.61 12.753,34.508 C 12.946,34.406 12.981,34.022 12.9,33.918 C 13.172,34.088 13.615,33.975 13.421,33.522 C 13.501,33.567 13.604,33.782 13.604,33.782 C 13.831,33.579 13.886,33.181 13.75,33.046 C 13.92,33.081 14.09,32.819 14.18,32.853 C 14.34,33.046 14.827,33.194 15.032,32.775 C 14.986,32.717 14.851,32.593 14.851,32.593 L 14.623,32.535 C 14.781,32.377 14.691,32.149 14.691,32.149 C 14.578,32.071 14.464,31.957 14.464,31.957 C 14.724,32.015 14.816,31.879 14.816,31.879 L 14.952,31.991 C 15.02,32.139 15.292,32.093 15.292,32.093 C 15.292,32.411 15.418,33.001 15.916,32.978 L 15.939,33.126 C 15.939,33.126 16.121,33.058 16.335,33.058 C 16.153,33.171 16.051,33.478 16.153,33.556 C 15.903,33.431 15.519,33.476 15.313,33.693 C 15.336,33.829 15.336,34.249 15.846,34.249 C 16.129,34.249 16.278,34.067 16.278,34.067 C 16.493,34.113 16.697,34.033 16.697,34.033 C 16.426,34.362 16.675,34.793 16.959,34.873 C 17.083,35.123 17.638,35.394 17.911,35.235 C 18.036,35.632 18.103,36.018 18.103,36.018 C 18.126,36.199 18.512,36.21 18.512,36.21 C 18.466,36.073 18.557,35.938 18.557,35.938 C 18.682,35.927 18.965,35.746 18.965,35.746 C 18.978,35.973 18.978,36.279 19.009,36.336 C 19.043,36.393 19.225,36.506 19.225,36.506 C 19.418,36.404 19.442,36.222 19.442,36.222 C 19.894,36.234 20.28,35.961 20.28,35.961 C 20.269,35.711 20.188,35.189 20.188,35.189 C 20.348,35.327 20.428,35.633 20.337,35.895 C 20.508,35.747 20.519,35.282 20.519,35.282 C 20.688,35.348 20.756,35.054 20.756,35.054 C 20.688,34.76 20.394,34.771 20.394,34.771 L 20.202,34.817 C 20.11,34.68 19.918,34.749 19.839,34.838 C 19.759,34.714 19.464,34.522 19.464,34.522 C 19.657,34.522 19.736,34.328 19.918,34.375 C 19.918,34.204 20.03,33.853 19.771,33.706 C 20.172,33.884 20.371,33.726 20.431,33.749 C 20.329,33.497 20.058,33.386 20.058,33.386 C 20.287,33.304 20.287,33.138 20.287,33.138 C 20.494,32.993 20.783,32.828 20.867,32.911 C 20.99,32.952 21.135,33.138 21.279,33.138 C 21.425,33.138 21.713,32.932 21.713,32.932 L 23.1,33.574 L 24.094,33.553 C 24.094,33.16 23.688,29.042 23.688,29.042 L 24.569,28.028 L 26.936,28.095 L 30.794,28.5 L 31.267,30.733 L 29.487,33.713 C 29.43,33.713 29.291,33.901 29.319,33.957 C 29.346,34.014 29.477,33.967 29.628,33.863 C 29.776,33.759 29.666,33.667 29.666,33.667 L 29.862,33.563 C 29.862,33.563 29.871,33.648 29.814,33.759 C 29.758,33.872 29.684,34.209 29.684,34.209 C 29.684,34.209 29.786,34.563 29.983,34.546 C 30.179,34.526 30.273,33.983 30.235,33.722 L 30.358,33.581 C 30.358,33.581 30.554,33.983 30.675,34.104 C 30.675,34.104 30.75,33.853 30.75,33.758 C 30.75,33.665 30.517,33.432 30.517,33.432 L 30.788,33.356 C 30.788,33.356 30.855,33.581 30.948,33.61 C 31.04,33.637 31.35,33.366 31.332,33.309 C 31.314,33.252 31.284,33.095 31.406,33.095 C 31.528,33.095 31.442,33.282 31.406,33.348 C 31.368,33.412 31.546,33.61 31.678,33.647 C 31.808,33.684 32.042,33.498 32.042,33.498 C 32.042,33.498 32.051,33.384 32.07,33.319 C 32.089,33.253 32.192,33.309 32.192,33.309 C 32.192,33.309 32.359,33.104 32.286,32.879 C 32.286,32.879 32.5,32.991 32.781,32.991 C 33.062,32.991 33.07,32.803 33.07,32.803 L 33.098,32.953 L 33.324,32.982 C 33.324,32.982 33.324,33.103 33.351,33.16 C 33.379,33.215 33.773,33.15 33.706,33.038 C 33.81,33.047 33.857,32.897 33.79,32.841 C 33.885,32.815 33.894,32.617 33.894,32.617 C 33.894,32.617 33.753,32.681 33.799,32.504 C 33.847,32.326 33.949,32.449 33.949,32.449 C 33.949,32.449 33.958,32.42 33.958,32.326 C 33.958,32.233 34.108,32.271 34.108,32.271 L 34.136,32.429 C 34.136,32.429 34.051,32.4 34.004,32.503 C 33.957,32.606 34.097,32.635 34.097,32.635 L 34.097,32.757 L 34.173,32.793 C 34.173,32.793 34.267,33.084 34.341,33.186 C 34.417,33.29 34.612,33.271 34.612,33.271 C 34.612,33.271 34.761,33.009 34.761,32.906 C 34.761,32.804 34.604,32.617 34.359,32.513 C 34.528,32.466 34.706,32.588 34.706,32.588 L 34.874,32.531 C 34.874,32.531 34.886,32.503 34.825,32.425 C 34.794,32.409 34.767,32.383 34.753,32.345 C 34.785,32.376 34.808,32.404 34.825,32.425 C 34.928,32.478 35.096,32.43 35.146,32.316 C 35.127,32.363 35.267,32.542 35.389,32.57 C 35.342,32.674 35.529,32.851 35.707,32.851 C 35.669,32.962 35.846,33.234 36.053,33.214 C 36.09,33.327 36.476,33.337 36.596,33.337 C 36.717,33.337 36.971,32.802 36.905,32.531 L 37.009,32.419 C 37.009,32.419 37.196,32.448 37.253,32.391 C 37.552,32.934 37.982,33.037 38.066,33.046 C 38.15,33.056 38.59,32.766 38.628,32.681 C 38.665,32.597 38.515,32.551 38.441,32.41 C 38.524,32.41 38.721,32.215 38.721,32.055 C 38.721,32.055 38.964,31.906 38.954,31.756 C 38.954,31.756 39.103,31.756 39.178,31.69 C 39.178,31.69 39.169,31.29 39.169,31.204 C 39.169,31.12 39.076,31.12 38.973,31.073 C 38.973,31.073 39.114,31.009 39.114,30.914 C 39.114,30.914 39.405,30.866 39.593,30.839 C 39.593,30.839 39.302,30.409 39.198,30.392 C 39.096,30.371 39.011,30.362 38.843,30.419 C 38.843,30.419 39.152,29.819 39.097,29.585 C 39.097,29.585 39.208,29.538 39.312,29.651 C 39.312,29.651 39.453,29.623 39.415,29.417 C 39.415,29.417 39.948,29.669 40.117,29.679 C 39.957,29.267 39.554,29.005 39.536,28.977 C 39.518,28.95 38.966,28.931 38.685,28.95 C 38.816,28.865 38.731,28.529 38.648,28.304 C 38.648,28.304 38.768,28.304 38.937,28.361 C 39.05,28.257 39.181,27.798 39.031,27.593 C 39.199,27.593 39.312,27.582 39.424,27.46 C 39.424,27.46 39.49,27.582 39.649,27.63 C 39.649,27.63 39.827,27.312 39.837,27.198 C 39.847,27.087 39.687,26.909 39.359,26.684 C 39.359,26.684 39.537,26.684 39.64,26.777 C 39.64,26.777 39.714,26.581 39.584,26.496 C 39.584,26.496 39.742,26.413 39.809,26.29 C 39.903,26.524 40.305,26.487 40.305,26.487 C 40.305,26.487 40.201,26.151 39.978,26.113 C 39.978,26.113 40.398,25.727 40.623,25.475 L 40.735,25.644 C 40.735,25.644 40.998,25.513 41.12,25.307 C 41.12,25.307 41.194,25.381 41.334,25.466 C 41.334,25.466 41.372,25.346 41.334,25.223 L 41.55,25.177 C 41.55,25.177 41.597,24.989 41.513,24.821 L 41.812,24.616 L 41.816,24.315 z M 28.037,17.654 C 27.97,17.603 27.615,17.688 27.446,17.672 C 27.48,17.738 27.464,17.942 27.734,18.246 C 27.564,18.264 27.411,18.365 27.294,18.5 C 27.175,18.635 27.209,18.924 27.277,19.092 C 27.277,19.092 27.158,19.126 27.056,19.177 C 26.887,19.041 26.533,19.11 26.548,19.516 C 26.599,19.465 26.903,19.465 26.903,19.465 C 26.903,19.465 26.954,19.582 27.055,19.532 C 26.735,19.718 26.903,20.056 27.157,20.14 C 27.157,20.14 26.852,20.124 26.767,20.343 C 26.598,20.259 26.09,20.326 26.039,20.749 L 25.819,20.918 C 25.548,20.851 25.363,21.206 25.43,21.358 C 25.378,21.375 25.363,21.51 25.363,21.51 C 25.363,21.51 25.211,21.358 25.142,21.307 C 25.076,21.256 25.092,20.902 25.092,20.902 L 24.601,20.579 C 24.604,20.386 24.604,20.022 24.718,19.903 C 25.052,19.618 24.53,19.039 24.604,18.908 C 24.718,18.958 24.767,18.921 24.74,18.835 C 24.594,18.378 24.431,18.075 24.8,18.55 C 24.958,18.422 24.963,18.232 24.922,17.618 C 25.069,17.332 24.808,17.018 24.669,16.994 C 24.669,16.994 24.906,16.942 24.856,16.758 C 24.923,16.925 25.313,16.841 25.313,16.57 C 25.313,16.57 25.364,16.604 25.481,16.739 C 25.464,16.385 26.057,15.825 26.412,15.978 C 26.412,15.978 26.327,16.147 26.277,16.315 C 26.26,16.96 27.311,16.994 27.376,16.687 C 27.376,16.687 27.631,17.079 27.901,16.807 C 27.834,16.924 28.003,17.145 28.188,17.262 C 28.156,17.281 27.986,17.4 28.037,17.654" />
    <path
       id="path38012"
       d="M 37.682999,30.506001 C 38.609893,29.494293 38.899187,31.009579 37.682999,30.506001 z "
       style="fill:#ffffff" />
    <path
       id="path38014"
       d="M 38.314999,30.709999 C 39.015354,30.24757 38.670053,31.531841 38.314999,30.709999 z "
       style="fill:#ffffff" />
    <path
       id="path38016"
       d="M 37.117001,31.521999 C 37.813271,32.034676 36.572475,32.321726 37.117001,31.521999 z "
       style="fill:#ffffff" />
    <path
       id="path38020"
       d="M 32.786999,32.266998 C 33.713503,30.997747 33.341692,33.347125 32.786999,32.266998 z "
       style="fill:#ffffff" />
    <path
       id="path38034"
       d="M 16.436001,33.710999 C 16.245009,31.699976 18.215107,34.953592 16.622453,33.868611 L 16.436001,33.710999 L 16.436001,33.710999 z "
       style="fill:#ffffff" />
    <path
       id="path38036"
       d="M 17.289,33.316002 C 17.883545,32.714528 17.726033,34.153134 17.289,33.316002 z "
       style="fill:#ffffff" />
    <path
       id="path38038"
       d="M 17.639,33.666 C 18.339852,33.309463 17.584323,34.370006 17.639,33.666 z "
       style="fill:#ffffff" />
    <path
       id="path38040"
       d="M 17.705,34.474998 C 18.132,33.396002 18.377589,35.305352 17.705,34.474998 z "
       style="fill:#ffffff" />
    <path
       id="path38042"
       d="M 30.191999,32.571999 C 30.535041,31.303144 31.311606,33.327979 30.191999,32.571999 z "
       style="fill:#ffffff" />
    <path
       id="path38054"
       d="M 36.881001,30.601 C 37.546215,30.855566 36.677408,31.200822 36.881001,30.601 z "
       style="fill:#ffffff" />
    <path
       id="path38084"
       d="M 21.641001,32.639 C 23.03177,31.952086 20.428132,32.141827 19.847,32.354 C 20.383737,33.267243 18.372652,33.881199 19.618766,32.821328 C 19.518837,32.180537 18.520916,33.447057 18.457656,33.457891 C 18.129665,32.804055 19.112683,31.257989 17.906016,31.803187 C 17.815675,32.281214 17.174655,30.728956 18.2765,31.423375 C 19.464005,31.49548 17.693252,30.481848 19.095,30.662 C 20.075125,30.908311 20.737966,31.780391 21.811,30.867 C 23.358167,31.234817 20.92906,30.213021 22.271844,29.372453 C 22.696183,28.642896 22.807822,30.671936 22.757,31.218982 C 22.757,31.914988 22.757,32.610993 22.757,33.306999 C 22.291892,33.163759 21.803542,33.19503 21.641001,32.639 z "
       style="fill:#ffffff" />
    <path
       i:knockout="Off"
       d="M 28.908,29.511 C 28.724,29.582 28.256,29.709 27.929,29.739 C 27.603,29.767 27.22,29.724 27.122,29.724 C 27.022,29.724 26.298,29.893 26.227,29.936 C 26.156,29.979 25.689,30.49 25.547,30.575 C 25.406,30.661 24.823,31.114 24.625,31.241 C 24.625,31.241 24.428,31.327 24.371,31.141 C 24.312,30.957 24.355,29.936 24.355,29.936 C 24.355,29.936 24.611,29.37 24.724,29.228 C 24.724,29.228 24.994,29.051 25.069,29.051 C 25.144,29.051 25.631,29.389 25.78,29.5 L 25.874,29.352 C 25.874,29.352 25.668,29.202 25.668,29.088 C 25.668,28.977 25.893,28.92 25.893,28.92 L 26.531,28.826 L 27.055,28.92 L 27.055,28.732 L 26.12,28.602 C 26.12,28.602 24.789,28.807 24.64,28.752 C 24.491,28.695 24.34,28.395 24.34,28.395 L 24.162,27.541 L 22.444,27.5 L 22.59,30.045 C 22.522,30.029 22.07,29.805 22.07,29.805 L 21.838,30.167 C 21.961,30.258 22.533,30.813 22.567,30.925 C 22.601,31.037 22.535,32.369 22.535,32.448 C 22.535,32.526 22.502,32.797 22.502,32.899 C 22.502,32.938 22.352,32.905 22.168,32.842 L 22.023,33.302 C 22.251,33.481 22.428,33.645 22.456,33.723 C 22.524,33.913 22.568,34.828 22.568,34.895 C 22.568,34.963 21.993,34.726 21.937,34.68 C 21.88,34.635 21.756,34.285 21.745,34.252 C 21.734,34.219 21.61,34.094 21.553,33.936 C 21.497,33.778 21.238,33.09 21.193,32.809 L 20.95,32.932 C 20.95,32.932 21.519,34.389 21.519,34.467 C 21.519,34.545 21.091,34.444 20.798,34.354 C 20.505,34.264 19.941,34.094 19.614,33.959 L 19.298,34.219 C 19.761,34.297 20.132,34.614 20.617,34.635 C 21.102,34.658 21.53,34.929 21.634,34.963 C 21.734,34.998 22.456,35.336 22.569,35.437 C 22.682,35.538 22.649,35.932 22.649,36.598 C 22.649,37.264 22.535,39.239 22.546,39.926 C 22.557,40.614 22.287,42.735 22.287,42.971 C 22.287,43.207 22.433,44.776 22.49,46.084 L 22.382,46.637 L 22.653,46.998 L 23.917,46.637 L 24.638,46.276 L 25.089,46.367 L 24.712,44.72 C 24.554,43.829 24.566,40.525 24.566,40.434 C 24.566,40.345 24.632,40.029 24.632,39.972 C 24.632,39.915 24.543,39.802 24.518,39.746 C 24.255,36.786 24.518,35.79 24.649,35.581 C 25.025,35.409 26.004,34.743 26.075,34.743 C 26.146,34.743 28.017,34.587 28.185,34.516 C 28.357,34.444 28.796,34.317 28.796,34.317 C 28.796,34.317 28.838,34.133 28.81,34.09 C 28.783,34.047 28.656,34.09 28.656,34.047 C 28.656,34.005 29.151,33.424 29.306,33.31 C 29.463,33.198 30.171,32.502 30.171,32.502 L 32.052,32.267 L 31.919,32.071 L 30.015,32.389 C 29.83,32.588 28.867,33.452 28.81,33.452 C 28.753,33.452 29.051,32.742 29.08,32.658 L 29.363,32.479 L 29.305,32.404 L 29.156,32.291 C 29.156,32.291 29.025,31.355 29.025,31.205 C 29.025,31.055 28.968,30.549 28.988,30.475 C 29.006,30.401 29.138,30.082 29.138,30.082 L 30.98,28.789 L 28.968,30.025 C 28.968,30.025 28.837,30.213 28.763,30.268 C 28.688,30.324 28.519,30.174 28.519,30.174 L 28.072,29.927 L 27.656,29.947 L 28.444,30.381 L 28.707,30.586 L 28.882,32.488 C 28.839,32.617 28.371,34.033 28.286,34.09 C 28.201,34.147 26.996,34.245 26.799,34.202 C 26.6,34.16 25.778,34.33 25.736,34.346 C 25.692,34.359 24.673,35.069 24.587,35.054 C 24.503,35.039 24.417,34.954 24.403,34.67 C 24.389,34.389 24.29,32.615 24.389,32.374 C 24.488,32.133 25.097,31.539 25.182,31.438 C 25.267,31.339 25.609,31.113 25.778,30.957 C 25.948,30.801 26.374,30.206 26.757,30.191 C 27.14,30.177 28.571,30.021 28.728,29.978 L 29.083,29.642 L 28.908,29.511 z "
       id="path38090"
       style="fill:#ff6600;fill-opacity:1" />
    <path
       id="path38150"
       d="M 26.591999,17.791 C 26.429052,16.92564 26.733997,16.657676 26.746,17.679001 C 27.549356,16.954197 28.35104,16.859832 27.144287,17.748143 C 26.284119,18.435449 25.482446,21.048672 25.198,20.848 C 23.969601,20.295294 26.248018,19.224078 25.212,18.159 C 25.029383,17.485854 25.190147,16.276097 25.322734,17.659891 C 25.458227,18.407323 25.383208,20.009663 26.077234,18.506906 C 26.245888,18.266157 26.42256,18.031186 26.592,17.791 L 26.591999,17.791 z "
       style="fill:#ff6600;fill-opacity:1" />
    <path
       id="path38200"
       d="M 20.434,33.748001 C 20.434,33.748001 20.434,33.748001 20.434,33.748001 z "
       style="fill:none;stroke:#104c22;stroke-width:0.5" />
    <path
       id="path38248"
       d="M 34.830002,32.428001 C 34.703487,32.287428 34.766731,32.3577 34.830002,32.428001 z "
       style="fill:none;stroke:#104c22;stroke-width:0.5" />
    <path
       id="path38334"
       d="M 37.682999,30.506001 C 38.609893,29.494293 38.899187,31.009579 37.682999,30.506001 z "
       style="fill:#ffffff" />
    <path
       id="path38342"
       d="M 37.117001,31.521999 C 37.813271,32.034676 36.572475,32.321726 37.117001,31.521999 z "
       style="fill:#ffffff" />
    <path
       id="path38350"
       d="M 32.786999,32.266998 C 33.713503,30.997747 33.341692,33.347125 32.786999,32.266998 z "
       style="fill:#ffffff" />
    <path
       id="path38378"
       d="M 16.436001,33.710999 C 16.245009,31.699976 18.215107,34.953592 16.622453,33.868611 L 16.436001,33.710999 L 16.436001,33.710999 z "
       style="fill:#ffffff" />
    <path
       id="path38382"
       d="M 17.289,33.316002 C 17.883545,32.714528 17.726033,34.153134 17.289,33.316002 z "
       style="fill:#ffffff" />
    <path
       id="path38386"
       d="M 17.639,33.666 C 18.339852,33.309463 17.584323,34.370006 17.639,33.666 z "
       style="fill:#ffffff" />
    <path
       id="path38390"
       d="M 17.705,34.474998 C 18.132,33.396002 18.377589,35.305352 17.705,34.474998 z "
       style="fill:#ffffff" />
    <path
       id="path38394"
       d="M 30.191999,32.571999 C 30.535041,31.303144 31.311606,33.327979 30.191999,32.571999 z "
       style="fill:#ffffff" />
    <path
       id="path38418"
       d="M 36.881001,30.601 C 37.546215,30.855566 36.677408,31.200822 36.881001,30.601 z "
       style="fill:#ffffff" />
  </g>
</svg>
