<?xml version="1.0" encoding="UTF-8" standalone="no"?>
<svg
   xmlns:dc="http://purl.org/dc/elements/1.1/"
   xmlns:cc="http://creativecommons.org/ns#"
   xmlns:rdf="http://www.w3.org/1999/02/22-rdf-syntax-ns#"
   xmlns:svg="http://www.w3.org/2000/svg"
   xmlns="http://www.w3.org/2000/svg"
   xmlns:sodipodi="http://sodipodi.sourceforge.net/DTD/sodipodi-0.dtd"
   xmlns:inkscape="http://www.inkscape.org/namespaces/inkscape"
   sodipodi:docname="trim_texture_utility.svg"
   inkscape:version="0.92.4 (5da689c313, 2019-01-14)"
   id="svg8"
   version="1.1"
   viewBox="0 0 82.398804 82.398811"
   height="82.398811mm"
   width="82.398804mm">
  <defs
     id="defs2" />
  <sodipodi:namedview
     inkscape:window-maximized="1"
     inkscape:window-y="-8"
     inkscape:window-x="-8"
     inkscape:window-height="1027"
     inkscape:window-width="1920"
     showgrid="false"
     inkscape:document-rotation="0"
     inkscape:current-layer="layer1"
     inkscape:document-units="mm"
     inkscape:cy="439.3168"
     inkscape:cx="-393.30997"
     inkscape:zoom="0.49497475"
     inkscape:pageshadow="2"
     inkscape:pageopacity="0.0"
     borderopacity="1.0"
     bordercolor="#666666"
     pagecolor="#ffffff"
     id="base" />
  <metadata
     id="metadata5">
    <rdf:RDF>
      <cc:Work
         rdf:about="">
        <dc:format>image/svg+xml</dc:format>
        <dc:type
           rdf:resource="http://purl.org/dc/dcmitype/StillImage" />
        <dc:title />
      </cc:Work>
    </rdf:RDF>
  </metadata>
  <g
     transform="translate(-28.348215,-74.083336)"
     id="layer1"
     inkscape:groupmode="layer"
     inkscape:label="Layer 1">
    <rect
       y="74.083336"
       x="28.348215"
       height="82.398804"
       width="82.398804"
       id="rect833"
       style="fill:#084745;fill-opacity:1;stroke-width:2.56500006" />
    <rect
       y="81.605057"
       x="28.348215"
       height="18.52083"
       width="82.398804"
       id="rect835"
       style="fill:#0b7070;fill-opacity:1;stroke-width:2.45485997" />
    <rect
       y="100.12589"
       x="28.348215"
       height="25.891369"
       width="82.398804"
       id="rect837"
       style="fill:#00a9b2;fill-opacity:1;stroke-width:2.2114501" />
    <rect
       y="126.01726"
       x="28.348215"
       height="30.46489"
       width="82.398796"
       id="rect839"
       style="fill:#49f0d5;fill-opacity:1;stroke-width:2.56500006" />
    <rect
       y="74.083336"
       x="28.348215"
       height="7.5217204"
       width="8.5044508"
       id="rect855"
       style="fill:#ff6600;fill-opacity:1;stroke-width:0.82404298" />
    <rect
       style="fill:#03a9b1;fill-opacity:1;stroke-width:1.47920001"
       id="rect855-7"
       width="27.403261"
       height="7.5217209"
       x="36.852665"
       y="74.083336" />
    <path
       id="path914"
       d="m 67.897514,134.13993 c -0.491755,-0.33431 -0.518715,-0.41789 -0.747985,-2.29535 -0.116468,-0.95487 -0.212986,-1.76994 -0.214603,-1.81135 -0.0015,-0.0431 -0.228623,-0.13965 -0.504157,-0.21837 -0.738765,-0.21083 -1.501362,-0.51656 -2.3319,-0.93369 -0.405482,-0.20382 -0.773004,-0.37044 -0.817165,-0.37044 -0.04314,0 -0.620301,0.42705 -1.280234,0.94927 -1.523631,1.20534 -1.593243,1.25279 -1.903501,1.29685 -0.625639,0.089 -0.75025,-0.0108 -3.078429,-2.42621 l -1.60559,-1.66684 v -0.40387 c 0,-0.48043 -0.0045,-0.47288 1.322669,-2.15472 l 0.959623,-1.21596 -0.322983,-0.62628 c -0.363964,-0.70604 -0.840189,-1.8821 -1.043362,-2.57681 -0.07495,-0.25558 -0.16931,-0.46479 -0.21029,-0.46533 -0.04314,-7e-4 -0.855556,-0.0976 -1.810434,-0.21461 -1.876811,-0.23078 -1.961035,-0.25828 -2.295342,-0.74949 -0.166075,-0.24372 -0.167153,-0.26691 -0.167153,-2.97329 0,-3.65543 -0.181173,-3.38879 2.52666,-3.7217 0.997961,-0.12293 1.815881,-0.23024 1.817552,-0.23832 0.07441,-0.37367 0.759039,-2.16356 1.051611,-2.74887 0.220535,-0.44053 0.40063,-0.83652 0.40063,-0.87955 0,-0.0431 -0.411953,-0.60213 -0.916056,-1.24233 -1.214019,-1.54272 -1.239416,-1.57949 -1.311454,-1.89886 -0.12833,-0.56881 -0.03774,-0.69601 1.839498,-2.5883 0.962642,-0.9703 1.879506,-1.85373 2.037547,-1.96324 0.317592,-0.219996 0.797754,-0.262054 1.110709,-0.09706 0.09652,0.04853 0.765832,0.55549 1.487882,1.12149 0.722049,0.566 1.348012,1.02913 1.390933,1.02913 0.04314,0 0.438913,-0.1801 0.879443,-0.39955 0.44053,-0.22 1.21925,-0.54293 1.730147,-0.7179 0.511166,-0.1747 0.954662,-0.34024 0.986044,-0.3672 0.03235,-0.027 0.153134,-0.844662 0.270681,-1.81728 0.230779,-1.912883 0.256122,-1.991715 0.749171,-2.327208 0.243721,-0.166076 0.266906,-0.167154 2.97323,-0.167154 3.659638,0 3.40028,-0.17632 3.727092,2.533832 0.119704,0.994186 0.224849,1.80887 0.233476,1.81049 0.360189,0.069 2.163829,0.75914 2.748705,1.0515 0.44053,0.22054 0.836684,0.40063 0.879982,0.40063 0.04314,0 0.619007,-0.42759 1.279479,-0.94997 1.651855,-1.306763 1.619664,-1.286381 2.050543,-1.296195 0.290092,-0.0054 0.432442,0.03774 0.662521,0.194655 0.161222,0.11161 1.099277,1.03554 2.08435,2.0527 1.855782,1.91628 1.83939,1.89385 1.791509,2.45096 -0.02696,0.29009 -0.145046,0.4691 -1.24826,1.85783 l -1.032901,1.30045 0.425433,0.85459 c 0.234015,0.47018 0.568646,1.27257 0.74351,1.78347 0.174702,0.51117 0.340238,0.95466 0.366659,0.98604 0.02696,0.0324 0.844665,0.15314 1.817283,0.27069 1.912883,0.23077 1.991715,0.25612 2.327208,0.74917 0.166075,0.24372 0.167153,0.2669 0.167153,2.97323 0,3.6544 0.16985,3.40087 -2.494415,3.7224 -0.972618,0.11754 -1.791563,0.23887 -1.819979,0.27068 -0.02696,0.0323 -0.127252,0.29117 -0.219995,0.57733 -0.25828,0.7998 -0.573391,1.5707 -0.934011,2.28563 -0.180634,0.35803 -0.328376,0.68689 -0.328376,0.73095 0,0.0431 0.411953,0.60396 0.916055,1.24416 1.21402,1.54272 1.239471,1.57955 1.311455,1.89886 0.118625,0.52627 0.02696,0.6512 -1.855135,2.58538 -0.982162,1.00837 -1.906575,1.90798 -2.054155,1.99921 -0.314896,0.19466 -0.793224,0.21299 -1.113944,0.0431 -0.117546,-0.0626 -0.788641,-0.56708 -1.491009,-1.12155 -0.702422,-0.55441 -1.311616,-1.0081 -1.353782,-1.0081 -0.04314,0 -0.437295,0.1801 -0.877987,0.40063 -0.584876,0.29225 -2.388678,0.98238 -2.748705,1.05151 -0.01078,0.002 -0.113233,0.81635 -0.233476,1.81049 -0.235632,1.95564 -0.259357,2.03026 -0.753808,2.36662 -0.243721,0.16608 -0.266907,0.16715 -2.973284,0.16715 -2.706269,0 -2.729509,-0.001 -2.97323,-0.16715 z m 4.793909,-9.53013 c 1.868669,-0.38499 3.514484,-1.25958 4.851119,-2.57729 3.275185,-3.22865 3.762033,-8.22438 1.180535,-12.11356 -1.938495,-2.92044 -5.692925,-4.57084 -9.189939,-4.03972 -2.633099,0.40009 -4.86379,1.75613 -6.382245,3.88033 -1.201294,1.68059 -1.750852,3.41435 -1.750852,5.52356 0,1.26929 0.104606,1.93213 0.486363,3.07805 1.11761,3.35413 4.17722,5.85717 7.768002,6.35486 0.70528,0.0976 2.3216,0.0431 3.036802,-0.10623 z"
       style="fill:#ffffff;fill-opacity:1;stroke-width:0.0743127"
       inkscape:connector-curvature="0" />
  </g>
</svg>
