<?xml version="1.0" encoding="UTF-8" standalone="no"?>
<!DOCTYPE svg PUBLIC "-//W3C//DTD SVG 1.1//EN" "http://www.w3.org/Graphics/SVG/1.1/DTD/svg11.dtd">
<svg width="100%" height="100%" viewBox="0 0 512 512" version="1.1" xmlns="http://www.w3.org/2000/svg" xmlns:xlink="http://www.w3.org/1999/xlink" xml:space="preserve" xmlns:serif="http://www.serif.com/" style="fill-rule:evenodd;clip-rule:evenodd;stroke-linecap:round;stroke-linejoin:round;stroke-miterlimit:1.5;">
    <g transform="matrix(1,0,0,1,-594.812,0)">
        <g id="_03" serif:id="03" transform="matrix(1,0,0,1,594.812,0)">
            <rect x="0" y="0" width="512" height="512" style="fill:none;"/>
            <g transform="matrix(1.26909,0,0,1.26909,-68.8872,-38.0665)">
                <g transform="matrix(1,0,0,0.960091,0,19.4052)">
                    <path d="M165.315,279.245C139.426,264.718 123.235,244.048 123.235,221.129L123.235,128.384C123.235,151.304 139.426,171.974 165.315,186.501L165.315,279.245Z" style="fill:white;stroke:black;stroke-width:1.61px;"/>
                    <g transform="matrix(1,0,0,1,-2.84217e-14,92.7552)">
                        <path d="M165.315,279.245C139.426,264.718 123.235,244.048 123.235,221.129L123.235,128.384C123.235,151.304 139.426,171.974 165.315,186.501L165.315,279.245Z" style="fill:rgb(26,26,26);stroke:black;stroke-width:1.61px;"/>
                    </g>
                    <path d="M346.685,186.5L346.685,279.245C322.941,292.569 291.047,300.728 256,300.728L256,207.984C291.047,207.984 322.941,199.824 346.685,186.5Z" style="fill:white;stroke:black;stroke-width:1.61px;"/>
                    <g transform="matrix(1,0,0,1,-2.84217e-14,92.7552)">
                        <path d="M346.685,186.5L346.685,279.245C322.941,292.569 291.047,300.728 256,300.728L256,207.984C291.047,207.984 322.941,199.824 346.685,186.5Z" style="fill:rgb(26,26,26);stroke:black;stroke-width:1.61px;"/>
                    </g>
                    <path d="M165.315,186.5C189.059,199.824 220.953,207.984 256,207.984L256,300.728C220.953,300.728 189.059,292.569 165.315,279.245L165.315,186.5Z" style="fill:rgb(26,26,26);stroke:black;stroke-width:1.61px;"/>
                    <g transform="matrix(1,0,0,1,-2.84217e-14,92.7552)">
                        <path d="M165.315,186.5C189.059,199.824 220.953,207.984 256,207.984L256,300.728C220.953,300.728 189.059,292.569 165.315,279.245L165.315,186.5Z" style="fill:white;stroke:black;stroke-width:1.61px;"/>
                    </g>
                    <path d="M346.685,186.501C372.574,171.974 388.765,151.304 388.765,128.384L388.765,221.129C388.765,244.048 372.574,264.718 346.685,279.245L346.685,186.501Z" style="fill:rgb(26,26,26);stroke:black;stroke-width:1.61px;"/>
                    <g transform="matrix(1,0,0,1,-2.84217e-14,92.7552)">
                        <path d="M346.685,186.501C372.574,171.974 388.765,151.304 388.765,128.384L388.765,221.129C388.765,244.048 372.574,264.718 346.685,279.245L346.685,186.501Z" style="fill:white;stroke:black;stroke-width:1.61px;"/>
                    </g>
                </g>
                <g transform="matrix(1,0,0,0.960091,0,19.4052)">
                    <path d="M388.765,128.384C388.765,151.304 372.574,171.974 346.685,186.5L256,128.384L388.765,128.384Z" style="fill:white;stroke:black;stroke-width:1.61px;"/>
                    <g transform="matrix(-1,1.22465e-16,-1.22465e-16,-1,512,256.769)">
                        <path d="M388.765,128.384C388.765,151.304 372.574,171.974 346.685,186.5L256,128.384L388.765,128.384Z" style="fill:white;stroke:black;stroke-width:1.61px;"/>
                    </g>
                    <path d="M346.685,186.5C322.941,199.824 291.047,207.984 256,207.984L256,207.984L256,128.384L346.685,186.5Z" style="fill:rgb(26,26,26);stroke:black;stroke-width:1.61px;"/>
                    <g transform="matrix(-1,1.22465e-16,-1.22465e-16,-1,512,256.769)">
                        <path d="M346.685,186.5C322.941,199.824 291.047,207.984 256,207.984L256,207.984L256,128.384L346.685,186.5Z" style="fill:rgb(26,26,26);stroke:black;stroke-width:1.61px;"/>
                    </g>
                    <path d="M256,207.984C220.953,207.984 189.059,199.824 165.316,186.501L256,128.384L256,207.984Z" style="fill:white;stroke:black;stroke-width:1.61px;"/>
                    <g transform="matrix(-1,1.22465e-16,-1.22465e-16,-1,512,256.769)">
                        <path d="M256,207.984C220.953,207.984 189.059,199.824 165.316,186.501L256,128.384L256,207.984Z" style="fill:white;stroke:black;stroke-width:1.61px;"/>
                    </g>
                    <path d="M256,128.384L165.316,186.501C139.426,171.974 123.235,151.304 123.235,128.384L256,128.384Z" style="fill:rgb(26,26,26);stroke:black;stroke-width:1.61px;"/>
                    <g transform="matrix(-1,1.22465e-16,-1.22465e-16,-1,512,256.769)">
                        <path d="M256,128.384L165.316,186.501C139.426,171.974 123.235,151.304 123.235,128.384L256,128.384Z" style="fill:rgb(26,26,26);stroke:black;stroke-width:1.61px;"/>
                    </g>
                </g>
                <g transform="matrix(1,2.36681e-32,0,1.38424,18.7317,-85.6925)">
                    <ellipse cx="237.268" cy="164.97" rx="132.765" ry="55.209" style="fill:rgb(255,102,26);stroke:black;stroke-width:1.31px;"/>
                </g>
            </g>
        </g>
    </g>
</svg>
