<?xml version="1.0" encoding="utf-8"?>
<!-- Generator: Adobe Illustrator 26.3.1, SVG Export Plug-In . SVG Version: 6.00 Build 0)  -->
<svg version="1.1" id="Layer_1" xmlns="http://www.w3.org/2000/svg" xmlns:xlink="http://www.w3.org/1999/xlink" x="0px" y="0px"
	 viewBox="0 0 600 600" style="enable-background:new 0 0 600 600;" xml:space="preserve">
<style type="text/css">
	.st0{fill:none;stroke:#F15A29;stroke-width:80;stroke-miterlimit:10;}
	.st1{filter:url(#AI_BevelShadow_1);}
	.st2{fill:none;stroke:#FFFFFF;stroke-width:15;stroke-miterlimit:10;}
	.st3{filter:url(#AI_Shadow_2);}
	.st4{fill:#4EB4A9;}
	.st5{fill:#02A9B2;stroke:#1D8278;stroke-width:25;stroke-miterlimit:10;}
	.st6{fill:#20535C;}
	.st7{font-family:'ArialRoundedMTBold';}
	.st8{font-size:88.3665px;}
</style>
<filter  filterUnits="objectBoundingBox" height="130%" id="AI_Shadow_2" width="140%" x="-15%" y="-15%">
	<feGaussianBlur  in="SourceAlpha" result="blur" stdDeviation="6"></feGaussianBlur>
	<feOffset  dx="8" dy="8" in="blur" result="offsetBlurredAlpha"></feOffset>
	<feMerge>
		<feMergeNode  in="offsetBlurredAlpha"></feMergeNode>
		<feMergeNode  in="SourceGraphic"></feMergeNode>
	</feMerge>
</filter>
<filter  height="140%" id="AI_BevelShadow_1" width="140%" x="-20%" y="-20%">
	<feGaussianBlur  in="SourceAlpha" result="blur" stdDeviation="4"></feGaussianBlur>
	<feOffset  dx="4" dy="4" in="blur" result="offsetBlur"></feOffset>
	
		<feSpecularLighting  in="blur" result="specOut" specularConstant="1" specularExponent="10" style="lighting-color:white" surfaceScale="5">
		<fePointLight  x="-5000" y="-10000" z="-20000"></fePointLight>
	</feSpecularLighting>
	<feComposite  in="specOut" in2="SourceAlpha" operator="in" result="specOut"></feComposite>
	<feComposite  in="SourceGraphic" in2="specOut" k1="0" k2="1" k3="1" k4="0" operator="arithmetic" result="litPaint">
		</feComposite>
	<feMerge>
		<feMergeNode  in="offsetBlur"></feMergeNode>
		<feMergeNode  in="litPaint"></feMergeNode>
	</feMerge>
</filter>
<path class="st0" d="M31.37,386.84C382.61,550.37,485.72,260.69,494.23,55.16"/>
<g class="st1">
	<path class="st2" d="M31.37,386.84C303.99,510.65,483.89,368.2,500,55.16"/>
</g>
<g class="st3">
	<path class="st4" d="M308.4,353.75c61-30.48,131.82-65.19,131.82-65.19l-38.6,155.03"/>
</g>
<path class="st5" d="M32.75,388.86c2.12,0.7,3.24-0.84,3.24-0.84s0.38-1.47-1.64-2.16s-2.98,0.98-2.98,0.98
	S30.82,388.24,32.75,388.86z"/>
<path class="st5" d="M290.2,422.23c2.12,0.7,3.24-0.84,3.24-0.84s0.38-1.47-1.64-2.16c-2.02-0.7-2.98,0.98-2.98,0.98
	S288.28,421.61,290.2,422.23z"/>
<path class="st5" d="M497.61,58.33c2.12,0.7,3.24-0.84,3.24-0.84s0.38-1.47-1.64-2.16c-2.02-0.7-2.98,0.98-2.98,0.98
	S495.69,57.7,497.61,58.33z"/>
<text transform="matrix(1.0292 0 0 1 544.126 108.5254)" class="st6 st7 st8">3</text>
<path class="st5" d="M462.38,242.43c2.12,0.7,3.24-0.84,3.24-0.84s0.38-1.47-1.64-2.16c-2.02-0.7-2.98,0.98-2.98,0.98
	S460.46,241.8,462.38,242.43z"/>
<text transform="matrix(1.0292 0 0 1 516.4746 309.3174)" class="st6 st7 st8">2</text>
<text transform="matrix(1.0292 0 0 1 298.4087 545.2158)" class="st6 st7 st8">1</text>
<text transform="matrix(1.0292 0 0 1 0 518.9111)" class="st6 st7 st8">0</text>
</svg>
