<?xml version="1.0" encoding="UTF-8" standalone="no"?>
<!-- Created with Inkscape (http://www.inkscape.org/) -->

<svg
   xmlns:dc="http://purl.org/dc/elements/1.1/"
   xmlns:cc="http://creativecommons.org/ns#"
   xmlns:rdf="http://www.w3.org/1999/02/22-rdf-syntax-ns#"
   xmlns:svg="http://www.w3.org/2000/svg"
   xmlns="http://www.w3.org/2000/svg"
   xmlns:sodipodi="http://sodipodi.sourceforge.net/DTD/sodipodi-0.dtd"
   xmlns:inkscape="http://www.inkscape.org/namespaces/inkscape"
   width="5.4178662mm"
   height="5.1940732mm"
   viewBox="0 0 5.4178662 5.1940732"
   version="1.1"
   id="svg8"
   inkscape:version="0.92.4 (5da689c313, 2019-01-14)"
   sodipodi:docname="WFC_Draw_Sample.svg">
  <defs
     id="defs2">
    <inkscape:perspective
       id="perspective3766"
       inkscape:persp3d-origin="20.426203 : -8.0726015 : 1"
       inkscape:vp_z="53.393 : 2.129235 : 1"
       inkscape:vp_y="0 : 768.49442 : 0"
       inkscape:vp_x="-13.075135 : -5.2206776 : 1"
       sodipodi:type="inkscape:persp3d" />
    <inkscape:perspective
       id="perspective3766-6"
       inkscape:persp3d-origin="20.426203 : -8.0726015 : 1"
       inkscape:vp_z="53.393 : 2.129235 : 1"
       inkscape:vp_y="0 : 768.49442 : 0"
       inkscape:vp_x="-13.075135 : -5.2206776 : 1"
       sodipodi:type="inkscape:persp3d" />
  </defs>
  <sodipodi:namedview
     id="base"
     pagecolor="#ffffff"
     bordercolor="#666666"
     borderopacity="1.0"
     inkscape:pageopacity="0.0"
     inkscape:pageshadow="2"
     inkscape:zoom="22.4"
     inkscape:cx="14.496726"
     inkscape:cy="7.7951181"
     inkscape:document-units="mm"
     inkscape:current-layer="layer1"
     showgrid="false"
     inkscape:window-width="1920"
     inkscape:window-height="1027"
     inkscape:window-x="-8"
     inkscape:window-y="-8"
     inkscape:window-maximized="1" />
  <metadata
     id="metadata5">
    <rdf:RDF>
      <cc:Work
         rdf:about="">
        <dc:format>image/svg+xml</dc:format>
        <dc:type
           rdf:resource="http://purl.org/dc/dcmitype/StillImage" />
        <dc:title></dc:title>
      </cc:Work>
    </rdf:RDF>
  </metadata>
  <g
     inkscape:label="Layer 1"
     inkscape:groupmode="layer"
     id="layer1"
     transform="translate(-181.93245,-262.40289)">
    <text
       xml:space="preserve"
       style="font-style:normal;font-weight:normal;font-size:2.03674388px;line-height:1.25;font-family:sans-serif;letter-spacing:0px;word-spacing:0px;fill:#000000;fill-opacity:1;stroke:none;stroke-width:0.05091859"
       x="182.15015"
       y="267.29944"
       id="text98"><tspan
         sodipodi:role="line"
         id="tspan96"
         x="182.15015"
         y="267.29944"
         style="font-style:normal;font-variant:normal;font-weight:normal;font-stretch:normal;font-family:'Eras Bold ITC';-inkscape-font-specification:'Eras Bold ITC';fill:#000000;stroke-width:0.05091859">WFC</tspan></text>
    <path
       style="fill:#00aab2;fill-opacity:1;stroke-width:0.01513361"
       d="m 184.88977,265.81116 c -0.0596,-0.0156 -0.1345,-0.0418 -0.16656,-0.0581 -0.14528,-0.0741 -0.30494,-0.0926 -0.93588,-0.10855 -0.71866,-0.0181 -0.75973,-0.0349 -0.60334,-0.24592 0.0965,-0.13025 0.1772,-0.30166 0.24916,-0.52926 0.10632,-0.33627 0.28507,-0.51152 0.58498,-0.57342 0.10608,-0.0219 0.21996,-0.12739 0.60603,-0.5612 0.26195,-0.29433 0.52399,-0.529 0.91781,-0.82192 0.88354,-0.6572 0.97246,-0.64296 0.47282,0.0758 -0.38399,0.55234 -0.55351,0.75228 -1.07139,1.26365 -0.4368,0.43131 -0.4368,0.43131 -0.45222,0.53211 -0.037,0.24223 -0.12368,0.43458 -0.26041,0.57828 -0.0478,0.0501 -0.0851,0.0929 -0.0831,0.095 0.0568,0.0568 0.77397,0.0511 0.94115,-0.007 0.16798,-0.0588 0.31247,-0.0775 0.46158,-0.0598 0.0624,0.007 0.25992,0.0183 0.43887,0.0241 0.28691,0.009 0.33149,0.0142 0.37712,0.041 0.14102,0.0829 0.0455,0.1137 -0.39982,0.12945 -0.486,0.0171 -0.63768,0.059 -0.63349,0.17492 0.004,0.091 -0.20146,0.11476 -0.44331,0.0514 z m -1.19205,-0.37074 c 0.33174,-0.0635 0.53598,-0.27417 0.60636,-0.62556 0.0298,-0.14849 -0.12816,-0.36296 -0.25157,-0.3417 -0.21666,0.0374 -0.37132,0.19057 -0.44816,0.44405 -0.0492,0.16212 -0.11834,0.33017 -0.18321,0.44497 -0.0275,0.0487 -0.05,0.0912 -0.05,0.0946 0,0.015 0.22027,0.004 0.32657,-0.0164 z m 0.86443,-0.99528 c 0.1386,-0.13999 0.1386,-0.13999 0.0327,-0.2523 -0.10597,-0.1123 -0.10597,-0.1123 -0.25215,0.034 -0.14621,0.14621 -0.14621,0.14621 -0.0409,0.25231 0.12764,0.12862 0.0953,0.13283 0.26043,-0.034 z"
       id="path3920-3"
       inkscape:connector-curvature="0" />
    <path
       style="fill:#ff6600;stroke-width:0.05719789;fill-opacity:1"
       d="M 16.496094,0.12109375 C 16.230705,0.07855517 15.31226,0.68578162 13.642578,1.9277344 12.154125,3.0348336 11.163875,3.9227279 10.173828,5.0351562 8.7146659,6.6747531 8.2837448,7.0734783 7.8828125,7.15625 6.7492944,7.3902028 6.0737144,8.0513239 5.671875,9.3222656 5.3999002,10.182486 5.0951932,10.831935 4.7304688,11.324219 c -0.5224756,0.704986 -0.3521351,0.83213 1.5449218,0.90039 1.2600517,-0.216234 1.8623538,-0.510147 2.1054688,-0.675781 -0.0012,-0.0011 -0.00674,-8.76e-4 -0.00781,-0.002 C 8.3654878,11.538938 8.5068386,11.376854 8.6875,11.1875 9.2042748,10.644382 9.5320325,9.9174681 9.671875,9.0019531 9.7301553,8.6209767 9.7299617,8.6203824 11.380859,6.9902344 13.338201,5.0574974 13.978387,4.302428 15.429688,2.2148438 16.373889,0.85655714 16.761483,0.16363233 16.496094,0.12109375 Z M 9.6425781,6.4648438 C 9.7617041,6.4487808 9.8622417,6.5534045 10.0625,6.765625 10.462752,7.1901037 10.463296,7.1916071 9.9394531,7.7207031 9.3153397,8.3512417 9.437497,8.3337791 8.9550781,7.8476562 8.5570561,7.4466484 8.5567703,7.447136 9.109375,6.8945312 9.3856207,6.6180588 9.5234521,6.4809067 9.6425781,6.4648438 Z M 8.0136719,7.8261719 C 8.4801034,7.7458191 9.0774737,8.5559655 8.9648438,9.1171875 8.6988406,10.445276 7.9256955,11.242422 6.671875,11.482422 v -0.002 c -0.4017638,0.0771 -1.234375,0.119193 -1.234375,0.0625 0,-0.01285 0.085516,-0.173359 0.1894531,-0.357422 0.245178,-0.43389 0.5074066,-1.068904 0.6933594,-1.6816408 0.2904189,-0.9580346 0.8744869,-1.53638 1.6933594,-1.6777343 z"
       transform="matrix(0.26458333,0,0,0.26458333,181.93245,262.40289)"
       id="path3920"
       inkscape:connector-curvature="0"
       sodipodi:nodetypes="sccccccccccccssccccsccccsccc" />
    <path
       style="fill:#ff6600;fill-opacity:1;stroke:none;stroke-width:0.26458332px;stroke-linecap:butt;stroke-linejoin:miter;stroke-opacity:1"
       d="m 183.84595,264.46685 -0.2067,0.16536 -0.11221,0.23624 -0.14765,0.24214 -0.0472,0.28348 -0.0709,0.10631 0.15946,0.065 0.41341,-0.0118 0.33073,-0.25395 0.18308,-0.23624 0.065,-0.3071 -0.0886,-0.1949 -0.19482,-0.20001 z"
       id="path4782"
       inkscape:connector-curvature="0"
       sodipodi:nodetypes="cccccccccccccc" />
  </g>
</svg>
