<?xml version="1.0" encoding="UTF-8" standalone="no"?>
<!-- Created with Inkscape (http://www.inkscape.org/) -->

<svg
   xmlns:dc="http://purl.org/dc/elements/1.1/"
   xmlns:cc="http://creativecommons.org/ns#"
   xmlns:rdf="http://www.w3.org/1999/02/22-rdf-syntax-ns#"
   xmlns:svg="http://www.w3.org/2000/svg"
   xmlns="http://www.w3.org/2000/svg"
   xmlns:sodipodi="http://sodipodi.sourceforge.net/DTD/sodipodi-0.dtd"
   xmlns:inkscape="http://www.inkscape.org/namespaces/inkscape"
   width="90.300339mm"
   height="85.08136mm"
   viewBox="0 0 90.300339 85.08136"
   version="1.1"
   id="svg8"
   inkscape:version="0.92.4 (5da689c313, 2019-01-14)"
   sodipodi:docname="worldcomposition_prepare.svg">
  <defs
     id="defs2" />
  <sodipodi:namedview
     id="base"
     pagecolor="#ffffff"
     bordercolor="#666666"
     borderopacity="1.0"
     inkscape:pageopacity="0.0"
     inkscape:pageshadow="2"
     inkscape:zoom="0.98994949"
     inkscape:cx="27.998061"
     inkscape:cy="148.74915"
     inkscape:document-units="mm"
     inkscape:current-layer="layer1"
     showgrid="false"
     inkscape:window-width="1920"
     inkscape:window-height="1027"
     inkscape:window-x="-8"
     inkscape:window-y="-8"
     inkscape:window-maximized="1">
    <sodipodi:guide
       position="-245.74522,-100.41982"
       orientation="0,793.70079"
       id="guide4543"
       inkscape:locked="false" />
    <sodipodi:guide
       position="-35.745225,-100.41982"
       orientation="-1122.5197,0"
       id="guide4545"
       inkscape:locked="false" />
    <sodipodi:guide
       position="-35.745225,196.58017"
       orientation="0,-793.70079"
       id="guide4547"
       inkscape:locked="false" />
    <sodipodi:guide
       position="-245.74522,196.58017"
       orientation="1122.5197,0"
       id="guide4549"
       inkscape:locked="false" />
  </sodipodi:namedview>
  <metadata
     id="metadata5">
    <rdf:RDF>
      <cc:Work
         rdf:about="">
        <dc:format>image/svg+xml</dc:format>
        <dc:type
           rdf:resource="http://purl.org/dc/dcmitype/StillImage" />
        <dc:title></dc:title>
      </cc:Work>
    </rdf:RDF>
  </metadata>
  <g
     inkscape:label="Layer 1"
     inkscape:groupmode="layer"
     id="layer1"
     transform="translate(-245.74523,-111.49882)">
    <path
       inkscape:connector-curvature="0"
       id="path4535"
       d="m 290.54261,196.38625 c -0.29104,-0.10999 -4.81541,-3.22523 -10.05416,-6.92276 -5.23875,-3.69753 -10.4775,-7.34808 -11.64167,-8.11233 -1.16417,-0.76426 -6.84725,-4.72974 -12.62906,-8.81218 -10.5124,-7.42262 -10.5124,-7.42262 -10.40695,-8.67495 0.10211,-1.21257 0.45496,-1.49881 11.11464,-9.01632 6.05505,-4.2702 11.01599,-7.95839 11.02431,-8.19597 0.008,-0.23759 -2.60835,-2.29001 -5.81481,-4.56094 -3.79166,-2.68538 -5.89891,-4.40379 -6.02722,-4.91503 -0.10851,-0.43234 -0.0406,-1.07867 0.15092,-1.43629 0.19152,-0.35762 7.85733,-5.95511 17.03514,-12.43887 11.55296,-8.16172 16.96834,-11.78866 17.60164,-11.78866 0.63331,0 6.04869,3.62694 17.60165,11.78866 9.1778,6.48376 16.84361,12.08125 17.03513,12.43887 0.19152,0.35762 0.25944,1.00395 0.15093,1.43629 -0.12831,0.51124 -2.23557,2.22965 -6.02722,4.91503 -3.20646,2.27093 -5.82312,4.32335 -5.81481,4.56094 0.008,0.23758 4.96925,3.92577 11.02431,8.19597 10.65967,7.51751 11.01253,7.80375 11.11463,9.01632 0.10546,1.25233 0.10546,1.25233 -10.40694,8.74029 -5.78182,4.11837 -15.5924,11.111 -21.80129,15.53917 -6.20888,4.42818 -11.60639,8.13932 -11.99444,8.24698 -0.38806,0.10767 -0.94368,0.10577 -1.23473,-0.004 z"
       style="fill:#e15a01;stroke-width:0.35277778" />
    <path
       inkscape:connector-curvature="0"
       id="path4533"
       d="m 290.54261,196.38625 c -0.29104,-0.10999 -4.81541,-3.22523 -10.05416,-6.92276 -5.23875,-3.69753 -10.4775,-7.34808 -11.64167,-8.11233 -1.16417,-0.76426 -6.84725,-4.72974 -12.62906,-8.81218 -10.5124,-7.42262 -10.5124,-7.42262 -10.40695,-8.67495 0.10211,-1.21257 0.45496,-1.49881 11.11464,-9.01632 6.05505,-4.2702 11.01599,-7.95839 11.02431,-8.19597 0.008,-0.23759 -2.60835,-2.29001 -5.81481,-4.56094 -3.79166,-2.68538 -5.89891,-4.40379 -6.02722,-4.91503 -0.10851,-0.43234 -0.0406,-1.07867 0.15092,-1.43629 0.19152,-0.35762 7.85733,-5.95511 17.03514,-12.43887 11.55296,-8.16172 16.96834,-11.78866 17.60164,-11.78866 0.63331,0 6.04869,3.62694 17.60165,11.78866 9.1778,6.48376 16.84361,12.08125 17.03513,12.43887 0.19152,0.35762 0.25944,1.00395 0.15093,1.43629 -0.12831,0.51124 -2.23557,2.22965 -6.02722,4.91503 -3.20646,2.27093 -5.82312,4.32335 -5.81481,4.56094 0.008,0.23758 4.96925,3.92577 11.02431,8.19597 10.65967,7.51751 11.01253,7.80375 11.11463,9.01632 0.10546,1.25233 0.10546,1.25233 -10.40694,8.74029 -5.78182,4.11837 -15.5924,11.111 -21.80129,15.53917 -6.20888,4.42818 -11.60639,8.13932 -11.99444,8.24698 -0.38806,0.10767 -0.94368,0.10577 -1.23473,-0.004 z m 15.21004,-49.30254 c 7.71883,-5.43278 14.03987,-10.1159 14.04676,-10.40695 0.007,-0.3023 -6.07261,-4.83093 -14.18116,-10.56311 -7.80653,-5.51867 -14.43182,-10.03394 -14.72286,-10.03394 -0.29104,0 -6.91633,4.51527 -14.72286,10.03394 -8.11232,5.73484 -14.18821,10.26067 -14.1809,10.56311 0.007,0.29105 6.39386,5.01974 14.19294,10.50822 8.83526,6.21767 14.43528,9.94088 14.857,9.87778 0.37227,-0.0557 6.99226,-4.54627 14.71108,-9.97905 z"
       style="fill:#009799;stroke-width:0.35277778" />
    <path
       inkscape:connector-curvature="0"
       id="path4531"
       d="m 279.85331,188.90815 c -5.74639,-4.06344 -10.77745,-7.56438 -11.18012,-7.77989 -0.40267,-0.2155 -5.60834,-3.83116 -11.56816,-8.0348 -5.95981,-4.20364 -10.95266,-7.80675 -11.09521,-8.00692 -0.14255,-0.20017 -0.26161,-0.78825 -0.26458,-1.30685 -0.005,-0.83781 1.25289,-1.83311 11.28348,-8.92939 6.20889,-4.39257 10.88799,-8.05399 10.88799,-8.19773 0,-0.14374 -2.15251,-2.11511 -5.27334,-4.31957 -3.12083,-2.20447 -5.92193,-4.38615 -6.22466,-4.84817 -0.44715,-0.68243 -0.47041,-0.98598 -0.12399,-1.61781 0.23454,-0.42777 7.83782,-6.01651 16.89619,-12.41942 14.05173,-9.93248 16.66285,-11.94878 17.71629,-11.94878 1.05349,0 3.64007,2.0159 17.69057,11.94878 9.05721,6.40291 16.66049,11.99165 16.89619,12.41942 0.35006,0.63532 0.32506,0.93569 -0.13651,1.64013 -0.31078,0.47431 -3.2147,2.52105 -6.22995,4.85082 -2.99042,2.31058 -5.30414,4.11858 -5.24091,4.30827 0.0632,0.18969 4.83658,3.92351 10.98514,8.26676 9.95124,7.02938 11.17863,8.00077 11.17382,8.8432 -0.003,0.52052 -0.12203,1.1114 -0.26458,1.31307 -0.14255,0.20167 -4.30731,3.20773 -9.25502,6.68013 -4.94771,3.4724 -10.18646,7.2199 -11.64167,8.32779 -1.4552,1.10789 -7.15903,5.2059 -12.67517,9.10668 -6.97719,4.93398 -10.39869,7.37631 -11.0521,7.37631 -0.65464,0 -4.02157,-2.52263 -11.3037,-7.67203 z m 20.83167,-3.45082 c 4.51114,-3.18478 8.19969,-5.97796 8.19678,-6.20707 -0.003,-0.2291 -3.8311,-3.1153 -8.50706,-6.41377 -4.67597,-3.29848 -8.71403,-6.04707 -8.97348,-6.108 -0.25943,-0.0609 -4.32907,2.61131 -9.04363,5.9383 -4.95528,3.49687 -8.57192,6.28164 -8.57192,6.60026 0,0.31872 3.64102,3.12076 8.63326,6.64396 7.49807,5.29164 8.72732,6.04308 9.34861,5.71481 0.39344,-0.20789 4.40629,-2.98371 8.91744,-6.16849 z m -22.46515,-15.02151 c 4.74024,-3.35765 8.61862,-6.28731 8.61862,-6.51034 0,-0.22303 -3.94723,-3.19086 -8.77163,-6.59517 -4.82439,-3.40431 -8.81466,-6.18966 -8.86726,-6.18966 -0.0526,0 -4.04287,2.78535 -8.86726,6.18966 -4.8244,3.40431 -8.77163,6.37214 -8.77163,6.59517 0,0.22303 3.87838,3.15269 8.61861,6.51034 4.74024,3.35766 8.79937,6.10483 9.02028,6.10483 0.22091,0 4.28004,-2.74717 9.02027,-6.10483 z m 43.39167,0 c 4.74024,-3.35765 8.61862,-6.28731 8.61862,-6.51034 0,-0.22303 -3.95028,-3.19301 -8.77841,-6.59995 -8.77841,-6.19445 -8.77841,-6.19445 -9.75383,-5.5723 -0.53648,0.34218 -4.48002,3.08277 -8.76341,6.0902 -4.8317,3.3924 -7.75657,5.6662 -7.70522,5.99005 0.0455,0.2871 3.9613,3.26366 8.70171,6.61458 4.74042,3.35093 8.71862,6.09259 8.84044,6.09259 0.12182,0 4.09987,-2.74717 8.8401,-6.10483 z m -15.85885,-23.35211 c 7.71883,-5.43278 14.03987,-10.1159 14.04676,-10.40695 0.007,-0.3023 -6.07261,-4.83093 -14.18116,-10.56311 -7.80653,-5.51867 -14.43182,-10.03394 -14.72286,-10.03394 -0.29104,0 -6.91633,4.51527 -14.72286,10.03394 -8.11232,5.73484 -14.18821,10.26067 -14.1809,10.56311 0.007,0.29105 6.39386,5.01974 14.19295,10.50822 8.83526,6.21767 14.43527,9.94088 14.85699,9.87778 0.37227,-0.0557 6.99226,-4.54627 14.71108,-9.97905 z"
       style="fill:#383f3e;stroke-width:0.35277778"
       sodipodi:nodetypes="scsscsscscsssscscccsscsssccsccsccccsssssssccsccscsscscssscscs" />
  </g>
</svg>
